<svg xmlns="http://www.w3.org/2000/svg" width="125.529" height="125.53" viewBox="0 0 125.529 125.53">
  <g id="Grupo_1516" data-name="Grupo 1516" transform="translate(-3280.196 -14469.477)">
    <path id="Trazado_5265" data-name="Trazado 5265" d="M3405.725,14532.243a62.765,62.765,0,1,1-62.765-62.767A62.765,62.765,0,0,1,3405.725,14532.243Z" fill="#a3bd31"/>
    <g id="Grupo_647" data-name="Grupo 647">
      <path id="Trazado_5266" data-name="Trazado 5266" d="M3392.312,14553.8h-98.7l12.3-21.248,6.02,5.033,3.181-13.422h8.484l2.447-11.18,18.373-8.392,3.173,9.509,10.366,1.116,9.021,11.745,10.4-1.117,10.512,21.248Z" fill="#8e8e8a"/>
      <rect id="Rectángulo_137" data-name="Rectángulo 137" width="22.063" height="22.81" transform="translate(3332.166 14530.99)" fill="#45362d"/>
      <g id="Grupo_643" data-name="Grupo 643">
        <path id="Trazado_5267" data-name="Trazado 5267" d="M3334.234,14553.384c-.063,1.269-3.389.861-3.435.142-.06-.909-.121-1.7-.121-3.809,0-6,0-12.225,0-18.222.111-1.779,3.084-.962,3.111-.335.046.993-.111,3.112-.111,4.108,0,3.224.333,6.56.224,9.78C3333.9,14547.935,3334.375,14550.5,3334.234,14553.384Z" fill="#d5caa2"/>
        <path id="Trazado_5268" data-name="Trazado 5268" d="M3351.786,14531.238c.063-1.271,3.389-.861,3.436-.142.061.906.121,1.7.121,3.8,0,6,0,12.226,0,18.226-.11,1.776-3.083.958-3.111.332-.046-.993.111-3.109.111-4.11,0-3.223-.333-6.559-.224-9.778C3352.119,14536.685,3351.646,14534.124,3351.786,14531.238Z" fill="#d9ce9f"/>
        <path id="Trazado_5269" data-name="Trazado 5269" d="M3334.058,14536.586a.665.665,0,0,1-.942.015l-.749-.726a.666.666,0,0,1-.015-.941l4.377-4.52a.666.666,0,0,1,.943-.015l.749.726a.666.666,0,0,1,.015.941Z" fill="#d5caa2"/>
        <path id="Trazado_5270" data-name="Trazado 5270" d="M3348.285,14532.186a.666.666,0,0,1,.1-.938l.809-.652a.667.667,0,0,1,.939.1l3.947,4.9a.665.665,0,0,1-.1.936l-.811.653a.667.667,0,0,1-.938-.1Z" fill="#d5caa2"/>
        <path id="Trazado_5271" data-name="Trazado 5271" d="M3356.22,14531.7c-.667.093-.916.011-1.581.054-1.5.117-2.691-.033-4.377-.043-2.812-.018-5.79-.116-8.584-.116-2.083,0-4.248-.023-6.333.116-.833.067-1.627.043-2.46.067-.5.022-1,.14-1.456.116a3.465,3.465,0,0,1-1.917-.674c-.167-.234.083-.648,0-.905a5.907,5.907,0,0,1-.218-1.354h0l.075-.382s0,0,0,0a4.942,4.942,0,0,1,1.888-.261c1.085-.069,2.167-.069,3.251-.049,2.374.049,4.54,0,6.873.165,2.5.2,5.189.22,7.773.22,1.25,0,2.52.118,3.771.023.876-.1,1.789-.127,2.665-.149,1.624-.024,1.417.765,1.417,1.417,0,.37.335.628.334,1.021C3357.384,14531.49,3356.927,14531.605,3356.22,14531.7Z" fill="#f4e1b1"/>
      </g>
      <g id="Grupo_644" data-name="Grupo 644" opacity="0.55">
        <path id="Trazado_5272" data-name="Trazado 5272" d="M3355.345,14533.726c-.862.039-1.692.163-2.543.266-.325.06-.65.1-.975.135a14.411,14.411,0,0,1-1.862.135l-1.674-2.072a.642.642,0,0,1-.132-.511c.706.021,1.413.032,2.111.032.248,0,.478.007.707.016l.8.994c-.008-.323-.008-.647.01-.974a23.213,23.213,0,0,0,2.857.009c.259-.017.458-.017.63-.017C3355.3,14532.255,3355.334,14532.835,3355.345,14533.726Z" fill="#916f5d"/>
      </g>
      <path id="Trazado_5273" data-name="Trazado 5273" d="M3338.631,14531.6a.7.7,0,0,1-.189.47l-1.243,1.279a4.4,4.4,0,0,0-2.408.105c-.363.123-.717.219-1.052.308-.1.026-.2.047-.3.074a10.9,10.9,0,0,1-2.742.242v-2.316a3.319,3.319,0,0,0,.746.137c.458.016.953-.1,1.461-.124.305-.013.612-.013.907-.013,0,.508-.028,1.139-.056,1.739l1.748-1.8C3336.53,14531.631,3337.58,14531.614,3338.631,14531.6Z" fill="#916f5d" opacity="0.55"/>
      <path id="Trazado_5274" data-name="Trazado 5274" d="M3335.932,14554.2l-2.867-5.416-2.11,1.192-2.388-1.91-6.568,2.786-3.224-1.752-7.763,5.1Z" fill="#c4c1b8"/>
      <path id="Trazado_5275" data-name="Trazado 5275" d="M3351.76,14554.2l1.451-5.294,1.354.4,2.586-1.073,4.221,2.308,1,1.513,2.787-1.513,5.376,3.662Z" fill="#c4c1b8"/>
      <path id="Trazado_5276" data-name="Trazado 5276" d="M3381.677,14550.219l-6.689-21.02,1.749,13.193-8.753-12.314-3.668,2.7-6.967-15.6-10.864-2.549-4.06,1.986,1.986-12.021,3.173,9.509,10.366,1.116,9.021,11.745,10.4-1.117,10.512,21.248,4.424,6.707Z" fill="#916f5d" opacity="0.55"/>
      <path id="Trazado_5277" data-name="Trazado 5277" d="M3315.107,14524.164l4.3,2.327,1.513,7.4,2.668-9.726Z" fill="#916f5d" opacity="0.55"/>
      <path id="Trazado_5278" data-name="Trazado 5278" d="M3305.906,14532.553l.367,11.136,5.653-6.1Z" fill="#916f5d" opacity="0.55"/>
      <g id="Grupo_645" data-name="Grupo 645" opacity="0.55">
        <path id="Trazado_5279" data-name="Trazado 5279" d="M3357.881,14533.274c-.393.478-.631.075-.956.957a4.382,4.382,0,0,0-.077,1.434c0,.954.163,1.91.239,2.864.078,2.063.078,4.214.078,6.29,0,.973-.051,2.206.028,3.429l-.028-.021-1.807.756V14534.9c0-1.617-.039-2.456-.078-3.165a4.7,4.7,0,0,0,.957-.039c.707-.094,1.166-.209,1.117-.734.011-.391-.324-.647-.324-1.023,0-.094.008-.21.008-.3C3358.74,14529.938,3358.96,14532.2,3357.881,14533.274Z" fill="#916f5d"/>
      </g>
      <rect id="Rectángulo_138" data-name="Rectángulo 138" width="1.543" height="4.379" transform="translate(3337.656 14552.847)" fill="#6f867f"/>
      <rect id="Rectángulo_139" data-name="Rectángulo 139" width="1.543" height="4.379" transform="translate(3347.677 14552.847)" fill="#6f867f"/>
      <g id="Grupo_646" data-name="Grupo 646">
        <path id="Trazado_5280" data-name="Trazado 5280" d="M3347.324,14551.89h-7.763l-.956-8.119h9.795Z" fill="#61756f"/>
        <rect id="Rectángulo_140" data-name="Rectángulo 140" width="10.946" height="1.274" transform="translate(3338.029 14543.133)" fill="#839f97"/>
        <rect id="Rectángulo_141" data-name="Rectángulo 141" width="10.022" height="1.193" transform="translate(3338.427 14551.295)" fill="#6f867f"/>
        <rect id="Rectángulo_142" data-name="Rectángulo 142" width="1.055" height="3.821" transform="translate(3337.899 14549.979)" fill="#839f97"/>
        <rect id="Rectángulo_143" data-name="Rectángulo 143" width="1.054" height="3.821" transform="translate(3347.922 14549.979)" fill="#839f97"/>
        <path id="Trazado_5281" data-name="Trazado 5281" d="M3339.123,14543.133l2.429-2.428,1,.8,1.632-.6,1.354-1.192,1.95,1.949.438,1.474Z" fill="#fcd114"/>
      </g>
      <rect id="Rectángulo_144" data-name="Rectángulo 144" width="8.479" height="1.471" transform="translate(3339.198 14553.205)" fill="#aa783d"/>
      <rect id="Rectángulo_145" data-name="Rectángulo 145" width="8.479" height="1.471" transform="translate(3339.198 14555.237)" fill="#aa783d"/>
      <path id="Trazado_5282" data-name="Trazado 5282" d="M3338.631,14544.406l.147.841,7.188,1.031.356,4.938,1.081.078.911-6.889Z" fill="#916f5d" opacity="0.55"/>
      <path id="Trazado_5283" data-name="Trazado 5283" d="M3342.426,14538.638l.293.538.539.295-.539.294-.293.538-.3-.538-.537-.294.537-.295Z" fill="#fff"/>
      <path id="Trazado_5284" data-name="Trazado 5284" d="M3339.4,14540.3l.173.314.314.17-.314.171-.173.316-.171-.316-.315-.171.315-.17Z" fill="#fff"/>
      <path id="Trazado_5285" data-name="Trazado 5285" d="M3346.763,14540.76l.18.329.33.182-.33.183-.18.327-.182-.327-.33-.183.33-.182Z" fill="#fff"/>
    </g>
  </g>
</svg>
