<svg xmlns="http://www.w3.org/2000/svg" width="125.644" height="125.644" viewBox="0 0 125.644 125.644">
  <g id="Grupo_1518" data-name="Grupo 1518" transform="translate(-3278.845 -14796.504)">
    <path id="Trazado_5315" data-name="Trazado 5315" d="M3404.489,14859.327a62.822,62.822,0,1,1-62.822-62.823A62.822,62.822,0,0,1,3404.489,14859.327Z" fill="#6eaa6f"/>
    <g id="Grupo_653" data-name="Grupo 653">
      <path id="Trazado_5316" data-name="Trazado 5316" d="M3346.593,14863.219l-7.225-5.953-8.726,5.091-5.2,7.584v5.922l-6.336,5.3-4.259,18.92,39.165-.014Z" fill="#624f51"/>
      <path id="Trazado_5317" data-name="Trazado 5317" d="M3318.9,14900.08l3.533-18.734,7.063-2.159,4.156-12.883h8.31l12.467-8.311,15.376,23.353,1.869,7.812v10.923Z" fill="#7d6467"/>
      <path id="Trazado_5318" data-name="Trazado 5318" d="M3363.366,14900.083h-32l.488-.916,2.749-12.091,12.555-4.569,1.822-2.438,12.438,10-1.787,5.325Z" fill="#6e585b"/>
      <g id="Grupo_651" data-name="Grupo 651">
        <path id="Trazado_5319" data-name="Trazado 5319" d="M3334.147,14874.457l-12.46-33.47,12.913-1.292,5.167,34.127Z" fill="#8fccbc"/>
        <path id="Trazado_5320" data-name="Trazado 5320" d="M3339.767,14873.822l5.348-5.827-2.674-38.077-7.84,9.777Z" fill="#76a5a3"/>
        <path id="Trazado_5321" data-name="Trazado 5321" d="M3321.687,14840.987l-6.087-8.67,14.639,37,3.907,5.136Z" fill="#75bbac"/>
        <path id="Trazado_5322" data-name="Trazado 5322" d="M3321.687,14840.987l3.413-17.664,9.5,16.372Z" fill="#97d1c5"/>
        <path id="Trazado_5323" data-name="Trazado 5323" d="M3342.44,14829.918l-17.341-6.595,9.5,16.372Z" fill="#75b5a9"/>
        <path id="Trazado_5324" data-name="Trazado 5324" d="M3315.6,14832.317l9.5-8.994-3.413,17.664Z" fill="#85c6b6"/>
        <path id="Trazado_5325" data-name="Trazado 5325" d="M3342.44,14829.918l-9.823-6.595H3325.1Z" fill="#76a5a3"/>
        <path id="Trazado_5326" data-name="Trazado 5326" d="M3315.6,14832.317l3.873-4.567,5.626-4.427Z" fill="#75ada6"/>
      </g>
      <g id="Grupo_652" data-name="Grupo 652">
        <path id="Trazado_5327" data-name="Trazado 5327" d="M3346.09,14872.688l9.273,1.135,5.866-22.519-13.057-2.462Z" fill="#8fccbc"/>
        <path id="Trazado_5328" data-name="Trazado 5328" d="M3355.363,14873.822l4.354-4.541,8.137-23.279-6.624,5.3Z" fill="#76a5a3"/>
        <path id="Trazado_5329" data-name="Trazado 5329" d="M3346.09,14872.688l-1.609-5.108,1.609-25.832,2.082,7.095Z" fill="#75bbac"/>
        <path id="Trazado_5330" data-name="Trazado 5330" d="M3361.229,14851.3l-4.162-12.869-8.9,10.407Z" fill="#97d1c5"/>
        <path id="Trazado_5331" data-name="Trazado 5331" d="M3367.853,14846l-6.624,5.3-4.162-12.869Z" fill="#75b5a9"/>
        <path id="Trazado_5332" data-name="Trazado 5332" d="M3346.09,14841.747l2.082,7.095,8.9-10.407Z" fill="#85c6b6"/>
        <path id="Trazado_5333" data-name="Trazado 5333" d="M3367.853,14846l-3.975-5.3-6.811-2.271Z" fill="#76a5a3"/>
        <path id="Trazado_5334" data-name="Trazado 5334" d="M3346.09,14841.747l4.967-2.793,6.011-.52Z" fill="#76a5a3"/>
      </g>
      <path id="Trazado_5335" data-name="Trazado 5335" d="M3334.149,14874.457l14.023,2.513,8.893,6.649,8.035-.97,3.325,17.431h3.253v-10.923l-1.869-7.812-9.349-14.2-.678,2.013-4.419,4.662-9.273-1.135-1.348-4.283-4.973,5.418Z" fill="#916f5d" opacity="0.55"/>
      <path id="Trazado_5336" data-name="Trazado 5336" d="M3325.8,14826.806l-1.733,6.849,7.561,5.067Z" fill="#fff" opacity="0.7"/>
      <path id="Trazado_5337" data-name="Trazado 5337" d="M3323.629,14841.994h0l14.857,29.765-3.886.466Z" fill="#fff" opacity="0.43"/>
      <path id="Trazado_5338" data-name="Trazado 5338" d="M3353.193,14844.869l3.316-3.882,1.455,8.383Z" fill="#fff" opacity="0.66"/>
      <path id="Trazado_5339" data-name="Trazado 5339" d="M3349.654,14850.407l-2.286,21.3,3.22.519Z" fill="#fff" opacity="0.43"/>
      <path id="Trazado_5340" data-name="Trazado 5340" d="M3365.757,14849.37l-6.649,19.374-2.041,2.182Z" fill="#668e8c"/>
      <path id="Trazado_5341" data-name="Trazado 5341" d="M3341.446,14833.89l-2.96,3.844,2.337,33.192Z" fill="#668e8c"/>
      <path id="Trazado_5342" data-name="Trazado 5342" d="M3351.578,14826.806l1.3,2.386,2.385,1.3-2.385,1.3-1.3,2.386-1.305-2.386-2.384-1.3,2.384-1.3Z" fill="#fff"/>
      <path id="Trazado_5343" data-name="Trazado 5343" d="M3331.629,14827.841l.734,1.344,1.342.733-1.342.735-.734,1.342-.734-1.342-1.342-.735,1.342-.733Z" fill="#fff" opacity="0.79"/>
      <path id="Trazado_5344" data-name="Trazado 5344" d="M3318.279,14817.7l.99,1.808,1.807.987-1.807.987-.99,1.808-.988-1.808-1.809-.987,1.809-.987Z" fill="#fff" opacity="0.83"/>
      <path id="Trazado_5345" data-name="Trazado 5345" d="M3361.805,14837.72l.839,1.532,1.531.839-1.531.835-.839,1.534-.836-1.534-1.533-.835,1.533-.839Z" fill="#fff" opacity="0.79"/>
      <path id="Trazado_5346" data-name="Trazado 5346" d="M3314.343,14837.97l1.068,1.951,1.951,1.066-1.951,1.065-1.068,1.952-1.067-1.952-1.951-1.065,1.951-1.066Z" fill="#fff"/>
    </g>
    <path id="Trazado_5347" data-name="Trazado 5347" d="M3401.549,14878.382a62.852,62.852,0,0,1-59.886,43.762c-1.663,0-3.3-.063-4.94-.193l-21.875-21.875h16.535l-.013.014h32l-.014-.014h8.32v-10.924l-1.871-7.8-9.337-14.2,7.39-21.142-3.985-5.3Z" fill="#bbb6c0" opacity="0.57"/>
  </g>
</svg>
