<svg xmlns="http://www.w3.org/2000/svg" width="125.643" height="125.644" viewBox="0 0 125.643 125.644">
  <g id="Grupo_1517" data-name="Grupo 1517" transform="translate(-3280.082 -14634.934)">
    <path id="Trazado_5287" data-name="Trazado 5287" d="M3405.725,14697.757a62.822,62.822,0,1,1-62.82-62.823A62.821,62.821,0,0,1,3405.725,14697.757Z" fill="#e6b54a"/>
    <g id="Grupo_650" data-name="Grupo 650">
      <path id="Trazado_5288" data-name="Trazado 5288" d="M3356.861,14702.948l7.42-3.507,3.9,2.052,5.565-1.105,2.094,5.932,4.678-.673,2.585,3.442,3.2-.24,3.45,8.412h-44.291l10.032-7.751Z" fill="#987a7e"/>
      <path id="Trazado_5289" data-name="Trazado 5289" d="M3386.353,14717.261h-40.895l10.032-7.755,1.367-6.562,7.423-3.5,3.9,2.049,5.566-1.107.016.056-3.272,5.287,2.568,3.559,4.348,1.534,2.173,3.454,4.348-1.216Z" fill="#8a8b95" opacity="0.21"/>
      <path id="Trazado_5290" data-name="Trazado 5290" d="M3365.746,14716.985h-52.589l-2.291-34.179h57.082Z" fill="#dd543f"/>
      <rect id="Rectángulo_146" data-name="Rectángulo 146" width="60.959" height="4.581" transform="translate(3308.928 14681.221)" fill="#fb6048"/>
      <rect id="Rectángulo_147" data-name="Rectángulo 147" width="60.253" height="5.417" transform="translate(3309.457 14714.276)" fill="#b3bebf"/>
      <g id="Grupo_648" data-name="Grupo 648">
        <path id="Trazado_5291" data-name="Trazado 5291" d="M3335.487,14716.985a8.633,8.633,0,1,1-8.633-8.634A8.632,8.632,0,0,1,3335.487,14716.985Z" fill="#e1e9ee"/>
        <path id="Trazado_5292" data-name="Trazado 5292" d="M3333.021,14716.985a6.167,6.167,0,1,1-6.167-6.167A6.166,6.166,0,0,1,3333.021,14716.985Z" fill="#becacb"/>
        <path id="Trazado_5293" data-name="Trazado 5293" d="M3332.051,14716.985a5.2,5.2,0,1,1-5.2-5.2A5.2,5.2,0,0,1,3332.051,14716.985Z" fill="#a7b1b4"/>
        <path id="Trazado_5294" data-name="Trazado 5294" d="M3329.056,14716.985a2.2,2.2,0,1,1-2.2-2.2A2.2,2.2,0,0,1,3329.056,14716.985Z" fill="#becacb"/>
        <path id="Trazado_5295" data-name="Trazado 5295" d="M3360.945,14716.985a8.633,8.633,0,1,1-8.633-8.634A8.632,8.632,0,0,1,3360.945,14716.985Z" fill="#e1e9ee"/>
        <path id="Trazado_5296" data-name="Trazado 5296" d="M3358.478,14716.985a6.167,6.167,0,1,1-6.166-6.167A6.166,6.166,0,0,1,3358.478,14716.985Z" fill="#becacb"/>
        <path id="Trazado_5297" data-name="Trazado 5297" d="M3357.507,14716.985a5.2,5.2,0,1,1-5.2-5.2A5.194,5.194,0,0,1,3357.507,14716.985Z" fill="#a7b1b4"/>
        <path id="Trazado_5298" data-name="Trazado 5298" d="M3354.515,14716.985a2.2,2.2,0,1,1-2.2-2.2A2.2,2.2,0,0,1,3354.515,14716.985Z" fill="#becacb"/>
      </g>
      <path id="Trazado_5299" data-name="Trazado 5299" d="M3330.85,14713.662a5.2,5.2,0,0,0-7.33,7.3,5.2,5.2,0,1,1,7.33-7.3Z" fill="#ccd8d9"/>
      <path id="Trazado_5300" data-name="Trazado 5300" d="M3356.3,14713.645a5.2,5.2,0,0,0-7.321,7.322,5.2,5.2,0,1,1,7.321-7.322Z" fill="#ccd8d9"/>
      <path id="Trazado_5301" data-name="Trazado 5301" d="M3329.554,14717.479a2.207,2.207,0,0,1-2.207,2.2,2.184,2.184,0,0,1-1.778-.916,2.094,2.094,0,0,0,1.288.425,2.2,2.2,0,0,0,2.2-2.2,2.147,2.147,0,0,0-.419-1.29A2.208,2.208,0,0,1,3329.554,14717.479Z" fill="#ccd8d9"/>
      <path id="Trazado_5302" data-name="Trazado 5302" d="M3355.007,14717.479a2.2,2.2,0,0,1-2.2,2.2,2.175,2.175,0,0,1-1.764-.9,2.163,2.163,0,0,0,1.273.408,2.205,2.205,0,0,0,2.205-2.2,2.173,2.173,0,0,0-.411-1.275A2.187,2.187,0,0,1,3355.007,14717.479Z" fill="#ccd8d9"/>
      <g id="Grupo_649" data-name="Grupo 649">
        <path id="Trazado_5303" data-name="Trazado 5303" d="M3373.135,14712.952a3.45,3.45,0,0,1-3.425,3.085v2.115a5.558,5.558,0,0,0,5.54-5.2Z" fill="#a7b1b4"/>
      </g>
      <path id="Trazado_5304" data-name="Trazado 5304" d="M3375.98,14712.952a1.778,1.778,0,1,1-1.778-1.777A1.778,1.778,0,0,1,3375.98,14712.952Z" fill="#878f91"/>
      <path id="Trazado_5305" data-name="Trazado 5305" d="M3335.5,14716.932v.056a8.535,8.535,0,0,1-.433,2.7,8.64,8.64,0,0,1-2.159,3.462,8.893,8.893,0,0,1-6.05,2.465h0l-2.535-2.465-1.557-1.556a6.174,6.174,0,0,0,9.644-1.906,6.177,6.177,0,0,0,0-5.415,5.963,5.963,0,0,0-.782-1.219Z" fill="#ccd8d9"/>
      <path id="Trazado_5306" data-name="Trazado 5306" d="M3360.952,14716.987a8.631,8.631,0,0,1-8.64,8.631h0l-2.474-2.465-1.3-1.306a6.085,6.085,0,0,0,3.786,1.306,6.158,6.158,0,0,0,5.54-3.462,6.168,6.168,0,0,0,0-5.415,5.3,5.3,0,0,0-.6-.979l.982.979Z" fill="#ccd8d9"/>
      <path id="Trazado_5307" data-name="Trazado 5307" d="M3367.2,14719.691h-6.672a8.632,8.632,0,0,0-1.535-8.2l1.969,1.959.823.823,2.711,2.711Z" fill="#ccd8d9"/>
      <path id="Trazado_5308" data-name="Trazado 5308" d="M3341.667,14719.691h-6.593a8.5,8.5,0,0,0,.436-2.7h.055l-.055-.056a8.65,8.65,0,0,0-.436-2.655,8.419,8.419,0,0,0-1.278-2.451l2.45,2.451,2.718,2.711Z" fill="#ccd8d9"/>
      <path id="Trazado_5309" data-name="Trazado 5309" d="M3367.768,14685.8l-.183,2.8-1.653,25.677h-4.158l-.823-.823V14688.6h-49.684l-.191-2.8Z" fill="#916f5d" opacity="0.15"/>
      <path id="Trazado_5310" data-name="Trazado 5310" d="M3312.976,14681.221l3.557-5.237,4.154,1.386,4.344-5.238h2.173l6.591-4.054,3.936,1.187,4.987-4.347,6.62,3.262,2.973-1.285,3.451,2.273,1.745,5.235,3.438-1.334,3.415,4.3,2.47,3.852Z" fill="#7d6467"/>
      <path id="Trazado_5311" data-name="Trazado 5311" d="M3342.719,14664.917l4.546,7.708,5.047-.692-1.094,4.25-8.5,1.382-1.877,3.656h25.988l-2.47-3.852-3.415-4.3-3.437,1.334-1.745-5.235-3.451-2.273-2.973,1.285Z" fill="#8a8b95" opacity="0.45"/>
      <rect id="Rectángulo_148" data-name="Rectángulo 148" width="67.196" height="2.237" transform="translate(3310.866 14725.691)" fill="#e1e9ee"/>
      <path id="Trazado_5312" data-name="Trazado 5312" d="M3354.517,14727.929l5.7-4.372,3.09,2.186,2.639-2.186,3.968-.98,3.214,3.016.355,2.337Z" fill="#7d6467"/>
      <path id="Trazado_5313" data-name="Trazado 5313" d="M3343.847,14727.929l-2.027-3.427h-3.861l-3.739,1.715-.508,1.712Z" fill="#7d6467"/>
    </g>
    <path id="Trazado_5314" data-name="Trazado 5314" d="M3403.405,14714.747a62.843,62.843,0,0,1-59.91,45.814l-32.634-32.632h67.2v-2.231h-4.915l-.012-.1-3.212-3.018-3.973.979-2.592,2.143h-.1l-3.031-2.143-2.786,2.143h-14.911l-.71-1.2h-3.857l-2.618,1.2h-19.888l-6-6.012h9.21a8.607,8.607,0,0,0,8.19,5.935,8.462,8.462,0,0,0,4.385-1.213,6.128,6.128,0,0,0,.607-.387c.192-.13.373-.271.529-.387.22-.182.4-.349.527-.478a.213.213,0,0,0,.053-.064,6.177,6.177,0,0,0,.542-.593.414.414,0,0,0,.09-.1,5.006,5.006,0,0,0,.426-.58,8.078,8.078,0,0,0,.426-.7c.012,0,0-.012,0-.012a5.914,5.914,0,0,0,.36-.749,5.762,5.762,0,0,0,.257-.672h9.056a8.622,8.622,0,0,0,8.2,5.935c.219,0,.425-.014.632-.027.128-.012.269-.024.4-.039a7.637,7.637,0,0,0,1.535-.321,6.249,6.249,0,0,0,.8-.3,7.782,7.782,0,0,0,1-.5c.167-.09.323-.193.464-.283a6.7,6.7,0,0,0,.695-.529,5.333,5.333,0,0,0,.529-.464.21.21,0,0,0,.053-.064,6.145,6.145,0,0,0,.542-.593.452.452,0,0,0,.09-.1,5.246,5.246,0,0,0,.426-.58c.154-.22.295-.466.426-.7v-.012a4.956,4.956,0,0,0,.347-.736.044.044,0,0,0,.013-.026,6.6,6.6,0,0,0,.257-.658h9.2v-1.533a5.551,5.551,0,0,0,3.006-.892h17.024l-3.444-8.409-3.2.232-2.592-3.443-4.681.684-2.063-5.869v-.013l-.027-.053v-.012l-5.558,1.11-1.38-.724.786-12.163.181-2.8h2.114v-4.578Z" fill="#bbb6c0" opacity="0.57"/>
  </g>
</svg>
