<svg xmlns="http://www.w3.org/2000/svg" xmlns:xlink="http://www.w3.org/1999/xlink" width="568.078" height="451.156" viewBox="0 0 568.078 451.156">
  <defs>
    <clipPath id="clip-path">
      <rect id="Rectángulo_173" data-name="Rectángulo 173" width="568.078" height="451.156" transform="translate(2250.743 4416.871)" fill="none"/>
    </clipPath>
  </defs>
  <g id="Grupo_958" data-name="Grupo 958" transform="translate(-2250.743 -4416.871)">
    <g id="Grupo_957" data-name="Grupo 957" clip-path="url(#clip-path)">
      <g id="Grupo_956" data-name="Grupo 956">
        <g id="Grupo_936" data-name="Grupo 936">
          <path id="Trazado_6517" data-name="Trazado 6517" d="M2582.034,5237.269H2452.119a14.462,14.462,0,0,1,0-28.925h129.915a14.462,14.462,0,0,1,0,28.925Z" fill="#d9d2d9"/>
        </g>
        <g id="Grupo_938" data-name="Grupo 938">
          <g id="Grupo_937" data-name="Grupo 937">
            <path id="Trazado_6518" data-name="Trazado 6518" d="M2577.063,5183.79a2.412,2.412,0,0,0,.513-1.98c-24.53-131.249-25.684-229-4.6-334.151a19.306,19.306,0,0,0-15.139-22.706,20.183,20.183,0,0,0-3.785-.36,19.3,19.3,0,0,0-18.9,15.5c-21.8,108.753-21.051,209.305,3.373,342.6a2.4,2.4,0,0,0,2.363,1.972h34.321A2.4,2.4,0,0,0,2577.063,5183.79Z" fill="#c39f8d"/>
            <path id="Trazado_6519" data-name="Trazado 6519" d="M2548.22,5204.161a14.435,14.435,0,0,0,14.174,11.642,14.186,14.186,0,0,0,2.819-.265,14.477,14.477,0,0,0,11.379-16.993c-1.181-5.906-2.29-8.124-3.4-13.884h-29.407C2545.184,5192.253,2546.678,5196.327,2548.22,5204.161Z" fill="#7c5c5f"/>
          </g>
          <path id="Trazado_6520" data-name="Trazado 6520" d="M2576.94,5197.752c.048.4.641,6.138-5.905,6.138-6.772,0-4.426-14.229-25.59-14.252-11.619,4.081-20.171,13.212-24.848,23.7a7.346,7.346,0,0,0,.216,6.361,5.56,5.56,0,0,0,4.847,3.1h46.761a8.482,8.482,0,0,0,6.8-3.622,11.267,11.267,0,0,0,1.963-8.293A38.737,38.737,0,0,0,2576.94,5197.752Z" fill="#ad694f"/>
        </g>
        <g id="Grupo_940" data-name="Grupo 940">
          <g id="Grupo_939" data-name="Grupo 939">
            <path id="Trazado_6521" data-name="Trazado 6521" d="M2508.969,5183.79a2.4,2.4,0,0,0,.513-1.977c-24.5-131.252-25.66-229-4.6-334.154a19.313,19.313,0,0,0-15.114-22.706,20.24,20.24,0,0,0-3.809-.36,19.322,19.322,0,0,0-18.9,15.5c-21.779,108.753-21.028,209.305,3.373,342.6a2.4,2.4,0,0,0,2.363,1.972h34.32A2.406,2.406,0,0,0,2508.969,5183.79Z" fill="#c39f8d"/>
            <path id="Trazado_6522" data-name="Trazado 6522" d="M2480.126,5204.161a14.461,14.461,0,1,0,28.372-5.616c-1.182-5.906-2.291-8.124-3.4-13.884h-29.408C2477.089,5192.253,2478.584,5196.327,2480.126,5204.161Z" fill="#7c5c5f"/>
          </g>
          <path id="Trazado_6523" data-name="Trazado 6523" d="M2508.853,5197.752c.052.4.645,6.138-5.9,6.138-6.772,0-4.425-14.229-25.589-14.252-11.62,4.081-20.172,13.212-24.849,23.7a7.343,7.343,0,0,0,.215,6.361,5.564,5.564,0,0,0,4.849,3.1h46.76a8.478,8.478,0,0,0,6.794-3.622,11.263,11.263,0,0,0,1.963-8.293A38.613,38.613,0,0,0,2508.853,5197.752Z" fill="#ad694f"/>
        </g>
        <g id="Grupo_941" data-name="Grupo 941">
          <path id="Trazado_6524" data-name="Trazado 6524" d="M2263.554,4649.5a4.011,4.011,0,0,1,.392-.922,2,2,0,0,0-1.184-2.938l-2.41-.686a4.4,4.4,0,0,1-2.969-5.47,4.481,4.481,0,0,1,.659-1.375,2.006,2.006,0,0,0-1.085-3.091l-1.475-.42a4.768,4.768,0,0,1,2.61-9.17l.662.188a1.673,1.673,0,0,0,2.108-1.882,4.8,4.8,0,0,1,.122-2.1,4.715,4.715,0,0,1,5.789-3.308c22.87,6.508,27.029,7.705,31.8,9.054a2.438,2.438,0,0,0,2.814-3.495,115.615,115.615,0,0,1-6.385-13.541,4.451,4.451,0,0,1,8.364-3.046,110.624,110.624,0,0,0,5.871,12.388,118.3,118.3,0,0,0,12.647,18.991c3.05,3.744,4.529,8.106,3.775,12.381-1.659,9.388-13.437,14.79-26.31,12.056-11.685-2.478,7.546,2.852-33.142-8.728A3.929,3.929,0,0,1,2263.554,4649.5Z" fill="#edc3c3"/>
          <path id="Trazado_6525" data-name="Trazado 6525" d="M2317.234,4639.13a10.847,10.847,0,1,0-14.995,15.677l10.973,10.5,15-15.677Z" fill="#edc3c3"/>
          <path id="Trazado_6526" data-name="Trazado 6526" d="M2404.143,4743.205a35.453,35.453,0,0,0,20.088-10.5,34.6,34.6,0,0,0,5.394-7.349l51.347-93.68a18.079,18.079,0,1,0-31.7-17.384l-50.74,92.594-57.97-55.449a2.339,2.339,0,0,0-3.306.073l-.883.923-2.5,2.614-14.995,15.677-2.5,2.613-.883.923a2.338,2.338,0,0,0,.074,3.305l58.876,56.315A35.4,35.4,0,0,0,2404.143,4743.205Z" fill="#725a65"/>
          <path id="Trazado_6527" data-name="Trazado 6527" d="M2333.869,4655.042l2.5-2.614-3.972-3.8a2.337,2.337,0,0,0-3.3.074l-.884.923-15,15.677-.882.923a2.338,2.338,0,0,0,.073,3.306l3.971,3.8,2.5-2.613Z" fill="#e6e4ea"/>
        </g>
        <g id="Grupo_943" data-name="Grupo 943">
          <g id="Grupo_942" data-name="Grupo 942">
            <path id="Trazado_6528" data-name="Trazado 6528" d="M2515.532,4640.506a18.953,18.953,0,0,1-12.379-19.051l4.6-69.652a18.954,18.954,0,1,1,37.825,2.5l-4.6,69.653a18.964,18.964,0,0,1-25.447,16.551Z" fill="#edc3c3"/>
          </g>
          <path id="Trazado_6529" data-name="Trazado 6529" d="M2543.609,4584.131l1.971-29.829a18.954,18.954,0,1,0-37.825-2.5l-2.657,40.224a90.55,90.55,0,0,0,22.4-2.556A97.594,97.594,0,0,0,2543.609,4584.131Z" fill="#dea2a8"/>
        </g>
        <g id="Grupo_953" data-name="Grupo 953">
          <path id="Trazado_6530" data-name="Trazado 6530" d="M2590.074,4516.453c5.2-29.153-17.271-57.541-50.183-63.406a66.337,66.337,0,0,0-14.826-.951c-15.028.728-29.325,6.656-39.5,16.313a53.387,53.387,0,0,0-11.784,16.932c-3.625,7.919-4.577,16.345-6.1,24.922-1.4,7.866-3.611,15.933-4.129,23.923a49.571,49.571,0,0,0,15.629,39.056c12.527,11.65,31.673,10.765,47.254,7.142a91.676,91.676,0,0,0,40.851-21.6A76.577,76.577,0,0,0,2589.8,4517.9C2589.9,4517.417,2589.989,4516.936,2590.074,4516.453Z" fill="#edc3c3"/>
          <g id="Grupo_944" data-name="Grupo 944">
            <path id="Trazado_6531" data-name="Trazado 6531" d="M2541.02,4513.007c-4.589-6.91-15.222-7.106-15.676-7.113a2.411,2.411,0,0,0-.055,4.821c.086,0,8.544.182,11.712,4.956a2.411,2.411,0,0,0,4.019-2.664Z" fill="#76392f"/>
            <path id="Trazado_6532" data-name="Trazado 6532" d="M2490.679,4499.716c-.43-.152-10.475-3.642-17.166,1.26a2.411,2.411,0,0,0,2.851,3.889c4.623-3.389,12.621-.636,12.7-.606a2.411,2.411,0,0,0,1.614-4.543Z" fill="#76392f"/>
            <path id="Trazado_6533" data-name="Trazado 6533" d="M2500.287,4546.245c-9.452-1.685-13.739.554-14.194.815a1.891,1.891,0,0,0,.619,3.5,1.932,1.932,0,0,0,1.232-.192c.035-.02,3.593-1.834,11.678-.393,7.977,1.421,10.721,4.3,10.813,4.4a1.9,1.9,0,0,0,2.883-2.463C2512.98,4551.51,2509.731,4547.927,2500.287,4546.245Z" fill="#c57c7f"/>
            <path id="Trazado_6534" data-name="Trazado 6534" d="M2481.263,4516.209h0a3.7,3.7,0,0,0-4.295,3l-.445,2.5a3.7,3.7,0,0,0,2.994,4.292l0,0a3.7,3.7,0,0,0,4.294-3l.444-2.491A3.705,3.705,0,0,0,2481.263,4516.209Z" fill="#4b2943"/>
            <path id="Trazado_6535" data-name="Trazado 6535" d="M2528.472,4524.623l0,0a3.7,3.7,0,0,0-4.295,3l-.443,2.491a3.7,3.7,0,0,0,7.292,1.3l.445-2.5A3.7,3.7,0,0,0,2528.472,4524.623Z" fill="#4b2943"/>
          </g>
          <path id="Trazado_6536" data-name="Trazado 6536" d="M2565.532,4458.923a1.015,1.015,0,0,1-.192-1.555c.638-.668,1.172-1.252,1.595-1.73a1.011,1.011,0,0,0-.581-1.666l-24.27-4.326-3.229-.575c-3.686-.607-7.188-1.011-10.526-1.24-11.509-.827-20.92.459-28.664,3.535-.022-.028-.026-.005-.058.04a40.107,40.107,0,0,0-6.087,2.977c-13.361,7.927-20.7,22.339-25.06,40.732-1.252,5.238-2.013,10.611-2.982,16.045-1.506,8.447-3.853,17.088-4.424,25.654a53.381,53.381,0,0,0,16.056,41.792c12.994,12.4,32.94,11.353,49.192,7.4,1.54-.387,3.081-.8,4.612-1.283.051-.017.1-.032.156-.046,1.366-.393,2.747-.857,4.1-1.326a.226.226,0,0,1,.133-.05c16.8-7.02,17.782-26.7,17.782-26.7,2.446-11.243,4.544-23.012,9.062-31.341,4.335-7.966,9.9-7.881,10.391-7.867l.022,0c4.595,1.015,9,3.612,9.46,13,.536,11.283-9.184,22.554-9.184,22.554s5.859-1.013,14.432-16.968a.174.174,0,0,0,.069-.109,84.2,84.2,0,0,0,5.317-17.2c.093-.522.209-1.038.3-1.56C2597.061,4494.09,2585.559,4471.6,2565.532,4458.923Zm-27.609,98.422a37.84,37.84,0,0,1-4.731,4.151c-9.865,7.4-22.38,9.623-38.278,6.79-11.511-2.051-19.566-9.189-24.143-18.551a42.961,42.961,0,0,1-3.008-8.249,50.3,50.3,0,0,1-1.318-16.931c.678-7.373,2.557-14.9,3.856-22.183.587-3.3,1.1-6.585,1.723-9.8,2.143-5.568,4.2-10.93,7.538-15.918a47.517,47.517,0,0,1,5.869-7.793,48.749,48.749,0,0,1,9.347-7.3,3.619,3.619,0,0,1,4.465.586c4.715,4.857,12.441,10.167,24.6,12.335,8.485,1.512,16.337-.379,23-3.5a3.886,3.886,0,0,1,4.735,1.147,19.275,19.275,0,0,1,3.658,11.158c.095,5.918-1.6,11.737-1.259,17.648a17.387,17.387,0,0,0,2.276,7.625,10.948,10.948,0,0,1,1.122,8.054C2552.822,4535.064,2546.531,4548.607,2537.923,4557.345Z" fill="#8a4831"/>
          <path id="Trazado_6537" data-name="Trazado 6537" d="M2525.163,4543.343a86.82,86.82,0,0,0-13.159-5.16c-2.712-.851-8.691-3.019-11.517-1.589-1.635-2.225-6.715-2.028-8.985-2.065a56.519,56.519,0,0,0-11.26.807c-3.72.684-9.79,2.05-12.479,6.15a8.022,8.022,0,0,0-1.24,3.11,29.9,29.9,0,0,0-.521,4.706,1.081,1.081,0,0,0,.525.9,1.233,1.233,0,0,0,1.079.118,11.01,11.01,0,0,1,3.165-.587,34.679,34.679,0,0,1,8.678.641c6.192,1.1,15.7-1.29,20.02-8.062,2.492,7.985,12.917,13.932,20.771,15.331,6.906,1.231,10.784,2.68,12.952,3.851a12.79,12.79,0,0,1,1.193.726,1.931,1.931,0,0,0,1.341.314,1.144,1.144,0,0,0,.969-.635,23.21,23.21,0,0,0,1.228-4.556l0-.024C2539.1,4550.747,2530.244,4545.888,2525.163,4543.343Z" fill="#76392f"/>
          <g id="Grupo_951" data-name="Grupo 951">
            <g id="Grupo_945" data-name="Grupo 945">
              <path id="Trazado_6538" data-name="Trazado 6538" d="M2488.736,4529.859a1.19,1.19,0,0,1-.614-.31,1.206,1.206,0,0,1-.05-1.7,10.533,10.533,0,0,0,2.756-5.374,10.833,10.833,0,0,0-1.715-7.85,1.206,1.206,0,0,1,2.015-1.324,13.245,13.245,0,0,1,2.073,9.6,12.92,12.92,0,0,1-3.377,6.607A1.2,1.2,0,0,1,2488.736,4529.859Z" fill="#ba495e"/>
            </g>
            <g id="Grupo_946" data-name="Grupo 946">
              <path id="Trazado_6539" data-name="Trazado 6539" d="M2475.041,4534.011c-8.646-1.541-14.567-9.036-13.2-16.706s9.512-12.658,18.158-11.117a16.784,16.784,0,0,1,11.128,7.109,1.206,1.206,0,0,1-2.015,1.324,14.374,14.374,0,0,0-9.536-6.06c-7.337-1.308-14.229,2.805-15.363,9.167s3.914,12.6,11.25,13.909a14.028,14.028,0,0,0,12.608-3.792,1.205,1.205,0,1,1,1.752,1.656A16.461,16.461,0,0,1,2475.041,4534.011Z" fill="#ba495e"/>
            </g>
            <g id="Grupo_947" data-name="Grupo 947">
              <path id="Trazado_6540" data-name="Trazado 6540" d="M2526.055,4543.1a16.42,16.42,0,0,1-12.364-9.448,1.205,1.205,0,0,1,2.225-.928,13.993,13.993,0,0,0,10.562,8c7.339,1.308,14.231-2.8,15.365-9.167s-3.913-12.6-11.253-13.91a14.342,14.342,0,0,0-11.131,2.461,1.2,1.2,0,1,1-1.45-1.925,16.752,16.752,0,0,1,13-2.909c8.647,1.541,14.57,9.036,13.2,16.706S2534.7,4544.643,2526.055,4543.1Z" fill="#ba495e"/>
            </g>
            <g id="Grupo_948" data-name="Grupo 948">
              <path id="Trazado_6541" data-name="Trazado 6541" d="M2514.593,4534.376a1.206,1.206,0,0,1-.9-.72,12.923,12.923,0,0,1-.837-7.26,13.224,13.224,0,0,1,5.155-8.208,1.2,1.2,0,0,1,1.45,1.925,10.675,10.675,0,0,0-4.232,6.706,10.522,10.522,0,0,0,.689,5.907,1.2,1.2,0,0,1-1.323,1.65Z" fill="#ba495e"/>
            </g>
            <g id="Grupo_949" data-name="Grupo 949">
              <path id="Trazado_6542" data-name="Trazado 6542" d="M2518.522,4520.339a1.2,1.2,0,0,1-.744-.453c-2.59-3.375-7.363-5.963-12.763-6.925-5.332-.951-10.665-.194-14.262,2.024a1.205,1.205,0,0,1-1.265-2.052c4.148-2.558,9.96-3.413,15.95-2.346s11.3,3.992,14.252,7.829a1.207,1.207,0,0,1-.223,1.692A1.193,1.193,0,0,1,2518.522,4520.339Z" fill="#ba495e"/>
            </g>
            <g id="Grupo_950" data-name="Grupo 950">
              <path id="Trazado_6543" data-name="Trazado 6543" d="M2576.645,4541.431a1.206,1.206,0,0,1-.991-1.225l.278-9.089a4.806,4.806,0,0,0-3.939-4.85l-23.346-4.16a4.315,4.315,0,0,0-5,3.484,1.205,1.205,0,1,1-2.373-.423,6.729,6.729,0,0,1,7.8-5.435l23.346,4.161a7.225,7.225,0,0,1,5.923,7.3l-.277,9.089a1.2,1.2,0,0,1-1.24,1.169A1.372,1.372,0,0,1,2576.645,4541.431Z" fill="#ba495e"/>
            </g>
          </g>
          <g id="Grupo_952" data-name="Grupo 952">
            <path id="Trazado_6544" data-name="Trazado 6544" d="M2573.7,4522.048c-4.881-1.843-11.789,3.754-15.429,12.5s-2.627,17.331,2.255,19.171,11.793-3.756,15.431-12.5S2578.586,4523.889,2573.7,4522.048Z" fill="#dea2a8"/>
          </g>
        </g>
        <g id="Grupo_954" data-name="Grupo 954">
          <path id="Trazado_6545" data-name="Trazado 6545" d="M2506.5,4829.8c0,16.27-5.786,29.431-22.852,29.431h-7.893c8.87,9.47,23.916,13.93,46.8,13.93,18.04,0,31.752-4.683,40.831-13.93H2535.3C2513.775,4859.231,2506.5,4846.07,2506.5,4829.8Z" fill="#c39f8d"/>
          <path id="Trazado_6546" data-name="Trazado 6546" d="M2568.149,4795.355h-25.183a3.578,3.578,0,0,0-3.591,3.566v5.64a13.3,13.3,0,0,0,13.306,13.283H2577.6a80.313,80.313,0,0,0-5.712-22.489h-3.743Z" fill="#8b7479"/>
          <path id="Trazado_6547" data-name="Trazado 6547" d="M2518.186,4622.454l.233,1.072a2.486,2.486,0,0,0,3.4,1.76l7.893-3.337c.675-1.639,1.374-3.254,2.074-4.869a151.224,151.224,0,0,1,9.905-19c.506-.842,1.062-1.685,1.591-2.5a6.062,6.062,0,0,0-4.411,2.288c-7.038,3.4-17.017,7.038-24.441,7.038Z" fill="#e6e4ea"/>
          <path id="Trazado_6548" data-name="Trazado 6548" d="M2498.927,4618.333c-.1.626-.193,1.255-.287,1.881l.19.023,3.971,3.752a2.484,2.484,0,0,0,4-.844l.25-.594,7.377-17.645c-5.277,0-7.676-1.777-8.688-4.023l-.586-5.3-1.283.07c-.409,1.448-.8,2.87-1.158,4.292C2501.121,4606.137,2499.868,4612.283,2498.927,4618.333Z" fill="#e6e4ea"/>
          <path id="Trazado_6549" data-name="Trazado 6549" d="M2507.75,4631.736c.07-.336.131-.624.192-.923h0c.026-.124.049-.235.073-.353.019-.092.038-.172.054-.259.071-.329.134-.633.193-.906,0-.019.01-.047.012-.066a6.878,6.878,0,0,0-.2-3.594l-.323-.965h0l-.7-2.119-.25.594a2.484,2.484,0,0,1-4,.844l-3.971-3.752-.19-.023c-.58,4.121-1.038,8.219-1.375,12.268a216.861,216.861,0,0,0,1.977,50.16C2502.422,4659.117,2506.111,4639.93,2507.75,4631.736Z" fill="#e6e4ea"/>
          <path id="Trazado_6550" data-name="Trazado 6550" d="M2525.924,4631.736c1.2-3.3,2.46-6.582,3.785-9.787l-7.893,3.337a2.486,2.486,0,0,1-3.4-1.76l-.233-1.072-1.756,2.319h0l-.729.966a6.836,6.836,0,0,0-1.389,3.8c0,.068-.007.134-.009.207-.008.144-.014.3-.022.455s-.016.322-.023.5c-.017.328-.033.667-.047,1.036-.459,8.989-1.472,30.394-1.711,48.472A371.126,371.126,0,0,1,2525.924,4631.736Z" fill="#e6e4ea"/>
          <path id="Trazado_6551" data-name="Trazado 6551" d="M2608.867,4617.393a17.983,17.983,0,0,0-8.919-10.583,118.165,118.165,0,0,0-45.652-11.136l-.29,4.124-1.012,15.089a3.634,3.634,0,0,1-2.074,3.013l-7.641,3.469,1.832.676a3.641,3.641,0,0,1,2.193,2.337,3.6,3.6,0,0,1-.578,3.159q-1.265,1.7-2.891,4.195c-11.259,17.33-33.819,61.656-37.338,86.606v-1.808c-10.823-23.648-19.573-62.72-21.212-81.5a40.3,40.3,0,0,1-.049-8.58,4.82,4.82,0,0,1,2.821-3.639l2.1-.868-2.581-2.291a3.576,3.576,0,0,1-1.012-3.832,108.9,108.9,0,0,1,5.617-13.281c1.038-2.074,2.217-4.195,3.519-6.292a116.924,116.924,0,0,0-37.674,10.557,18.056,18.056,0,0,0-7.738,24.347,18.3,18.3,0,0,0,1.731,2.739,26.465,26.465,0,0,1,5.383,17.987c-1.333,18.73-.518,48.635,5.468,73.763a176.472,176.472,0,0,1,1.327,75.156s-1.541,20.488-6.148,52.643a5.937,5.937,0,0,0,6.1,5.786h19.5c17.066,0,22.852-13.161,22.852-29.431,0,16.27,7.278,29.431,28.8,29.431h39.746c4.218,0,7.641-2.58,7.641-5.786l-4.821-33.673h-.1c-.047-.652-.12-1.3-.168-1.928h-24.923a13.3,13.3,0,0,1-13.306-13.283v-5.64a3.578,3.578,0,0,1,3.591-3.566h28.926c-9.583-22.2-12.566-43.7-1.542-67.95,2.77-6.073,5.133-12,7.4-17.717,1.857-4.6,3.592-8.968,5.28-12.727,7.219-16.03,11.325-30.547,12.285-43.22a26.512,26.512,0,0,1,8.526-17.549,18.055,18.055,0,0,0,5.028-18.8Z" fill="#725a65"/>
          <path id="Trazado_6552" data-name="Trazado 6552" d="M2531.783,4617.08c-.7,1.615-1.4,3.23-2.074,4.869-1.325,3.2-2.58,6.484-3.785,9.787a371.126,371.126,0,0,0-13.424,48.472v.024c-4.268,20.224-6,35.1-6,35.1v1.156c.024.05.024.123.047.17-.023-.047-.023-.073-.047-.12v1.808c3.519-24.95,26.079-69.276,37.338-86.606q1.625-2.5,2.891-4.195a3.6,3.6,0,0,0,.578-3.159,3.641,3.641,0,0,0-2.193-2.337l-1.832-.676,7.641-3.469a3.634,3.634,0,0,0,2.074-3.013l1.012-15.089.29-4.124c-1.422-.071-2.893-.094-4.364-.094h-6.653c-.529.819-1.085,1.662-1.591,2.5A151.224,151.224,0,0,0,2531.783,4617.08Z" fill="#8b7479"/>
          <path id="Trazado_6553" data-name="Trazado 6553" d="M2486.561,4615.826a3.576,3.576,0,0,0,1.012,3.832l2.581,2.291-2.1.868a4.82,4.82,0,0,0-2.821,3.639,40.3,40.3,0,0,0,.049,8.58c1.639,18.778,10.389,57.85,21.212,81.5v-.05a290.138,290.138,0,0,1-7.255-33.842,216.861,216.861,0,0,1-1.977-50.16c.337-4.049.8-8.147,1.375-12.268.094-.626.19-1.255.287-1.881.941-6.05,2.194-12.2,3.785-18.391.363-1.422.749-2.844,1.158-4.292-2.82.121-5.546.313-8.173.6-1.3,2.1-2.481,4.218-3.519,6.292A108.9,108.9,0,0,0,2486.561,4615.826Z" fill="#8b7479"/>
          <path id="Trazado_6554" data-name="Trazado 6554" d="M2519.705,4625.2a2.475,2.475,0,0,1-1.286-1.678l-.233-1.072-3.759-17.548-7.377,17.645-.25.594a2.484,2.484,0,0,1-4,.844l-3.971-3.752-.19-.023c-.134.943-.238,1.88-.358,2.82l2.862,2.707a4.889,4.889,0,0,0,3.366,1.336,5.048,5.048,0,0,0,1.01-.1,4.889,4.889,0,0,0,3.5-2.9l4.661-11.144,2.379,11.1a4.9,4.9,0,0,0,4.786,3.861,4.842,4.842,0,0,0,1.906-.389l5.744-2.43c.41-1.038.787-2.1,1.21-3.127l-7.893,3.337A2.475,2.475,0,0,1,2519.705,4625.2Z" fill="#bcb8c4"/>
          <path id="Trazado_6555" data-name="Trazado 6555" d="M2507.05,4622.551l.7,2.119h0l.323.965a6.878,6.878,0,0,1,.2,3.594c0,.019-.009.047-.012.066-.059.273-.122.577-.193.906-.016.087-.035.167-.054.259-.024.118-.047.229-.073.353h0c-.061.3-.122.587-.192.923-1.639,8.194-5.328,27.381-8.508,50.906a290.138,290.138,0,0,0,7.255,33.842v-1.156s1.735-14.872,6-35.1v-.024c.239-18.078,1.252-39.483,1.711-48.472.014-.369.03-.708.047-1.036.007-.174.014-.334.023-.5s.014-.311.022-.455c0-.073.007-.139.009-.207a6.836,6.836,0,0,1,1.389-3.8l.729-.966h0l1.756-2.319-3.759-17.548Z" fill="#5f4552"/>
        </g>
        <g id="Grupo_955" data-name="Grupo 955">
          <path id="Trazado_6556" data-name="Trazado 6556" d="M2793.412,4649.5a3.969,3.969,0,0,0-.392-.922,2,2,0,0,1,1.184-2.938l2.411-.686a4.4,4.4,0,0,0,2.967-5.47,4.462,4.462,0,0,0-.658-1.375,2.006,2.006,0,0,1,1.086-3.091l1.474-.42a4.768,4.768,0,0,0-2.61-9.17l-.661.188a1.673,1.673,0,0,1-2.108-1.882,4.809,4.809,0,0,0-.122-2.1,4.715,4.715,0,0,0-5.789-3.308c-22.871,6.508-27.029,7.705-31.8,9.054a2.437,2.437,0,0,1-2.813-3.495,115.481,115.481,0,0,0,6.384-13.541,4.45,4.45,0,0,0-8.363-3.046,110.587,110.587,0,0,1-5.872,12.388,118.217,118.217,0,0,1-12.647,18.991c-3.049,3.744-4.529,8.106-3.774,12.381,1.658,9.388,13.436,14.79,26.309,12.056,11.685-2.478-7.546,2.852,33.142-8.728A3.929,3.929,0,0,0,2793.412,4649.5Z" fill="#edc3c3"/>
          <path id="Trazado_6557" data-name="Trazado 6557" d="M2739.733,4639.13a10.847,10.847,0,0,1,15,15.677l-10.975,10.5-14.994-15.677Z" fill="#edc3c3"/>
          <path id="Trazado_6558" data-name="Trazado 6558" d="M2652.824,4743.205a35.45,35.45,0,0,1-20.088-10.5,34.567,34.567,0,0,1-5.4-7.349l-51.347-93.68a18.079,18.079,0,1,1,31.705-17.384l50.74,92.594,57.971-55.449a2.338,2.338,0,0,1,3.305.073l.884.923,2.5,2.614,15,15.677,2.5,2.613.882.923a2.336,2.336,0,0,1-.073,3.305l-58.876,56.315A35.4,35.4,0,0,1,2652.824,4743.205Z" fill="#725a65"/>
          <path id="Trazado_6559" data-name="Trazado 6559" d="M2723.1,4655.042l-2.5-2.614,3.971-3.8a2.338,2.338,0,0,1,3.306.074l.883.923,14.994,15.677.884.923a2.338,2.338,0,0,1-.074,3.306l-3.971,3.8-2.5-2.613Z" fill="#e6e4ea"/>
        </g>
      </g>
    </g>
  </g>
</svg>
