<?xml version="1.0" encoding="utf-8"?>
<!-- Generator: Adobe Illustrator 22.0.0, SVG Export Plug-In . SVG Version: 6.00 Build 0)  -->
<svg version="1.1" id="Capa_1" xmlns="http://www.w3.org/2000/svg" xmlns:xlink="http://www.w3.org/1999/xlink" x="0px" y="0px"
	 viewBox="0 0 1138.5 504" style="enable-background:new 0 0 1138.5 504;" xml:space="preserve">
<style type="text/css">
	.st0{clip-path:url(#SVGID_2_);}
	.st1{clip-path:url(#SVGID_4_);}
	.st2{clip-path:url(#SVGID_6_);fill:#F7DEB5;}
	.st3{clip-path:url(#SVGID_6_);fill:#C6AA2E;}
	.st4{clip-path:url(#SVGID_6_);fill:#FDF2A0;}
	.st5{opacity:0.2;clip-path:url(#SVGID_6_);}
	.st6{clip-path:url(#SVGID_8_);fill:#C6AA2E;}
	.st7{clip-path:url(#SVGID_10_);fill:#C6AA2E;}
	.st8{clip-path:url(#SVGID_6_);fill:#F4C426;}
	.st9{clip-path:url(#SVGID_2_);fill:#024C57;}
	.st10{opacity:0.5;clip-path:url(#SVGID_12_);}
	.st11{fill:#00292C;}
	.st12{fill:#F1E400;}
	.st13{fill:#98BD11;}
	.st14{fill:#FFFFFF;}
</style>
<g>
	<defs>
		<rect id="SVGID_1_" width="1138.5" height="504"/>
	</defs>
	<clipPath id="SVGID_2_">
		<use xlink:href="#SVGID_1_"  style="overflow:visible;"/>
	</clipPath>
	<g class="st0">
		<defs>
			<rect id="SVGID_3_" y="23.9" width="495.7" height="427.1"/>
		</defs>
		<clipPath id="SVGID_4_">
			<use xlink:href="#SVGID_3_"  style="overflow:visible;"/>
		</clipPath>
		<g class="st1">
			<defs>
				<rect id="SVGID_5_" x="515.4" y="23.9" width="496.2" height="427.1"/>
			</defs>
			<clipPath id="SVGID_6_">
				<use xlink:href="#SVGID_5_"  style="overflow:visible;"/>
			</clipPath>
			<path class="st2" d="M485.1,207.4V24.5h751.1v185.4H962.4c0,0-17-83.7-100.7-83.7c-83.7,0-97.3,81.2-97.3,81.2
				S485.4,205,485.1,207.4"/>
			<path class="st3" d="M570.7,208l-4.3-8.4h-9.2c0,0-7.8-33.4-26.3-40.6c0,0-23.7,11.1-29,41.7h-17v9.1h82.8L570.7,208z"/>
			<path class="st4" d="M485.1,207.4h18.8c0,0,15.1-34.3,25.1-34.3s22.1,34.3,22.1,34.3h17.4v175.9h-84.4L485.1,207.4z"/>
			<g class="st5">
				<g>
					<defs>
						<rect id="SVGID_7_" x="494.6" y="346.1" width="32.8" height="16.1"/>
					</defs>
					<clipPath id="SVGID_8_">
						<use xlink:href="#SVGID_7_"  style="overflow:visible;"/>
					</clipPath>
					<path class="st6" d="M499.5,362.2h22.9c2.7,0,4.9-2.6,4.9-5.7v-4.7c0-3.1-2.2-5.7-4.9-5.7h-22.9c-2.7,0-4.9,2.6-4.9,5.7v4.7
						C494.6,359.7,496.8,362.2,499.5,362.2"/>
				</g>
			</g>
			<g class="st5">
				<g>
					<defs>
						<rect id="SVGID_9_" x="486.3" y="365.5" width="20.2" height="9.9"/>
					</defs>
					<clipPath id="SVGID_10_">
						<use xlink:href="#SVGID_9_"  style="overflow:visible;"/>
					</clipPath>
					<path class="st7" d="M488.4,375.4h15.9c1.2,0,2.2-1.1,2.2-2.5v-5c0-1.4-1-2.5-2.2-2.5h-15.9c-1.2,0-2.2,1.1-2.2,2.5v5
						C486.3,374.3,487.3,375.4,488.4,375.4"/>
				</g>
			</g>
			<path class="st8" d="M517.7,331.6c-1.3,0-2.6,0.2-3.9-0.4c-0.7-0.3-1.6-0.6-1.7-1.4c-0.2-0.8,0.7-1.3,1.2-1.9
				c0.4-0.4,0.8-0.7,1.3-1.1c-1.9-0.6-3.6-1.6-5.1-2.9c-3.6-3.2-6.3-7.4-8.5-11.9c-2.7-5.5-4.7-11.2-5.7-17.4
				c-2.1-12.7,5.6-25,16.7-26.7c4.3-0.7,8.3,0.2,12.1,2.6c0.2,0.1,0.3,0.2,0.5,0.2c0.9,0.2,1.5,1,2.2,1.5c0.2,0.2,0.4,0.4,0.7,0.6
				c0.9,0.9,1.7,1.9,2.6,2.9c1.1,1.5,2,3.2,2.7,5.1c0.1,0.4,0.4,0.7,0.1,1.1c-1.3,0.6-2.6,1.1-3.8,1.9c-5.9,3.8-9.3,9.5-10.2,17.2
				c-0.5,3.9,0.2,7.7,1.1,11.5c0.9,3.4,2,6.7,3.4,9.9c0.1,0.3,0.3,0.6,0.3,0.9c-0.7,1.4-1.9,2-3.1,2.7c-0.2,0.1-0.4,0.2-0.6,0.3
				c0.9,0.5,1.6,1,2.2,1.7c0.5,0.6,0.5,1.1,0,1.7c-0.8,0.9-1.7,1.5-2.8,1.7C518.7,331.6,518.2,331.9,517.7,331.6"/>
			<rect x="485.6" y="401" class="st4" width="748.7" height="25"/>
		</g>
	</g>
	<rect class="st9" width="1137.4" height="504"/>
	<g class="st0">
		<defs>
			<rect id="SVGID_11_" width="1138.5" height="504"/>
		</defs>
		<clipPath id="SVGID_12_">
			<use xlink:href="#SVGID_11_"  style="overflow:visible;"/>
		</clipPath>
		<g class="st10">
			<g>
				<path class="st11" d="M1021.9,92.9c10.3-2.2,20.6-4.3,30.8-6.7c2.6-0.6,3.8,0.2,4.6,3.2c2.8,10.2,5.6,20.4,8.6,30.6
					c1.2,4.1-1.7,3.8-3.2,5.2c-9.7,3.7-19.3,7.4-29,11.2c-2.2,0.9-4,1.5-4.7-2.3c-2.4-13-4.9-26-7.3-39
					C1021.7,94.3,1021.9,93.6,1021.9,92.9"/>
				<path class="st11" d="M1010.2,20.9c6,2.7,12,5.5,18.1,7.9c1.9,0.8,2.8,1.7,3.1,4.1c0.9,9.3,2,18.5,2.7,27.8
					c0.5,6.4-3.6,0.6-4.9,2.5c-9-1.8-18.1-3.7-27.1-5.3c-3.2-0.6-4.6-1.1-3.2-5.9c2.9-9.6,5.4-19.4,7.6-29.3
					C1007.3,19,1008.8,20.9,1010.2,20.9"/>
				<path class="st11" d="M1092.7,78.8c3.9-18.7,7.8-37.4,11.7-56.1c0.9-4.1,1.7-8.3,2.6-12.4c0.5-2.5,1-3.4,2.8-1
					c3.4,4.3,5.6,8.5,4.8,15.3c-1.4,11.8-1.7,23.8-2.4,35.7c-0.1,0.5-0.3,1-0.2,1.5c1.1,9.9-3.5,14.1-10.7,15.4
					C1098.3,77.5,1095.9,81.1,1092.7,78.8"/>
				<path class="st11" d="M382.8,11.5c4-2.5,7.6-1.5,11.4,1.1c3.8,2.7,8.1,4.6,12.3,6.9c-7.2,6.4-14.2,7.6-21.9,3.2
					c-3.5-2-7.4-3-11.1-4.5c-0.1-0.2-0.2-0.3-0.4-0.3c1.9-4.5,5.6-4.8,9-6C382.4,11.9,382.6,11.8,382.8,11.5"/>
				<path class="st11" d="M1023.1,89.3c11.7-18,21.7-35.7,32.9-52.5c5.2-7.8,9.9-16.2,14.7-24.4c1.4-2.5,3.2-4.2,5.5-5.4
					c6.3-3.2,12.6-6.6,20.2-10.6c-3.5,7.6-6.3,14-9.3,20.3c-9.8,20.8-19.7,41.5-29.5,62.3c-0.9,1.9-1.8,3.3-3.7,3.7
					C1044,84.8,1034.2,86.9,1023.1,89.3"/>
				<path class="st11" d="M1089.5,77.7c-4.8-8.5-9.5-16.8-14.2-25c-1.3-2.3-0.2-3.8,0.7-5.6c7.1-15,14.1-30.1,21.2-45
					c0.9-1.9,1.3-6.4,3.6-4.8c2.4,1.7,5.4,4.5,4.2,9.6c-1.8,7.2-3.1,14.6-4.6,21.9c-2.9,14.1-5.8,28.2-8.7,42.3
					C1091.2,73.2,1091.1,75.5,1089.5,77.7"/>
				<path class="st11" d="M1068.4,117.3c-2.9-6.8-3.7-14.5-6.5-21c-4.1-9.5-2.1-17.3,2.6-25.3c2.5-4.1,4.3-8.8,6.3-13.3
					c1.1-2.5,2.1-3.1,3.5-0.3c0.1,0.1,0.2,0.3,0.3,0.4c6.7,9,10.6,18.1,4.4,30.4c-3.8,7.5-5.5,16.4-8.2,24.7
					C1070.2,114.4,1070,116.1,1068.4,117.3"/>
				<path class="st11" d="M1036.9,61.5c-1-11.1-1.8-20.5-2.6-30c-0.1-1.8,0.8-2.7,2.1-3.4c9.8-5.1,19.7-10.3,29.5-15.5
					c0.2-0.1,0.5,0.1,1.2,0.3C1057.2,28.8,1047.4,44.5,1036.9,61.5"/>
				<path class="st11" d="M275.1,112.4c-3-11.1-7-21.8-10.7-32.6c-3.7-10.8-7.1-21.8-10.9-32.5c-1.4-4.1,0.6-6.7,1.9-9.7
					c3.7-8.2,4.1-8.4,7.7-0.4c5.6,12.3,10.7,25,16.1,37.4c1.9,4.4,3.9,8.7,6,13c1.6,3.2,1.9,6.2,0.4,9.9c-2.6,6.5-4.8,13.2-8,19.8
					c-0.8-1.2-1.4-2.2-2.1-3.2C275.5,113.5,275.3,112.9,275.1,112.4"/>
				<path class="st11" d="M232.4-7.1c1.1,2.4-0.2,5.2,0.9,7.6c-0.3,3.2,0.1,6.4,0.8,9.4c1.1,4.1,0.1,7.2-2.2,10
					c-2.9,3.7-5.8,7.4-8.1,11.7c-0.9,1.7-2.1,1.5-3.4,1.5c-5.1,0.1-10.2,0.2-15.3,1.2c0,0-0.1,0-0.1,0c-1.2-0.4-2.3,0-3.4,0.2
					c-1.9,0.3-2.6-0.9-2.3-3.1c0.5-2.5,1.1-5,1.6-7.5c0.4-6.2,1.7-12.2,2.9-18.3c1-4.8,4.3-6.1,7.7-7.1c5.1-1.8,10.2-3.6,15.3-5.4
					C228.7-7.3,230.5-8,232.4-7.1"/>
				<path class="st11" d="M240.1,90.6c1-1.7,2.3-3.2,2.8-5.1c1.6-5.4,4.1-5.8,8-3.3c3.3,2.1,7,3.4,10.6,4.9c3.7,1.5,0.3,3.8,0.5,5.6
					c0,0,0,0.1,0,0.1c-0.8,2.5-1.3,5.1-1.9,7.6c-2.1,4.4-3.8,9.1-5.2,13.8c-1,3.3-2.3,4.1-5.3,2.8c-4.8-2.1-9.1-5.5-13.9-7.6
					c-1.1-0.5-2.4-1.3-2.5-3.3C234.5,100.3,238.9,96.5,240.1,90.6"/>
				<path class="st11" d="M233.8,98.8c-1.4,0.2-1.8-0.8-1.7-2.3c1-16.6,0.6-33.2,1-49.8c0-0.5,0-1,0.1-1.4c0.4-1.6-1-4.5,1.5-4.5
					c2.2,0,4.6,0.9,5,4.3c1.2,10.3,2.4,20.6,3.4,30.9c0.3,3-1.8,5.2-2.8,7.8c-1.3,3.5-3.4,6.5-4.2,10.3
					C235.4,95.6,234.6,97.2,233.8,98.8"/>
				<path class="st11" d="M207.5,61.8c1.6-5.9,2.3-12.1,2.8-18.3c0.4-5.1,6-8.8,9.7-6.4c1.5,1,0.9,2.4,0.8,3.8
					c-1.6,13.9-3.1,27.8-4.8,42.1c-3.5-1.1-3.3-5.9-5.9-7.1C207.4,71.7,206.1,67.1,207.5,61.8"/>
				<path class="st11" d="M304.4,51.7c-4.6-3.4-6.5-9.6-9.7-14.3c-1.8-2.6-3.7-5.3-5.1-8.5c-1.2-2.7,0.1-4.2,0.8-6.1
					c1-2.6,2.5-0.7,3.8-0.6l0.1,0c4.5,4.1,9,8.2,12.3,14c0.1,0.5,0.2,1,0.4,1.6c0.5,3-1,5.7-1.2,8.6C305,48,304.3,49.7,304.4,51.7"
					/>
				<path class="st11" d="M297.7,116.5c-1.2-6.3-3.4-12.2-5.5-18c-1.4-3.8-0.1-4.5,2.4-5c2.7-0.5,5.6,0.6,8.2-1
					c0.6,0.2,1.2,0.4,1.8,0.5c0.5,6.2-1.7,11.6-3.4,17.1c-0.6,2.3-1.1,4.6-1.9,6.7C298.6,118.6,298.1,117.1,297.7,116.5"/>
				<path class="st11" d="M294.2,67.6c1.7,6.9,5.7,12.2,8.2,18.6c0.9,2.2,1.1,2.8-1.2,3.3c-10.3,2.4-10.6,2.6-15.6-8.4
					c-7.3-16.2-14.2-32.5-21.3-48.8c-0.2-0.5-0.2-1.2-0.4-2.5c5.3,3.3,10.4,5.9,14.9,9.6c3.3,2.7,4.3,7.9,6.4,11.9
					C288.3,56.6,290.4,62.7,294.2,67.6C294.1,67.5,294.2,67.6,294.2,67.6"/>
				<path class="st11" d="M226.3,33.3c3.3-4.7,6.4-9.2,9.6-13.7c0.8-1.2,1.8-1.2,2.9-0.8c5.3,1.9,10.6,3.9,15.9,5.8
					c2.2,0.8,2.7,2.2,1.4,4.6c-1.8,3.4-3.4,6.8-5,10.3c-1,2.2-2.8,2.4-4.1,1.8c-6-3-12.5-3.8-18.5-6.7
					C227.9,34.4,227.3,33.9,226.3,33.3"/>
				<path class="st11" d="M245.8,72.7c0-8.3-2.7-17-3.1-26.1c-0.1-2.9,1-2.9,2.6-2.5c3.9,1,5.9,4.3,7.2,8.5
					c2.8,8.9,5.7,17.8,8.7,26.7c0.9,2.6-0.1,3.7-1.9,3c-4.1-1.6-8.2-3.3-12-6C246.5,75.7,246.2,74.7,245.8,72.7"/>
				<path class="st11" d="M226.1,37.6c1.3,1.3,4.3-0.2,4.1,4.1c-0.3,10-0.4,20.1-0.7,30.1c-0.1,2.1-7,10.4-8.8,10.4
					c-2.3,0.1-1.7-2.4-1.5-3.8c0.8-7.3,1.8-14.5,2.8-21.8c0.7-5.3,0.6-10.8,2.1-16C224.5,39.5,224.6,38.1,226.1,37.6"/>
				<path class="st11" d="M278.1,21.6c-0.7-2.8-1.3-5.6-2-8.3c-0.8-2.9-0.2-4.3,2.5-3.9c3.8,0.5,7.6,0.9,11.4,1.2
					c1.8,0.2,3.1,0.8,1.9,3.2c-3,6-6.2,11.9-9.4,17.8c-1,1.9-1.7,0.7-2.1-0.7c-0.8-3.1-1.5-6.2-2.2-9.2
					C278.2,21.6,278.2,21.6,278.1,21.6"/>
				<path class="st11" d="M296.3,121.8c-4.3,0-8.7,0.2-13,0.1c-2.2,0-3.5-1-2.2-4.2c2.6-6.3,4.4-12.9,8-19.7c3.1,8.1,5,16,7.3,23.7
					C296.4,121.7,296.3,121.8,296.3,121.8"/>
				<path class="st11" d="M283.9,41.5c-1.7-5.3,1-7.2,2.4-9.7c0.6-1,1.4-0.1,1.9,0.7c3.9,6.2,7.9,12.4,11.7,18.7c0.5,0.8,1,2,0.1,3
					c-1.3,1.5-9,1.3-10-0.6C287.7,49.3,285.5,44.7,283.9,41.5"/>
				<path class="st11" d="M275.1,22c0.7,2.8,1.4,5.5,2,8.3c0.2,0.9,0.7,1.9-0.1,2.6c-0.8,0.6-1.5-0.1-2.2-0.5
					c-3.4-2.2-6.7-4.4-10.1-6.6c-1.8-1.1-2.8-2.1-0.7-4.4c2.3-2.6,4.1-5.7,6.2-8.6c1.5-2.1,2.3-1.5,2.8,1c0.6,2.8,1.3,5.5,2,8.3
					C275,22,275,22,275.1,22"/>
				<path class="st11" d="M96.9,399.7c-6.3-10.1-12.5-20.3-18.9-30.2c-1.7-2.6-1.6-4.2,0.3-6.4c6.3-7.6,12.5-15.3,18.6-23.1
					c2.5-3.2,3.6,0.1,5.2,1.1c7.1,8.8,14.2,17.5,21.4,26.2c1.6,2,2.9,3.6,0.4,6.1c-8.5,8.5-16.9,17.1-25.3,25.6
					C98,399.3,97.4,399.4,96.9,399.7"/>
				<path class="st11" d="M49.2,445.1c-0.8-7.7-1.4-15.5-2.4-23.1c-0.3-2.4-0.1-3.8,1.6-5.2c6.4-5.2,12.7-10.5,19.2-15.6
					c4.5-3.5,2.1,3.6,4,4.1c2.8,10.6,5.5,21.2,8.4,31.7c1,3.7,1.3,5.5-2.9,6.1c-8.4,1.2-16.7,3-25,5.1
					C49.2,449.1,49.9,446.6,49.2,445.1"/>
				<path class="st11" d="M9.6,449.8c-3-0.7-6.1-1.4-9.1-2.1c-2-0.4-2.5-1.5-1.8-3.9c2.4-7.9,4.8-15.8,7.1-23.7
					c0.5-1.6,1.2-2.5,2.5-3.1c6.2-2.8,12.4-5.7,18.5-8.8c2.6-1.4,3.1-0.3,3.2,2.6c0.3,9.7,0.8,19.4,1.2,29.1c0,2.7-0.2,5.5,0.1,8.1
					c0.7,5.2-1.3,5.5-4.7,4.8C21.1,451.6,15.3,450.8,9.6,449.8"/>
				<path class="st11" d="M54.3,329.6c-15.5,4.3-31,8.6-46.6,12.9c-3.4,1-6.9,1.9-10.3,2.9c-2,0.6-2.9,0.4-2-2.6
					c1.7-5.6,3.7-9.9,9.1-12.1c9.3-3.8,18.2-9,27.3-13.6c0.4-0.1,0.9-0.1,1.2-0.4c6.8-5.7,11.9-2.6,16.2,4.6
					C50.9,324.2,54.6,325.1,54.3,329.6"/>
				<path class="st11" d="M-23,402.4c-1.2-6.5,2.5-11.3,4.2-16.7c0.5-1.8,1.6-0.1,2.2,0.7c6.4,9.6,12.7,19.2,19.2,28.7
					c1.1,1.6,1,3.1,0.4,4.8c-2.1,7.1-4.3,14.1-6.3,21.3c-0.8,2.8-1.5,1.6-2.5,0.3C-11.6,428.4-17.3,415.4-23,402.4"/>
				<path class="st11" d="M37.7,438.2c-3.6-3.2-4.6-7.5-4.4-12.9c0.2-5.4-0.3-10.8-0.5-16.5c7.9,4.8,12,11.9,12.3,22.2
					c0.1,4.7,1.1,9.4,1.7,14.1c-0.1,0.2-0.1,0.3,0,0.5c-4.2,0-6.1-3.9-8.5-7C38.2,438.4,38,438.2,37.7,438.2"/>
				<path class="st11" d="M93.7,400.1c-18.5-4.4-36.1-7.3-53.5-11.7c-8.1-2.1-16.4-3.3-24.6-4.8C13.1,383,11,382,9.1,380
					c-5.3-5.4-10.6-10.6-17-17c7.2,0.3,13.1,0.5,19.1,0.8c19.7,1.2,39.5,2.5,59.2,3.6c1.8,0.1,3.3,0.5,4.4,2.3
					C80.8,379.5,86.9,389.2,93.7,400.1"/>
				<path class="st11" d="M55,333.6c-4,9-8,17.8-11.9,26.7c-1.1,2.4-2.7,1.9-4.4,1.8c-14.3-0.8-28.5-1.6-42.8-2.5
					c-1.8-0.1-5.3,1.4-5.2-1.7c0.1-3.3,0.8-7.9,5.2-8.8c6.1-1.4,12.1-3.3,18.2-5c11.7-3.3,23.4-6.6,35.1-9.8
					C50.9,333.9,52.7,332.8,55,333.6"/>
				<path class="st11" d="M27.4,402.6c-6.6,3.7-13.3,7.4-19.9,11.3c-1.6,0.9-2.3-0.1-3.2-1.4c-6.8-10.1-13.5-20.2-20.3-30.3
					c-0.9-1.3-1.1-2.6-0.5-4.2c1.4-3.8,2.7-7.6,3.9-11.4c0.8-2.3,1.8-2.2,3.2-0.8c12.3,12.3,24.5,24.6,36.8,37
					C27.6,402.9,27.6,403.4,27.4,402.6"/>
				<path class="st11" d="M93.7,338.4c-3.6,6.2-9,10.5-12.5,16.6c-5.1,8.8-11.8,10.2-19.8,8.6c-4.1-0.8-8.4-0.6-12.7-0.8
					c-2.4-0.1-3.2-0.9-1.8-3.6c0.1-0.1,0.1-0.3,0.2-0.5c3.6-11.4,8.5-19.6,20.4-18.5c7.2,0.7,14.6-1.5,21.9-2.3
					C90.7,337.8,92.1,337.3,93.7,338.4"/>
				<path class="st11" d="M67,397.8c-7.7,6.1-14.3,11.2-20.9,16.4c-1.3,1-2.3,0.4-3.4-0.7c-8.2-8.3-16.5-16.5-24.8-24.8
					c-0.2-0.2-0.1-0.6-0.3-1.4C33.7,390.7,49.7,394.1,67,397.8"/>
				<path class="st11" d="M1137.4,187.8c-4.6,4.2-9.1,8.4-13.7,12.6c-0.5,0.6-1,1.2-1.5,1.8c-5.6,5.7-11.6,10.7-16.9,16.9
					c-2.7,1.5-5.2,3.4-5.9,7.3c-0.9,4.7-1.9,9.4-2.6,14.2c-0.7,4.7-2.4,9.2-2.4,14.2c1-0.3,1.8-0.5,2.6-0.8v0
					c7.6-3.7,14.2-9.4,21.1-14.5c1.2-1.7,3.7-1.6,4.3-4.2c0.2,0,0.4-0.1,0.6-0.2c3.2-10.5,8-20.1,11.6-30.4c3-7.2,5.9-14.5,8.9-21.7
					c-0.2-0.2-0.5-0.4-0.7-0.6C1140.9,184.2,1139.2,186,1137.4,187.8L1137.4,187.8z"/>
				<path class="st11" d="M1107.8,158.8c5.7-0.6,11.4,0.2,17,0.7c5.1,0.4,10.1-1.3,15.2-0.3c1.5-1.8-0.4-1.8-0.9-2.1
					c-9.2-6.3-18.5-12.2-27.6-18.8c-4.1-3-7.7-3.8-12-1.3c-3.1,1.8-7,1.6-9.7,4.7c3.9,6.6,9.3,11.4,14.5,16.2
					C1105.4,158.8,1106.7,159,1107.8,158.8"/>
				<path class="st11" d="M1125.2,236.7c2.5,1.2,5.1,2.3,7.5,3.6c2.2,1.2,3.7,0.5,5.2-1.7c3-4.4,6.1-8.6,9.2-12.9
					c-0.3-13.8-0.6-27.6-0.8-41.5c-2.4,4.3-4.1,8.7-5.8,13C1135.3,210.4,1130.2,223.6,1125.2,236.7"/>
				<path class="st11" d="M1072.3,213c0.6,0,1.2,0,1.8,0.1c4.8-1.6,5.3-2.3,5.9-8.1c0.8-7.1,0.8-14.4,1.4-21.5c0.3-3.5-1-5.5-3.8-6
					c-4.5-0.7-8.8-2.2-13.4-2.7c-2.7-0.2-5.3-1.3-8,0c-1.7,5.1-3.3,10.2-4.3,15.5c0,0,0,0,0,0c-3,6.7-4.1,14.4-7.1,21.1
					c-0.7,4.8-2.5,9.2-3.6,13.8c-0.3,1.3-1.5,2.8-0.5,3.9c0.9,1,2.2-0.3,3.3-0.8c2.2-1,4.3-2.2,6.5-3.4
					C1057.8,221,1065.3,217.6,1072.3,213"/>
				<path class="st11" d="M1095.1,157.2c1.7,0,3.3-0.1,6.1-0.2c-4.6-4-7.5-8.5-11.7-11.6c0.2,2,0.3,3.5,0.4,5.1
					C1090.6,153.8,1091,157.6,1095.1,157.2"/>
				<path class="st11" d="M1096.8,175.9c-2.9,0.8-5.7,1.6-8.6,2.4c-2.2,0.3-4.9-0.5-5.1,3.9c-0.4,8.3-0.9,16.6-1.5,24.9
					c-0.1,2.3,0.6,3.7,2.3,4.7c4.1,2.5,8.2,5.2,12.3,7.7c1,0.6,2,1.6,3.2,0.4c2.9-3,6.2-5.2,8.8-8.6c4.9-4.5,9.8-9,14.7-13.4
					c0.8-2.2,3.1-2.5,4.1-4.5c4.5-4.2,9-8.5,13.4-12.7v0c2-2.4,5.5-3.1,5.6-7.3c0.1-3.5-0.2-7.1-0.4-10.6c-0.4,0-0.9,0-1.3-0.1
					c-0.8,0.3-1.5,0.7-2.3,0.9c-12.8,3.6-25.7,6.4-38.4,10.5C1101.2,173.8,1099.2,175.8,1096.8,175.9"/>
				<path class="st11" d="M1092.5,247.3c1.5-6.9,2.9-13.9,4.4-20.8c0.4-2.1-0.4-3.3-1.8-4.2c-3-1.9-6.3-3.5-9.1-5.8
					c-4-3.3-7.9-4.1-12-0.5c0,0,0,0,0,0v0c-9.8,5.3-19.7,10.5-29.5,15.9c-0.8,0.4-2.1,0.6-1.9,2.1c0.1,1.2,1.3,1.1,2,1.4
					c13.4,6.4,26.9,12.8,40.3,19c5.8,2.7,5.8,2.6,7.1-4.5C1092.2,249,1092.4,248.1,1092.5,247.3"/>
				<path class="st11" d="M1058.4,171.8c2.2,0.4,3.9,0.7,5.6,1c0,0,0,0,0,0s0,0,0,0c0.1,0.2,0.3,0.2,0.5,0.1
					c3.8,1.3,7.7,1.6,11.6,2.2c1.3,0.2,2.6,0.5,3.8,0.7c4.6,0.7,8.8-1.7,13.2-2.1c8.8-3.3,18-4.6,26.9-7.5c4.6-1.1,9.2-2.2,13.8-3.3
					c0.8-0.2,1.3-0.6,1.2-1.7c-0.5,0-1,0-1.5-0.1c-1.2,0-2.4,0.2-3.5,0.1c-11.4-0.4-22.8-0.9-34.1-1.3h0c0,0,0,0,0,0
					c-2.4-0.1-4.8-0.1-7.2-0.2v0c-0.1-0.2-0.2-0.4-0.2-0.6c-0.4,0-0.9,0-1.3-0.1c-6.2-0.1-12.4-0.2-18.6-0.3c0,0.3,0,0.6,0.1,0.9h0
					c-0.2,0.3-0.5,0.6-0.7,0.9C1064.6,163.9,1061.5,167.5,1058.4,171.8"/>
				<path class="st11" d="M80.1,209.9c-2.9,2.7-5.8,5.4-8.7,8c-0.3,0-0.6,0-0.8,0.1c-10.5,9.1-21,18.3-31.5,27.4
					c-1.7,1.5-1.3,2.5,0,3.5c9.7,7.1,18.8,15.4,28.8,21.8c3.5,3.8,7.7,6.3,11.7,9.3c1.8,1.4,2.2,0.3,2.2-1.8c0-0.9,0.1-1.9,0.1-2.8
					c0.3-13.5,0.2-27.1,1-40.6c-0.6-7.7,0.1-15.4-0.1-23.1c0-1.1,0.3-2.4-0.6-3C81.4,208,80.8,209.3,80.1,209.9 M62.9,228.3
					c0,0.2,0,0.4,0.1,0.6c-0.1,0-0.3-0.1-0.4-0.1C62.7,228.5,62.8,228.4,62.9,228.3"/>
				<path class="st11" d="M12.8,294.4c6.1-14.2,12.1-28.4,18.3-42.5c1.3-3,1.4-5.1-0.3-8.1c-6.2-10.4-12-21.1-18-31.7c0,0,0,0,0,0
					c-2.8-5-5.6-10-8.3-15c-1.3-2.5-2.1-0.8-2.9,0.4c-4.9,8-9.7,16.2-14.8,24c-1.7,2.6-1.7,4.7-0.6,7.4c2.2,5.7,4.7,11.4,6.3,17.4
					c0.7,1.5,1.4,3,2,4.6c4.1,10.6,8.2,21.3,12.2,31.9c1.3,3.6,2.7,7.1,3.9,10.7C11.2,295,11.6,295.9,12.8,294.4"/>
				<path class="st11" d="M54.2,163.2c-7.2,5-14.5,9.8-22.6,15.3c10,4.6,19.1,8.7,28.1,12.8c0.1-0.2,0.2-0.3,0.4-0.3
					c1-3.3-0.1-6.3-0.9-9.4l0-0.1c0-5.6-0.7-11-2.3-16.2c0,0,0,0,0,0C55.9,164.7,56.4,161.6,54.2,163.2"/>
				<path class="st11" d="M-18.6,223.2c1.4-0.1,2-1.3,2.7-2.5c5.3-8.7,10.6-17.3,16-26c2-3.2,2.6-6.6,2-11.1c-0.8,0.7-1.2,1-1.5,1.4
					c-8.1,9.3-16.3,18.5-24.3,27.8c-2.8,3.2-5.3,6.6-8.5,9.1l-0.2,0.4l-0.3,0.3c0.4,0.7,0.8,1.3,1.5,1.2
					C-27,223.7-22.8,223.4-18.6,223.2"/>
				<path class="st11" d="M6.2,192.2c5.1,2.8,10.1,5.7,15.1,8.6c1.9,2.3,4.7,2.8,6.8,4.6c0.7,0.6,1.7,1.4,2.5,0.7
					c0.8-0.7,0.5-2.1,0.3-3.1c-1-5.4-2-10.8-3-16.3c-1.3-7.5-1.3-7.6-7.8-9.3c0,0,0,0,0,0c-4-3.2-8.8-4.1-12.8-7
					c-2.4,3-0.8,7.2-2.1,10.5c-0.1,2.8-0.1,5.6-0.2,8.4C4.9,190.7,5,191.5,6.2,192.2"/>
				<path class="st11" d="M54.7,265.3C54.7,265.3,54.7,265.3,54.7,265.3c-2-2.3-4.3-3.8-6.8-5.3c0,0,0,0,0,0l0,0
					c-1.8-1.5-3.7-3-5.5-4.4c-8-5.9-8-5.9-11.8,4.9c-0.7,1.5-1.5,2.9-2.2,4.5c-4.6,10.5-9.2,20.9-13.8,31.4c0,0.9,0.1,1.7,1,1.4
					c4.7-1.1,9.4-2.3,14-3.5h0c6-0.9,12-1.8,17.8-4c3.2-0.7,6.3-1.4,9.5-2.1c7.3-0.7,14.6-2.1,21.7-4.7
					C70.8,277,62.7,271.1,54.7,265.3L54.7,265.3z"/>
				<path class="st11" d="M25.5,175.8c2.2,1.1,4,0.3,5.8-1.2c7-5,14.6-8.8,21.7-14.9c-3.6-1.7-6.7-3.2-9.8-4.7
					c-2.9-1.2-5.9-2.2-8.7-3.8c-3.1-1.8-5.4-1.3-7.6,1.8c-6.5,4-12.1,9.8-18.2,14.4C14.1,170.7,19.9,172.9,25.5,175.8"/>
				<path class="st11" d="M57.2,194.9c0-0.5,0-0.9-0.1-1.4c-8.8-4-17.7-7.9-27.1-12.1c1.4,8.4,2.7,15.7,4,22.9
					c0.2,1.3,0.1,3.6,2.3,2.3C43.2,202.7,50.2,198.8,57.2,194.9"/>
				<path class="st11" d="M66.8,197.9C66.8,197.9,66.8,197.9,66.8,197.9c-3.1-2.5-5.9-2-9.1,0.2c-3.9,2.7-8,5-12,7.5c0,0,0,0,0,0
					c0,0,0,0,0,0c-3.9,2.1-7.8,4.2-11.7,6.4c-1.4-0.3-2.7-1-4-1.8c-7-4.4-14.2-8.6-21.3-12.8c6.6,13,13,25.8,20.6,37.6c0,0,0,0,0,0
					c1.3,2.5,2.8,4.9,4,7.5c0.9,1.9,2,2.4,3.4,0.9c3.6-3.6,7.9-6.2,11.2-10.3c6.5-4.6,12.3-10.4,18.3-15.7
					c5.1-3.7,9.9-8.1,14.9-12.8C76.4,201.5,71.5,199.8,66.8,197.9C66.8,197.9,66.8,197.9,66.8,197.9"/>
				<path class="st11" d="M1055.2,338c8.6,5.3,17.6,9.4,26.5,13.9c8.9,4.5,17.7,9.3,26.7,13.7c3.4,1.7,3.5,5.3,4.3,8.5
					c2.2,9,2,9.4-5.2,6.9c-11.2-3.9-22.1-8.5-33.2-12.7c-3.9-1.5-7.9-2.8-11.8-4c-3-1-4.9-2.7-6.1-6.6c-2-6.8-4.3-13.4-5.9-20.9
					c1.3,0.2,2.3,0.3,3.3,0.5C1054.2,337.5,1054.7,337.8,1055.2,338"/>
				<path class="st11" d="M1092.6,323.4c0.3,2,0.3,4.2,1,6c2,5.2,0.5,7.6-3.8,9.2c-3.6,1.3-6.9,3.6-10.3,5.7
					c-3.5,2.1-2.4-2.4-3.6-3.6c0,0,0,0,0,0c-0.9-2.4-2-4.7-3-7c-1.1-4.9-2.6-9.6-4.4-14.3c-1.2-3.2-0.8-4.8,2.2-6.5
					c4.6-2.7,9.7-3.9,14.2-6.6c1.1-0.6,2.5-1.1,3.7,0.2C1090.9,311.7,1090,318.2,1092.6,323.4"/>
				<path class="st11" d="M1092.3,312.2c0.9-1.3,1.7-1.1,2.6,0.1c8.9,12.6,18.9,24,28.4,36c0.3,0.3,0.6,0.7,0.8,1.1
					c0.6,1.5,3.3,2.3,1.5,4.5c-1.6,1.9-3.8,3.4-6.1,1.3c-6.9-6.3-13.7-12.5-20.4-19c-2-1.9-1.8-5.2-2.6-7.9c-1.1-3.6-1.3-7.5-3-10.8
					L1092.3,312.2z"/>
				<path class="st11" d="M1132.5,315.8c2.3,5.6,5.4,10.5,8.7,15.3c2.7,4,0.9,11.3-3.1,12.8c-1.6,0.6-2.1-0.9-2.8-2
					c-7-11.2-14-22.3-21.2-33.8c3.1-2.2,5.7,1.3,8.3,0C1126.8,308.7,1130.3,310.9,1132.5,315.8"/>
				<path class="st11" d="M1127.4,414.9c3.6,3.1,8.4,2.5,11.9,5.7c-0.4,4.1-1.4,7.8-4.6,10.1c-4.7-0.3-9.5-0.5-14.2-0.8
					c-4.6-2.3-9.7-1.1-14.7-2.4c0-2.9,2.1-3.9,3.6-5.4c1-1,1.8-2.3,2.8-3.4c3.7-4.2,7.4-8.4,12.9-3.7
					C1125.8,415.4,1126.7,415.6,1127.4,414.9"/>
				<path class="st11" d="M1069.8,406.1c5.2-1.5,10.1,1.2,15.2,1.7c2.8,0.3,5.7,0.6,8.6,1.6c2.4,0.9,2.4,3,3,5
					c0.8,2.7-1.4,2.6-2.3,3.7c0,0-0.1,0-0.1,0c-5.6,1-11.2,2-16.8,0.6c-0.4-0.3-0.8-0.5-1.2-0.8c-2.1-1.7-2.6-4.9-4.2-7
					C1071.6,409.2,1071,407.4,1069.8,406.1"/>
				<path class="st11" d="M1036.8,354.5c4.5,3.4,9.5,5.7,14.4,8c3.2,1.5,2.7,3.1,1.2,5.6c-1.6,2.7-4.3,4.4-5.2,7.8
					c-0.5,0.4-1,0.8-1.6,1.1c-3.9-3.9-5.5-9.7-7.6-15c-0.9-2.1-1.9-4.2-2.6-6.4C1034.9,353.7,1036.2,354.4,1036.8,354.5"/>
				<path class="st11" d="M1153.9,388.5c-3.3,9.1-7.3,17.6-11.6,26.1c-1,1.9-1.9,2.1-3.5,1.4c-3.1-1.3-6.3-2.2-9.4-3.3
					c-0.1-0.1-0.2-0.2-0.4-0.2c-9.1-2.3-8.4-2.5-9.8-13c-1.1-8.8,0.8-14,7.7-16.9c3.3-1.4,6-4.5,9.3-6.3c2.1-1.1,3.3-0.7,5,0.8
					C1145.3,381.1,1149.7,384.7,1153.9,388.5"/>
				<path class="st11" d="M1067.8,386c-5.2-3.4-11.2-3.7-16.6-6.1c-1.9-0.8-2.4-1-1.1-3.4c5.9-10.6,6-10.9,15.9-7.4
					c14.6,5.2,29,10.8,43.5,16.3c0.5,0.2,0.8,0.7,1.7,1.4c-5.7,2.2-10.8,4.8-16.1,6c-3.9,0.9-7.6-1.9-11.5-2.9
					C1078.4,388.7,1073.3,386.3,1067.8,386L1067.8,386"/>
				<path class="st11" d="M1135.8,352c0.4,6.2,0.8,12,1.2,17.9c0.1,1.5-0.6,2.4-1.6,3.1c-4.9,3.2-9.8,6.4-14.7,9.5
					c-2,1.3-3.2,0.7-3.7-2.1c-0.7-3.9-1.6-7.7-2.5-11.5c-0.6-2.4,0.5-4.1,1.9-4.8c6-3,11-8.1,17-11.1
					C1134.1,352.7,1134.7,352.5,1135.8,352"/>
				<path class="st11" d="M1099,340.9c4.8,5.9,11.8,9.6,17.4,15.8c1.7,1.9,1,2.9-0.4,4c-3.3,2.6-6.6,2-10.1,0.2
					c-7.2-3.9-14.5-7.7-21.7-11.4c-2.1-1.1-2.1-2.7-0.5-3.7c3.8-2.4,7.7-4.7,12-6.1C1096.8,339.4,1097.6,339.8,1099,340.9"/>
				<path class="st11" d="M1133.4,348.9c-1.7,0.2-2.9,3.8-5.3,0.6c-5.6-7.4-11.4-14.5-17.1-21.9c-1.2-1.5-1.1-13.3,0.1-14.9
					c1.6-2,2.6,0.3,3.3,1.4c3.7,5.9,7.2,11.8,10.7,17.8c2.6,4.4,5.9,8.2,7.9,13.1C1133.5,346.2,1134.2,347.3,1133.4,348.9"/>
				<path class="st11" d="M1106,404.8c2.1,1.4,4.2,2.8,6.3,4.2c2.2,1.4,2.6,2.9,0.5,5c-3,2.9-5.9,5.9-8.8,8.9
					c-1.4,1.4-2.6,2.1-3.2-0.7c-1.3-6.8-2.6-13.7-3.7-20.6c-0.4-2.2,0.8-2,1.9-1.3c2.3,1.5,4.7,3.1,7,4.6
					C1105.9,404.8,1105.9,404.8,1106,404.8"/>
				<path class="st11" d="M1034.6,349.5c3-3.8,6-7.6,9.1-11.2c1.6-1.9,3.1-2.3,4,1c1.8,6.6,4.4,12.9,5.8,20.8
					c-6.9-3.1-12.8-7.1-18.9-10.5C1034.7,349.6,1034.6,349.5,1034.6,349.5"/>
				<path class="st11" d="M1090.3,395.6c4.3,2.3,3.5,6,3.9,8.9c0.2,1.3-1,1.3-1.8,1.1c-6.4-1-12.8-2-19.2-3.2
					c-0.9-0.2-1.8-0.5-1.8-2.1c0-2.2,5.6-8.6,7.4-8.2C1083.1,393.4,1087.2,394.8,1090.3,395.6"/>
				<path class="st11" d="M1107.9,401.9c-2.1-1.4-4.2-2.7-6.2-4.2c-0.6-0.4-1.6-0.7-1.5-1.9c0.2-1.1,1.1-1.2,1.9-1.5
					c3.7-1.3,7.3-2.6,11-4c1.9-0.7,3.2-0.9,3.1,2.5c-0.1,3.8,0.4,7.6,0.6,11.4c0.2,2.7-0.8,3-2.6,1.7c-2-1.5-4.1-2.8-6.2-4.2
					L1107.9,401.9z"/>
				<path class="st11" d="M75,58c0.6,4.3,1.2,7.2,1.5,10.1c0.3,2.5,1.6,5.2,0.6,7.4c-2.2,4.4-1.1,8.5-0.4,12.8
					c0.9,5.7,2.3,11.4,2.7,17.2c0.5,8,3.6,13.6,9.2,17.5c2.3,1.6,3.7,4.9,6.7,4.8c-1.5-11.9-2.8-23.7-3.5-35.7c-0.4-2-0.3-4.3-1.1-6
					C86,77,81.3,67.7,75,58"/>
				<path class="st11" d="M72,90.1c-1.1,2.7-1.7,6.1-3.4,7.9c-2.3,2.5-4.2-2.1-6.7-2c-0.1,0-0.3,0-0.4,0c2.2,13.2,4.5,26.5,6.7,39.7
					c6-9.6,13-18.7,8.3-32.6c-1.7-5-1.9-10.7-2.7-16.1C72.7,88.1,72.4,89.1,72,90.1"/>
				<path class="st11" d="M126.5,68c-6.4,1-12.9,1.6-19.8,3.4c7.7,11.5,15,22.4,22.8,34.1c0.2-5.5-0.7-9.7,0-13.9
					c-0.1-0.7-0.1-1.4-0.2-2.1c-0.3-6.2-0.6-12.3-0.9-18.5C128.4,69.5,128.7,67.7,126.5,68"/>
				<path class="st11" d="M113.6,86.9c-2.6-3.9-5.2-7.8-8.2-12.4c-0.5,9.6-0.9,18.1-1.3,26.6c0.1,0.9,0.3,1.7,0.4,2.6
					c2.8,3.2,6.5,1.6,9.7,2.7c3.9,1.4,8.1,2.5,12.3,2l0,0c0.8-1.9-0.6-3-1.3-4.1C121.3,98.5,117.4,92.7,113.6,86.9"/>
				<path class="st11" d="M136.1,30.3c-6.1,1.8-12.2,3.6-19.1,5.6c7.4,8.2,14.3,15.9,21.2,23.5c0.5,0.6,0.9-0.2,1.3-0.5
					c-0.1-8.5-0.2-17-0.2-25.6C139.3,30.5,138.7,29,136.1,30.3"/>
				<path class="st11" d="M85.9,22.2c9.7,13.1,19.3,26.3,29,39.4c-0.2-8.2-0.9-15.9-1.8-23.5c-0.1-1.2-0.1-2.5-0.9-3.5
					c-8.5-10-17-20.1-25.4-30.2c0,0.1,0.1,0.2,0.1,0.2c0-0.1-0.1-0.2-0.1-0.2C82.9-0.3,79-5.1,75.2-9.9l0,0
					c-3.6-0.7-4.8,3.7-7.4,5.2c-1.2,1.1-0.8,2.2-0.1,3.3C73.8,6.5,79.9,14.4,85.9,22.2 M92.5,16c-0.3-0.5-0.6-0.9-1-1.3
					C92.2,14.8,92.5,15.3,92.5,16 M88.5,8.7C88.5,8.7,88.4,8.7,88.5,8.7C88.4,8.7,88.4,8.7,88.5,8.7C88.5,8.7,88.5,8.7,88.5,8.7"/>
				<path class="st11" d="M98.3,13.1C98.3,13.1,98.3,13.1,98.3,13.1c4.9,6.1,9.8,12.1,14.7,18.3c1.4,1.8,2.9,1.4,4.6,1
					c6.2-1.6,12.4-3.1,18.6-4.7c0.7-1,0.3-1.7-0.4-2.4c-11.8-11.8-23.7-23.7-35.5-35.5c-1-2.2-2.6-2.7-4.6-2.4
					c-3.7,0.5-7.5,0.7-11.2,1c-1.9,0.3-3.7,0.7-6.1,1.1c5.6,6.8,10.8,13.2,16,19.5C95.7,10.5,97,11.7,98.3,13.1"/>
				<path class="st11" d="M118.2,62.3c0.2,3.1,1.3,3.6,3.5,3.2c4.9-0.7,9.9-1.3,14.8-1.9c0.2-0.2,0.3-0.4,0.5-0.5
					c-6.4-8.3-13.7-15.3-21.2-24.1C116.8,47.6,117.7,54.9,118.2,62.3"/>
				<path class="st11" d="M69.8,139.3c0,1.1,0.4,1.8,1.1,2.3c4.4,3.3,8.9,6.7,13.3,10c-1.5-9.7-3.1-19.4-4.7-29.9
					C76,128.1,72.9,133.7,69.8,139.3"/>
				<path class="st11" d="M82.1,121c1.5,9.6,2.9,18.3,4.3,27c0.3,1.8,1,1.6,1.8,0.5c2.1-4.5,4.2-8.9,6.3-13.4c0.1-1.3,0-2.4-1-3.3
					C89.9,128.4,86.4,125,82.1,121"/>
				<path class="st11" d="M29.5,90.3c4.5,6.3,9.1,12.6,14.1,19.4c0.8-3.4,1.5-5.9,2.1-8.4c0,0,0,0,0,0c0,0,0,0,0,0
					c0.3-0.6,0.5-1.2,0.8-1.7c1.5-4,4-7.6,3.4-12.5c-0.2-0.3-0.4-0.5-0.5-0.8C48.7,72.1,47,58,45.6,43.9c0.1-0.3,0.4-0.5,0.8-0.7
					c-0.2-8.5-1.1-17-2-25.4c-0.4-3.4-1.9-4.1-4.5-2.5c-2.4,1.5-4.7,3.4-7,5.2c-5.6,4.2-6.3,6.6-4.8,14.4
					c0.3,11.6,0.6,23.2,0.9,34.7c0,0,0,0,0,0c0,5.2,0,10.4,0.1,15.6C29,86.9,28.5,88.8,29.5,90.3"/>
				<path class="st11" d="M76.8,54.6c8.1,14.6,16,29.4,24,44.2c0,0,0.1,0.1,0.1,0.1c0.2-0.4,0.7-0.7,0.7-1.1
					c0.4-8.6,0.7-17.1,1-25.7c0.1-1.6-0.7-2.6-1.5-3.7C96.1,60.7,91.1,52.9,86,45.2c-5.1-7.7-10.3-15.4-15.5-23.1
					c0.2,6.5,1.3,12.7,2,18.9C73,46,74.5,50.4,76.8,54.6"/>
				<path class="st11" d="M102.7,65.3c0.8,1.3,1.5,3,3.4,2.7c2.7-0.5,5.3-0.9,8.8-1.4c-8.1-11-15.7-21.1-23.2-31.4
					c-8-10.9-16.5-21.3-23.9-32.7c0,0-0.1-0.1-0.1-0.1C66.9,3,67,3.8,67.1,4.8c0.2,7.5,3.9,12.8,7.6,18.3
					C84.1,37.1,93.3,51.2,102.7,65.3"/>
				<path class="st11" d="M48.9,45.9c-0.2,0.5-0.4,0.9-0.6,1.3c0.6,12.6,1.5,25.3,3.3,37.8c0.1,0.8,0.5,1.4,1.2,1.7
					c0.8,0.2,1.5,0.5,2.3,0.7c1.6,1.3,3.3,2.6,4.9,3.8c1.3,0.7,2.7,1.3,3.9,2.2c2.5,1.9,3.8,1.2,4.9-2.1c1.6-5,3.5-9.9,5.2-14.8
					c0.5-1.3,0.8-2.5,0.5-4.1c-2.4-15.3-4.7-30.7-7-46.1h0c-0.9-9.2-2.3-18.3-4.1-27.3L63.1-1c-0.8,0-1.6,0-2.3,0.4
					C56,2.6,51.3,6.1,46.9,10c-1.1,1-1.7,2.4-1.7,4.1c0.3,1.1,0.7,2.2,1.1,3.3C47.1,26.9,48,36.4,48.9,45.9"/>
				<path class="st11" d="M1029.6,415.3c-5.5,10.7-11.2,21.4-16.5,32.2c-1.4,2.8-2.7,3.3-5,2c-8.1-4.4-16.2-8.7-24.5-12.8
					c-3.3-1.7-1.2-4.1-1-6.3c4.2-11.2,8.4-22.3,12.6-33.5c0.9-2.6,1.7-4.6,4.6-2.7c9.5,6.6,19.2,13,28.7,19.6
					C1028.9,414.1,1029.2,414.7,1029.6,415.3"/>
				<path class="st11" d="M1081.5,453c-5.7,3.6-11.4,7.1-17,10.9c-1.7,1.2-2.9,1.4-4.5,0c-6.3-5.4-12.7-10.6-18.8-16.2
					c-4.3-3.9,2-3.6,1.8-6c7.2-6.9,14.4-13.8,21.4-20.8c2.5-2.5,3.8-3.4,5.7,1.1c3.9,9.1,8.3,17.8,12.9,26.5
					C1084.6,451.6,1082.5,451.7,1081.5,453"/>
				<path class="st11" d="M1099.3,496.2c0.5,3.7,1.1,7.4,1.7,11.1c0.4,2.4-0.3,3.4-2.4,3.4c-6.9,0-13.8,0.2-20.8,0.4
					c-1.4,0-2.3-0.5-3.3-1.8c-4.4-6-8.8-12.1-13.4-17.8c-2-2.5-1.4-3.4,0.8-4.6c7.4-3.8,14.7-7.8,22-11.7c2.1-1,4.3-1.7,6.2-3.1
					c3.8-2.7,4.7-0.5,5.4,3.6C1096.6,482.6,1098,489.3,1099.3,496.2"/>
				<path class="st11" d="M1080.3,468.5c-1.2,5.3-4.2,7.9-8.3,9.5c-4.2,1.7-8.2,4.2-12.5,6.4c0.9-10.7,4.8-17.9,12.8-21.9
					c3.6-1.8,6.8-4.6,10.2-7c0.2,0.1,0.3,0,0.4-0.2c1.5,4.7-0.8,8.3-2.4,12.2C1080.3,467.9,1080.3,468.2,1080.3,468.5"/>
				<path class="st11" d="M1031,418.7c3.2,22.6,7.3,43.5,10,64.8c1.3,10,3.3,19.8,5.1,29.6c0.5,2.9,0.4,5.7-0.4,8.6
					c-2.3,7.9-4.4,15.8-7,25.3c-2.3-8.2-4.3-15-6.2-21.9c-6.1-22.8-12.2-45.6-18.4-68.3c-0.6-2.1-0.8-3.9,0.2-5.8
					C1019.7,440.6,1025,430.3,1031,418.7"/>
				<path class="st11" d="M983.4,440.7c6.1,1.9,11.3,6.4,17.2,8.2c8.6,2.6,12,9.7,13.7,19.3c0.9,5,2.5,9.8,3.9,14.6
					c0.8,2.7,0.4,4-2.1,3.4c-0.1,0-0.3,0-0.4,0c-10,0-18.2-2.6-21.5-16.5c-2-8.4-6.3-16-9.6-24C984.1,444.3,983.1,442.9,983.4,440.7
					"/>
				<path class="st11" d="M1038.8,449.7c7.4,6.6,13.8,12.2,20.1,17.8c1.2,1.1,1.1,2.5,0.7,4.1c-3.5,12.3-6.9,24.6-10.3,36.9
					c-0.1,0.3-0.4,0.4-1,0.8C1045.2,489.9,1042.1,470.6,1038.8,449.7"/>
				<path class="st11" d="M73.3,456.2c3.1,2.3,6.3,4.5,9.4,6.7c0.1,0.3,0.2,0.7,0.4,0.8c10.9,8.4,21.8,16.7,32.7,25.2
					c1.8,1.4,2.4,0.5,2.7-1.4c1.8-13.6,4.7-26.9,5.9-40.6c1.6-5.4,1.9-11,2.7-16.6c0.4-2.6-0.6-2.6-2.2-1.8
					c-0.7,0.4-1.5,0.6-2.2,0.9c-10.5,4.7-20.8,10-31.5,14c-5.7,3.6-11.9,5.6-17.7,8.7c-0.8,0.4-1.9,0.5-2.1,1.8
					C71.3,455.5,72.5,455.7,73.3,456.2 M93.7,468.6c0.1-0.1,0.3-0.2,0.4-0.3c0,0.2,0,0.3,0.1,0.5C94,468.8,93.9,468.7,93.7,468.6"/>
				<path class="st11" d="M125.2,464.1L125.2,464.1c-1,3.1-1.3,6.3-1.5,9.6c0,0,0,0,0,0h0c-0.4,2.6-0.9,5.2-1.3,7.9
					c-1.6,11.2-1.5,11.2,8.2,11.4c1.4,0.3,2.8,0.6,4.2,0.8c9.7,1.3,19.4,2.5,29.2,3.8c0.7-0.3,1.2-0.7,0.7-1.7
					c-2.6-4.8-5.3-9.7-7.9-14.5c-2.9-6.4-5.8-12.8-9.7-18.5c-1.7-3.3-3.4-6.6-5.1-9.9c-3.3-8-7.1-15.6-11.7-22.6
					C128,441.5,126.6,452.8,125.2,464.1C125.2,464.1,125.2,464.1,125.2,464.1"/>
				<path class="st11" d="M69,475.6C69,475.6,69,475.6,69,475.6c-0.8,4.4,0.7,7.4,3.5,10.1c3.5,3.3,6.8,7.1,10.2,10.7c0,0,0,0,0,0
					c0,0,0,0,0,0c3.1,3.6,6.2,7.1,9.2,10.7c0.3,1.7,0.3,3.4,0.1,5.2c-0.7,9.6-1.2,19.2-1.8,28.7c7.4-12.3,14.9-24.2,21.1-37.2
					c0,0,0,0,0,0c1.4-2.5,2.7-5,4.2-7.3c1.1-1.8,1.1-3.1-0.6-4.2c-4.1-2.7-7.7-6.6-12.1-8.8c-5.9-5.6-12.5-9.9-18.9-14.7
					c-4.8-4.4-9.9-8.1-15.4-11.9C68.2,463.5,68.7,469.6,69,475.6C69,475.6,69,475.6,69,475.6"/>
				<path class="st12" d="M1042.3,125.6c10.1,7.2,20.1,14.5,30.3,21.5c2.6,1.8,3.1,3.5,2,6.8c-3.8,11.1-7.5,22.3-11,33.6
					c-1.4,4.6-3.8,1.7-5.8,1.6c-10.4-5.4-20.9-10.8-31.4-16.1c-2.4-1.2-4.3-2.2-2.6-6.1c5.8-13.2,11.5-26.4,17.2-39.6
					C1041.2,126.5,1041.8,126.1,1042.3,125.6"/>
				<path class="st12" d="M1075.6,53.9c3.5,7.6,6.9,15.3,10.6,22.7c1.1,2.3,1.4,3.9,0.2,6.2c-4.8,8.7-9.4,17.5-14.4,26.1
					c-3.4,6-3.4-2.6-5.6-2.2c-6.6-9.5-13.1-19.1-19.9-28.5c-2.4-3.3-3.3-5.1,0.8-7.8c8.3-5.5,16.2-11.8,24-18.3
					C1074.2,49.8,1074.4,52.7,1075.6,53.9"/>
				<path class="st12" d="M1114.9,28.5c3.4-0.9,6.8-1.7,10.2-2.6c2.2-0.6,3.1,0.3,3.2,3.1c0.2,9.4,0.6,18.8,1,28.2
					c0.1,1.9-0.4,3.2-1.5,4.5c-5.4,6.2-10.9,12.3-16.1,18.7c-2.3,2.8-3.1,2-4.2-1c-3.8-9.9-7.6-19.7-11.5-29.6c-1-2.8-1.7-5.8-3-8.3
					c-2.6-5-0.6-6.4,3.2-7.4C1102.4,32.6,1108.7,30.5,1114.9,28.5"/>
				<path class="st12" d="M1111,176c14.5-12.5,29.1-25,43.6-37.5c3.2-2.8,6.5-5.5,9.7-8.3c1.9-1.7,2.9-2,3,1.6
					c0.3,6.7-0.4,12.2-5.1,17.2c-8.3,8.8-15.7,18.8-23.5,28.2c-0.4,0.3-0.9,0.6-1.1,1c-5,9.4-11.4,8.9-18.3,3.6
					C1116.5,179.9,1112.4,180.8,1111,176"/>
				<path class="st12" d="M1165.5,60.7c3.5,6.1,1.3,13,1.6,19.5c0.1,2.2-1.6,0.9-2.5,0.4c-10-6.6-19.9-13.2-30-19.8
					c-1.7-1.1-2.1-2.7-2.1-4.7c-0.3-8.4-0.5-16.9-0.9-25.3c-0.2-3.3,1-2.4,2.4-1.6C1144.5,39.7,1155,50.2,1165.5,60.7"/>
				<path class="st12" d="M1090,55.1c4.9,1.4,7.4,5.4,9.1,11c1.7,5.7,4.1,11,6.3,16.8c-9.9-0.9-16.6-6-20.6-16.7
					c-1.8-4.8-4.5-9.1-6.8-13.7c0.1-0.2,0-0.4-0.2-0.5c4.3-2.2,7.7,0.9,11.3,2.9C1089.4,55.1,1089.7,55.2,1090,55.1"/>
				<path class="st12" d="M1045.5,123.5c20.7-5,40-11.2,59.5-15.6c9.1-2.1,18.2-5,27.2-7.8c2.7-0.8,5.2-0.8,7.9,0.2
					c7.3,2.8,14.7,5.5,23.6,8.8c-7.5,3.4-13.8,6.3-20,9c-20.8,9-41.7,17.9-62.6,27c-1.9,0.8-3.5,1.2-5.4-0.1
					C1066,138.2,1056.3,131.3,1045.5,123.5"/>
				<path class="st12" d="M1108.9,172.3c1-11.5,2-22.6,2.9-33.8c0.2-3.1,2.2-3.4,3.9-4.2c15-6.5,30.1-13.2,45.1-19.6
					c1.9-0.8,5-4.3,6-0.9c1,3.5,1.9,8.6-2.2,11.8c-5.8,4.6-11.4,9.7-17.1,14.6c-10.9,9.4-21.9,18.9-32.8,28.3
					C1113.1,169.9,1111.6,171.9,1108.9,172.3"/>
				<path class="st12" d="M1113.2,86.6c5.6-7.3,11.1-14.6,16.6-22c1.3-1.8,2.5-1.1,3.8-0.2c10.5,6.9,21.1,13.9,31.6,20.8
					c1.4,0.9,2.1,2.1,2,4.1c-0.1,4.6-0.1,9.2-0.1,13.8c0,2.8-1.1,3.2-3,2.5c-17-6.4-34.1-12.8-51.1-19.2
					C1112.9,86.3,1112.7,85.9,1113.2,86.6"/>
				<path class="st12" d="M1067.2,187.4c1.6-8.3,5.6-15.5,7.1-23.6c2.2-11.7,8.6-16.6,17.4-19.2c4.6-1.3,9-3.7,13.4-5.8
					c2.5-1.2,3.6-0.7,3.2,2.8c0,0.2,0,0.4,0,0.6c0.3,13.6-1.9,24.7-14.6,29.7c-7.7,3-14.6,9.1-21.8,13.7
					C1070.5,186.4,1069.2,187.7,1067.2,187.4"/>
				<path class="st12" d="M1073.9,112c5.8-10.3,10.8-19,15.8-27.8c1-1.7,2.3-1.6,3.8-1c11.5,4.3,22.9,8.6,34.4,12.8
					c0.2,0.1,0.4,0.6,0.8,1.3C1110.8,102.1,1093.1,106.9,1073.9,112"/>
				<path class="st12" d="M-14.2,320.2c2.5-7.2,5-14.3,7.5-21.5c0.2-0.9,0.4-1.8,0.6-2.7c2.8-9.3,6.4-18.3,8.6-27.8
					c1.9-3.3,3.4-6.8,2.4-11.1c-1.3-5.2-2.4-10.4-4-15.5c-1.5-5-1.9-10.6-4.2-15.4c-0.8,1-1.5,1.7-2.1,2.5
					c-5.6,8.7-9.4,18.7-13.8,28.3c-0.4,2.5-2.8,4-2.3,7c-0.2,0.2-0.4,0.4-0.5,0.7c1.7,12.4,1.5,24.9,2.7,37.4c0.4,9,0.9,18,1.3,27.1
					c0.3,0,0.7,0.1,1,0.1C-16,326.1-15.1,323.2-14.2,320.2L-14.2,320.2"/>
				<path class="st12" d="M27.8,328.4c-5.3,4.4-11.2,7.5-16.9,10.9c-5.2,3-9.2,8.1-14.6,10.5c-0.6,2.7,1.2,1.5,1.9,1.5
					c11.8-0.1,23.6-0.7,35.4-0.4c5.3,0.1,9.2-1.5,12.2-6.8c2.2-3.9,6.1-6.2,7.3-11.1c-6.9-3.8-14.2-4.8-21.6-6
					C30.2,326.8,28.9,327.5,27.8,328.4"/>
				<path class="st12" d="M37.4,251.8c-0.5,0.4-1.1,0.8-1.8,1.1c-3.9,4.8-4.1,5.8-2,11.9c2.5,7.5,5.9,14.5,8.5,21.8
					c1.3,3.6,3.5,4.7,6.5,3.2c4.7-2.3,9.6-3.8,14.2-6.4c2.7-1.6,5.8-2.3,7.8-5.5c-0.7-6-1.5-12.1-2.9-18c0,0,0,0,0,0
					c-0.1-8.6-2.6-16.7-2.9-25.3c-1.6-5.1-1.8-10.6-2.8-15.9c-0.3-1.5,0.1-3.7-1.3-4.1c-1.3-0.3-2,1.8-2.8,3
					c-1.7,2.5-3.2,5.1-4.7,7.7C47.9,234.2,42.1,242.6,37.4,251.8"/>
				<path class="st12" d="M41,321.4c-1.6,1.2-3.2,2.4-5.8,4.3c6.3,0.8,11.2,3.2,16.7,3.4c-1.1-1.8-1.9-3.2-2.8-4.6
					C46.9,321.6,44.8,318.3,41,321.4"/>
				<path class="st12" d="M30.7,304.4c2.4-2.7,4.8-5.5,7.2-8.2c2-1.8,5-2.9,3.2-7.3c-3.4-8.4-6.7-16.8-10-25.2
					c-0.9-2.3-2.3-3.2-4.4-3c-5.2,0.4-10.3,0.5-15.5,0.8c-1.3,0.1-2.7-0.2-3.3,1.8c-1.4,4.8-3.6,9.3-4.6,14.3
					c-2.7,7.7-5.4,15.3-8.1,23c0.2,2.7-1.8,4.5-1.9,7.1c-2.4,7.1-4.8,14.3-7.2,21.4c-0.8,3.6-3.9,6.8-2.1,10.9
					c1.5,3.5,3.5,6.7,5.3,10c0.4-0.3,0.9-0.5,1.3-0.8c0.6-0.8,1.2-1.7,1.8-2.5c10.8-12.1,22.1-23.6,32.5-36.2
					C27.4,309.4,28.4,306.1,30.7,304.4"/>
				<path class="st12" d="M2,232.2c1.8,7.7,3.5,15.5,5.3,23.2c0.5,2.3,1.9,3,3.6,2.9c3.9-0.2,7.7-0.8,11.5-0.5
					c5.5,0.5,9.6-1.3,11.9-7.6v0c7.1-11.8,14.3-23.5,21.4-35.4c0.6-0.9,1.7-2,0.9-3.3c-0.7-1.1-1.8-0.2-2.6,0
					c-16,2.9-32,5.8-47.9,8.8c-6.9,1.3-6.8,1.4-4.8,9.2C1.6,230.3,1.8,231.2,2,232.2"/>
				<path class="st12" d="M69.9,282.5c-2.3,1.1-4.1,1.9-5.9,2.8v0c0,0,0,0,0,0c-0.2-0.1-0.4,0-0.5,0.2c-4.3,1.3-8.2,3.7-12.3,5.7
					c-1.4,0.6-2.7,1.2-4.1,1.9c-4.8,2.4-7.7,7.6-11.9,11c-7,9.2-15.4,16.6-22.6,25.5c-4,4.2-7.9,8.4-11.9,12.5
					c-0.7,0.7-1,1.4-0.4,2.4c0.5-0.3,1-0.6,1.4-0.9c1.1-0.8,2.2-1.8,3.4-2.5c11.3-7.3,22.5-14.5,33.8-21.8c0,0,0,0,0,0
					c2.3-1.6,4.7-3.1,7-4.7c0.2,0.1,0.4,0.3,0.5,0.4c0.4-0.3,0.9-0.6,1.3-0.8c6.1-4.1,12.1-8.2,18.2-12.2c-0.2-0.3-0.3-0.5-0.5-0.8
					l0.3-1.3C67.5,294.3,68.9,288.8,69.9,282.5"/>
				<path class="st12" d="M1081.2,292.5c3.3-3,6.5-6,9.7-9c0.3,0,0.6,0,0.8-0.1c11.8-10.2,23.5-20.5,35.3-30.6
					c1.9-1.6,1.4-2.9-0.1-3.9c-10.9-7.9-21.1-17.2-32.3-24.4c-3.9-4.2-8.7-7.1-13.1-10.4c-2-1.5-2.5-0.3-2.5,2c0,1-0.1,2.1-0.1,3.1
					c-0.4,15.2-0.2,30.4-1.2,45.5c0.7,8.6-0.2,17.3,0.1,25.9c0,1.2-0.4,2.7,0.7,3.4C1079.8,294.6,1080.4,293.2,1081.2,292.5
					 M1100.4,271.9c0-0.2,0-0.4-0.1-0.6c0.1,0,0.3,0.1,0.5,0.1C1100.7,271.6,1100.6,271.8,1100.4,271.9"/>
				<path class="st12" d="M1110.2,344.8c8.1-5.6,16.3-11,25.3-17.1c-11.2-5.1-21.3-9.7-31.5-14.4c-0.1,0.2-0.2,0.3-0.4,0.4
					c-1.2,3.7,0.1,7.1,1,10.5l0,0.1c0,6.2,0.7,12.3,2.6,18.1c0,0,0,0,0,0C1108.3,343.1,1107.7,346.6,1110.2,344.8"/>
				<path class="st12" d="M1109.7,230.5C1109.7,230.5,1109.7,230.5,1109.7,230.5c2.2,2.6,4.9,4.3,7.6,5.9c0,0,0,0,0,0l0,0
					c2.1,1.6,4.1,3.3,6.2,4.9c8.9,6.6,8.9,6.6,13.2-5.5c0.8-1.7,1.7-3.3,2.5-5c5.2-11.7,10.3-23.4,15.5-35.1c0-1-0.1-1.9-1.1-1.6
					c-5.2,1.3-10.5,2.6-15.7,3.9h0c-6.7,1-13.4,2-19.9,4.5c-3.5,0.8-7.1,1.5-10.6,2.3c-8.2,0.8-16.3,2.4-24.3,5.2
					C1091.6,217.4,1100.6,223.9,1109.7,230.5L1109.7,230.5z"/>
				<path class="st12" d="M1142.3,330.7c-2.5-1.3-4.5-0.3-6.5,1.4c-7.9,5.6-16.4,9.9-24.3,16.7c4.1,1.9,7.5,3.6,11,5.3
					c3.3,1.4,6.7,2.4,9.8,4.2c3.4,2,6.1,1.5,8.5-2c7.3-4.4,13.5-11,20.4-16.2C1155.1,336.4,1148.6,333.9,1142.3,330.7"/>
				<path class="st12" d="M1106.9,309.3c0,0.5,0.1,1,0.1,1.5c9.9,4.4,19.8,8.8,30.4,13.6c-1.6-9.4-3-17.5-4.5-25.7
					c-0.3-1.4-0.1-4.1-2.6-2.6C1122.5,300.5,1114.7,304.9,1106.9,309.3"/>
				<path class="st12" d="M1096.1,306L1096.1,306c3.4,2.8,6.7,2.2,10.1-0.2c4.3-3.1,8.9-5.6,13.4-8.4c0,0,0,0,0,0c0,0,0,0,0,0
					c4.4-2.4,8.7-4.7,13.1-7.1c1.6,0.4,3,1.1,4.5,2c7.9,4.9,15.9,9.6,23.8,14.4c-7.4-14.5-14.5-28.9-23.1-42.1c0,0,0,0,0,0
					c-1.5-2.8-3.1-5.5-4.5-8.4c-1-2.1-2.2-2.7-3.8-1c-4,4.1-8.9,6.9-12.6,11.5c-7.3,5.1-13.7,11.6-20.5,17.6
					c-5.7,4.2-11,9-16.6,14.4C1085.4,301.9,1090.8,303.8,1096.1,306C1096.1,306,1096.1,306,1096.1,306"/>
				<path class="st12" d="M53.1,40.4C45.8,50,39.3,60.4,32.5,70.6C25.7,80.8,18.7,90.8,12,101.1c-2.5,3.9-5.8,2.9-8.9,2.9
					c-8.7,0-9-0.3-4.5-8.9C5.6,81.8,13,68.9,20.2,55.8c2.5-4.6,4.9-9.4,7.3-14.1c1.8-3.6,4-5.6,7.8-5.8c6.6-0.4,13.3-1.4,20.4-1.2
					c-0.6,1.6-1,2.9-1.5,4.2C53.8,39.3,53.5,39.8,53.1,40.4"/>
				<path class="st12" d="M-20.6,155.6c1.3-2.6,4.3-2.6,5.7-5.2c2.8-1.3,5.2-3.5,7.2-6.1c2.7-3.5,5.8-4,9.3-2.9
					c4.6,1.4,9.1,2.9,13.9,3.3c1.9,0.1,2.3,1.7,3.1,3.3c2.9,6,5.7,12.1,9.2,17.5c0,0,0,0.1,0,0.1c0.3,1.6,1.3,2.7,2,4
					c1.2,2.1,0.7,3.6-1.3,4.4c-2.3,0.7-4.6,1.4-6.9,2.1c-5.2,2.9-10.8,4.6-16.4,6.4c-4.4,1.4-7.2-1.8-9.9-5.3
					c-4.2-5.1-8.4-10.2-12.6-15.3C-18.8,160.1-20.3,158.3-20.6,155.6"/>
				<path class="st12" d="M54.4,93.7c-1.9-0.2-3.9-1-5.7-0.6c-5.3,1-6.9-1.7-7-7.8c-0.1-5.1-1-10.2-1.8-15.3
					c-0.8-5.3,2.9-2.4,4.3-3.6c0,0,0,0,0,0c2.4-0.4,4.8-1.2,7.2-1.8c4.7,0.1,9.4-0.4,14-1.2c3.2-0.6,4.5,0.5,5.1,4.9
					c0.9,6.9,0.4,13.8,1.4,20.6c0.2,1.6,0.2,3.6-1.3,4.7C65.2,95.1,59.8,91.9,54.4,93.7"/>
				<path class="st12" d="M64.4,96.8c0.9,1.6,0.4,2.6-0.9,3.3c-14,7.7-27.2,17.1-40.8,25.7c-0.4,0.2-0.8,0.6-1.2,0.7
					c-1.5,0.4-3.1,3.6-4.5,0.6c-1.2-2.6-1.8-6,0.7-8.3c7.7-7,15.4-13.9,23.2-20.7c2.3-2,5.2-0.7,7.8-0.9c3.5-0.3,7.1,0.6,10.6-0.6
					C61,96.7,62.7,96.8,64.4,96.8"/>
				<path class="st12" d="M48.7,148.1c-5.7,1.3-11,3.8-16.3,6.5c-4.4,2.2-10.3-2.3-10.4-8.1c0-2.3,1.5-2.4,2.6-3
					c12.1-5.6,24.2-11.2,36.6-17c1,4.8-3,7-2.6,10.8C56.7,142.9,53.7,146.9,48.7,148.1"/>
				<path class="st12" d="M44.3,11.3c-4.4,4.8-8,10.6-11.6,16.3c-2.3,3.7-3.6,2.6-5.3-0.2c-1.9-3-2.6-6.9-5.3-9.2
					c-0.2-0.8-0.3-1.6-0.5-2.4c4.7-3.9,10.3-4.2,15.7-5.2c2.2-0.5,4.3-1.2,6.5-1.4C45.5,9.1,44.5,10.5,44.3,11.3"/>
				<path class="st12" d="M6.6,41.8c4.6-5.7,6.8-13.4,10.6-19.8c1.3-2.2,1.6-2.8,3.3-0.4C28,32.7,28.3,33,22,44.8
					C12.9,62.1,3.4,79.2-6,96.4c-0.3,0.5-0.8,0.9-1.8,1.8C-8,90.1-8.6,82.6-8.1,75.3C-7.7,70-4,65.9-1.9,61.2
					C0.9,54.8,4.6,48.9,6.6,41.8C6.6,41.9,6.6,41.8,6.6,41.8"/>
				<path class="st12" d="M15.5,141.1c-5.6-1.4-10.9-2.7-16.2-4c-1.4-0.3-2-1.5-2.2-3c-1.3-7.4-2.6-14.7-3.9-22.1
					c-0.5-3,0.3-4.3,3-4.1c3.7,0.3,7.3,0.4,11,0.4c2.3,0,3.5,2,3.7,3.9c0.8,8.7,3.7,16.9,4.6,25.6C15.4,138.6,15.4,139.5,15.5,141.1
					"/>
				<path class="st12" d="M36.8,96.6c-6.7,4.4-12.3,12.4-19.5,17.7c-2.3,1.7-2.9,0.4-3.5-1.8c-1.3-5.1,0.3-9.3,3-13.2
					c5.7-8.2,11.4-16.4,16.9-24.7c1.6-2.4,3.1-1.8,3.5,0.6c1,5.7,1.8,11.6,1.6,17.5C38.9,94.2,38.3,95.1,36.8,96.6"/>
				<path class="st12" d="M19,139c0.3-2.2-2.4-5,1.1-7.1c8.3-5,16.5-10.4,24.8-15.5c1.7-1.1,12.2,2.8,13.2,4.8
					c1.3,2.7-1.1,3.3-2.2,3.9c-6.3,2.9-12.7,5.7-19.2,8.4c-4.7,2-9.1,5.1-14.1,6.1C21.4,139.9,20.2,140.5,19,139"/>
				<path class="st12" d="M49.4,10c2.4,5.1,4.8,10.2,7.1,15.4c1.2,2.7,1.1,4.7-2.2,4.9c-6.4,0.3-12.8,1.7-20.3,1.1
					c4.9-8.1,10.3-14.5,15.2-21.4C49.2,10,49.4,10,49.4,10"/>
				<path class="st12" d="M80.9,476.7c2.7,7.4,0,12.7-4.3,17.8c-3.4,4-6.3,8.8-9.3,13.4c-1.8,2.9-3.4,3.8-6.1,1.4
					c-2.6-2.3-5.5-4.3-8.4-5.9c-2.6-1.4-2.9-3.5-2.6-6.5c1.2-11.4,2.3-22.8,3.5-34.2c1.4-8.2,1.4-8.2,8.3-8.5
					c3.3-0.1,6.5-0.1,9.7-0.7c3.5-0.7,4.5,1.4,5.2,5C78.1,464.6,79.5,470.7,80.9,476.7"/>
				<path class="st12" d="M51.4,462.6c-1.3,11.7-2.7,23.4-3.9,35.2c-0.3,2.8-1.5,4.2-3.3,5.4c-5.5,3.6-10.9,7.3-16.4,10.9
					c-2.2,1.5-7.6-1.1-8.6-4c-0.4-1.2,0.3-1.7,0.8-2.4c9.4-14.5,18.8-29,28.3-43.5c0.8-1.3,1.5-3.1,3.3-2.9L51.4,462.6z"/>
				<path class="st12" d="M19.9,390.6c0.5-0.9,1.1-1.8,1.6-2.7c1.1,0,1.1,1.1,1.4,1.9c3.2,10.7,6.2,21.5,9.6,32.1
					c1.3,4.1,1,7.3-1.5,10.3c-1.7,2.2-1.9,2.2-2.2,0.2c-0.4-2.9-2.1-2.4-3.6-2.3c-2.4,0.1-4.7,0.5-6.6-1.8c-1-1.2-2.2-0.6-3.3-0.2
					c-3.2,1.3-6.8,0.6-9.8,2.8c-0.5,0.4-1.3,0.3-1.7-0.5C9.2,417.2,14.6,403.9,19.9,390.6"/>
				<path class="st12" d="M3.9,430.4c3.1-1,5.9-2.7,9.2-2.7c2.7,0,5.5-3.2,7.8,1.3c0.3,0.7,2.2,0.3,3.4,0.2c4.1-0.5,4.3-0.4,5.2,4.2
					c0.1,0.5,1-0.6,1.5-1c-3.4,6.1-6.9,12.2-10.3,18.4c-0.7,1.3-1.5,1.7-2.6,1.6c-6.6-0.5-13.3-1-19.9-1.4c-2.4-0.1-2.3-1.7-1.7-3.7
					C-1,441.5,1.4,436,3.9,430.4"/>
				<path class="st12" d="M32,410.8c-2.4-7.8-4.8-15.7-7.2-23.5c-0.3-1.1-0.8-2.5,0.6-3.2c7.4,0.7,14.7,1.5,22.1,2
					c2.8,0.2,4.4,1.2,5.5,4.6c1.8,5.7,4,11.1,6.1,16.7c-5.2-1.4-10.4,3.3-15.6-0.7c-1.4-1.1-3.7-0.8-4.8,0.8c-1.4,2.1-5.1,0.7-5,5
					C33.8,412.9,32.4,412,32,410.8"/>
				<path class="st12" d="M32,410.8l1.2,1.1c0.6-4.6,4.7-6.3,6.6-6.1c5.8,0.6,11.7,0.9,17.5,1c0.6,0,1.2,0.4,1.8,0.7
					c2.6,6.3,5.1,12.5,7.7,18.8c-0.7,1.9-2,1.6-3.4,1.5c-8.2-0.5-16.4-1.1-24.6-1.6c-1.3-0.1-2.6,0.1-3.1-2
					C34.6,419.7,33.3,415.3,32,410.8"/>
				<path class="st12" d="M20.9,467.3c-1.2-11.2,4.5-19,9.1-27.3c6.2-11.2,6.1-11.2,17.1-10.3c6.1,0.5,12.2,0.8,19.6,1.2
					c-10.8,16.4-21,31.8-31.1,47.3c-0.5,1.1-1.1,2.7-2.3,1.7c-1.8-1.5-0.7-3.3,0.2-5c-2.8-0.9-5.5-1.2-8.6-0.2c-3.1,1-4.2-0.6-4-4.5
					C20.9,469.2,21,468.2,20.9,467.3"/>
				<path class="st12" d="M19,458.3c-1.1,10.2-2.2,20.1-3.2,29.9c-0.2,2-1,3-2.5,3.8c-9.6,5-19.1,10.1-28.7,15.1
					c-1.4,0.7-2.7,0.8-3.9-0.8c-1.9-2.4-3.8-4.8-5.8-7.1c-1.3-1.5-1.5-2.5,0.2-4c14.1-12.1,28.2-24.4,42.2-36.6
					C17.6,458.4,18,458.4,19,458.3"/>
				<path class="st12" d="M15.6,456.2c-8.1,7.1-16.2,14.1-24.4,21.2c-5.9,5.1-11.9,10.2-17.9,15.3c-3.9,3.3-4.7-2.2-6.7-3.8
					c-2.2-1.7-0.8-3.4,0.6-4.9c8.4-9.6,16.7-19.1,25-28.7c0.7-0.8,1.3-1.6,2.3-1.6c7,0.5,13.9,1,20.9,1.5
					C15.5,455.5,15.5,455.9,15.6,456.2"/>
				<path class="st12" d="M20.9,467.3c0.2,0.4,0.4,0.8,0.6,1.2c0.9,1.6-1.8,4.4,1,5.1c2.4,0.7,4.9,0.6,6.3-3.7
					c1.5,5.6,4.2,3.5,7.8,2.1c-1.5,2.1-2.3,3.2-3.1,4.3c-0.5,0.8-0.9,1.8-0.3,2.5c1,1.3,1.5-0.4,2.3-0.7c-5,7.8-10,15.7-15.2,23.3
					c-4.7,6.8-4.8,6.7-11.8,3c-1.6-0.9-3.2-1.8-5.5-3.1c4.4-2.5,8.1-4.8,11.9-6.6c2.4-1.2,3.3-3,3.6-6
					C19.2,481.6,20.1,474.4,20.9,467.3"/>
				<path class="st12" d="M1092,413.8c7.1,1.6,14.2,3.7,22.1,4.5c-5-15.4-9.7-30.1-14.7-45.8c-1.7,5.8-2,10.6-4,14.8
					c-0.1,0.8-0.3,1.6-0.4,2.4c-1.4,6.7-2.8,13.4-4.3,20.1C1090.4,411.5,1089.6,413.3,1092,413.8"/>
				<path class="st12" d="M1111.2,399c1.7,5.2,3.3,10.5,5.3,16.7c3.2-10.1,6.1-18.9,8.9-27.8c0.1-1,0.2-1.9,0.3-2.9
					c-2-4.6-6.5-4.4-9.6-6.9c-3.8-3.1-7.9-6-12.5-7.3l0,0c-1.4,1.7-0.2,3.4,0.2,4.9C1106.2,383.4,1108.7,391.2,1111.2,399"/>
				<path class="st12" d="M1071.1,450c7,0.6,14,1.2,21.9,1.9c-5.6-11.9-10.8-22.9-15.9-33.8c-0.4-0.9-1-0.2-1.5,0
					c-2.3,9.1-4.5,18.3-6.9,27.4C1067.9,448.5,1068,450.3,1071.1,450"/>
				<path class="st12" d="M1122.4,479.4c-6.6-18-13.2-36-19.8-54.1c-2.1,8.8-3.5,17.3-4.7,25.8c-0.2,1.3-0.6,2.7,0,4.1
					c6.2,14.2,12.4,28.5,18.6,42.7c0-0.1,0-0.2,0-0.3c0,0.1,0,0.2,0,0.3c2.7,6.7,5.5,13.4,8.2,20.1l0,0c3.7,2.3,6.2-1.9,9.3-2.5
					c1.6-0.6,1.5-2,1-3.5C1130.8,501.3,1126.6,490.3,1122.4,479.4 M1113.6,483.4c0.1,0.6,0.4,1.2,0.7,1.7
					C1113.6,484.7,1113.5,484.1,1113.6,483.4 M1115.9,492.8C1115.9,492.8,1115.9,492.8,1115.9,492.8
					C1115.9,492.8,1115.9,492.8,1115.9,492.8C1115.9,492.8,1115.9,492.8,1115.9,492.8"/>
				<path class="st12" d="M1106.6,484.1C1106.6,484.1,1106.6,484.1,1106.6,484.1c-3.5-8.5-7.1-17-10.5-25.5c-1-2.5-2.7-2.8-4.7-3
					c-7.1-0.9-14.1-1.8-21.2-2.8c-1.1,0.7-0.8,1.7-0.3,2.7c9.3,17.5,18.5,35,27.8,52.6c0.5,2.8,2,4,4.2,4.5c4.1,1,8.1,2.3,12.2,3.5
					c2.1,0.4,4.1,0.8,6.8,1.3c-4-9.6-7.8-18.5-11.5-27.5C1108.7,487.9,1107.6,486,1106.6,484.1"/>
				<path class="st12" d="M1099.3,423.3c0.6-3.5-0.4-4.4-2.9-4.9c-5.5-1.2-10.9-2.7-16.3-4.1c-0.2,0.1-0.4,0.3-0.7,0.3
					c4.4,11.5,10.3,22,15.8,34.5C1096.7,439.6,1097.8,431.4,1099.3,423.3"/>
				<path class="st12" d="M1141.2,448.7c-4.5-19-8.8-38-13.1-57c0,0-0.1-0.2-0.1-0.2c-0.4,0.3-0.9,0.5-1,0.9c-2.8,9-5.5,18-8.3,27
					c-0.5,1.6,0,3.1,0.5,4.6c3.3,10.3,6.4,20.6,9.6,30.9c3.3,10.4,6.7,20.7,10,31c1.6-7,2.2-14,3.2-20.9
					C1142.9,459.4,1142.5,454.2,1141.2,448.7"/>
				<path class="st12" d="M1116.6,426.6c-0.5-1.7-0.7-3.9-2.9-4.2c-3-0.5-5.9-1.3-9.8-2.1c5.5,15,10.8,29,15.9,43.1
					c5.4,14.9,11.5,29.5,16.3,44.8c0,0,0.1,0.1,0.1,0.1c1-0.4,1.1-1.3,1.3-2.4c1.8-8.1-0.5-15.3-2.9-22.6
					C1128.5,464.4,1122.7,445.4,1116.6,426.6"/>
				<path class="st12" d="M148,87.6c11.3-3.6,22.7-7,33.9-10.8c2.9-1,4.2-0.2,5.4,3.1c3.8,11.1,7.7,22.2,11.8,33.2
					c1.7,4.5-1.7,4.4-3.2,6.1c-10.5,5.2-21.1,10.3-31.6,15.5c-2.4,1.2-4.3,2.1-5.4-2.1c-3.6-14.3-7.3-28.5-10.9-42.7
					C147.9,89.2,148,88.4,148,87.6"/>
				<path class="st12" d="M129.8,8.4c6.9,2.4,13.8,4.9,20.7,7c2.1,0.6,3.3,1.6,3.7,4.2c1.6,10.3,3.5,20.5,5,30.7
					c1,7.1-3.9,1.1-5.3,3.3c-10.2-1.1-20.4-2.2-30.7-3.1c-3.6-0.3-5.3-0.8-4-6.2c2.6-11,4.6-22.3,6.3-33.5
					C126.4,6.6,128.2,8.5,129.8,8.4"/>
				<path class="st12" d="M226.1,64.4c3-21.3,6-42.6,9-63.9c0.7-4.7,1.4-9.4,2-14.2c0.4-2.8,0.9-3.9,3.1-1.4
					c4.1,4.5,6.8,8.9,6.4,16.6c-0.7,13.3-0.2,26.7-0.2,40.1c-0.1,0.6-0.3,1.2-0.2,1.7c1.9,11-2.9,16.1-10.9,18.3
					C232.2,62.4,229.8,66.6,226.1,64.4"/>
				<path class="st12" d="M149.1,83.5c11.7-21.3,21.7-42.2,33-62c5.3-9.3,9.9-19.1,14.7-28.8c1.4-2.9,3.3-5,5.7-6.6
					c6.8-4.3,13.6-8.7,21.8-14c-3.3,8.9-6,16.3-8.9,23.6c-9.5,24.2-19,48.4-28.5,72.7c-0.9,2.2-1.8,3.9-3.9,4.5
					C172.2,76.2,161.3,79.6,149.1,83.5"/>
				<path class="st12" d="M222.4,63.5c-6-9-11.8-17.7-17.7-26.4c-1.6-2.4-0.5-4.3,0.3-6.3c6.8-17.5,13.6-35.1,20.5-52.5
					c0.9-2.2,1-7.3,3.7-5.8c2.8,1.6,6.4,4.4,5.3,10.3c-1.5,8.2-2.4,16.6-3.6,25c-2.2,16.1-4.4,32.1-6.7,48.2
					C223.9,58.3,224.1,60.9,222.4,63.5"/>
				<path class="st12" d="M201.7,110c-3.8-7.2-5.1-15.8-8.8-22.8c-5.3-10.2-3.6-19.1,1.1-28.5c2.5-4.9,4.2-10.3,6.1-15.5
					c1.1-2.9,2.2-3.6,3.9-0.8c0.1,0.2,0.2,0.3,0.3,0.4c8.2,9.3,13.1,19.1,7,33.5c-3.7,8.7-5,18.9-7.4,28.4
					C203.5,106.5,203.3,108.5,201.7,110"/>
				<path class="st12" d="M162.5,50.9c-1.9-12.3-3.4-22.7-5-33.2c-0.3-2,0.7-3.1,2.1-4C170.2,7,180.8,0.1,191.4-6.7
					c0.2-0.1,0.6,0.1,1.3,0.2C182.8,12.3,173,30.9,162.5,50.9"/>
				<path class="st12" d="M343.8,73.1c-2.5-3.9-5-7.9-7.4-11.8c0-0.3,0-0.8-0.1-1C327.8,46,319.3,31.8,311,17.5
					c-1.3-2.3-2.4-1.7-3.2,0.1c-6.6,13.2-14.2,25.5-20.1,39.2c-3.5,4.8-5.8,10.5-8.6,15.8c-1.3,2.5-0.3,3,1.6,3
					c0.9,0,1.7,0.1,2.6,0.2c12.5,0.5,25,0.2,37.5,1.4c7.1-0.9,14.3,0.2,21.4-0.1c1,0,2.2,0.5,2.8-0.8
					C345.5,74.8,344.4,74,343.8,73.1 M326.8,49.7c-0.2,0-0.3,0-0.5,0.1c0-0.2,0.1-0.4,0.1-0.6L326.8,49.7z"/>
				<path class="st12" d="M387,37.9c-4.6-9.8-9.1-19.7-14.1-30.7c-4.2,13.6-8,25.9-11.8,38.2c0.1,0.1,0.2,0.3,0.3,0.5
					c3.1,1.4,5.9-0.1,8.7-1.3l0.1,0c5.1,0.1,10.1-0.9,14.9-3.1l0,0C385.5,40.2,388.4,41,387,37.9"/>
				<path class="st12" d="M292.6,38.5C292.6,38.5,292.6,38.5,292.6,38.5c2.1-2.7,3.5-5.9,4.9-9.2c0,0,0,0,0,0l0,0
					c1.3-2.5,2.8-5,4-7.5c5.5-10.8,5.5-10.8-4.5-16c-1.4-1-2.7-2.1-4.1-3c-9.7-6.3-19.3-12.5-29-18.8c-0.8,0-1.5,0.1-1.3,1.4
					c1,6.4,2.1,12.7,3.2,19.1h0c0.8,8.1,1.6,16.3,3.7,24.1c0.6,4.3,1.3,8.6,1.9,12.9c0.7,10,1.9,19.8,4.3,29.4
					C281.8,60.5,287.2,49.5,292.6,38.5L292.6,38.5z"/>
				<path class="st12" d="M375.3-1c-1.1,3.1-0.3,5.4,1.1,7.8c4.6,9.5,8.1,19.8,13.8,29.4c1.6-4.9,3-9.1,4.4-13.3
					c1.1-4,2-8.1,3.5-11.8c1.6-4.1,1.2-7.4-1.6-10.3c-3.7-8.9-9-16.4-13.3-24.7C380-16.6,378-8.6,375.3-1"/>
				<path class="st12" d="M357.7,41.9c0.4,0,0.8-0.1,1.3-0.1c3.6-12,7.3-24,11.2-36.8c-7.7,2-14.5,3.6-21.2,5.4
					c-1.2,0.3-3.4,0.1-2.2,3.1C350.4,23,354,32.5,357.7,41.9"/>
				<path class="st12" d="M354.9,55C354.9,55,354.9,55,354.9,55c2.3-4.1,1.9-8.1-0.2-12.3c-2.5-5.3-4.6-10.8-6.9-16.3c0,0,0,0,0,0
					c0,0,0,0,0,0c-2-5.3-3.9-10.5-5.9-15.8c0.3-1.9,0.9-3.7,1.6-5.4c4.1-9.6,7.9-19.3,11.8-28.9c-12,9-23.9,17.6-34.7,28
					c0,0,0,0,0,0c-2.3,1.8-4.6,3.8-6.9,5.5c-1.8,1.3-2.2,2.7-0.9,4.6c3.4,4.9,5.7,10.7,9.5,15.3c4.2,8.8,9.6,16.6,14.5,24.8
					c3.4,7,7.5,13.4,11.9,20.2C351.5,68,353.1,61.5,354.9,55C354.9,55,354.9,55,354.9,55"/>
				<path class="st11" d="M680.8,11.5c4-2.5,7.6-1.5,11.4,1.1c3.8,2.7,8.1,4.6,12.3,6.9c-7.2,6.4-14.2,7.6-21.9,3.2
					c-3.5-2-7.4-3-11.1-4.5c-0.1-0.2-0.2-0.3-0.4-0.3c1.9-4.5,5.6-4.8,9-6C680.5,11.9,680.7,11.8,680.8,11.5"/>
				<path class="st11" d="M573.2,112.4c-3-11.1-7-21.8-10.7-32.6c-3.7-10.8-7.1-21.8-10.9-32.5c-1.4-4.1,0.6-6.7,1.9-9.7
					c3.7-8.2,4.1-8.4,7.7-0.4c5.6,12.3,10.7,25,16.1,37.4c1.9,4.4,3.9,8.7,6,13c1.6,3.2,1.9,6.2,0.4,9.9c-2.6,6.5-4.8,13.2-8,19.8
					c-0.8-1.2-1.4-2.2-2.1-3.2C573.6,113.5,573.4,112.9,573.2,112.4"/>
				<path class="st11" d="M530.5-7.1c1.1,2.4-0.2,5.2,0.9,7.6c-0.3,3.2,0.1,6.4,0.8,9.4c1.1,4.1,0.1,7.2-2.2,10
					c-2.9,3.7-5.8,7.4-8.1,11.7c-0.9,1.7-2.1,1.5-3.4,1.5c-5.1,0.1-10.2,0.2-15.3,1.2c0,0-0.1,0-0.1,0c-1.2-0.4-2.3,0-3.4,0.2
					c-1.9,0.3-2.6-0.9-2.3-3.1c0.5-2.5,1.1-5,1.6-7.5c0.4-6.2,1.7-12.2,2.9-18.3c1-4.8,4.3-6.1,7.7-7.1c5.1-1.8,10.2-3.6,15.3-5.4
					C526.8-7.3,528.6-8,530.5-7.1"/>
				<path class="st11" d="M538.2,90.6c1-1.7,2.3-3.2,2.8-5.1c1.6-5.4,4.1-5.8,8-3.3c3.3,2.1,7,3.4,10.6,4.9c3.7,1.5,0.3,3.8,0.5,5.6
					c0,0,0,0.1,0,0.1c-0.8,2.5-1.3,5.1-1.9,7.6c-2.1,4.4-3.8,9.1-5.2,13.8c-1,3.3-2.3,4.1-5.3,2.8c-4.8-2.1-9.1-5.5-13.9-7.6
					c-1.1-0.5-2.4-1.3-2.5-3.3C532.6,100.3,537,96.5,538.2,90.6"/>
				<path class="st11" d="M531.9,98.8c-1.4,0.2-1.8-0.8-1.7-2.3c1-16.6,0.6-33.2,1-49.8c0-0.5,0-1,0.1-1.4c0.4-1.6-1-4.5,1.5-4.5
					c2.2,0,4.6,0.9,5,4.3c1.2,10.3,2.4,20.6,3.4,30.9c0.3,3-1.8,5.2-2.8,7.8c-1.3,3.5-3.4,6.5-4.2,10.3
					C533.4,95.6,532.7,97.2,531.9,98.8"/>
				<path class="st11" d="M505.6,61.8c1.6-5.9,2.3-12.1,2.8-18.3c0.4-5.1,6-8.8,9.7-6.4c1.5,1,0.9,2.4,0.8,3.8
					c-1.6,13.9-3.1,27.8-4.8,42.1c-3.5-1.1-3.3-5.9-5.9-7.1C505.5,71.7,504.2,67.1,505.6,61.8"/>
				<path class="st11" d="M602.5,51.7c-4.6-3.4-6.5-9.6-9.7-14.3c-1.8-2.6-3.7-5.3-5.1-8.5c-1.2-2.7,0.1-4.2,0.8-6.1
					c1-2.6,2.5-0.7,3.8-0.6l0.1,0c4.5,4.1,9,8.2,12.3,14c0.1,0.5,0.2,1,0.4,1.6c0.5,3-1,5.7-1.2,8.6C603.1,48,602.4,49.7,602.5,51.7
					"/>
				<path class="st11" d="M595.7,116.5c-1.2-6.3-3.4-12.2-5.5-18c-1.4-3.8-0.1-4.5,2.4-5c2.7-0.5,5.6,0.6,8.2-1
					c0.6,0.2,1.2,0.4,1.8,0.5c0.5,6.2-1.7,11.6-3.4,17.1c-0.6,2.3-1.1,4.6-1.9,6.7C596.7,118.6,596.2,117.1,595.7,116.5"/>
				<path class="st11" d="M592.3,67.6c1.7,6.9,5.7,12.2,8.2,18.6c0.9,2.2,1.1,2.8-1.2,3.3C589,91.9,588.6,92,583.7,81
					c-7.3-16.2-14.2-32.5-21.3-48.8c-0.2-0.5-0.2-1.2-0.4-2.5c5.3,3.3,10.4,5.9,14.9,9.6c3.3,2.7,4.3,7.9,6.4,11.9
					C586.3,56.6,588.5,62.7,592.3,67.6C592.2,67.5,592.3,67.6,592.3,67.6"/>
				<path class="st11" d="M524.3,33.3c3.3-4.7,6.4-9.2,9.6-13.7c0.8-1.2,1.8-1.2,2.9-0.8c5.3,1.9,10.6,3.9,15.9,5.8
					c2.2,0.8,2.7,2.2,1.4,4.6c-1.8,3.4-3.4,6.8-5,10.3c-1,2.2-2.8,2.4-4.1,1.8c-6-3-12.5-3.8-18.5-6.7
					C526,34.4,525.4,33.9,524.3,33.3"/>
				<path class="st11" d="M543.9,72.7c0-8.3-2.7-17-3.1-26.1c-0.1-2.9,1-2.9,2.6-2.5c3.9,1,5.9,4.3,7.2,8.5
					c2.8,8.9,5.7,17.8,8.7,26.7c0.9,2.6-0.1,3.7-1.9,3c-4.1-1.6-8.2-3.3-12-6C544.6,75.7,544.3,74.7,543.9,72.7"/>
				<path class="st11" d="M524.2,37.6c1.3,1.3,4.3-0.2,4.1,4.1c-0.3,10-0.4,20.1-0.7,30.1c-0.1,2.1-7,10.4-8.8,10.4
					c-2.3,0.1-1.7-2.4-1.5-3.8c0.8-7.3,1.8-14.5,2.8-21.8c0.7-5.3,0.6-10.8,2.1-16C522.6,39.5,522.7,38.1,524.2,37.6"/>
				<path class="st11" d="M576.2,21.6c-0.7-2.8-1.3-5.6-2-8.3c-0.8-2.9-0.2-4.3,2.5-3.9c3.8,0.5,7.6,0.9,11.4,1.2
					c1.8,0.2,3.1,0.8,1.9,3.2c-3,6-6.2,11.9-9.4,17.8c-1,1.9-1.7,0.7-2.1-0.7c-0.8-3.1-1.5-6.2-2.2-9.2
					C576.3,21.6,576.2,21.6,576.2,21.6"/>
				<path class="st11" d="M594.4,121.8c-4.3,0-8.7,0.2-13,0.1c-2.2,0-3.5-1-2.2-4.2c2.6-6.3,4.4-12.9,8-19.7c3.1,8.1,5,16,7.3,23.7
					C594.4,121.7,594.4,121.8,594.4,121.8"/>
				<path class="st11" d="M582,41.5c-1.7-5.3,1-7.2,2.4-9.7c0.6-1,1.4-0.1,1.9,0.7c3.9,6.2,7.9,12.4,11.7,18.7c0.5,0.8,1,2,0.1,3
					c-1.3,1.5-9,1.3-10-0.6C585.8,49.3,583.6,44.7,582,41.5"/>
				<path class="st11" d="M573.2,22c0.7,2.8,1.4,5.5,2,8.3c0.2,0.9,0.7,1.9-0.1,2.6c-0.8,0.6-1.5-0.1-2.2-0.5
					c-3.4-2.2-6.7-4.4-10.1-6.6c-1.8-1.1-2.8-2.1-0.7-4.4c2.3-2.6,4.1-5.7,6.2-8.6c1.5-2.1,2.3-1.5,2.8,1c0.6,2.8,1.3,5.5,2,8.3
					C573.1,22,573.1,22,573.2,22"/>
				<path class="st11" d="M373.1,58c0.6,4.3,1.2,7.2,1.5,10.1c0.3,2.5,1.6,5.2,0.6,7.4c-2.2,4.4-1.1,8.5-0.4,12.8
					c0.9,5.7,2.3,11.4,2.7,17.2c0.5,8,3.6,13.6,9.2,17.5c2.3,1.6,3.7,4.9,6.7,4.8c-1.5-11.9-2.8-23.7-3.5-35.7c-0.4-2-0.3-4.3-1.1-6
					C384,77,379.4,67.7,373.1,58"/>
				<path class="st11" d="M370,90.1c-1.1,2.7-1.7,6.1-3.4,7.9c-2.3,2.5-4.2-2.1-6.7-2c-0.1,0-0.3,0-0.4,0
					c2.2,13.2,4.5,26.5,6.7,39.7c6-9.6,13-18.7,8.3-32.6c-1.7-5-1.9-10.7-2.7-16.1C370.8,88.1,370.4,89.1,370,90.1"/>
				<path class="st11" d="M424.6,68c-6.4,1-12.9,1.6-19.8,3.4c7.7,11.5,15,22.4,22.8,34.1c0.2-5.5-0.7-9.7,0-13.9
					c-0.1-0.7-0.1-1.4-0.2-2.1c-0.3-6.2-0.6-12.3-0.9-18.5C426.5,69.5,426.8,67.7,424.6,68"/>
				<path class="st11" d="M411.6,86.9c-2.6-3.9-5.2-7.8-8.2-12.4c-0.5,9.6-0.9,18.1-1.3,26.6c0.1,0.9,0.3,1.7,0.4,2.6
					c2.8,3.2,6.5,1.6,9.7,2.7c3.9,1.4,8.1,2.5,12.3,2l0,0c0.8-1.9-0.6-3-1.3-4.1C419.4,98.5,415.5,92.7,411.6,86.9"/>
				<path class="st11" d="M434.2,30.3c-6.1,1.8-12.2,3.6-19.1,5.6c7.4,8.2,14.3,15.9,21.2,23.5c0.5,0.6,0.9-0.2,1.3-0.5
					c-0.1-8.5-0.2-17-0.2-25.6C437.3,30.5,436.8,29,434.2,30.3"/>
				<path class="st11" d="M384,22.2c9.7,13.1,19.3,26.3,29,39.4c-0.2-8.2-0.9-15.9-1.8-23.5c-0.1-1.2-0.1-2.5-0.9-3.5
					c-8.5-10-17-20.1-25.4-30.2c0,0.1,0.1,0.2,0.1,0.2c0-0.1-0.1-0.2-0.1-0.2c-3.8-4.8-7.6-9.6-11.5-14.4l0,0
					c-3.6-0.7-4.8,3.7-7.4,5.2c-1.2,1.1-0.8,2.2-0.1,3.3C371.9,6.5,377.9,14.4,384,22.2 M390.6,16c-0.3-0.5-0.6-0.9-1-1.3
					C390.3,14.8,390.6,15.3,390.6,16 M386.6,8.7C386.5,8.7,386.5,8.7,386.6,8.7C386.5,8.7,386.5,8.7,386.6,8.7
					C386.5,8.7,386.5,8.7,386.6,8.7"/>
				<path class="st11" d="M396.4,13.1C396.4,13.1,396.4,13.1,396.4,13.1c4.9,6.1,9.8,12.1,14.7,18.3c1.4,1.8,2.9,1.4,4.6,1
					c6.2-1.6,12.4-3.1,18.6-4.7c0.7-1,0.3-1.7-0.4-2.4c-11.8-11.8-23.7-23.7-35.5-35.5c-1-2.2-2.6-2.7-4.6-2.4
					c-3.7,0.5-7.5,0.7-11.2,1c-1.9,0.3-3.7,0.7-6.1,1.1c5.6,6.8,10.8,13.2,16,19.5C393.8,10.5,395.1,11.7,396.4,13.1"/>
				<path class="st11" d="M416.3,62.3c0.2,3.1,1.3,3.6,3.5,3.2c4.9-0.7,9.9-1.3,14.8-1.9c0.2-0.2,0.3-0.4,0.5-0.5
					c-6.4-8.3-13.7-15.3-21.2-24.1C414.9,47.6,415.8,54.9,416.3,62.3"/>
				<path class="st11" d="M367.9,139.3c0,1.1,0.4,1.8,1.1,2.3c4.4,3.3,8.9,6.7,13.3,10c-1.5-9.7-3.1-19.4-4.7-29.9
					C374.1,128.1,371,133.7,367.9,139.3"/>
				<path class="st11" d="M380.2,121c1.5,9.6,2.9,18.3,4.3,27c0.3,1.8,1,1.6,1.8,0.5c2.1-4.5,4.2-8.9,6.3-13.4c0.1-1.3,0-2.4-1-3.3
					C388,128.4,384.4,125,380.2,121"/>
				<path class="st11" d="M327.6,90.3c4.5,6.3,9.1,12.6,14.1,19.4c0.8-3.4,1.5-5.9,2.1-8.4c0,0,0,0,0,0c0,0,0,0,0,0
					c0.3-0.6,0.5-1.2,0.8-1.7c1.5-4,4-7.6,3.4-12.5c-0.2-0.3-0.4-0.5-0.5-0.8c-0.6-14.2-2.2-28.3-3.7-42.4c0.1-0.3,0.4-0.5,0.8-0.7
					c-0.2-8.5-1.1-17-2-25.4c-0.4-3.4-1.9-4.1-4.5-2.5c-2.4,1.5-4.7,3.4-7,5.2c-5.6,4.2-6.3,6.6-4.8,14.4
					c0.3,11.6,0.6,23.2,0.9,34.7c0,0,0,0,0,0c0,5.2,0,10.4,0.1,15.6C327.1,86.9,326.5,88.8,327.6,90.3"/>
				<path class="st11" d="M374.9,54.6c8.1,14.6,16,29.4,24,44.2c0,0,0.1,0.1,0.1,0.1c0.2-0.4,0.7-0.7,0.7-1.1
					c0.4-8.6,0.7-17.1,1-25.7c0.1-1.6-0.7-2.6-1.5-3.7c-5.1-7.7-10.1-15.4-15.2-23.1c-5.1-7.7-10.3-15.4-15.5-23.1
					c0.2,6.5,1.3,12.7,2,18.9C371.1,46,372.6,50.4,374.9,54.6"/>
				<path class="st11" d="M400.8,65.3c0.8,1.3,1.5,3,3.4,2.7c2.7-0.5,5.3-0.9,8.8-1.4c-8.1-11-15.7-21.1-23.2-31.4
					c-8-10.9-16.5-21.3-23.9-32.7c0,0-0.1-0.1-0.1-0.1c-0.8,0.7-0.6,1.5-0.6,2.5c0.2,7.5,3.9,12.8,7.6,18.3
					C382.2,37.1,391.4,51.2,400.8,65.3"/>
				<path class="st11" d="M347,45.9c-0.2,0.5-0.4,0.9-0.6,1.3c0.6,12.6,1.5,25.3,3.3,37.8c0.1,0.8,0.5,1.4,1.2,1.7
					c0.8,0.2,1.5,0.5,2.3,0.7c1.6,1.3,3.3,2.6,4.9,3.8c1.3,0.7,2.7,1.3,3.9,2.2c2.5,1.9,3.8,1.2,4.9-2.1c1.6-5,3.5-9.9,5.2-14.8
					c0.5-1.3,0.8-2.5,0.5-4.1c-2.4-15.3-4.7-30.7-7-46.1h0c-0.9-9.2-2.3-18.3-4.1-27.3L361.2-1c-0.8,0-1.6,0-2.3,0.4
					c-4.8,3.2-9.5,6.7-13.9,10.6c-1.1,1-1.7,2.4-1.7,4.1c0.3,1.1,0.7,2.2,1.1,3.3C345.2,26.9,346.1,36.4,347,45.9"/>
				<path class="st12" d="M446.1,87.6c11.3-3.6,22.7-7,33.9-10.8c2.9-1,4.2-0.2,5.4,3.1c3.8,11.1,7.7,22.2,11.8,33.2
					c1.7,4.5-1.7,4.4-3.2,6.1c-10.5,5.2-21.1,10.3-31.6,15.5c-2.4,1.2-4.3,2.1-5.4-2.1c-3.6-14.3-7.3-28.5-10.9-42.7
					C445.9,89.2,446.1,88.4,446.1,87.6"/>
				<path class="st12" d="M427.9,8.4c6.9,2.4,13.8,4.9,20.7,7c2.1,0.6,3.3,1.6,3.7,4.2c1.6,10.3,3.5,20.5,5,30.7
					c1,7.1-3.9,1.1-5.3,3.3c-10.2-1.1-20.4-2.2-30.7-3.1c-3.6-0.3-5.3-0.8-4-6.2c2.6-11,4.6-22.3,6.3-33.5
					C424.5,6.6,426.3,8.5,427.9,8.4"/>
				<path class="st12" d="M524.2,64.4c3-21.3,6-42.6,9-63.9c0.7-4.7,1.4-9.4,2-14.2c0.4-2.8,0.9-3.9,3.1-1.4
					c4.1,4.5,6.8,8.9,6.4,16.6c-0.7,13.3-0.2,26.7-0.2,40.1c-0.1,0.6-0.3,1.2-0.2,1.7c1.9,11-2.9,16.1-10.9,18.3
					C530.3,62.4,527.9,66.6,524.2,64.4"/>
				<path class="st12" d="M447.2,83.5c11.7-21.3,21.7-42.2,33-62c5.3-9.3,9.9-19.1,14.7-28.8c1.4-2.9,3.3-5,5.7-6.6
					c6.8-4.3,13.6-8.7,21.8-14c-3.3,8.9-6,16.3-8.9,23.6C504,19.8,494.4,44,485,68.3c-0.9,2.2-1.8,3.9-3.9,4.5
					C470.2,76.2,459.4,79.6,447.2,83.5"/>
				<path class="st12" d="M520.4,63.5c-6-9-11.8-17.7-17.7-26.4c-1.6-2.4-0.5-4.3,0.3-6.3c6.8-17.5,13.6-35.1,20.5-52.5
					c0.9-2.2,1-7.3,3.7-5.8c2.8,1.6,6.4,4.4,5.3,10.3c-1.5,8.2-2.4,16.6-3.6,25c-2.2,16.1-4.4,32.1-6.7,48.2
					C522,58.3,522.1,60.9,520.4,63.5"/>
				<path class="st12" d="M499.8,110c-3.8-7.2-5.1-15.8-8.8-22.8c-5.3-10.2-3.6-19.1,1.1-28.5c2.5-4.9,4.2-10.3,6.1-15.5
					c1.1-2.9,2.2-3.6,3.9-0.8c0.1,0.2,0.2,0.3,0.3,0.4c8.2,9.3,13.1,19.1,7,33.5c-3.7,8.7-5,18.9-7.4,28.4
					C501.6,106.5,501.4,108.5,499.8,110"/>
				<path class="st12" d="M460.6,50.9c-1.9-12.3-3.4-22.7-5-33.2c-0.3-2,0.7-3.1,2.1-4C468.3,7,478.8,0.1,489.5-6.7
					c0.2-0.1,0.6,0.1,1.3,0.2C480.9,12.3,471.1,30.9,460.6,50.9"/>
				<path class="st12" d="M641.9,73.1c-2.5-3.9-5-7.9-7.4-11.8c0-0.3,0-0.8-0.1-1C625.9,46,617.4,31.8,609,17.5
					c-1.3-2.3-2.4-1.7-3.2,0.1c-6.6,13.2-14.2,25.5-20.1,39.2c-3.5,4.8-5.8,10.5-8.6,15.8c-1.3,2.5-0.3,3,1.6,3
					c0.9,0,1.7,0.1,2.6,0.2c12.5,0.5,25,0.2,37.5,1.4c7.1-0.9,14.3,0.2,21.4-0.1c1,0,2.2,0.5,2.8-0.8
					C643.6,74.8,642.5,74,641.9,73.1 M624.9,49.7c-0.2,0-0.3,0-0.5,0.1c0-0.2,0.1-0.4,0.1-0.6L624.9,49.7z"/>
				<path class="st12" d="M685.1,37.9c-4.6-9.8-9.1-19.7-14.1-30.7c-4.2,13.6-8,25.9-11.8,38.2c0.1,0.1,0.2,0.3,0.3,0.5
					c3.1,1.4,5.9-0.1,8.7-1.3l0.1,0c5.1,0.1,10.1-0.9,14.9-3.1l0,0C683.6,40.2,686.5,41,685.1,37.9"/>
				<path class="st12" d="M590.7,38.5C590.7,38.5,590.7,38.5,590.7,38.5c2.1-2.7,3.5-5.9,4.9-9.2c0,0,0,0,0,0l0,0
					c1.3-2.5,2.8-5,4-7.5c5.5-10.8,5.5-10.8-4.5-16c-1.4-1-2.7-2.1-4.1-3c-9.7-6.3-19.3-12.5-29-18.8c-0.8,0-1.5,0.1-1.3,1.4
					c1,6.4,2.1,12.7,3.2,19.1h0c0.8,8.1,1.6,16.3,3.7,24.1c0.6,4.3,1.3,8.6,1.9,12.9c0.7,10,1.9,19.8,4.3,29.4
					C579.9,60.5,585.3,49.5,590.7,38.5L590.7,38.5z"/>
				<path class="st12" d="M673.4-1c-1.1,3.1-0.3,5.4,1.1,7.8c4.6,9.5,8.1,19.8,13.8,29.4c1.6-4.9,3-9.1,4.4-13.3
					c1.1-4,2-8.1,3.5-11.8c1.6-4.1,1.2-7.4-1.6-10.3c-3.7-8.9-9-16.4-13.3-24.7C678.1-16.6,676-8.6,673.4-1"/>
				<path class="st12" d="M655.8,41.9c0.4,0,0.8-0.1,1.3-0.1c3.6-12,7.3-24,11.2-36.8c-7.7,2-14.5,3.6-21.2,5.4
					c-1.2,0.3-3.4,0.1-2.2,3.1C648.5,23,652.1,32.5,655.8,41.9"/>
				<path class="st12" d="M653,55C653,55,653,55,653,55c2.3-4.1,1.9-8.1-0.2-12.3c-2.5-5.3-4.6-10.8-6.9-16.3c0,0,0,0,0,0
					c0,0,0,0,0,0c-2-5.3-3.9-10.5-5.9-15.8c0.3-1.9,0.9-3.7,1.6-5.4c4.1-9.6,7.9-19.3,11.8-28.9c-12,9-23.9,17.6-34.7,28
					c0,0,0,0,0,0c-2.3,1.8-4.6,3.8-6.9,5.5c-1.8,1.3-2.2,2.7-0.9,4.6c3.4,4.9,5.7,10.7,9.5,15.3c4.2,8.8,9.6,16.6,14.5,24.8
					c3.4,7,7.5,13.4,11.9,20.2C649.6,68,651.2,61.5,653,55C653,55,653,55,653,55"/>
				<path class="st11" d="M1019.4,11.5c4-2.5,7.6-1.5,11.4,1.1c3.8,2.7,8.1,4.6,12.3,6.9c-7.2,6.4-14.2,7.6-21.9,3.2
					c-3.5-2-7.4-3-11.1-4.5c-0.1-0.2-0.2-0.3-0.4-0.3c1.9-4.5,5.6-4.8,9-6C1019,11.9,1019.2,11.8,1019.4,11.5"/>
				<path class="st11" d="M911.7,112.4c-3-11.1-7-21.8-10.7-32.6c-3.7-10.8-7.1-21.8-10.9-32.5c-1.4-4.1,0.6-6.7,1.9-9.7
					c3.7-8.2,4.1-8.4,7.7-0.4c5.6,12.3,10.7,25,16.1,37.4c1.9,4.4,3.9,8.7,6,13c1.6,3.2,1.9,6.2,0.4,9.9c-2.6,6.5-4.8,13.2-8,19.8
					c-0.8-1.2-1.4-2.2-2.1-3.2C912.1,113.5,911.9,112.9,911.7,112.4"/>
				<path class="st11" d="M869-7.1c1.1,2.4-0.2,5.2,0.9,7.6c-0.3,3.2,0.1,6.4,0.8,9.4c1.1,4.1,0.1,7.2-2.2,10
					c-2.9,3.7-5.8,7.4-8.1,11.7c-0.9,1.7-2.1,1.5-3.4,1.5c-5.1,0.1-10.2,0.2-15.3,1.2c0,0-0.1,0-0.1,0c-1.2-0.4-2.3,0-3.4,0.2
					c-1.9,0.3-2.6-0.9-2.3-3.1c0.5-2.5,1.1-5,1.6-7.5c0.4-6.2,1.7-12.2,2.9-18.3c1-4.8,4.3-6.1,7.7-7.1c5.1-1.8,10.2-3.6,15.3-5.4
					C865.3-7.3,867.1-8,869-7.1"/>
				<path class="st11" d="M876.8,90.6c1-1.7,2.3-3.2,2.8-5.1c1.6-5.4,4.1-5.8,8-3.3c3.3,2.1,7,3.4,10.6,4.9c3.7,1.5,0.3,3.8,0.5,5.6
					c0,0,0,0.1,0,0.1c-0.8,2.5-1.3,5.1-1.9,7.6c-2.1,4.4-3.8,9.1-5.2,13.8c-1,3.3-2.3,4.1-5.3,2.8c-4.8-2.1-9.1-5.5-13.9-7.6
					c-1.1-0.5-2.4-1.3-2.5-3.3C871.1,100.3,875.6,96.5,876.8,90.6"/>
				<path class="st11" d="M870.4,98.8c-1.4,0.2-1.8-0.8-1.7-2.3c1-16.6,0.6-33.2,1-49.8c0-0.5,0-1,0.1-1.4c0.4-1.6-1-4.5,1.5-4.5
					c2.2,0,4.6,0.9,5,4.3c1.2,10.3,2.4,20.6,3.4,30.9c0.3,3-1.8,5.2-2.8,7.8c-1.3,3.5-3.4,6.5-4.2,10.3
					C872,95.6,871.2,97.2,870.4,98.8"/>
				<path class="st11" d="M844.1,61.8c1.6-5.9,2.3-12.1,2.8-18.3c0.4-5.1,6-8.8,9.7-6.4c1.5,1,0.9,2.4,0.8,3.8
					c-1.6,13.9-3.1,27.8-4.8,42.1c-3.5-1.1-3.3-5.9-5.9-7.1C844,71.7,842.7,67.1,844.1,61.8"/>
				<path class="st11" d="M941,51.7c-4.6-3.4-6.5-9.6-9.7-14.3c-1.8-2.6-3.7-5.3-5.1-8.5c-1.2-2.7,0.1-4.2,0.8-6.1
					c1-2.6,2.5-0.7,3.8-0.6l0.1,0c4.5,4.1,9,8.2,12.3,14c0.1,0.5,0.2,1,0.4,1.6c0.5,3-1,5.7-1.2,8.6C941.6,48,941,49.7,941,51.7"/>
				<path class="st11" d="M934.3,116.5c-1.2-6.3-3.4-12.2-5.5-18c-1.4-3.8-0.1-4.5,2.4-5c2.7-0.5,5.6,0.6,8.2-1
					c0.6,0.2,1.2,0.4,1.8,0.5c0.5,6.2-1.7,11.6-3.4,17.1c-0.6,2.3-1.1,4.6-1.9,6.7C935.2,118.6,934.7,117.1,934.3,116.5"/>
				<path class="st11" d="M930.8,67.6c1.7,6.9,5.7,12.2,8.2,18.6c0.9,2.2,1.1,2.8-1.2,3.3c-10.3,2.4-10.6,2.6-15.6-8.4
					C915,64.8,908,48.5,901,32.2c-0.2-0.5-0.2-1.2-0.4-2.5c5.3,3.3,10.4,5.9,14.9,9.6c3.3,2.7,4.3,7.9,6.4,11.9
					C924.9,56.6,927,62.7,930.8,67.6C930.8,67.5,930.8,67.6,930.8,67.6"/>
				<path class="st11" d="M862.9,33.3c3.3-4.7,6.4-9.2,9.6-13.7c0.8-1.2,1.8-1.2,2.9-0.8c5.3,1.9,10.6,3.9,15.9,5.8
					c2.2,0.8,2.7,2.2,1.4,4.6c-1.8,3.4-3.4,6.8-5,10.3c-1,2.2-2.8,2.4-4.1,1.8c-6-3-12.5-3.8-18.5-6.7
					C864.5,34.4,863.9,33.9,862.9,33.3"/>
				<path class="st11" d="M882.4,72.7c0-8.3-2.7-17-3.1-26.1c-0.1-2.9,1-2.9,2.6-2.5c3.9,1,5.9,4.3,7.2,8.5
					c2.8,8.9,5.7,17.8,8.7,26.7c0.9,2.6-0.1,3.7-1.9,3c-4.1-1.6-8.2-3.3-12-6C883.1,75.7,882.8,74.7,882.4,72.7"/>
				<path class="st11" d="M862.7,37.6c1.3,1.3,4.3-0.2,4.1,4.1c-0.3,10-0.4,20.1-0.7,30.1c-0.1,2.1-7,10.4-8.8,10.4
					c-2.3,0.1-1.7-2.4-1.5-3.8c0.8-7.3,1.8-14.5,2.8-21.8c0.7-5.3,0.6-10.8,2.1-16C861.1,39.5,861.2,38.1,862.7,37.6"/>
				<path class="st11" d="M914.7,21.6c-0.7-2.8-1.3-5.6-2-8.3c-0.8-2.9-0.2-4.3,2.5-3.9c3.8,0.5,7.6,0.9,11.4,1.2
					c1.8,0.2,3.1,0.8,1.9,3.2c-3,6-6.2,11.9-9.4,17.8c-1,1.9-1.7,0.7-2.1-0.7c-0.8-3.1-1.5-6.2-2.2-9.2
					C914.8,21.6,914.8,21.6,914.7,21.6"/>
				<path class="st11" d="M932.9,121.8c-4.3,0-8.7,0.2-13,0.1c-2.2,0-3.5-1-2.2-4.2c2.6-6.3,4.4-12.9,8-19.7c3.1,8.1,5,16,7.3,23.7
					C933,121.7,932.9,121.8,932.9,121.8"/>
				<path class="st11" d="M920.5,41.5c-1.7-5.3,1-7.2,2.4-9.7c0.6-1,1.4-0.1,1.9,0.7c3.9,6.2,7.9,12.4,11.7,18.7c0.5,0.8,1,2,0.1,3
					c-1.3,1.5-9,1.3-10-0.6C924.3,49.3,922.1,44.7,920.5,41.5"/>
				<path class="st11" d="M911.7,22c0.7,2.8,1.4,5.5,2,8.3c0.2,0.9,0.7,1.9-0.1,2.6c-0.8,0.6-1.5-0.1-2.2-0.5
					c-3.4-2.2-6.7-4.4-10.1-6.6c-1.8-1.1-2.8-2.1-0.7-4.4c2.3-2.6,4.1-5.7,6.2-8.6c1.5-2.1,2.3-1.5,2.8,1c0.6,2.8,1.3,5.5,2,8.3
					C911.6,22,911.7,22,911.7,22"/>
				<path class="st11" d="M711.6,58c0.6,4.3,1.2,7.2,1.5,10.1c0.3,2.5,1.6,5.2,0.6,7.4c-2.2,4.4-1.1,8.5-0.4,12.8
					c0.9,5.7,2.3,11.4,2.7,17.2c0.5,8,3.6,13.6,9.2,17.5c2.3,1.6,3.7,4.9,6.7,4.8c-1.5-11.9-2.8-23.7-3.5-35.7c-0.4-2-0.3-4.3-1.1-6
					C722.6,77,718,67.7,711.6,58"/>
				<path class="st11" d="M708.6,90.1c-1.1,2.7-1.7,6.1-3.4,7.9c-2.3,2.5-4.2-2.1-6.7-2c-0.1,0-0.3,0-0.4,0
					c2.2,13.2,4.5,26.5,6.7,39.7c6-9.6,13-18.7,8.3-32.6c-1.7-5-1.9-10.7-2.7-16.1C709.3,88.1,709,89.1,708.6,90.1"/>
				<path class="st11" d="M763.1,68c-6.4,1-12.9,1.6-19.8,3.4c7.7,11.5,15,22.4,22.8,34.1c0.2-5.5-0.7-9.7,0-13.9
					c-0.1-0.7-0.1-1.4-0.2-2.1c-0.3-6.2-0.6-12.3-0.9-18.5C765,69.5,765.3,67.7,763.1,68"/>
				<path class="st11" d="M750.2,86.9c-2.6-3.9-5.2-7.8-8.2-12.4c-0.5,9.6-0.9,18.1-1.3,26.6c0.1,0.9,0.3,1.7,0.4,2.6
					c2.8,3.2,6.5,1.6,9.7,2.7c3.9,1.4,8.1,2.5,12.3,2l0,0c0.8-1.9-0.6-3-1.3-4.1C757.9,98.5,754,92.7,750.2,86.9"/>
				<path class="st11" d="M772.7,30.3c-6.1,1.8-12.2,3.6-19.1,5.6c7.4,8.2,14.3,15.9,21.2,23.5c0.5,0.6,0.9-0.2,1.3-0.5
					c-0.1-8.5-0.2-17-0.2-25.6C775.9,30.5,775.4,29,772.7,30.3"/>
				<path class="st11" d="M722.5,22.2c9.7,13.1,19.3,26.3,29,39.4c-0.2-8.2-0.9-15.9-1.8-23.5c-0.1-1.2-0.1-2.5-0.9-3.5
					c-8.5-10-17-20.1-25.4-30.2c0,0.1,0.1,0.2,0.1,0.2c0-0.1-0.1-0.2-0.1-0.2c-3.8-4.8-7.6-9.6-11.5-14.4l0,0
					c-3.6-0.7-4.8,3.7-7.4,5.2c-1.2,1.1-0.8,2.2-0.1,3.3C710.5,6.5,716.5,14.4,722.5,22.2 M729.1,16c-0.3-0.5-0.6-0.9-1-1.3
					C728.8,14.8,729.1,15.3,729.1,16 M725.1,8.7C725.1,8.7,725.1,8.7,725.1,8.7C725,8.7,725.1,8.7,725.1,8.7
					C725.1,8.7,725.1,8.7,725.1,8.7"/>
				<path class="st11" d="M734.9,13.1C734.9,13.1,734.9,13.1,734.9,13.1c4.9,6.1,9.8,12.1,14.7,18.3c1.4,1.8,2.9,1.4,4.6,1
					c6.2-1.6,12.4-3.1,18.6-4.7c0.7-1,0.3-1.7-0.4-2.4c-11.8-11.8-23.7-23.7-35.5-35.5c-1-2.2-2.6-2.7-4.6-2.4
					c-3.7,0.5-7.5,0.7-11.2,1c-1.9,0.3-3.7,0.7-6.1,1.1c5.6,6.8,10.8,13.2,16,19.5C732.3,10.5,733.7,11.7,734.9,13.1"/>
				<path class="st11" d="M754.8,62.3c0.2,3.1,1.3,3.6,3.5,3.2c4.9-0.7,9.9-1.3,14.8-1.9c0.2-0.2,0.3-0.4,0.5-0.5
					c-6.4-8.3-13.7-15.3-21.2-24.1C753.4,47.6,754.3,54.9,754.8,62.3"/>
				<path class="st11" d="M706.5,139.3c0,1.1,0.4,1.8,1.1,2.3c4.4,3.3,8.9,6.7,13.3,10c-1.5-9.7-3.1-19.4-4.7-29.9
					C712.6,128.1,709.5,133.7,706.5,139.3"/>
				<path class="st11" d="M718.7,121c1.5,9.6,2.9,18.3,4.3,27c0.3,1.8,1,1.6,1.8,0.5c2.1-4.5,4.2-8.9,6.3-13.4c0.1-1.3,0-2.4-1-3.3
					C726.6,128.4,723,125,718.7,121"/>
				<path class="st11" d="M666.1,90.3c4.5,6.3,9.1,12.6,14.1,19.4c0.8-3.4,1.5-5.9,2.1-8.4c0,0,0,0,0,0c0,0,0,0,0,0
					c0.3-0.6,0.5-1.2,0.8-1.7c1.5-4,4-7.6,3.4-12.5c-0.2-0.3-0.4-0.5-0.5-0.8c-0.6-14.2-2.2-28.3-3.7-42.4c0.1-0.3,0.4-0.5,0.8-0.7
					c-0.2-8.5-1.1-17-2-25.4c-0.4-3.4-1.9-4.1-4.5-2.5c-2.4,1.5-4.7,3.4-7,5.2c-5.6,4.2-6.3,6.6-4.8,14.4
					c0.3,11.6,0.6,23.2,0.9,34.7c0,0,0,0,0,0c0,5.2,0,10.4,0.1,15.6C665.6,86.9,665.1,88.8,666.1,90.3"/>
				<path class="st11" d="M713.5,54.6c8.1,14.6,16,29.4,24,44.2c0,0,0.1,0.1,0.1,0.1c0.2-0.4,0.7-0.7,0.7-1.1
					c0.4-8.6,0.7-17.1,1-25.7c0.1-1.6-0.7-2.6-1.5-3.7c-5.1-7.7-10.1-15.4-15.2-23.1c-5.1-7.7-10.3-15.4-15.5-23.1
					c0.2,6.5,1.3,12.7,2,18.9C709.7,46,711.1,50.4,713.5,54.6"/>
				<path class="st11" d="M739.3,65.3c0.8,1.3,1.5,3,3.4,2.7c2.7-0.5,5.3-0.9,8.8-1.4c-8.1-11-15.7-21.1-23.2-31.4
					c-8-10.9-16.5-21.3-23.9-32.7c0,0-0.1-0.1-0.1-0.1c-0.8,0.7-0.6,1.5-0.6,2.5c0.2,7.5,3.9,12.8,7.6,18.3
					C720.7,37.1,730,51.2,739.3,65.3"/>
				<path class="st11" d="M685.5,45.9c-0.2,0.5-0.4,0.9-0.6,1.3c0.6,12.6,1.5,25.3,3.3,37.8c0.1,0.8,0.5,1.4,1.2,1.7
					c0.8,0.2,1.5,0.5,2.3,0.7c1.6,1.3,3.3,2.6,4.9,3.8c1.3,0.7,2.7,1.3,3.9,2.2c2.5,1.9,3.8,1.2,4.9-2.1c1.6-5,3.5-9.9,5.2-14.8
					c0.5-1.3,0.8-2.5,0.5-4.1c-2.4-15.3-4.7-30.7-7-46.1h0c-0.9-9.2-2.3-18.3-4.1-27.3L699.7-1c-0.8,0-1.6,0-2.3,0.4
					c-4.8,3.2-9.5,6.7-13.9,10.6c-1.1,1-1.7,2.4-1.7,4.1c0.3,1.1,0.7,2.2,1.1,3.3C683.7,26.9,684.6,36.4,685.5,45.9"/>
				<path class="st12" d="M784.7,87.6c11.3-3.6,22.7-7,33.9-10.8c2.9-1,4.2-0.2,5.4,3.1c3.8,11.1,7.7,22.2,11.8,33.2
					c1.7,4.5-1.7,4.4-3.2,6.1c-10.5,5.2-21.1,10.3-31.6,15.5c-2.4,1.2-4.3,2.1-5.4-2.1c-3.6-14.3-7.3-28.5-10.9-42.7
					C784.5,89.2,784.6,88.4,784.7,87.6"/>
				<path class="st12" d="M766.4,8.4c6.9,2.4,13.8,4.9,20.7,7c2.1,0.6,3.3,1.6,3.7,4.2c1.6,10.3,3.5,20.5,5,30.7
					c1,7.1-3.9,1.1-5.3,3.3c-10.2-1.1-20.4-2.2-30.7-3.1c-3.6-0.3-5.3-0.8-4-6.2c2.6-11,4.6-22.3,6.3-33.5
					C763,6.6,764.8,8.5,766.4,8.4"/>
				<path class="st12" d="M862.7,64.4c3-21.3,6-42.6,9-63.9c0.7-4.7,1.4-9.4,2-14.2c0.4-2.8,0.9-3.9,3.1-1.4
					c4.1,4.5,6.8,8.9,6.4,16.6c-0.7,13.3-0.2,26.7-0.2,40.1c-0.1,0.6-0.3,1.2-0.2,1.7c1.9,11-2.9,16.1-10.9,18.3
					C868.9,62.4,866.4,66.6,862.7,64.4"/>
				<path class="st12" d="M785.7,83.5c11.7-21.3,21.7-42.2,33-62c5.3-9.3,9.9-19.1,14.7-28.8c1.4-2.9,3.3-5,5.7-6.6
					c6.8-4.3,13.6-8.7,21.8-14c-3.3,8.9-6,16.3-8.9,23.6c-9.5,24.2-19,48.4-28.5,72.7c-0.9,2.2-1.8,3.9-3.9,4.5
					C808.8,76.2,797.9,79.6,785.7,83.5"/>
				<path class="st12" d="M859,63.5c-6-9-11.8-17.7-17.7-26.4c-1.6-2.4-0.5-4.3,0.3-6.3c6.8-17.5,13.6-35.1,20.5-52.5
					c0.9-2.2,1-7.3,3.7-5.8c2.8,1.6,6.4,4.4,5.3,10.3c-1.5,8.2-2.4,16.6-3.6,25c-2.2,16.1-4.4,32.1-6.7,48.2
					C860.6,58.3,860.7,60.9,859,63.5"/>
				<path class="st12" d="M838.3,110c-3.8-7.2-5.1-15.8-8.8-22.8c-5.3-10.2-3.6-19.1,1.1-28.5c2.5-4.9,4.2-10.3,6.1-15.5
					c1.1-2.9,2.2-3.6,3.9-0.8c0.1,0.2,0.2,0.3,0.3,0.4c8.2,9.3,13.1,19.1,7,33.5c-3.7,8.7-5,18.9-7.4,28.4
					C840.1,106.5,840,108.5,838.3,110"/>
				<path class="st12" d="M799.1,50.9c-1.9-12.3-3.4-22.7-5-33.2c-0.3-2,0.7-3.1,2.1-4C806.8,7,817.4,0.1,828-6.7
					c0.2-0.1,0.6,0.1,1.3,0.2C819.4,12.3,809.7,30.9,799.1,50.9"/>
				<path class="st12" d="M980.4,73.1c-2.5-3.9-5-7.9-7.4-11.8c0-0.3,0-0.8-0.1-1C964.4,46,956,31.8,947.6,17.5
					c-1.3-2.3-2.4-1.7-3.2,0.1c-6.6,13.2-14.2,25.5-20.1,39.2c-3.5,4.8-5.8,10.5-8.6,15.8c-1.3,2.5-0.3,3,1.6,3
					c0.9,0,1.7,0.1,2.6,0.2c12.5,0.5,25,0.2,37.5,1.4c7.1-0.9,14.3,0.2,21.4-0.1c1,0,2.2,0.5,2.8-0.8C982.1,74.8,981,74,980.4,73.1
					 M963.5,49.7c-0.2,0-0.3,0-0.5,0.1c0-0.2,0.1-0.4,0.1-0.6L963.5,49.7z"/>
				<path class="st12" d="M1023.6,37.9c-4.6-9.8-9.1-19.7-14.1-30.7c-4.2,13.6-8,25.9-11.8,38.2c0.1,0.1,0.2,0.3,0.3,0.5
					c3.1,1.4,5.9-0.1,8.7-1.3l0.1,0c5.1,0.1,10.1-0.9,14.9-3.1l0,0C1022.1,40.2,1025,41,1023.6,37.9"/>
				<path class="st12" d="M929.3,38.5C929.3,38.5,929.3,38.5,929.3,38.5c2.1-2.7,3.5-5.9,4.9-9.2c0,0,0,0,0,0l0,0
					c1.3-2.5,2.8-5,4-7.5c5.5-10.8,5.5-10.8-4.5-16c-1.4-1-2.7-2.1-4.1-3c-9.7-6.3-19.3-12.5-29-18.8c-0.8,0-1.5,0.1-1.3,1.4
					c1,6.4,2.1,12.7,3.2,19.1h0c0.8,8.1,1.6,16.3,3.7,24.1c0.6,4.3,1.3,8.6,1.9,12.9c0.7,10,1.9,19.8,4.3,29.4
					C918.5,60.5,923.9,49.5,929.3,38.5L929.3,38.5z"/>
				<path class="st12" d="M1011.9-1c-1.1,3.1-0.3,5.4,1.1,7.8c4.6,9.5,8.1,19.8,13.8,29.4c1.6-4.9,3-9.1,4.4-13.3
					c1.1-4,2-8.1,3.5-11.8c1.6-4.1,1.2-7.4-1.6-10.3c-3.7-8.9-9-16.4-13.3-24.7C1016.6-16.6,1014.6-8.6,1011.9-1"/>
				<path class="st12" d="M994.3,41.9c0.4,0,0.8-0.1,1.3-0.1c3.6-12,7.3-24,11.2-36.8c-7.7,2-14.5,3.6-21.2,5.4
					c-1.2,0.3-3.4,0.1-2.2,3.1C987.1,23,990.7,32.5,994.3,41.9"/>
				<path class="st12" d="M991.5,55C991.5,55,991.5,55,991.5,55c2.3-4.1,1.9-8.1-0.2-12.3c-2.5-5.3-4.6-10.8-6.9-16.3c0,0,0,0,0,0
					c0,0,0,0,0,0c-2-5.3-3.9-10.5-5.9-15.8c0.3-1.9,0.9-3.7,1.6-5.4c4.1-9.6,7.9-19.3,11.8-28.9c-12,9-23.9,17.6-34.7,28
					c0,0,0,0,0,0c-2.3,1.8-4.6,3.8-6.9,5.5c-1.8,1.3-2.2,2.7-0.9,4.6c3.4,4.9,5.7,10.7,9.5,15.3c4.2,8.8,9.6,16.6,14.5,24.8
					c3.4,7,7.5,13.4,11.9,20.2C988.2,68,989.7,61.5,991.5,55C991.5,55,991.5,55,991.5,55"/>
			</g>
		</g>
	</g>
</g>
</svg>
