<svg xmlns="http://www.w3.org/2000/svg" width="121" height="121" viewBox="0 0 121 121">
  <g id="Grupo_1501" data-name="Grupo 1501" transform="translate(-1843.769 -6565.133)">
    <path id="Trazado_5425" data-name="Trazado 5425" d="M1904.269,6565.133q2.971,0,5.93.291t5.873.871q2.914.581,5.759,1.443t5.59,2q2.746,1.137,5.368,2.538t5.092,3.053q2.472,1.652,4.769,3.537t4.4,3.987q2.1,2.1,3.987,4.4t3.537,4.769q1.651,2.47,3.052,5.092t2.539,5.367q1.137,2.747,2,5.59t1.443,5.76q.579,2.914.871,5.873t.291,5.93q0,2.971-.291,5.93t-.871,5.873q-.581,2.914-1.443,5.759t-2,5.59q-1.138,2.747-2.539,5.367t-3.052,5.093q-1.651,2.47-3.537,4.768t-3.987,4.4q-2.1,2.1-4.4,3.987t-4.769,3.537q-2.47,1.65-5.092,3.052t-5.368,2.538q-2.745,1.139-5.59,2t-5.759,1.442q-2.914.58-5.873.871t-5.93.292q-2.972,0-5.93-.292t-5.873-.871q-2.914-.579-5.759-1.442t-5.59-2q-2.746-1.137-5.367-2.538t-5.093-3.052q-2.47-1.652-4.769-3.537t-4.4-3.987q-2.1-2.1-3.987-4.4t-3.537-4.768q-1.651-2.472-3.052-5.093t-2.539-5.367q-1.137-2.747-2-5.59t-1.442-5.759q-.58-2.916-.872-5.873t-.291-5.93q0-2.973.291-5.93t.872-5.873q.579-2.916,1.442-5.76t2-5.59q1.139-2.745,2.539-5.367t3.052-5.092q1.652-2.472,3.537-4.769t3.987-4.4q2.1-2.1,4.4-3.987t4.769-3.537q2.472-1.652,5.093-3.053t5.367-2.538q2.745-1.137,5.59-2t5.759-1.443q2.915-.579,5.873-.871T1904.269,6565.133Z" fill="#ceb88d"/>
    <circle id="Elipse_64" data-name="Elipse 64" cx="53.993" cy="53.993" r="53.993" transform="translate(1848.378 6677.616) rotate(-87.403)" fill="#fff"/>
    <g id="Grupo_975" data-name="Grupo 975">
      <path id="Trazado_6591" data-name="Trazado 6591" d="M1945.293,6601.859a47.257,47.257,0,1,0,5.279,35.757A45.523,45.523,0,0,0,1945.293,6601.859Zm.13,34.492a41.921,41.921,0,1,1-4.7-31.762A40.414,40.414,0,0,1,1945.423,6636.351Z" fill="#cb6120"/>
      <path id="Trazado_6592" data-name="Trazado 6592" d="M1898.325,6615.251c.345-.206.667-.4,1.038-.588l-13.5-21.223-.435.26a36.122,36.122,0,0,0-17.223,23.134,38.179,38.179,0,0,0-1.247,10.227l25.255.058a12.249,12.249,0,0,1,.368-4.162A12.1,12.1,0,0,1,1898.325,6615.251Zm12.215,12.364a6.145,6.145,0,0,0-4.443-7.416,5.725,5.725,0,0,0-4.609.681,5.8,5.8,0,0,0-2.809,3.761,6.06,6.06,0,0,0,4.438,7.416,6.146,6.146,0,0,0,7.423-4.442Zm5.012-8.065a12.345,12.345,0,0,1,1.812,6.934l25.216-1.043a38.5,38.5,0,0,0-20.12-32.8l-12.641,21.864A12.083,12.083,0,0,1,1915.552,6619.55Zm9.423,38.3-12.554-21.837c-.4.271-.785.552-1.2.793a12.02,12.02,0,0,1-9.522,1.4,12.39,12.39,0,0,1-3.675-1.551l-11.645,22.4a38.915,38.915,0,0,0,9.223,3.557,36.318,36.318,0,0,0,28.539-4.22C1924.4,6658.227,1924.7,6658.046,1924.975,6657.845Z" fill="#444242"/>
    </g>
  </g>
</svg>
