<svg xmlns="http://www.w3.org/2000/svg" xmlns:xlink="http://www.w3.org/1999/xlink" width="121" height="121" viewBox="0 0 121 121">
  <defs>
    <clipPath id="clip-path">
      <circle id="Elipse_69" data-name="Elipse 69" cx="53.993" cy="53.993" r="53.993" transform="translate(1848.378 6921.343) rotate(-87.403)" fill="none"/>
    </clipPath>
  </defs>
  <g id="Grupo_1502" data-name="Grupo 1502" transform="translate(-1843.769 -6808.86)">
    <path id="Trazado_6594" data-name="Trazado 6594" d="M1904.269,6808.86q2.971,0,5.93.292t5.873.871q2.914.579,5.759,1.442t5.59,2q2.746,1.137,5.368,2.538t5.092,3.052q2.472,1.652,4.769,3.537t4.4,3.987q2.1,2.1,3.987,4.4t3.537,4.769q1.651,2.472,3.052,5.093t2.539,5.367q1.137,2.747,2,5.59t1.443,5.759q.579,2.916.871,5.873t.291,5.93q0,2.973-.291,5.93t-.871,5.873q-.581,2.916-1.443,5.759t-2,5.591q-1.138,2.744-2.539,5.367t-3.052,5.092q-1.651,2.472-3.537,4.769t-3.987,4.4q-2.1,2.1-4.4,3.987t-4.769,3.537q-2.47,1.652-5.092,3.052t-5.368,2.539q-2.745,1.137-5.59,2t-5.759,1.443q-2.914.579-5.873.871t-5.93.291q-2.972,0-5.93-.291t-5.873-.871q-2.914-.581-5.759-1.443t-5.59-2q-2.746-1.137-5.367-2.539t-5.093-3.052q-2.47-1.652-4.769-3.537t-4.4-3.987q-2.1-2.1-3.987-4.4t-3.537-4.769q-1.651-2.47-3.052-5.092t-2.539-5.367q-1.137-2.747-2-5.591t-1.442-5.759q-.58-2.914-.872-5.873t-.291-5.93q0-2.971.291-5.93t.872-5.873q.579-2.915,1.442-5.759t2-5.59q1.139-2.747,2.539-5.367t3.052-5.093q1.652-2.47,3.537-4.769t3.987-4.4q2.1-2.1,4.4-3.987t4.769-3.537q2.472-1.652,5.093-3.052t5.367-2.538q2.745-1.138,5.59-2t5.759-1.442q2.915-.58,5.873-.871T1904.269,6808.86Z" fill="#ceb88d"/>
    <circle id="Elipse_68" data-name="Elipse 68" cx="53.993" cy="53.993" r="53.993" transform="translate(1848.378 6921.343) rotate(-87.403)" fill="#fff"/>
    <g id="Grupo_978" data-name="Grupo 978">
      <g id="Grupo_977" data-name="Grupo 977" clip-path="url(#clip-path)">
        <g id="Grupo_976" data-name="Grupo 976">
          <path id="Trazado_6595" data-name="Trazado 6595" d="M1937.51,6914v8.177a1.666,1.666,0,0,1-1.666,1.667h-60.817a1.666,1.666,0,0,1-1.666-1.667V6914a15.532,15.532,0,0,1,15.535-15.531,8.623,8.623,0,0,0,7.24-3.928,9.791,9.791,0,0,0,1.385-6.1l.031-.077a20.62,20.62,0,0,1-12.736-19.057v-.652a5.137,5.137,0,0,1-5.207-5.111v-8.656c-.066-3.014.071-13.642,7.748-21.042,8.927-8.6,23.073-7.9,33.32-3.3a.417.417,0,0,1-.014.766l-2.672,1.1a.417.417,0,0,0,.114.8l1.3.139a21.022,21.022,0,0,1,15.562,9.654.446.446,0,0,1-.054.514,12.6,12.6,0,0,0-3.441,8.656v11.366a5.112,5.112,0,0,1-5.111,5.111h-.3v.652a20.62,20.62,0,0,1-12.736,19.057l.031.077a9.788,9.788,0,0,0,1.385,6.1,8.623,8.623,0,0,0,7.24,3.928A15.532,15.532,0,0,1,1937.51,6914Z" fill="#ffdfba"/>
          <path id="Trazado_6596" data-name="Trazado 6596" d="M1937.51,6914v8.177a1.667,1.667,0,0,1-1.666,1.667h-60.817a1.667,1.667,0,0,1-1.666-1.667V6914a15.533,15.533,0,0,1,15.534-15.531,8.624,8.624,0,0,0,7.241-3.928,14.3,14.3,0,0,0,18.6,0,8.625,8.625,0,0,0,7.241,3.928A15.533,15.533,0,0,1,1937.51,6914Z" fill="#fe4f60"/>
          <path id="Trazado_6597" data-name="Trazado 6597" d="M1934.964,6843.006a.44.44,0,0,1-.054.512,12.61,12.61,0,0,0-3.44,8.657v11.366a5.121,5.121,0,0,1-5.415,5.111v-12.865a10,10,0,0,0-10-10h-21.244a10,10,0,0,0-10,10v12.865a5.137,5.137,0,0,1-5.207-5.111v-8.656c-.066-3.014.071-13.642,7.748-21.042,8.926-8.6,23.074-7.9,33.32-3.3a.417.417,0,0,1-.014.766l-2.672,1.1a.417.417,0,0,0,.114.8l1.3.139A21.012,21.012,0,0,1,1934.964,6843.006Z" fill="#42434d"/>
          <path id="Trazado_6598" data-name="Trazado 6598" d="M1926.055,6869.3a20.62,20.62,0,0,1-20.619,20.619c-10.725,0-20.62-8.337-20.62-21.271v-12.865a10,10,0,0,1,10-10h21.244a10,10,0,0,1,10,10Z" fill="#ffebd2"/>
          <path id="Trazado_6599" data-name="Trazado 6599" d="M1922.306,6920.305h-5a1.667,1.667,0,0,1,0-3.333h5a1.667,1.667,0,0,1,0,3.333Z" fill="#fff"/>
          <path id="Trazado_6600" data-name="Trazado 6600" d="M1900.767,6882.619c3.39,2.121.717,7.322-2.994,5.832a20.623,20.623,0,0,1-12.957-19.147v-13.517a9.956,9.956,0,0,1,1.754-5.659,2.463,2.463,0,0,1,4.495,1.493v13.517a20.47,20.47,0,0,0,9.7,17.481Z" fill="#fff3e4"/>
          <path id="Trazado_6601" data-name="Trazado 6601" d="M1913.586,6891.858a20.675,20.675,0,0,1-16.3,0,12.921,12.921,0,0,0,.235-3.42l.031-.077a20.663,20.663,0,0,0,15.767,0l.031.077A12.871,12.871,0,0,0,1913.586,6891.858Z" fill="#ffd6a6"/>
          <path id="Trazado_6602" data-name="Trazado 6602" d="M1897.288,6903.5a8.458,8.458,0,0,1-2.482.384,15.575,15.575,0,0,0-15.613,15.478v1.566a2.917,2.917,0,0,1-2.916,2.916h-1.25a1.667,1.667,0,0,1-1.666-1.667V6914a15.533,15.533,0,0,1,15.534-15.531,8.624,8.624,0,0,0,7.241-3.928,14.557,14.557,0,0,0,1.981,1.421,4.16,4.16,0,0,1-.829,7.538Z" fill="#ff6d7a"/>
          <path id="Trazado_6603" data-name="Trazado 6603" d="M1913.583,6903.5a8.458,8.458,0,0,0,2.482.384,15.575,15.575,0,0,1,15.614,15.478v1.566a2.916,2.916,0,0,0,2.916,2.916h1.249a1.667,1.667,0,0,0,1.666-1.667V6914a15.533,15.533,0,0,0-15.534-15.531,8.625,8.625,0,0,1-7.241-3.928,14.437,14.437,0,0,1-1.981,1.421,4.161,4.161,0,0,0,.829,7.538Z" fill="#e84857"/>
          <path id="Trazado_6604" data-name="Trazado 6604" d="M1920.663,6831.312c-2.449,1.008-2.8,1.23-3.647,1.1-13.678-2.12-25.679,3.54-29.755,16.826v0a9.954,9.954,0,0,0-2.445,6.549v7.815c0,3.371-5.207,3.606-5.207-.061v-8.656c-.066-3.014.071-13.642,7.748-21.042,8.927-8.6,23.073-7.9,33.32-3.3A.417.417,0,0,1,1920.663,6831.312Z" fill="#4d4e59"/>
        </g>
      </g>
    </g>
  </g>
</svg>
