<svg xmlns="http://www.w3.org/2000/svg" width="475.831" height="433.25" viewBox="0 0 475.831 433.25">
  <g id="Grupo_1414" data-name="Grupo 1414" transform="translate(-712.1 -8830.765)">
    <g id="Grupo_1337" data-name="Grupo 1337">
      <g id="Grupo_1253" data-name="Grupo 1253">
        <g id="Grupo_1222" data-name="Grupo 1222">
          <g id="Grupo_1219" data-name="Grupo 1219">
            <path id="Trazado_7992" data-name="Trazado 7992" d="M1124.255,9052.415a3.007,3.007,0,0,1,2.984,3.383L1119.783,9115a14.347,14.347,0,0,1-.726,3.039l-6.826,19.094a10.712,10.712,0,0,1-4.576,5.579l-11.413,6.843a5.63,5.63,0,0,1-2.9.8h-55.58c.6,0,1.091.7,1.091,1.556s-.488,1.556-1.091,1.556h57.572a5.634,5.634,0,0,0,2.9-.8l11.412-6.843a10.706,10.706,0,0,0,4.577-5.579l6.826-19.093a14.374,14.374,0,0,0,.725-3.039l7.751-60.186C1129.963,9054.643,1127.144,9052.415,1124.255,9052.415Z" fill="#4d4059"/>
          </g>
          <g id="Grupo_1220" data-name="Grupo 1220">
            <path id="Trazado_7993" data-name="Trazado 7993" d="M1037.764,9150.361c.6,0,1.092.7,1.092,1.556s-.489,1.556-1.092,1.556h-18.141c-.612,0-1.1-.7-1.1-1.556s.488-1.556,1.1-1.556Z" fill="#61556f"/>
          </g>
          <g id="Grupo_1221" data-name="Grupo 1221">
            <path id="Trazado_7994" data-name="Trazado 7994" d="M1075.462,9150.361l12.751-7.646a10.712,10.712,0,0,0,4.576-5.579l6.827-19.093a14.434,14.434,0,0,0,.725-3.039l7.55-59.958a3.007,3.007,0,0,1,2.983-2.632h13.381a3.007,3.007,0,0,1,2.984,3.383L1119.783,9115a14.376,14.376,0,0,1-.726,3.039l-6.825,19.093a10.719,10.719,0,0,1-4.577,5.579l-11.413,6.843a5.63,5.63,0,0,1-2.9.8Z" fill="#61556f"/>
          </g>
        </g>
        <g id="Grupo_1223" data-name="Grupo 1223">
          <rect id="Rectángulo_313" data-name="Rectángulo 313" width="14.471" height="95.741" transform="translate(1060.583 9153.467)" fill="#61556f"/>
        </g>
        <g id="Grupo_1224" data-name="Grupo 1224">
          <rect id="Rectángulo_314" data-name="Rectángulo 314" width="14.471" height="26.593" transform="translate(1060.583 9153.467)" fill="#d9d2d9"/>
        </g>
        <g id="Grupo_1225" data-name="Grupo 1225">
          <path id="Trazado_7995" data-name="Trazado 7995" d="M1105.409,9249.211H1041.7c.584,0,1.062.663,1.062,1.5v2c0,.825-.478,1.5-1.062,1.5h63.71c.584,0,1.062-.677,1.062-1.5v-2C1106.471,9249.874,1105.993,9249.211,1105.409,9249.211Z" fill="#61556f"/>
        </g>
        <g id="Grupo_1226" data-name="Grupo 1226">
          <path id="Trazado_7996" data-name="Trazado 7996" d="M1041.7,9249.211c.584,0,1.062.663,1.062,1.5v2c0,.825-.478,1.5-1.062,1.5h-11.128c-.583,0-1.062-.677-1.062-1.5v-2c0-.839.479-1.5,1.062-1.5Z" fill="#4d4059"/>
        </g>
        <g id="Grupo_1230" data-name="Grupo 1230">
          <g id="Grupo_1227" data-name="Grupo 1227">
            <path id="Trazado_7997" data-name="Trazado 7997" d="M878.966,9052.415a3.006,3.006,0,0,1,2.983,3.383L874.494,9115a14.355,14.355,0,0,1-.726,3.039l-6.826,19.094a10.712,10.712,0,0,1-4.576,5.579l-11.413,6.843a5.63,5.63,0,0,1-2.9.8h-55.58c.6,0,1.091.7,1.091,1.556s-.488,1.556-1.091,1.556h57.571a5.629,5.629,0,0,0,2.9-.8l11.413-6.843a10.711,10.711,0,0,0,4.577-5.579l6.826-19.093a14.318,14.318,0,0,0,.725-3.039l7.751-60.186C884.674,9054.643,881.855,9052.415,878.966,9052.415Z" fill="#4d4059"/>
          </g>
          <g id="Grupo_1228" data-name="Grupo 1228">
            <path id="Trazado_7998" data-name="Trazado 7998" d="M792.475,9150.361c.6,0,1.091.7,1.091,1.556s-.488,1.556-1.091,1.556H774.334c-.612,0-1.1-.7-1.1-1.556s.488-1.556,1.1-1.556Z" fill="#61556f"/>
          </g>
          <g id="Grupo_1229" data-name="Grupo 1229">
            <path id="Trazado_7999" data-name="Trazado 7999" d="M830.173,9150.361l12.751-7.646a10.712,10.712,0,0,0,4.576-5.579l6.827-19.093a14.441,14.441,0,0,0,.725-3.039l7.55-59.958a3.007,3.007,0,0,1,2.983-2.632h13.381a3.006,3.006,0,0,1,2.983,3.383L874.494,9115a14.383,14.383,0,0,1-.726,3.039l-6.826,19.093a10.712,10.712,0,0,1-4.576,5.579l-11.413,6.843a5.63,5.63,0,0,1-2.9.8Z" fill="#61556f"/>
          </g>
        </g>
        <g id="Grupo_1231" data-name="Grupo 1231">
          <rect id="Rectángulo_315" data-name="Rectángulo 315" width="14.471" height="95.741" transform="translate(815.294 9153.467)" fill="#61556f"/>
        </g>
        <g id="Grupo_1232" data-name="Grupo 1232">
          <rect id="Rectángulo_316" data-name="Rectángulo 316" width="14.471" height="26.593" transform="translate(815.294 9153.467)" fill="#d9d2d9"/>
        </g>
        <g id="Grupo_1233" data-name="Grupo 1233">
          <path id="Trazado_8000" data-name="Trazado 8000" d="M860.12,9249.211H796.41c.584,0,1.062.663,1.062,1.5v2c0,.825-.478,1.5-1.062,1.5h63.71c.584,0,1.062-.677,1.062-1.5v-2C861.182,9249.874,860.7,9249.211,860.12,9249.211Z" fill="#61556f"/>
        </g>
        <g id="Grupo_1234" data-name="Grupo 1234">
          <path id="Trazado_8001" data-name="Trazado 8001" d="M796.41,9249.211c.584,0,1.062.663,1.062,1.5v2c0,.825-.478,1.5-1.062,1.5H785.282c-.584,0-1.062-.677-1.062-1.5v-2c0-.839.478-1.5,1.062-1.5Z" fill="#4d4059"/>
        </g>
        <g id="Grupo_1238" data-name="Grupo 1238">
          <g id="Grupo_1237" data-name="Grupo 1237">
            <g id="Grupo_1235" data-name="Grupo 1235">
              <path id="Trazado_8002" data-name="Trazado 8002" d="M1185.97,9043.694l-7.279-2.188c1.386.416,2.212,2.191,1.891,4.328l-2.319,15.433c-.366,2.436-2.1,4.42-3.86,4.42H794.882a2.159,2.159,0,0,1-.635-.092l7.28,2.189a2.214,2.214,0,0,0,.634.092h379.521c1.761,0,3.494-1.986,3.86-4.421l2.32-15.433C1188.183,9045.885,1187.356,9044.11,1185.97,9043.694Z" fill="#cdcad0"/>
            </g>
            <g id="Grupo_1236" data-name="Grupo 1236">
              <path id="Trazado_8003" data-name="Trazado 8003" d="M1178.051,9041.413c1.761,0,2.9,1.972,2.531,4.421l-2.319,15.433c-.366,2.436-2.1,4.42-3.86,4.42H794.882c-1.761,0-2.888-1.984-2.522-4.42l2.32-15.433c.368-2.449,2.09-4.421,3.851-4.421Z" fill="#dedce0"/>
            </g>
          </g>
        </g>
        <g id="Grupo_1242" data-name="Grupo 1242">
          <g id="Grupo_1241" data-name="Grupo 1241">
            <g id="Grupo_1239" data-name="Grupo 1239">
              <path id="Trazado_8004" data-name="Trazado 8004" d="M1181.585,9072.636l-7.28-2.187c1.387.417,2.213,2.19,1.892,4.328l-2.319,15.433c-.367,2.435-2.1,4.421-3.86,4.421H790.5a2.22,2.22,0,0,1-.635-.092l7.279,2.188a2.187,2.187,0,0,0,.635.093H1177.3c1.76,0,3.494-1.986,3.86-4.421l2.32-15.434C1183.8,9074.827,1182.971,9073.052,1181.585,9072.636Z" fill="#cdcad0"/>
            </g>
            <g id="Grupo_1240" data-name="Grupo 1240">
              <path id="Trazado_8005" data-name="Trazado 8005" d="M1173.666,9070.356c1.76,0,2.9,1.972,2.531,4.42l-2.319,15.433c-.367,2.435-2.1,4.421-3.86,4.421H790.5c-1.761,0-2.888-1.986-2.522-4.421l2.32-15.433c.368-2.448,2.09-4.421,3.85-4.421Z" fill="#dedce0"/>
            </g>
          </g>
        </g>
        <g id="Grupo_1246" data-name="Grupo 1246">
          <g id="Grupo_1245" data-name="Grupo 1245">
            <g id="Grupo_1243" data-name="Grupo 1243">
              <path id="Trazado_8006" data-name="Trazado 8006" d="M1177.2,9101.578l-7.28-2.188c1.387.417,2.213,2.191,1.892,4.328l-2.32,15.434c-.366,2.435-2.1,4.421-3.86,4.421H786.112a2.182,2.182,0,0,1-.635-.092l7.279,2.188a2.221,2.221,0,0,0,.635.092h379.52c1.761,0,3.495-1.984,3.861-4.42l2.319-15.434C1179.412,9103.769,1178.586,9102,1177.2,9101.578Z" fill="#cdcad0"/>
            </g>
            <g id="Grupo_1244" data-name="Grupo 1244">
              <path id="Trazado_8007" data-name="Trazado 8007" d="M1169.281,9099.3c1.76,0,2.9,1.973,2.531,4.421l-2.32,15.434c-.366,2.436-2.1,4.421-3.86,4.421H786.112c-1.761,0-2.888-1.985-2.522-4.421l2.319-15.434c.368-2.448,2.091-4.421,3.851-4.421Z" fill="#dedce0"/>
            </g>
          </g>
        </g>
        <g id="Grupo_1247" data-name="Grupo 1247">
          <path id="Trazado_8008" data-name="Trazado 8008" d="M1156.551,9139.094h-18.074c1.167,0,2.124,1.339,2.124,3v5.265c0,1.649-.957,3-2.124,3h18.074c1.168,0,2.124-1.354,2.124-3V9142.1C1158.675,9140.433,1157.719,9139.094,1156.551,9139.094Z" fill="#cdcad0"/>
        </g>
        <g id="Grupo_1248" data-name="Grupo 1248">
          <path id="Trazado_8009" data-name="Trazado 8009" d="M1138.477,9139.094c1.167,0,2.124,1.339,2.124,3v5.265c0,1.65-.957,3-2.124,3H758.326c-1.167,0-2.124-1.354-2.124-3V9142.1c0-1.665.957-3,2.124-3Z" fill="#dedce0"/>
        </g>
        <g id="Grupo_1249" data-name="Grupo 1249">
          <path id="Trazado_8010" data-name="Trazado 8010" d="M1134.5,9139.094h-18.074c1.167,0,2.124,1.339,2.124,3v5.265c0,1.649-.957,3-2.124,3H1134.5c1.167,0,2.124-1.354,2.124-3V9142.1C1136.624,9140.433,1135.667,9139.094,1134.5,9139.094Z" fill="#cdcad0"/>
        </g>
        <g id="Grupo_1250" data-name="Grupo 1250">
          <path id="Trazado_8011" data-name="Trazado 8011" d="M1116.426,9139.094c1.167,0,2.124,1.339,2.124,3v5.265c0,1.65-.957,3-2.124,3H736.275c-1.167,0-2.124-1.354-2.124-3V9142.1c0-1.665.957-3,2.124-3Z" fill="#dedce0"/>
        </g>
        <g id="Grupo_1251" data-name="Grupo 1251">
          <path id="Trazado_8012" data-name="Trazado 8012" d="M1112.449,9139.094h-18.075c1.168,0,2.125,1.339,2.125,3v5.265c0,1.649-.957,3-2.125,3h18.075c1.167,0,2.124-1.354,2.124-3V9142.1C1114.573,9140.433,1113.616,9139.094,1112.449,9139.094Z" fill="#cdcad0"/>
        </g>
        <g id="Grupo_1252" data-name="Grupo 1252">
          <path id="Trazado_8013" data-name="Trazado 8013" d="M1094.374,9139.094c1.168,0,2.125,1.339,2.125,3v5.265c0,1.65-.957,3-2.125,3H714.224c-1.167,0-2.124-1.354-2.124-3V9142.1c0-1.665.957-3,2.124-3Z" fill="#dedce0"/>
        </g>
      </g>
      <g id="Grupo_1259" data-name="Grupo 1259">
        <g id="Grupo_1254" data-name="Grupo 1254">
          <path id="Trazado_8014" data-name="Trazado 8014" d="M924.449,8964.382a2.16,2.16,0,0,1,.554-.018,1.11,1.11,0,0,0,1.2-1.277l-.216-1.368a2.433,2.433,0,0,1,2.056-2.759,2.462,2.462,0,0,1,.843.011,1.109,1.109,0,0,0,1.3-1.262l-.132-.838a2.637,2.637,0,0,1,5.208-.819l.06.376a.924.924,0,0,0,1.434.62,2.661,2.661,0,0,1,1.083-.426,2.607,2.607,0,0,1,3,2.137c2.043,12.989,2.407,15.354,2.837,18.06a1.349,1.349,0,0,0,2.408.6,63.528,63.528,0,0,1,5.313-6.348,2.46,2.46,0,0,1,3.47,3.489,61.462,61.462,0,0,0-4.854,5.822,65.441,65.441,0,0,0-6.594,10.756,8.526,8.526,0,0,1-5.338,4.769c-5.1,1.347-10.541-3.311-12.157-10.4-1.469-6.439.32,4.449-3.314-18.658A2.173,2.173,0,0,1,924.449,8964.382Z" fill="#a34d5e"/>
        </g>
        <g id="Grupo_1255" data-name="Grupo 1255">
          <path id="Trazado_8015" data-name="Trazado 8015" d="M911.391,9046.861a8.9,8.9,0,0,1-4.239-11.848l24.344-51.522a6.014,6.014,0,1,1,10.875,5.139l-19.36,40.976,37.253-25.807a6.014,6.014,0,0,1,6.85,9.887l-46.844,32.449A8.923,8.923,0,0,1,911.391,9046.861Z" fill="#a34d5e"/>
        </g>
        <g id="Grupo_1258" data-name="Grupo 1258">
          <g id="Grupo_1256" data-name="Grupo 1256">
            <path id="Trazado_8016" data-name="Trazado 8016" d="M905.12,9034.049l19.366-40.984a1.233,1.233,0,0,1,1.642-.589l12.722,6.012a1.234,1.234,0,0,1,.589,1.643l-10.79,22.836,25.142-17.42,5.192-3.6a8.269,8.269,0,0,1,8.238-.681,8.292,8.292,0,0,1,3.277,12.175,8.258,8.258,0,0,1-2.1,2.1l-46.842,32.443a11.2,11.2,0,0,1-11.123.913,10.882,10.882,0,0,1-2.436-1.566A11.166,11.166,0,0,1,905.12,9034.049Z" fill="#d49f4a"/>
          </g>
          <g id="Grupo_1257" data-name="Grupo 1257">
            <rect id="Rectángulo_317" data-name="Rectángulo 317" width="6.826" height="16.538" transform="matrix(0.427, -0.904, 0.904, 0.427, 919.842, 9002.892)" fill="#c9873e"/>
          </g>
        </g>
      </g>
      <g id="Grupo_1260" data-name="Grupo 1260">
        <path id="Trazado_8017" data-name="Trazado 8017" d="M755.954,9263.239h378.784a9.021,9.021,0,1,0,0-18.042H755.954a9.021,9.021,0,1,0,0,18.042Z" fill="#d9d2d9"/>
      </g>
      <g id="Grupo_1267" data-name="Grupo 1267">
        <g id="Grupo_1261" data-name="Grupo 1261">
          <path id="Trazado_8018" data-name="Trazado 8018" d="M1014.317,8987.269a11.119,11.119,0,0,0-.893.749c2.392.285,4.26.638,5.543.923a4.817,4.817,0,0,1,2.491.678c.017.012.032.009.05.021a8.171,8.171,0,0,1,.953.442c.059.031.113.068.17.1a8.153,8.153,0,0,1,2.314,1.97c.025.03.051.06.075.091a8.2,8.2,0,0,1,.783,1.213c.018.035.046.064.064.1l.407-.085c-.4-2.134-1.49-5.716-4.365-7.063a7.487,7.487,0,0,0-1.97-.6A7.641,7.641,0,0,0,1014.317,8987.269Z" fill="#633c44"/>
        </g>
        <g id="Grupo_1262" data-name="Grupo 1262">
          <path id="Trazado_8019" data-name="Trazado 8019" d="M968.872,8994.64l0,0c.436-.509.9-1.04,1.392-1.567.046-.051.09-.1.136-.152.277-.289.526-.571.78-.823a15.705,15.705,0,0,1,2.306-2.044c3.547-4.486,8.526-10.439,9.53-11.746a9.142,9.142,0,0,1,7.336-3.927c3.735-.058,6.086,4.289,6.923,5.574a3.432,3.432,0,0,1-.27,4l0,0c1.014-.1,2.031-.17,3.053-.18l0,.015a2.216,2.216,0,0,1,1.633.688c.093.1.218.21.324.314a1.189,1.189,0,0,1,.536.187,31.385,31.385,0,0,1,3.269,2.54,73.794,73.794,0,0,1,7.6.5,11.119,11.119,0,0,1,.893-.749,7.641,7.641,0,0,1,5.622-1.465s-.907-6.262-3.352-8.776c-2.448-2.53-11.893-7.086-13.718-7.812-1.841-.722-2.515-1.011-5.738-.338l-10.215,2.132a10.083,10.083,0,0,0-5.151,2.474c-2.52,2.2-10.8,8.967-10.8,8.967a11.132,11.132,0,0,0-2.823,4.136c-1.462,3.147-5.106,10.635-5.431,12.316-.021.105-.058.249-.093.387,1.326-.881,2.9-1.857,4.795-2.875C967.794,8995.927,968.3,8995.3,968.872,8994.64Z" fill="#7a4d52"/>
        </g>
        <g id="Grupo_1263" data-name="Grupo 1263">
          <path id="Trazado_8020" data-name="Trazado 8020" d="M997.277,8979.952c-.837-1.285-3.188-5.632-6.923-5.574a9.142,9.142,0,0,0-7.336,3.927c-1,1.307-5.983,7.26-9.53,11.746,2.825-1.976,6.914-2.85,20.141-5.576a33.466,33.466,0,0,1,3.375-.517l0,0A3.432,3.432,0,0,0,997.277,8979.952Z" fill="#522e3b"/>
        </g>
        <g id="Grupo_1264" data-name="Grupo 1264">
          <path id="Trazado_8021" data-name="Trazado 8021" d="M1022.461,8990.081c.059.031.113.068.17.1C1022.574,8990.149,1022.52,8990.112,1022.461,8990.081Z" fill="#633c44"/>
        </g>
        <g id="Grupo_1265" data-name="Grupo 1265">
          <path id="Trazado_8022" data-name="Trazado 8022" d="M1025.8,8993.455a8.267,8.267,0,0,1,.572,1.326,1.362,1.362,0,0,0,.108.146c-.025-.273-.085-.8-.209-1.458l-.407.085C1025.849,8993.52,1025.821,8993.49,1025.8,8993.455Z" fill="#633c44"/>
        </g>
        <g id="Grupo_1266" data-name="Grupo 1266">
          <path id="Trazado_8023" data-name="Trazado 8023" d="M1025.02,8992.242c-.024-.031-.05-.061-.075-.091C1024.969,8992.182,1025,8992.211,1025.02,8992.242Z" fill="#633c44"/>
        </g>
      </g>
      <g id="Grupo_1268" data-name="Grupo 1268">
        <path id="Trazado_8024" data-name="Trazado 8024" d="M966.2,9038.023a77.306,77.306,0,0,1,4.882,15.277l17.28,82.781h22.915L991.743,9042.5a25.493,25.493,0,0,1,1.361-14.882c1.282-3.123,2.835-6.753,4.653-11.152,4.844-11.671,4.978-19.931,4.4-24.541l0-.015c-.022-.18-.048-.374-.084-.551a16.911,16.911,0,0,0-.326-1.853c.011-.04-.268-1.181-.452-1.922h0q-.018-.076-.036-.146h0c-.066-.267-.115-.458-.12-.476a1.405,1.405,0,0,0-.35-.652c-.007-.008-.009-.02-.016-.028l-.009,0a1.238,1.238,0,0,0-.464-.269l-.1-.033a2.78,2.78,0,0,0-.572-.086l-.02,0-.044,0c-.389-.012-.817.02-1.265.037-.174.011-.351.035-.527.048-.13.01-.248.008-.38.019-.113.01-.224.036-.336.047-.481.05-.955.12-1.431.2-.161.027-.325.037-.484.068h0c-.148.029-.295.061-.442.094-4.047.844-14.231,3.047-18.114,4.532a11.047,11.047,0,0,0-1.4.675c-.142.08-.266.172-.4.257a8.96,8.96,0,0,0-.781.545c-.138.11-.267.227-.4.344-.21.189-.412.384-.6.59-.118.129-.236.262-.346.4-.068.082-.145.155-.209.24l.043-.019a25.6,25.6,0,0,0-3.2,6.71c-.269.7-.522,1.4-.706,2.067-4.136,14.1-5.469,28.174-2.513,34.975C966.113,9037.821,966.158,9037.922,966.2,9038.023Z" fill="#bc7e37"/>
      </g>
      <g id="Grupo_1269" data-name="Grupo 1269">
        <path id="Trazado_8025" data-name="Trazado 8025" d="M972.427,8993.99a9.24,9.24,0,0,1,4.15-3.054c3.883-1.485,14.067-3.688,18.114-4.532.15-.034.3-.064.443-.094h0a20.3,20.3,0,0,1,2.252-.316c.773-.066,1.5-.089,2.216-.105l.141,0a1.206,1.206,0,0,1,1.026.4,3.061,3.061,0,0,1,.486,1.157c.013.048.027.1.041.146,1.492-.062,2.913-.082,4.258-.068l0,0-.356-.233a20.82,20.82,0,0,1-3.5-2.8,2.216,2.216,0,0,0-1.633-.688l0-.015a33.1,33.1,0,0,0-6.428.7c-17.023,3.509-18.913,3.948-22.447,7.62-.254.252-.5.534-.78.823-1.038,1.138-2.042,2.285-2.988,3.5l0,.006C968.906,8995.617,970.579,8994.795,972.427,8993.99Z" fill="#ddbb62"/>
      </g>
      <g id="Grupo_1273" data-name="Grupo 1273">
        <g id="Grupo_1270" data-name="Grupo 1270">
          <path id="Trazado_8026" data-name="Trazado 8026" d="M995.737,8989.748a8.27,8.27,0,1,1-11.127-3.6A8.27,8.27,0,0,1,995.737,8989.748Z" fill="#aa5665"/>
        </g>
        <g id="Grupo_1271" data-name="Grupo 1271">
          <path id="Trazado_8027" data-name="Trazado 8027" d="M996.81,9008.009a9.445,9.445,0,0,1-12.927-3.44L966.4,8974.407a9.459,9.459,0,0,1,16.368-9.486l17.478,30.161A9.458,9.458,0,0,1,996.81,9008.009Z" fill="#aa5665"/>
        </g>
        <g id="Grupo_1272" data-name="Grupo 1272">
          <path id="Trazado_8028" data-name="Trazado 8028" d="M990.717,8978.631l-7.945-13.71a9.459,9.459,0,1,0-16.367,9.486l11.483,19.815a54.271,54.271,0,0,0,7.346-7.467A55.671,55.671,0,0,0,990.717,8978.631Z" fill="#94465a"/>
        </g>
      </g>
      <g id="Grupo_1279" data-name="Grupo 1279">
        <g id="Grupo_1274" data-name="Grupo 1274">
          <path id="Trazado_8029" data-name="Trazado 8029" d="M1040,9126.128a8.269,8.269,0,1,1-9.784-6.405A8.27,8.27,0,0,1,1040,9126.128Z" fill="#b08c83"/>
        </g>
        <g id="Grupo_1275" data-name="Grupo 1275">
          <path id="Trazado_8030" data-name="Trazado 8030" d="M1024.416,8996.07a6.014,6.014,0,1,1-7.116-4.658A6.012,6.012,0,0,1,1024.416,8996.07Z" fill="#b08c83"/>
        </g>
        <g id="Grupo_1276" data-name="Grupo 1276">
          <path id="Trazado_8031" data-name="Trazado 8031" d="M969.558,9007.522a6.014,6.014,0,1,1-7.115-4.658A6.013,6.013,0,0,1,969.558,9007.522Z" fill="#b08c83"/>
        </g>
        <g id="Grupo_1277" data-name="Grupo 1277">
          <path id="Trazado_8032" data-name="Trazado 8032" d="M964.938,9019.359a12,12,0,0,1-4.416,7.3,13.26,13.26,0,0,0,7.79,23.705c3.557,9.026,11.893,19.672,9.772,34.645-.663,4.681-1.288,8.423-1.762,11.8-1.512,7.317-1.026,16.028.949,25.489a55.366,55.366,0,0,0,4.443,13.784H1039.8c5.821-4.441,10.411-11.493,7.936-22.472-1.131-5.017-4.221-11.544-6.533-15.582-6.211-10.846-12.62-14.894-16.559-18.661a27.393,27.393,0,0,1-6.693-29.436,84.056,84.056,0,0,0,4.27-19.106c.981-7.941.714-14.351-.562-19.435a13.39,13.39,0,0,1,1.859-10.7,6.016,6.016,0,0,0-3.222-9.094c-.542-.168-13.479-4.047-32.857,0h0c-17.983,3.754-27.461,12.426-27.856,12.793a6.018,6.018,0,0,0,2.4,10.175,4.206,4.206,0,0,1,2.955,4.789Z" fill="#b08c83"/>
        </g>
        <g id="Grupo_1278" data-name="Grupo 1278">
          <path id="Trazado_8033" data-name="Trazado 8033" d="M999.353,9038.121l-34.108,7.119a13.2,13.2,0,0,1-7.49-.618,13.275,13.275,0,0,0,13.656,5.479l27.915-5.826a13.275,13.275,0,0,0,10.281-15.708h0c-.021-.105-.056-.2-.08-.309A13.265,13.265,0,0,1,999.353,9038.121Z" fill="#b08c83"/>
        </g>
      </g>
      <g id="Grupo_1280" data-name="Grupo 1280">
        <path id="Trazado_8034" data-name="Trazado 8034" d="M984.958,9136.082h44.367a18.876,18.876,0,0,0,17.589-25.65,101.705,101.705,0,0,0-12.4-22.925l-59.452,12.41c-.47,9.621,1.019,20.916,3.179,30.749A6.878,6.878,0,0,0,984.958,9136.082Z" fill="#633c44"/>
      </g>
      <g id="Grupo_1281" data-name="Grupo 1281">
        <path id="Trazado_8035" data-name="Trazado 8035" d="M1008,9139.094h22.125c14.207,0,24.316-14.056,19.521-27.429a3.054,3.054,0,0,0-.249-.584,71.294,71.294,0,0,0-6.232-14.181c-6.323-11.039-12.981-15.418-16.963-19.16a25.1,25.1,0,0,1-6.13-27.012,86.46,86.46,0,0,0,4.4-19.626c.982-7.982.76-14.854-.658-20.411a10.942,10.942,0,0,1,1.621-8.8,8.286,8.286,0,0,0-4.468-12.449,58.893,58.893,0,0,0-15.409-1.929,13.09,13.09,0,0,1,3.675,3.917,55.7,55.7,0,0,1,5.094,9.688.9.9,0,0,1-.354,1.026c-2.289,1.69-9.02,6.675-9.02,6.675l7.091,7.259a.893.893,0,0,1-.043,1.268c-3,2.978-15.456,15.5-17.611,19.9-2.481,5.033-4.735,13.736-4.038,17.293Z" fill="#d49f4a"/>
      </g>
      <g id="Grupo_1282" data-name="Grupo 1282">
        <path id="Trazado_8036" data-name="Trazado 8036" d="M963.705,9051.76a8.01,8.01,0,0,1,4.6,4.078c.408.838.816,1.652,1.16,2.337,2.3,4.618,4.8,9.625,5.994,15.321a32.1,32.1,0,0,1,.385,11.193c-.966,6.914-1.753,11.074-2.22,14.5-1.337,9.779-2.94,18.592-1.736,28.076a40.892,40.892,0,0,0,.514,5.173,7.628,7.628,0,0,0,7.556,6.66h12.481l-13.831-66.256-3.453-16.542c-.413-1.02-2.747-6.538-6.884-8.992-4.425-2.654-10.681-9.812-12.825-18.318a15.43,15.43,0,0,0-1.942,11.295A15.215,15.215,0,0,0,963.705,9051.76Z" fill="#d49f4a"/>
      </g>
      <g id="Grupo_1283" data-name="Grupo 1283">
        <path id="Trazado_8037" data-name="Trazado 8037" d="M967.414,8996.414a47.953,47.953,0,0,0-9.367,6.332,8.268,8.268,0,0,0-1.056,10.911c1.114-1.876,2.646-4.546,4.029-7.261A56.9,56.9,0,0,1,967.414,8996.414Z" fill="#d49f4a"/>
      </g>
      <g id="Grupo_1286" data-name="Grupo 1286">
        <g id="Grupo_1284" data-name="Grupo 1284">
          <path id="Trazado_8038" data-name="Trazado 8038" d="M968.27,9047.3a17.342,17.342,0,0,1-1.713-1.186l-3.436.718a13.133,13.133,0,0,1-6.832-.415,15.233,15.233,0,0,0,6.676,5.033,13.162,13.162,0,0,0,6.322.243l2.957-.617A14.044,14.044,0,0,0,968.27,9047.3Z" fill="#bc7e37"/>
        </g>
        <g id="Grupo_1285" data-name="Grupo 1285">
          <path id="Trazado_8039" data-name="Trazado 8039" d="M1011.31,9029.364h0c-.022-.105-.057-.2-.081-.309a13.262,13.262,0,0,1-10.174,9.861l-8.1,1.691a52.338,52.338,0,0,0-1.948,6.555l10.019-2.092A13.274,13.274,0,0,0,1011.31,9029.364Z" fill="#bc7e37"/>
        </g>
      </g>
      <g id="Grupo_1289" data-name="Grupo 1289">
        <g id="Grupo_1287" data-name="Grupo 1287">
          <path id="Trazado_8040" data-name="Trazado 8040" d="M972.56,8990.794a47.215,47.215,0,0,0-5.146,5.62,56.9,56.9,0,0,0-6.394,9.982c-1.383,2.715-2.915,5.385-4.029,7.261-.262.438-.5.827-.709,1.162-.126.21-.227.385-.332.545a.591.591,0,0,0-.052.1.473.473,0,0,0,.087.511c.033.036.071.075.112.117a4.977,4.977,0,0,0,1.76,1.144l3.658,1.394s-4.036,6.787-5.765,9.022a1.443,1.443,0,0,0-.311,1.309l.006.029c2.144,8.507,8.4,15.664,12.825,18.318,4.137,2.454,6.471,7.973,6.884,8.992a39.394,39.394,0,0,0-3.941-8.946,84.209,84.209,0,0,1-5.144-9.632c-4.039-9.294.6-30.2,3.219-37.042,1.43-3.82,2.422-6.666,5.041-8.538a.83.83,0,0,0,.139-1.224A1.356,1.356,0,0,0,972.56,8990.794Z" fill="#ddbb62"/>
        </g>
        <g id="Grupo_1288" data-name="Grupo 1288">
          <path id="Trazado_8041" data-name="Trazado 8041" d="M1014.321,9001.121a55.7,55.7,0,0,0-5.094-9.688,23.983,23.983,0,0,0-6.674-6.45,1.2,1.2,0,0,0-1.719.386.976.976,0,0,0,.026,1.036,4.3,4.3,0,0,1,.438,1.185c.223.921.455,1.887.446,1.919.171.715.33,1.751.41,2.4l0,.015c.578,4.61.444,12.87-4.4,24.541-7.817,18.91-10.773,23.659-8.206,34.781.175.761.449,1.855.795,3.29-.7-3.557,1.557-12.26,4.038-17.293,2.155-4.4,14.608-16.919,17.611-19.9a.893.893,0,0,0,.044-1.266l0,0-7.089-7.258s6.731-4.984,9.02-6.675A.9.9,0,0,0,1014.321,9001.121Z" fill="#ddbb62"/>
        </g>
      </g>
      <g id="Grupo_1296" data-name="Grupo 1296">
        <g id="Grupo_1290" data-name="Grupo 1290">
          <path id="Trazado_8042" data-name="Trazado 8042" d="M994.23,9118.327a8.222,8.222,0,0,0-2.145-.282h-90.8a34.407,34.407,0,0,0-33.189,25.466l-21.133,78.033a8.269,8.269,0,1,0,15.975,4.28l20.446-76.528c2.084-7.778,9.849-14.714,17.9-14.713h90.8a8.27,8.27,0,0,0,2.145-16.256Z" fill="#29162e"/>
        </g>
        <g id="Grupo_1291" data-name="Grupo 1291">
          <path id="Trazado_8043" data-name="Trazado 8043" d="M868.653,9205.77l-16.7-4.471a1.279,1.279,0,0,0-1.565.905l-5.083,18.989a9.922,9.922,0,1,0,19.169,5.131l5.084-18.989A1.28,1.28,0,0,0,868.653,9205.77Z" fill="#b08c83"/>
        </g>
        <g id="Grupo_1295" data-name="Grupo 1295">
          <g id="Grupo_1292" data-name="Grupo 1292">
            <path id="Trazado_8044" data-name="Trazado 8044" d="M870.254,9229.889l-4.153,2.8a12.2,12.2,0,0,0-2.194,1.9l1.587,18.806a.911.911,0,0,0,.9.825h1.509a.885.885,0,0,0,.887-.825l1.042-10.888a64.248,64.248,0,0,1,1.275-7.9l1.7-7.481h-.016A7.794,7.794,0,0,1,870.254,9229.889Z" fill="#825c5e"/>
          </g>
          <g id="Grupo_1293" data-name="Grupo 1293">
            <path id="Trazado_8045" data-name="Trazado 8045" d="M869.8,9214.366a3.721,3.721,0,0,0-3.593,2.814,11.772,11.772,0,0,1-3.36,5.646l-3.314,3.08a49.732,49.732,0,0,0-7.948,9.535l-4.449,6.984a5.12,5.12,0,0,1-4.325,2.364h-8.461a4.713,4.713,0,0,0,0,9.427h14.606a5.01,5.01,0,0,0,4.5-2.8l2.581-5.2a35.015,35.015,0,0,1,2.816-4.7l4.014-5.679a10.162,10.162,0,0,1,1.041-1.26,12.2,12.2,0,0,1,2.194-1.9l4.153-2.8a7.794,7.794,0,0,0,2.535-2.768h.016a8.076,8.076,0,0,0-.187-8.182Z" fill="#b08c83"/>
          </g>
          <g id="Grupo_1294" data-name="Grupo 1294">
            <path id="Trazado_8046" data-name="Trazado 8046" d="M842.814,9244.791a5.12,5.12,0,0,0,4.325-2.364l4.449-6.984a49.732,49.732,0,0,1,7.948-9.535l3.314-3.08a11.772,11.772,0,0,0,3.36-5.646,3.721,3.721,0,0,1,3.593-2.814l-.467-.747a12.325,12.325,0,0,0-22.944.637h-.015l-.125.342a1.634,1.634,0,0,1-.077.266l-2.194,6.564a53.664,53.664,0,0,0-2.628,12.708l-.451,5.476a4.506,4.506,0,0,1-2.318,3.562l-2.971,1.618h7.2Z" fill="#b08c83"/>
          </g>
        </g>
      </g>
      <g id="Grupo_1297" data-name="Grupo 1297">
        <path id="Trazado_8047" data-name="Trazado 8047" d="M1062.157,9139.094c1.168,0,2.125,1.339,2.125,3v5.265c0,1.65-.957,3-2.125,3H937.6c-1.167,0-2.124-1.354-2.124-3V9142.1c0-1.665.957-3,2.124-3Z" fill="#dedce0"/>
      </g>
      <g id="Grupo_1304" data-name="Grupo 1304">
        <g id="Grupo_1298" data-name="Grupo 1298">
          <path id="Trazado_8048" data-name="Trazado 8048" d="M1003.985,9118.327a8.222,8.222,0,0,0-2.145-.282H941.112a34.407,34.407,0,0,0-33.189,25.466l-21.133,78.033a8.269,8.269,0,1,0,15.975,4.28l20.446-76.528c2.084-7.778,9.849-14.714,17.9-14.713h60.729a8.27,8.27,0,0,0,2.145-16.256Z" fill="#36223b"/>
        </g>
        <g id="Grupo_1299" data-name="Grupo 1299">
          <path id="Trazado_8049" data-name="Trazado 8049" d="M908.477,9205.77l-16.7-4.471a1.281,1.281,0,0,0-1.566.905l-5.083,18.989a9.923,9.923,0,0,0,19.171,5.131l5.083-18.989A1.279,1.279,0,0,0,908.477,9205.77Z" fill="#b08c83"/>
        </g>
        <g id="Grupo_1303" data-name="Grupo 1303">
          <g id="Grupo_1300" data-name="Grupo 1300">
            <path id="Trazado_8050" data-name="Trazado 8050" d="M900.1,9253.066l.017.326a.813.813,0,0,0,.716.825h1.184a.815.815,0,0,0,.718-.825l.733-9.737-2.4,7.841A3.652,3.652,0,0,1,900.1,9253.066Z" fill="#825c5e"/>
          </g>
          <g id="Grupo_1301" data-name="Grupo 1301">
            <path id="Trazado_8051" data-name="Trazado 8051" d="M905.667,9220.525h-.016l-3.186,9.333c-.033.108-.083.218-.116.326a36.537,36.537,0,0,1-3.3,6.984c-.334.545-.684,1.073-1.05,1.6l-2.9,4.229a4.2,4.2,0,0,1-3.486,1.789H880.92a5.123,5.123,0,0,0-2.3.529.015.015,0,0,0-.017.015c-.2.094-.4.218-.583.327a6.384,6.384,0,0,0-.534.405,6.476,6.476,0,0,0-.467.45c-.133.172-.267.343-.383.514a1.37,1.37,0,0,0-.217.373.927.927,0,0,0-.15.279,2.432,2.432,0,0,0-.217.607,1.872,1.872,0,0,0-.1.436,1.38,1.38,0,0,0-.05.249c-.017.172-.033.357-.033.528a4.554,4.554,0,0,0,1.484,3.329,5.226,5.226,0,0,0,3.568,1.385H897.2a4.178,4.178,0,0,0,2.9-1.151,3.652,3.652,0,0,0,.967-1.57l2.4-7.841,2.334-7.638a17.926,17.926,0,0,0,.768-6.642C906.418,9227.074,906.134,9223.885,905.667,9220.525Z" fill="#b08c83"/>
          </g>
          <g id="Grupo_1302" data-name="Grupo 1302">
            <path id="Trazado_8052" data-name="Trazado 8052" d="M891.243,9244.791h.366a4.2,4.2,0,0,0,3.486-1.789l2.9-4.229c.366-.53.716-1.059,1.05-1.6a36.537,36.537,0,0,0,3.3-6.984c.033-.108.083-.218.116-.326l3.186-9.333h.016c-.183-1.275-.4-2.582-.633-3.857h-.017c-.7-5.974-4.869-10.562-9.922-10.562-8.589,0-10.272,16.225-10.272,16.225a54.054,54.054,0,0,1-1.085,8.181l-2.15,10.1a7.549,7.549,0,0,1-2.085,3.811l-.884.9a5.123,5.123,0,0,1,2.3-.529Z" fill="#b08c83"/>
          </g>
        </g>
      </g>
      <g id="Grupo_1305" data-name="Grupo 1305">
        <path id="Trazado_8053" data-name="Trazado 8053" d="M1012.857,9113.534H945.2c-3.13,0-12.014,1.132-14.239,3.007H975.27a9.773,9.773,0,1,1,0,19.546H934.558a19.1,19.1,0,0,0-1.811.938,46.525,46.525,0,0,0,12.453,2.068h67.657a12.78,12.78,0,1,0,0-25.56Z" fill="#d49f4a"/>
      </g>
      <g id="Grupo_1306" data-name="Grupo 1306">
        <path id="Trazado_8054" data-name="Trazado 8054" d="M911.738,9134.583h-1.81a9.648,9.648,0,0,0,1.383.726Q911.521,9134.944,911.738,9134.583Z" fill="#633c44"/>
      </g>
      <g id="Grupo_1307" data-name="Grupo 1307">
        <path id="Trazado_8055" data-name="Trazado 8055" d="M1037.8,9112.692a.953.953,0,0,0-1.13-.736l-20.794,4.341a.953.953,0,0,0-.741,1.127l1.357,6.5,22.665-4.731Z" fill="#ddbb62"/>
      </g>
      <g id="Grupo_1308" data-name="Grupo 1308">
        <path id="Trazado_8056" data-name="Trazado 8056" d="M1016.488,9123.925l2.108,10.771a4.729,4.729,0,0,0,3.345,3.664c5.318,1.563,13.763-.217,17.982-3.77a4.788,4.788,0,0,0,1.6-4.634l-2.368-10.764-22.562,4.71Z" fill="#d49f4a"/>
      </g>
      <ellipse id="Elipse_94" data-name="Elipse 94" cx="38.534" cy="39.947" rx="38.534" ry="39.947" transform="translate(946.508 9042.545)" fill="#d49f4a"/>
      <g id="Grupo_1309" data-name="Grupo 1309">
        <path id="Trazado_8057" data-name="Trazado 8057" d="M975.27,9116.541H909.116a9.714,9.714,0,0,0-5.2,1.5h50.56a8.269,8.269,0,0,1,0,16.538H941.111a15.872,15.872,0,0,0-6.553,1.5H975.27a9.773,9.773,0,1,0,0-19.546Z" fill="#633c44"/>
      </g>
      <g id="Grupo_1316" data-name="Grupo 1316">
        <g id="Grupo_1310" data-name="Grupo 1310">
          <path id="Trazado_8058" data-name="Trazado 8058" d="M1013.415,8988.026a9.436,9.436,0,0,0-2.5,3.669c-.249.5-.486,1.037-.722,1.611-.13.31-.262.633-.4.967a104.329,104.329,0,0,1-2.89,12.591c-.136.4-.41,1.052-.8,1.932a22.148,22.148,0,0,1-5.894,7.12c-.03.158-.062.32-.088.472-.78,4.679-.777,7.12-4.056,11.706-3.281,4.57-11.886,13.187-15.155,16.111s-4.705,3.286-8.193,4.014-4.295.283-5.543-.07-7.129-3.565-10.947-6.056c1.574,2.56,5.793,8.881,6.895,10.878,1.122,2.07,4.1,3.063,6.484,3.731a9.791,9.791,0,0,0,4.2.275l7.7-1.606a5.638,5.638,0,0,0,2.519-.986c.268-.18.578-.4,1-.686,1.525-1.025,6.688-5.359,11.441-9.1s4.392-6.17,7.953-15.622c0,0,1.453-4.373,2.928-9.318.4-1.329.813-2.705,1.17-4.038.645-2.255,1.194-4.412,1.533-6.1.45-2.26.8-4.253,1.079-5.97.445-2.642.705-4.678.837-6.165.018-.295.036-.575.058-.825a7.361,7.361,0,0,1,6.192-7.545,4.142,4.142,0,0,1,.752-.079h0c-1.283-.285-3.151-.638-5.543-.923Z" fill="#633c44"/>
        </g>
        <g id="Grupo_1311" data-name="Grupo 1311">
          <path id="Trazado_8059" data-name="Trazado 8059" d="M980.643,9029.286c-2.839,1.791-5.237,3.2-6.333,3.427-1.673.349-4.973-4.637-7.019-8.432l0,0c-.952-1.086-1.825-4.438-2.457-7.482-.049-.061-.107-.119-.155-.181-.019.434-.2,8.212,1.747,13.92,2,5.864,2.8,10.413,5.4,9.868,2.019-.421,6.977-7.046,10.039-11.907-.4.257-.819.527-1.206.771Z" fill="#522e3b"/>
        </g>
        <g id="Grupo_1312" data-name="Grupo 1312">
          <path id="Trazado_8060" data-name="Trazado 8060" d="M972.721,9048.219c3.488-.728,4.939-1.092,8.193-4.014s11.874-11.541,15.155-16.111c3.279-4.586,3.276-7.027,4.056-11.706.026-.151.058-.313.088-.472-.246.191-.489.372-.72.527-1.627,1.092-5.524,3.979-9.417,6.666-1.4.969-2.807,1.906-4.108,2.747-1.387.891-2.768,1.785-4.1,2.64-3.062,4.861-8.02,11.486-10.039,11.907-2.6.545-3.4-4-5.4-9.868-1.942-5.708-1.766-13.486-1.747-13.92a30.471,30.471,0,0,1-3.436-5.487c-1.653,3.355-5.928,11.911-6.959,13.4a6.4,6.4,0,0,0-1,4.049s.381,5.542.737,8.231.623,2.665,2.075,5.051c.051.065.089.149.141.231,3.818,2.49,9.684,5.7,10.947,6.056S969.233,9048.948,972.721,9048.219Z" fill="#6e434b"/>
        </g>
        <g id="Grupo_1313" data-name="Grupo 1313">
          <path id="Trazado_8061" data-name="Trazado 8061" d="M1003.575,9004.287l-.014.018a133.493,133.493,0,0,1-13.257,11.829c-.7.531-1.884,1.361-3.282,2.3-3.815,2.532-9.222,5.858-10.558,6.167-1.836.43-4.188-.662-8.554-4.526a26.625,26.625,0,0,1-3.078-3.276c.632,3.044,1.505,6.4,2.457,7.482v0c2.047,3.8,5.347,8.781,7.02,8.433,1.1-.229,3.494-1.636,6.333-3.427l.018-.02c.387-.243.8-.514,1.206-.771,1.333-.854,2.714-1.749,4.1-2.64,1.3-.841,2.7-1.778,4.108-2.747,3.893-2.687,7.79-5.574,9.417-6.666.231-.155.474-.336.72-.527a22.148,22.148,0,0,0,5.894-7.12c.387-.88.661-1.536.8-1.932a104.329,104.329,0,0,0,2.89-12.591c-.452,1.118-.943,2.376-1.559,3.818A25.48,25.48,0,0,1,1003.575,9004.287Z" fill="#74494e"/>
        </g>
        <g id="Grupo_1314" data-name="Grupo 1314">
          <path id="Trazado_8062" data-name="Trazado 8062" d="M997,8983.958c-.607.492-6.939,7.977-11.209,12.981-1.835,1.982-3.336,3.6-3.965,4.237-2.232,2.294-8.536,8.556-10.151,8.294-1.143-.191-2.982-4.8-3.811-7.744a6.58,6.58,0,0,1-.212-1c-.543-2.212.635-3.545,2.811-6.683.652-.948,1.746-2.378,3.021-3.991,0,0-8.088,5.369-10.869,9.238-.163.642-.456,1.584-.774,2.649-.948,2.42-2.033,5.371-1.7,6.483a18.665,18.665,0,0,0,1.092,2.706,30.471,30.471,0,0,0,3.436,5.487c.048.062.106.12.155.181a26.625,26.625,0,0,0,3.078,3.276c4.366,3.864,6.718,4.956,8.554,4.526,1.336-.309,6.743-3.635,10.558-6.167,1.4-.937,2.581-1.767,3.282-2.3a133.493,133.493,0,0,0,13.257-11.829l.014-.018a25.48,25.48,0,0,0,4.66-6.2c.616-1.442,1.107-2.7,1.559-3.818.134-.334.266-.657.4-.967.236-.574.473-1.106.722-1.611a9.436,9.436,0,0,1,2.5-3.669l.009-.009C1010.251,8985.016,1000.231,8982.982,997,8983.958Z" fill="#7a4d52"/>
        </g>
        <g id="Grupo_1315" data-name="Grupo 1315">
          <path id="Trazado_8063" data-name="Trazado 8063" d="M983.117,8991.13c-8.585,1.792-9.629-1.079-9.629-1.079-1.275,1.613-2.369,3.043-3.021,3.991-2.176,3.138-3.354,4.471-2.811,6.683a6.58,6.58,0,0,0,.212,1c.829,2.945,2.668,7.553,3.811,7.744,1.615.262,7.919-6,10.151-8.294.629-.642,2.13-2.255,3.965-4.237,4-4.686,9.8-11.545,11.024-12.8A29.8,29.8,0,0,1,983.117,8991.13Z" fill="#522e3b"/>
        </g>
      </g>
      <g id="Grupo_1330" data-name="Grupo 1330">
        <g id="Grupo_1317" data-name="Grupo 1317">
          <path id="Trazado_8064" data-name="Trazado 8064" d="M976.188,8922.882c1.707,2.188-8.944,13.358-23.791,24.951s-28.268,19.217-29.976,17.03,8.944-13.358,23.791-24.951S974.48,8920.7,976.188,8922.882Z" fill="#353166"/>
        </g>
        <g id="Grupo_1320" data-name="Grupo 1320">
          <g id="Grupo_1318" data-name="Grupo 1318">
            <path id="Trazado_8065" data-name="Trazado 8065" d="M989.126,8959.647a5.394,5.394,0,0,1-3.564-4.983,25.5,25.5,0,0,1-1.487,3.02,3.9,3.9,0,0,1-.221.36,39.85,39.85,0,0,1-3.654,9.82c4.883-.693,9.8-2.307,13.27-5.774a15.3,15.3,0,0,0,3.782-6.4,11.3,11.3,0,0,1-1.655,2.229A6.284,6.284,0,0,1,989.126,8959.647Z" fill="#492e3f"/>
          </g>
          <g id="Grupo_1319" data-name="Grupo 1319">
            <path id="Trazado_8066" data-name="Trazado 8066" d="M985.562,8954.664a5.394,5.394,0,0,0,3.564,4.983,6.284,6.284,0,0,0,6.471-1.727,11.3,11.3,0,0,0,1.655-2.229,15.487,15.487,0,0,0-.008-9.294,15.789,15.789,0,0,0-10.3-10.017A29.108,29.108,0,0,1,985.562,8954.664Z" fill="#4e3342"/>
          </g>
        </g>
        <g id="Grupo_1328" data-name="Grupo 1328">
          <g id="Grupo_1321" data-name="Grupo 1321">
            <path id="Trazado_8067" data-name="Trazado 8067" d="M985.811,8933.715c-8-15.657-28.536-21.169-45.869-12.312a37.813,37.813,0,0,0-7.2,4.791,36.117,36.117,0,0,0-12.471,21.7,32.005,32.005,0,0,0,.587,12.19c1.149,5.036,3.716,9.368,6.07,13.974,2.158,4.226,4.015,8.83,6.627,12.8a29.512,29.512,0,0,0,21.178,12.989c9.958,1.094,18.509-6.1,24.43-13.322a53.562,53.562,0,0,0,11.207-24.684,46.057,46.057,0,0,0-4.164-27.35C986.073,8934.234,985.944,8933.974,985.811,8933.715Z" fill="#aa5665"/>
          </g>
          <g id="Grupo_1322" data-name="Grupo 1322">
            <path id="Trazado_8068" data-name="Trazado 8068" d="M954.975,8980.923c-4.778,2.441-6.108,4.658-6.244,4.9a1.531,1.531,0,0,0,2.05,2.091,1.556,1.556,0,0,0,.618-.57c.01-.017,1.074-1.7,4.973-3.689,3.816-1.95,5.8-1.872,5.9-1.867a1.535,1.535,0,0,0,.335-3.052C962.324,8978.705,959.748,8978.484,954.975,8980.923Z" fill="#7f354c"/>
          </g>
          <g id="Grupo_1323" data-name="Grupo 1323">
            <path id="Trazado_8069" data-name="Trazado 8069" d="M978.39,8942.144a3.877,3.877,0,0,0-2.778,5.348c1.109,3.24,3.116,2.484,4.127,5.383.626,1.794.254,2.745.861,4.517.549,1.6,1.815,3.18,3.372,2.813,2.556-.6,3.5-5.972,2.427-10.192C985.3,8945.688,982.387,8941.2,978.39,8942.144Z" fill="#94465a"/>
          </g>
          <g id="Grupo_1324" data-name="Grupo 1324">
            <path id="Trazado_8070" data-name="Trazado 8070" d="M936.212,8969.8a1,1,0,0,0,.844-1.809c-.252-.117-6.232-2.867-10.286-.827l-.006,0a1,1,0,0,0,.9,1.782C930.855,8967.346,936.159,8969.778,936.212,8969.8Z" fill="#4e2a46"/>
          </g>
          <g id="Grupo_1325" data-name="Grupo 1325">
            <path id="Trazado_8071" data-name="Trazado 8071" d="M937.972,8972.7a1.149,1.149,0,0,0-1.068-.627l-4.1.152a1.151,1.151,0,1,0,.084,2.3l1.623-.06-1,1.277a1.151,1.151,0,0,0,1.432,1.734,1.14,1.14,0,0,0,.384-.315l2.526-3.23A1.15,1.15,0,0,0,937.972,8972.7Z" fill="#4b2943"/>
          </g>
          <g id="Grupo_1326" data-name="Grupo 1326">
            <path id="Trazado_8072" data-name="Trazado 8072" d="M957.854,8958.745a1,1,0,0,1-1.96-.376c.052-.273,1.328-6.73,5.356-8.821l.006,0a1,1,0,0,1,.914,1.776C959,8952.964,957.865,8958.687,957.854,8958.745Z" fill="#4e2a46"/>
          </g>
          <g id="Grupo_1327" data-name="Grupo 1327">
            <path id="Trazado_8073" data-name="Trazado 8073" d="M959.17,8961.868a1.148,1.148,0,0,1,.118-1.233l2.524-3.23a1.151,1.151,0,1,1,1.815,1.417l-1,1.279,1.621-.062a1.153,1.153,0,0,1,.086,2.3l-4.1.153A1.151,1.151,0,0,1,959.17,8961.868Z" fill="#4b2943"/>
          </g>
        </g>
        <g id="Grupo_1329" data-name="Grupo 1329">
          <path id="Trazado_8074" data-name="Trazado 8074" d="M989.862,8962.09a9.745,9.745,0,0,1,.013,2.26c.181-.838.36-1.675.491-2.5a46.065,46.065,0,0,0-4.164-27.35c-.129-.261-.258-.521-.391-.781-8-15.656-28.536-21.168-45.869-12.312a37.851,37.851,0,0,0-7.205,4.791,36.116,36.116,0,0,0-12.47,21.7,31.225,31.225,0,0,0,.306,10.844c-.692-5.562,1.236-14.151,12.065-21.095a104.418,104.418,0,0,0,18.289-15.137.828.828,0,0,1,1.4.752c-2.072,9.468,11.435,17.071,20.715,22.6a1.438,1.438,0,0,0,2.141-.93c2.4-11.038,15.422-2.675,14.492,8.347A42.273,42.273,0,0,0,989.862,8962.09Z" fill="#44293b"/>
        </g>
      </g>
      <g id="Grupo_1336" data-name="Grupo 1336">
        <g id="Grupo_1331" data-name="Grupo 1331">
          <path id="Trazado_8075" data-name="Trazado 8075" d="M971.022,8939.329a2.255,2.255,0,0,1,.549.077,1.109,1.109,0,0,0,1.4-1.053l.022-1.386a2.433,2.433,0,0,1,2.5-2.366,2.488,2.488,0,0,1,.828.155,1.108,1.108,0,0,0,1.5-1.021l.013-.848a2.637,2.637,0,0,1,5.272.084l-.006.379a.925.925,0,0,0,1.307.857,2.653,2.653,0,0,1,1.14-.234,2.607,2.607,0,0,1,2.594,2.619c-.209,13.146-.255,15.539-.294,18.278a1.348,1.348,0,0,0,2.269,1,63.552,63.552,0,0,1,6.321-5.344,2.461,2.461,0,0,1,2.821,4.032,61.409,61.409,0,0,0-5.778,4.905,65.378,65.378,0,0,0-8.338,9.47,8.526,8.526,0,0,1-6.074,3.784c-5.252.455-9.819-5.064-10.2-12.332-.346-6.6-.445,4.439-.073-18.948A2.172,2.172,0,0,1,971.022,8939.329Z" fill="#b56472"/>
        </g>
        <g id="Grupo_1332" data-name="Grupo 1332">
          <path id="Trazado_8076" data-name="Trazado 8076" d="M964.519,9026.954a12.145,12.145,0,0,1-7.65-15.355l16.852-50.27a6.014,6.014,0,0,1,11.4,3.823l-16.851,50.27.129.112,47.462-23.63a6.015,6.015,0,0,1,5.361,10.769l-47.462,23.63A12.1,12.1,0,0,1,964.519,9026.954Z" fill="#b56472"/>
        </g>
        <g id="Grupo_1335" data-name="Grupo 1335">
          <g id="Grupo_1333" data-name="Grupo 1333">
            <path id="Trazado_8077" data-name="Trazado 8077" d="M958.916,9026.294a14.345,14.345,0,0,1-4.191-15.406l13.151-39.229a1.233,1.233,0,0,1,1.562-.777l13.341,4.472a1.234,1.234,0,0,1,.778,1.563l-11.488,34.268,42.788-21.3a8.271,8.271,0,1,1,7.373,14.809l-47.456,23.64a14.39,14.39,0,0,1-15.858-2.034Z" fill="#daac51"/>
          </g>
          <g id="Grupo_1334" data-name="Grupo 1334">
            <rect id="Rectángulo_318" data-name="Rectángulo 318" width="6.826" height="16.538" transform="matrix(0.318, -0.948, 0.948, 0.318, 964.422, 8981.963)" fill="#d19743"/>
          </g>
        </g>
      </g>
    </g>
    <line id="Línea_18" data-name="Línea 18" y1="11.795" x2="11.795" transform="translate(975.51 8888.077)" fill="none" stroke="#444242" stroke-miterlimit="10" stroke-width="1" opacity="0.37"/>
    <line id="Línea_19" data-name="Línea 19" y1="15.439" x2="6.316" transform="translate(970.552 8883.106)" fill="none" stroke="#444242" stroke-miterlimit="10" stroke-width="1" opacity="0.37"/>
    <line id="Línea_20" data-name="Línea 20" x1="0.701" y1="16.666" transform="translate(963.22 8880.86)" fill="none" stroke="#444242" stroke-miterlimit="10" stroke-width="1" opacity="0.37"/>
    <line id="Línea_21" data-name="Línea 21" x1="15.971" y1="4.816" transform="translate(886.934 8944.069)" fill="none" stroke="#444242" stroke-miterlimit="10" stroke-width="1" opacity="0.37"/>
    <line id="Línea_22" data-name="Línea 22" x1="16.591" y2="1.735" transform="translate(887.489 8953.882)" fill="none" stroke="#444242" stroke-miterlimit="10" stroke-width="1" opacity="0.37"/>
    <line id="Línea_23" data-name="Línea 23" x1="14.354" y2="8.498" transform="translate(891.963 8960.207)" fill="none" stroke="#444242" stroke-miterlimit="10" stroke-width="1" opacity="0.37"/>
    <g id="Grupo_1413" data-name="Grupo 1413">
      <g id="Grupo_1338" data-name="Grupo 1338">
        <path id="Trazado_8078" data-name="Trazado 8078" d="M1135.911,8972.979a5.959,5.959,0,0,0-7.1-4.537l-52.145,11.481,16.128-50.9a5.96,5.96,0,1,0-11.364-3.6l-16.22,51.191a11.745,11.745,0,0,0,13.722,15.016l52.442-11.548A5.96,5.96,0,0,0,1135.911,8972.979Z" fill="#e9a596"/>
      </g>
      <g id="Grupo_1339" data-name="Grupo 1339">
        <path id="Trazado_8079" data-name="Trazado 8079" d="M1079.214,8992.924a13.076,13.076,0,0,1-15.269-16.71l16.146-50.955a7.481,7.481,0,0,1,6.6-5.311,7.285,7.285,0,0,1,7.362,9.475l-15.435,48.714,31.6-6.958a.662.662,0,0,1,.789.5l2.848,12.935a.663.663,0,0,1-.5.79Z" fill="#f9f5f3"/>
      </g>
      <g id="Grupo_1340" data-name="Grupo 1340">
        <path id="Trazado_8080" data-name="Trazado 8080" d="M1079.583,8994.6l40.292-8.871a1.987,1.987,0,0,0,1.512-2.368l-3.019-13.71a1.987,1.987,0,0,0-2.367-1.514l-34.845,7.673,14.541-45.866a9.008,9.008,0,1,0-17.174-5.44l-16.218,51.187a14.787,14.787,0,0,0,17.278,18.91Z" fill="#3f2a40"/>
      </g>
      <g id="Grupo_1341" data-name="Grupo 1341">
        <path id="Trazado_8081" data-name="Trazado 8081" d="M1046.073,9264.015h94.472a7.947,7.947,0,0,0,0-15.894h-94.472a7.947,7.947,0,0,0,0,15.894Z" fill="#d9d2d9"/>
      </g>
      <g id="Grupo_1342" data-name="Grupo 1342">
        <path id="Trazado_8082" data-name="Trazado 8082" d="M1144.421,8914.192c-3.336-.758-7.041-3.31-10.192-4.707-2.007-.891-9.145-.961-12.637-.961-10.2,0-14.461,4.208-19.212,4.674-5.192,1.992-6.933,22.394.627,41.267h1.478C1120.422,8946.022,1144.421,8914.192,1144.421,8914.192Z" fill="#8c7b89"/>
      </g>
      <g id="Grupo_1343" data-name="Grupo 1343">
        <path id="Trazado_8083" data-name="Trazado 8083" d="M1125.553,8903.5c-10.7,0-16.555,3.2-18.659,4.858a38.418,38.418,0,0,0-4.169,4.418,4.714,4.714,0,0,0-1.094,1.916c-.7,2.611,5.5,5.271,14.589,5.174,8.642-.091,20.153-2.8,21.117-5.581a1.307,1.307,0,0,0-.409-1.376c-3.321-3.031-4.03-7.026-5.353-8S1127.919,8903.5,1125.553,8903.5Z" fill="#f1eff1"/>
      </g>
      <g id="Grupo_1347" data-name="Grupo 1347">
        <g id="Grupo_1344" data-name="Grupo 1344">
          <circle id="Elipse_95" data-name="Elipse 95" cx="7.947" cy="7.947" r="7.947" transform="translate(1109.444 8918.805) rotate(-67.5)" fill="#e9a596"/>
        </g>
        <g id="Grupo_1345" data-name="Grupo 1345">
          <path id="Trazado_8084" data-name="Trazado 8084" d="M1118.805,8932.034a10.417,10.417,0,0,1-8.532-9.112l-4.226-38.121a10.414,10.414,0,1,1,20.7-2.295l4.226,38.122a10.42,10.42,0,0,1-12.17,11.406Z" fill="#e9a596"/>
        </g>
        <g id="Grupo_1346" data-name="Grupo 1346">
          <path id="Trazado_8085" data-name="Trazado 8085" d="M1128.883,8901.763l-2.134-19.257a10.414,10.414,0,1,0-20.7,2.295l2.733,24.648a52.322,52.322,0,0,0,12.624-3.741A55.707,55.707,0,0,0,1128.883,8901.763Z" fill="#da8787"/>
        </g>
      </g>
      <g id="Grupo_1353" data-name="Grupo 1353">
        <g id="Grupo_1348" data-name="Grupo 1348">
          <circle id="Elipse_96" data-name="Elipse 96" cx="7.947" cy="7.947" r="7.947" transform="translate(1089.964 9042.756)" fill="#e9a596"/>
        </g>
        <g id="Grupo_1349" data-name="Grupo 1349">
          <circle id="Elipse_97" data-name="Elipse 97" cx="7.947" cy="7.947" r="7.947" transform="translate(1127.396 9042.756)" fill="#e9a596"/>
        </g>
        <g id="Grupo_1350" data-name="Grupo 1350">
          <path id="Trazado_8086" data-name="Trazado 8086" d="M1093.13,8927.148a5.96,5.96,0,1,1-5.96-5.96A5.959,5.959,0,0,1,1093.13,8927.148Z" fill="#e9a596"/>
        </g>
        <g id="Grupo_1351" data-name="Grupo 1351">
          <path id="Trazado_8087" data-name="Trazado 8087" d="M1161.887,8927.148a5.96,5.96,0,1,1-5.96-5.96A5.959,5.959,0,0,1,1161.887,8927.148Z" fill="#e9a596"/>
        </g>
        <g id="Grupo_1352" data-name="Grupo 1352">
          <path id="Trazado_8088" data-name="Trazado 8088" d="M1159.62,8922.448c-7.678-6.724-28.871-8.052-38.6-7.931-10.5-.113-33.992.528-39.093,9.78l-.013.024a4.334,4.334,0,0,0-.579,1.654h0a5.865,5.865,0,0,0,1.114,4.853,17.288,17.288,0,0,1,3.639,11.61c-.573,10.405.132,25.369,3.015,37.5a100.4,100.4,0,0,1,.759,43,33.717,33.717,0,0,0-.657,6.555h0c0,1.834,0,3.628.035,5.374.028,17.524-1.283,24.4,28.776,24.4h.03c22.775,0,26.288-4.608,26.476-22.575.2-7.869-1.823-13.223-4.074-18.331a46.709,46.709,0,0,1,.239-38.182c2.733-6.006,4.843-12.032,6.954-16.717,2.324-5.159,5.338-12.873,6.271-20.661a17.322,17.322,0,0,1,5.949-11.109,5.892,5.892,0,0,0,1.945-5.722A6.3,6.3,0,0,0,1159.62,8922.448Z" fill="#e9a596"/>
        </g>
      </g>
      <g id="Grupo_1359" data-name="Grupo 1359">
        <g id="Grupo_1354" data-name="Grupo 1354">
          <path id="Trazado_8089" data-name="Trazado 8089" d="M1160.493,8921.451c-7.023-6.149-24.65-8-35.751-8.238l-.013.008a113.321,113.321,0,0,1-12.481,5.816,13.292,13.292,0,0,1-5.15-5.4v0c-10.8.881-22.666,3.377-26.346,10.054a7.345,7.345,0,0,0,.657,7.957,15.984,15.984,0,0,1,3.361,10.723c-.517,9.385-.029,24.937,3.048,37.884a99.476,99.476,0,0,1,.75,42.431,35.006,35.006,0,0,0-.683,6.818c0,14.227-.543,21.011,3.967,25.528,3.949,3.955,11.529,5.568,26.189,5.57h.009c23.935,0,27.607-5.382,27.8-23.865.211-8.193-1.952-13.829-4.185-18.9a45.426,45.426,0,0,1,.231-37.1c2.755-6.053,4.858-12.066,6.957-16.722a73.792,73.792,0,0,0,6.378-21.047,15.952,15.952,0,0,1,5.494-10.261A7.309,7.309,0,0,0,1160.493,8921.451Z" fill="#f9f5f3"/>
        </g>
        <g id="Grupo_1357" data-name="Grupo 1357">
          <g id="Grupo_1355" data-name="Grupo 1355">
            <path id="Trazado_8090" data-name="Trazado 8090" d="M1106.663,8912.3a2.7,2.7,0,0,1,.03-1.308.943.943,0,0,0-.418-1.046h0a.951.951,0,0,0-1.209.166c-.7.772-1.438,1.664-2.388,2.713a4.488,4.488,0,0,0-1.027,1.788c-1.166,4.189.156,11.063.655,13.345a.435.435,0,0,0,.735.21l9.207-9.136S1107.572,8916.445,1106.663,8912.3Z" fill="#f1eff1"/>
          </g>
          <g id="Grupo_1356" data-name="Grupo 1356">
            <path id="Trazado_8091" data-name="Trazado 8091" d="M1136.907,8912.892a15.455,15.455,0,0,1-3.227-4.4,1.942,1.942,0,0,0-2.436-.9h0a.893.893,0,0,0-.551.585c-1.085,4.117-18.445,10.867-18.445,10.867l6.049,8.711a1.319,1.319,0,0,0,1.729.4c3.641-2.035,15.595-9.016,17.3-13.841A1.463,1.463,0,0,0,1136.907,8912.892Z" fill="#f1eff1"/>
          </g>
        </g>
        <g id="Grupo_1358" data-name="Grupo 1358">
          <path id="Trazado_8092" data-name="Trazado 8092" d="M1120.026,8928.151a1.319,1.319,0,0,1-1.729-.4l-6.049-8.711-9.207,9.136a.435.435,0,0,1-.735-.21,51.807,51.807,0,0,1-1.038-6.977,45.734,45.734,0,0,0,.943,7.261c.158.812.437,1.38.9,1.38a1.485,1.485,0,0,0,1.108-.513l7.771-8.121,5.215,7.51a2.644,2.644,0,0,0,3.464.8c3.846-2.148,11.7-7.773,14.905-12.29C1131.674,8921.437,1123.027,8926.474,1120.026,8928.151Z" fill="#f1ece7"/>
        </g>
      </g>
      <g id="Grupo_1372" data-name="Grupo 1372">
        <g id="Grupo_1360" data-name="Grupo 1360">
          <path id="Trazado_8093" data-name="Trazado 8093" d="M1096.686,9042.852a7.945,7.945,0,0,0-6.19,4.993l-26,69.459a109.224,109.224,0,0,0-5.993,56.137l10.576,67.483a7.946,7.946,0,1,0,15.7-2.46l-10.575-67.485a93.291,93.291,0,0,1,5.12-47.954l26-69.459a7.949,7.949,0,0,0-8.638-10.714Z" fill="#311d34"/>
        </g>
        <g id="Grupo_1361" data-name="Grupo 1361">
          <path id="Trazado_8094" data-name="Trazado 8094" d="M1076.172,9227.564c6.529,0,9.616,6.752,10.862,10.791s5.164,15.4-1.78,15.4h-35.615s-2.315-.314-2.315-4.291,3.8-4.417,5.7-5.112a29.965,29.965,0,0,0,11.1-7.319C1068.871,9232.234,1071.305,9227.564,1076.172,9227.564Z" fill="#311d34"/>
        </g>
        <g id="Grupo_1370" data-name="Grupo 1370">
          <g id="Grupo_1362" data-name="Grupo 1362">
            <path id="Trazado_8095" data-name="Trazado 8095" d="M1089.659,9252.194H1047a.927.927,0,0,0-.927.927v.961a1.987,1.987,0,0,0,1.987,1.986h40.54a1.986,1.986,0,0,0,1.986-1.986v-.961A.927.927,0,0,0,1089.659,9252.194Z" fill="#3a253c"/>
          </g>
          <g id="Grupo_1363" data-name="Grupo 1363">
            <path id="Trazado_8096" data-name="Trazado 8096" d="M1064.9,9250.883c0-6.58-4.366-7.576-9.333-7.576h-1.7q-.536.224-1.077.421c-.273.1-.588.194-.924.3-1.948.585-5.209,1.564-5.209,5.438,0,.017,0,.034,0,.051h0a10.134,10.134,0,0,0,.342,2.682h17.9Z" fill="#533d54"/>
          </g>
          <g id="Grupo_1364" data-name="Grupo 1364">
            <path id="Trazado_8097" data-name="Trazado 8097" d="M1064.9,9250.883v1.312h23.414c.965-6.52-2.014-14.393-3.336-17.059a6.073,6.073,0,0,1-4.377,1.737c-3.9,0-5.433-2.016-7.679-3.383a49.222,49.222,0,0,1-9.743,9.852,1.315,1.315,0,0,0-.141,2.025C1064.2,9246.5,1064.9,9248.246,1064.9,9250.883Z" fill="#463148"/>
          </g>
          <g id="Grupo_1365" data-name="Grupo 1365">
            <path id="Trazado_8098" data-name="Trazado 8098" d="M1053.868,9243.307h1.7c2.973,0,5.731.357,7.466,2.056a1.315,1.315,0,0,1,.146-2.021,49.222,49.222,0,0,0,9.743-9.852,8.051,8.051,0,0,0-4.435-1.232h-.048a2.034,2.034,0,0,0-1.509.711c-.025.028-.049.057-.074.084-.993,1.137-2.02,2.313-3.207,3.511a30.107,30.107,0,0,1-9.779,6.742Z" fill="#3f2a40"/>
          </g>
          <g id="Grupo_1366" data-name="Grupo 1366">
            <path id="Trazado_8099" data-name="Trazado 8099" d="M1084.976,9235.136c1.322,2.666,4.3,10.54,3.336,17.059h.921c1.754-3.417-.258-9.843-1.368-13.389l-.2-.646a26.792,26.792,0,0,0-1.308-3.418.538.538,0,0,0-.9-.118C1085.3,9234.8,1085.145,9234.972,1084.976,9235.136Z" fill="#533d54"/>
          </g>
          <g id="Grupo_1367" data-name="Grupo 1367">
            <path id="Trazado_8100" data-name="Trazado 8100" d="M1066.88,9244.009c-.92-2.3-3.971-4.109-6.244-4.354a2.647,2.647,0,0,0-2.369.688,2.22,2.22,0,0,0-.457.925q.288-.179.573-.365l.008,0a5.578,5.578,0,0,1,2.52,0h0c1.841.361,4.185,1.854,4.861,3.549a.6.6,0,0,0,.554.376.626.626,0,0,0,.221-.043A.6.6,0,0,0,1066.88,9244.009Z" fill="#362138"/>
          </g>
          <g id="Grupo_1368" data-name="Grupo 1368">
            <path id="Trazado_8101" data-name="Trazado 8101" d="M1069.624,9241.744c-.816-2.166-4.062-4.273-6.048-4.415a2.881,2.881,0,0,0-2.48.829,2.522,2.522,0,0,0-.532,1.169q.216-.171.431-.346h0a3.651,3.651,0,0,1,3.043-.368h0c1.6.417,3.907,2.055,4.47,3.55a.6.6,0,0,0,.558.387.587.587,0,0,0,.21-.039A.594.594,0,0,0,1069.624,9241.744Z" fill="#362138"/>
          </g>
          <g id="Grupo_1369" data-name="Grupo 1369">
            <path id="Trazado_8102" data-name="Trazado 8102" d="M1072.368,9239.476c-.809-2.249-4.332-4.408-6.162-4.577a2.768,2.768,0,0,0-2.481.742,2.542,2.542,0,0,0-.549,1.39c.106-.1.213-.207.319-.313h0a3.334,3.334,0,0,1,2.9-.587c1.4.3,4.224,2.02,4.846,3.749a.6.6,0,0,0,.561.4.633.633,0,0,0,.2-.035A.6.6,0,0,0,1072.368,9239.476Z" fill="#362138"/>
          </g>
        </g>
        <g id="Grupo_1371" data-name="Grupo 1371">
          <path id="Trazado_8103" data-name="Trazado 8103" d="M1107.789,9054.516,1081.8,9123.98a90.614,90.614,0,0,0-4.979,46.588l8.981,57.312a1.987,1.987,0,0,1-1.655,2.271l-17.01,2.665a1.987,1.987,0,0,1-2.271-1.655l-8.981-57.312a111.705,111.705,0,0,1,6.138-57.491l26-69.47a10.592,10.592,0,1,1,19.762,7.628Z" fill="#3f2a40"/>
        </g>
      </g>
      <g id="Grupo_1385" data-name="Grupo 1385">
        <g id="Grupo_1373" data-name="Grupo 1373">
          <path id="Trazado_8104" data-name="Trazado 8104" d="M1133.492,9042.789a7.949,7.949,0,0,0-7.131,6.534l-9.645,54.523a312.112,312.112,0,0,0-3.6,81.373l4.795,55.162a7.947,7.947,0,0,0,15.834-1.376l-4.8-55.163a296.252,296.252,0,0,1,3.415-77.228l9.644-54.524a7.951,7.951,0,0,0-8.518-9.3Z" fill="#311d34"/>
        </g>
        <g id="Grupo_1374" data-name="Grupo 1374">
          <path id="Trazado_8105" data-name="Trazado 8105" d="M1124.971,9227.564c6.53,0,9.616,6.752,10.863,10.791s5.164,15.4-1.781,15.4h-35.614s-2.315-.314-2.315-4.291,3.8-4.417,5.7-5.112a29.975,29.975,0,0,0,11.1-7.319C1117.671,9232.234,1120.1,9227.564,1124.971,9227.564Z" fill="#311d34"/>
        </g>
        <g id="Grupo_1383" data-name="Grupo 1383">
          <g id="Grupo_1375" data-name="Grupo 1375">
            <path id="Trazado_8106" data-name="Trazado 8106" d="M1138.459,9252.194H1095.8a.927.927,0,0,0-.927.927v.961a1.986,1.986,0,0,0,1.986,1.986h40.54a1.987,1.987,0,0,0,1.987-1.986v-.961A.927.927,0,0,0,1138.459,9252.194Z" fill="#3a253c"/>
          </g>
          <g id="Grupo_1376" data-name="Grupo 1376">
            <path id="Trazado_8107" data-name="Trazado 8107" d="M1113.7,9250.883c0-6.58-4.367-7.576-9.333-7.576h-1.7q-.534.224-1.076.421c-.273.1-.588.194-.925.3-1.948.585-5.208,1.564-5.208,5.438v.051h0a10.134,10.134,0,0,0,.342,2.682h17.9Z" fill="#533d54"/>
          </g>
          <g id="Grupo_1377" data-name="Grupo 1377">
            <path id="Trazado_8108" data-name="Trazado 8108" d="M1113.7,9250.883v1.312h23.414c.965-6.52-2.015-14.393-3.337-17.059a6.069,6.069,0,0,1-4.376,1.737c-3.9,0-5.433-2.016-7.679-3.383a49.255,49.255,0,0,1-9.744,9.852,1.315,1.315,0,0,0-.14,2.025C1113,9246.5,1113.7,9248.246,1113.7,9250.883Z" fill="#463148"/>
          </g>
          <g id="Grupo_1378" data-name="Grupo 1378">
            <path id="Trazado_8109" data-name="Trazado 8109" d="M1102.667,9243.307h1.7c2.972,0,5.73.357,7.465,2.056a1.316,1.316,0,0,1,.146-2.021,49.255,49.255,0,0,0,9.744-9.852,8.057,8.057,0,0,0-4.436-1.232h-.047a2.034,2.034,0,0,0-1.509.711l-.074.084c-.993,1.137-2.02,2.313-3.207,3.511a30.11,30.11,0,0,1-9.78,6.742Z" fill="#3f2a40"/>
          </g>
          <g id="Grupo_1379" data-name="Grupo 1379">
            <path id="Trazado_8110" data-name="Trazado 8110" d="M1133.775,9235.136c1.322,2.666,4.3,10.54,3.337,17.059h.921c1.754-3.417-.258-9.843-1.369-13.389l-.2-.646a26.976,26.976,0,0,0-1.308-3.418.538.538,0,0,0-.9-.118C1134.1,9234.8,1133.945,9234.972,1133.775,9235.136Z" fill="#533d54"/>
          </g>
          <g id="Grupo_1380" data-name="Grupo 1380">
            <path id="Trazado_8111" data-name="Trazado 8111" d="M1115.679,9244.009c-.919-2.3-3.97-4.109-6.243-4.354a2.649,2.649,0,0,0-2.37.688,2.23,2.23,0,0,0-.457.925q.289-.179.574-.365l.008,0a5.578,5.578,0,0,1,2.52,0h0c1.841.361,4.185,1.854,4.861,3.549a.6.6,0,0,0,.554.376.626.626,0,0,0,.221-.043A.6.6,0,0,0,1115.679,9244.009Z" fill="#362138"/>
          </g>
          <g id="Grupo_1381" data-name="Grupo 1381">
            <path id="Trazado_8112" data-name="Trazado 8112" d="M1118.424,9241.744c-.816-2.166-4.063-4.273-6.048-4.415a2.882,2.882,0,0,0-2.481.829,2.539,2.539,0,0,0-.532,1.169q.218-.171.432-.346h0a3.653,3.653,0,0,1,3.044-.368h0c1.6.417,3.906,2.055,4.47,3.55a.6.6,0,0,0,1.115-.419Z" fill="#362138"/>
          </g>
          <g id="Grupo_1382" data-name="Grupo 1382">
            <path id="Trazado_8113" data-name="Trazado 8113" d="M1121.167,9239.476c-.808-2.249-4.331-4.408-6.161-4.577a2.766,2.766,0,0,0-2.481.742,2.551,2.551,0,0,0-.55,1.39c.107-.1.213-.207.319-.313h0a3.334,3.334,0,0,1,2.9-.587c1.4.3,4.224,2.02,4.846,3.749a.6.6,0,0,0,.561.4.642.642,0,0,0,.2-.035A.6.6,0,0,0,1121.167,9239.476Z" fill="#362138"/>
          </g>
        </g>
        <g id="Grupo_1384" data-name="Grupo 1384">
          <path id="Trazado_8114" data-name="Trazado 8114" d="M1144.617,9052.557l-9.645,54.521a293.542,293.542,0,0,0-3.384,76.537l3.9,44.9a1.986,1.986,0,0,1-1.807,2.151l-17.154,1.491a1.987,1.987,0,0,1-2.151-1.808l-3.9-44.9a314.7,314.7,0,0,1,3.635-82.063l9.644-54.521a10.592,10.592,0,1,1,20.861,3.689Z" fill="#3f2a40"/>
        </g>
      </g>
      <g id="Grupo_1386" data-name="Grupo 1386">
        <path id="Trazado_8115" data-name="Trazado 8115" d="M1146.506,9036.746c-.2,19.92-5.523,24.515-28.462,24.515-14.86,0-22.582-1.668-26.661-5.761-4.145-4.159-4.145-10.172-4.132-18.5,0-13.61-.022-10.127,1.084-16.582a2.655,2.655,0,0,1,2.613-2.212h49.839a2.656,2.656,0,0,1,2.457,1.651A39.493,39.493,0,0,1,1146.506,9036.746Z" fill="#3f2a40"/>
      </g>
      <g id="Grupo_1387" data-name="Grupo 1387">
        <path id="Trazado_8116" data-name="Trazado 8116" d="M1083.846,8940.707v0a15.088,15.088,0,0,1,0,1.607c-.545,9.9-.024,25.118,3.071,38.147,4.457,18.758,2.36,32.072.974,40.882-.3,1.9-.561,3.561-.731,5.062a1.315,1.315,0,0,0,.78,1.342l5.675,2.532a2.649,2.649,0,0,0,3.411-1.163l5.973-11.085a1.324,1.324,0,0,1,2.174-.231l10.337,12.126a2.64,2.64,0,0,0,2.816.807c4.222-1.354,15.716-4.791,25.393-5.4a1.321,1.321,0,0,0,1.205-1.7,62.857,62.857,0,0,0-2.409-6.173,44.5,44.5,0,0,1,.226-36.34c1.5-3.3,2.787-6.529,4.032-9.652,1.018-2.555,1.979-4.969,2.927-7.073a97.156,97.156,0,0,0,3.587-9.1c-3.584-.833-6.727-8.651-7.387-17.223-.48-6.244-.171-13.207,3.073-16.637,3.622-3.828,8.134-3.179,9.234-2.574-1.318-1.212-4.258-2.153-6-2.724a62.65,62.65,0,0,0-7.784-1.948c-3.283-.745-6.924-3.229-10.042-4.64,2.716,2.284-4.235,7.553-9.565,14.163-7.571,9.39-16.188,20.789-20.9,28.391-3.5-8.178-5.555-20.573-4.339-29.37.69-4.99,1.866-8.425,2.805-9.538-6.192.788-12,2.162-16.305,4.441a2.489,2.489,0,0,0-.736.584C1080.248,8924.248,1083.94,8936.321,1083.846,8940.707Z" fill="#e7dfd6"/>
      </g>
      <g id="Grupo_1400" data-name="Grupo 1400">
        <g id="Grupo_1388" data-name="Grupo 1388">
          <path id="Trazado_8117" data-name="Trazado 8117" d="M1081.2,8864.9a2.494,2.494,0,0,0,2.329-1.605l9.259-24.352c-4.787,0-10.214,7.376-11.381,13.182a43.365,43.365,0,0,0-.207,12.775Z" fill="#804229"/>
        </g>
        <g id="Grupo_1396" data-name="Grupo 1396">
          <g id="Grupo_1389" data-name="Grupo 1389">
            <path id="Trazado_8118" data-name="Trazado 8118" d="M1114.776,8830.765a36.451,36.451,0,0,0-8.111.915,34.153,34.153,0,0,0-19.8,12.635,29.318,29.318,0,0,0-4.741,10.294c-1.2,4.634-.9,9.283-.9,14.069,0,4.391-.416,8.967.073,13.339a27.237,27.237,0,0,0,12.22,19.62c7.9,5.1,18.171,2.771,26.25-.691a50.4,50.4,0,0,0,20.016-15.619,42.075,42.075,0,0,0,8.244-24.293c.005-.27.007-.538.007-.808C1148.035,8843.955,1133.145,8830.765,1114.776,8830.765Z" fill="#e9a596"/>
          </g>
          <g id="Grupo_1390" data-name="Grupo 1390">
            <path id="Trazado_8119" data-name="Trazado 8119" d="M1139,8864.552a3.948,3.948,0,0,0-5,3.563c-.495,3.452,1.675,3.7,1.249,6.794-.264,1.916-1.041,2.605-1.312,4.5-.245,1.706.173,3.723,1.754,4.112,2.6.64,5.939-3.794,6.924-8.117C1143.622,8870.969,1143.057,8865.552,1139,8864.552Z" fill="#df8f8a"/>
          </g>
          <g id="Grupo_1391" data-name="Grupo 1391">
            <path id="Trazado_8120" data-name="Trazado 8120" d="M1120.087,8868.266c-1.125-4.434-6.942-6.836-7.19-6.936a1.325,1.325,0,0,0-1,2.455c1.339.546,4.956,2.532,5.619,5.134a1.324,1.324,0,1,0,2.567-.653Z" fill="#6d3224"/>
          </g>
          <g id="Grupo_1392" data-name="Grupo 1392">
            <path id="Trazado_8121" data-name="Trazado 8121" d="M1092.292,8861.857c-.259.06-6.388,1.486-8.216,5.683a1.324,1.324,0,1,0,2.427,1.06c1.077-2.459,4.966-3.837,6.375-4.158a1.325,1.325,0,0,0-.586-2.584Z" fill="#6d3224"/>
          </g>
          <g id="Grupo_1393" data-name="Grupo 1393">
            <path id="Trazado_8122" data-name="Trazado 8122" d="M1089.151,8870.25a2.167,2.167,0,0,0-2.035,2.28v1.424a2.168,2.168,0,0,0,2.035,2.28h0a2.168,2.168,0,0,0,2.033-2.28v-1.423A2.169,2.169,0,0,0,1089.151,8870.25Z" fill="#4b2943"/>
          </g>
          <g id="Grupo_1394" data-name="Grupo 1394">
            <path id="Trazado_8123" data-name="Trazado 8123" d="M1115.5,8870.25a2.166,2.166,0,0,0-2.034,2.28v1.424a2.168,2.168,0,0,0,2.034,2.28h0a2.169,2.169,0,0,0,2.034-2.28v-1.423A2.17,2.17,0,0,0,1115.5,8870.25Z" fill="#4b2943"/>
          </g>
          <g id="Grupo_1395" data-name="Grupo 1395">
            <path id="Trazado_8124" data-name="Trazado 8124" d="M1102.288,8886.475c-5.276,0-7.379,1.625-7.6,1.811a1.039,1.039,0,0,0,.672,1.834,1.062,1.062,0,0,0,.648-.223c.017-.015,1.767-1.339,6.28-1.339,4.452,0,6.213,1.292,6.272,1.337a1.042,1.042,0,0,0,1.323-1.609C1109.661,8888.1,1107.558,8886.475,1102.288,8886.475Z" fill="#c57c7f"/>
          </g>
        </g>
        <g id="Grupo_1399" data-name="Grupo 1399">
          <g id="Grupo_1397" data-name="Grupo 1397">
            <path id="Trazado_8125" data-name="Trazado 8125" d="M1133.807,8860.19c-.432-.181-1.193-.494-2.071-.84a.613.613,0,0,0-.843.562c-.036,8.683-.754,24.8-11.387,29.872a1.178,1.178,0,0,1-1.536-.551c-1.183-2.279-3.757-7.052-15.642-7.052-9.574,0-12.106,4.814-13.162,7.13a1.2,1.2,0,0,1-1.62.56,10.389,10.389,0,0,1-6.339-8.787c0,.964.463,3.395.463,6.568,0,7.351-2.224,15.51.906,21.31,2.713,5.028,10.034,7.521,19.752,7.521,4.477,0,16.632-.491,20.793-5.144,10.554-11.8,11.04-46.451,11.061-50.587A.6.6,0,0,0,1133.807,8860.19Zm-26.612,33.475a2.318,2.318,0,0,1-1.571-.358,6.539,6.539,0,0,0-3.284-.761,6.694,6.694,0,0,0-3.272.742,2.3,2.3,0,0,1-1.579.331c-2.785-.5-5.27-2.949-4.828-4.713.47-1.873,2.406-2.645,5.171-2.647,1.84,0,2.946-2.011,4.5-2.011,1.648,0,2.825,2.009,4.782,2.011,2.939,0,5,.774,5.5,2.647C1113.093,8890.725,1110.267,8893.181,1107.195,8893.665Z" fill="#804229"/>
          </g>
          <g id="Grupo_1398" data-name="Grupo 1398">
            <path id="Trazado_8126" data-name="Trazado 8126" d="M1144.358,8844.979c-4.4-6.032-15.995-5.8-19.712-5.555a.661.661,0,0,0-.513,1c1.237,2.215,1.435,5.925,1.583,7.878.331,4.359-.124,10.138,5.67,14.9l1.027.744a2.122,2.122,0,0,0,2.569.009,3.966,3.966,0,0,1,2.595-.873c3.808,0,8.736,6.926,3.437,20.494,0,0,4.052-3.8,6.748-13.611C1150.508,8859.975,1148.5,8850.939,1144.358,8844.979Z" fill="#804229"/>
          </g>
        </g>
      </g>
      <g id="Grupo_1404" data-name="Grupo 1404">
        <g id="Grupo_1401" data-name="Grupo 1401">
          <path id="Trazado_8127" data-name="Trazado 8127" d="M1111,8971.68l2.848,12.936,9.546-2.1a.663.663,0,0,0,.5-.789l-2.564-11.641a.662.662,0,0,0-.789-.5Z" fill="#f1ece7"/>
        </g>
        <g id="Grupo_1402" data-name="Grupo 1402">
          <path id="Trazado_8128" data-name="Trazado 8128" d="M1135.911,8972.979a5.959,5.959,0,0,0-7.1-4.537l-7.47,1.645,2.563,11.638v0l7.47-1.645A5.96,5.96,0,0,0,1135.911,8972.979Z" fill="#e9a596"/>
        </g>
        <g id="Grupo_1403" data-name="Grupo 1403">
          <path id="Trazado_8129" data-name="Trazado 8129" d="M1121.388,8983.362l-3.02-13.71a1.987,1.987,0,0,0-2.367-1.514l-54.382,11.976a14.963,14.963,0,0,0,.351,3.231,14.765,14.765,0,0,0,17.613,11.256l40.292-8.871A1.989,1.989,0,0,0,1121.388,8983.362Z" fill="#3f2a40"/>
        </g>
      </g>
      <g id="Grupo_1409" data-name="Grupo 1409">
        <g id="Grupo_1405" data-name="Grupo 1405">
          <path id="Trazado_8130" data-name="Trazado 8130" d="M1075,8975.963a5.96,5.96,0,0,1,7.017-4.669l51.322,10.315a5.415,5.415,0,0,0,6.37-4.236l10.315-51.322a5.96,5.96,0,1,1,11.687,2.35l-10.316,51.321a17.35,17.35,0,0,1-20.405,13.574l-51.321-10.315A5.96,5.96,0,0,1,1075,8975.963Z" fill="#e9a596"/>
        </g>
        <g id="Grupo_1406" data-name="Grupo 1406">
          <path id="Trazado_8131" data-name="Trazado 8131" d="M1130.729,8994.594a18.655,18.655,0,0,0,21.965-14.612l10.251-51a7.507,7.507,0,0,0-4.935-8.717,7.293,7.293,0,0,0-9.284,5.528l-10.316,51.321a4.084,4.084,0,0,1-4.809,3.2l-32.946-6.621a.661.661,0,0,0-.779.519l-2.61,12.984a.662.662,0,0,0,.519.779Z" fill="#f9f5f3"/>
        </g>
        <g id="Grupo_1407" data-name="Grupo 1407">
          <path id="Trazado_8132" data-name="Trazado 8132" d="M1097.269,8987.194l-9.583-1.927a.663.663,0,0,1-.519-.779l2.349-11.687a.662.662,0,0,1,.78-.519l9.583,1.926Z" fill="#f9f5f3"/>
        </g>
        <g id="Grupo_1408" data-name="Grupo 1408">
          <path id="Trazado_8133" data-name="Trazado 8133" d="M1130.391,8996.283l-39.123-7.864a1.986,1.986,0,0,1-1.557-2.339l2.767-13.763a1.987,1.987,0,0,1,2.339-1.558l39.123,7.863a2.364,2.364,0,0,0,2.776-1.846l10.255-51.022a9.215,9.215,0,0,1,9.49-7.52,9.017,9.017,0,0,1,8.231,10.763l-10.317,51.328A20.37,20.37,0,0,1,1130.391,8996.283Z" fill="#4f394f"/>
        </g>
      </g>
      <g id="Grupo_1410" data-name="Grupo 1410">
        <path id="Trazado_8134" data-name="Trazado 8134" d="M1147.573,8960.187a2.651,2.651,0,0,1,1.568,3.4,2.619,2.619,0,0,1-1.5,1.537.673.673,0,0,0-.348.94,2.632,2.632,0,0,1-1.359,3.684.675.675,0,0,0-.347.939,2.637,2.637,0,0,1-1.835,3.824.676.676,0,0,0-.524.822,2.6,2.6,0,0,1-.084,1.533,2.645,2.645,0,0,1-3.4,1.567l-1.866-.689a1.978,1.978,0,0,0-1.867.272c-3,2.248-6.16,3.1-8.394,1.932-3.629-1.9-3.443-8.386.417-14.492C1135.487,8953.663,1134.838,8955.488,1147.573,8960.187Z" fill="#e9a596"/>
      </g>
      <g id="Grupo_1411" data-name="Grupo 1411">
        <path id="Trazado_8135" data-name="Trazado 8135" d="M1070.219,8956.982a2.643,2.643,0,0,0-2.017,4.508.672.672,0,0,1-.053,1,2.634,2.634,0,0,0-.212,3.921.676.676,0,0,1-.053,1,2.637,2.637,0,0,0,.168,4.239.674.674,0,0,1,.156.963,2.6,2.6,0,0,0-.531,1.439,2.648,2.648,0,0,0,2.5,2.788l1.986.106a1.976,1.976,0,0,1,1.606.991c1.864,3.253,4.427,5.286,6.941,5.1,4.084-.3,6.485-6.335,5.361-13.47C1083.9,8955.782,1083.773,8957.715,1070.219,8956.982Z" fill="#e9a596"/>
      </g>
      <g id="Grupo_1412" data-name="Grupo 1412">
        <path id="Trazado_8136" data-name="Trazado 8136" d="M1126.555,8977.139l-31.738-6.379a1.987,1.987,0,0,0-2.339,1.558l-2.767,13.763a1.986,1.986,0,0,0,1.557,2.339l39.123,7.864a20.374,20.374,0,0,0,23.387-13.672Z" fill="#4f394f"/>
      </g>
    </g>
  </g>
</svg>
