<svg xmlns="http://www.w3.org/2000/svg" width="134.169" height="134.169" viewBox="0 0 134.169 134.169">
  <g id="Grupo_415" data-name="Grupo 415" transform="translate(-3263.184 -11684.535)">
    <circle id="Elipse_32" data-name="Elipse 32" cx="62.764" cy="62.764" r="62.764" transform="matrix(0.071, -0.997, 0.997, 0.071, 3263.184, 11809.743)" fill="#5fc6ff"/>
    <g id="Grupo_414" data-name="Grupo 414">
      <path id="Trazado_4312" data-name="Trazado 4312" d="M3374.189,11769.3c-7.386,6.6-19.173,9.793-29.217,11.063a77.348,77.348,0,0,1-37.75-4.867c-9.249-3.65-22.1-11.1-25.073-21.21-4.651-16.16,20.263-24.037,38.078-25.279,2.46-.094,5.13-.137,7.936-.095,18.026.239,41.332,3.961,48.3,20.259C3379.614,11756.139,3380.565,11763.673,3374.189,11769.3Z" fill="#8ca22e"/>
      <path id="Trazado_4313" data-name="Trazado 4313" d="M3362.2,11760.093a10.275,10.275,0,0,1-1.782,3.568,10.4,10.4,0,0,0,.161-3.149c-.939-7.435-6.443-11.146-11.071-14.552-10.648-7.882-23.569-5.778-35.485-2.887-5.263,1.283-11.689,3.183-15.115,7.606a16.516,16.516,0,0,0-2.961,8.892c-2.577-2.374-4.08-5.433-2.515-9.042,1.8-4,6.524-6.4,10.007-7.975a64.59,64.59,0,0,1,17.562-5.146l.116-.016a112.944,112.944,0,0,1,11.659-.542c4,.123,9.386.809,13.186,2.634C3353.323,11742.96,3364.975,11750.513,3362.2,11760.093Z" fill="#d5c3bc"/>
      <path id="Trazado_4314" data-name="Trazado 4314" d="M3360.575,11760.512a10.4,10.4,0,0,1-.161,3.149l-.005.006a10.688,10.688,0,0,1-2.8,2.431c.067-4.76-1.463-9.69-4.249-12.857-8.587-9.83-20.669-9.141-32.237-7.679-9.175,1.16-24.086,4.354-22.1,16.29a18.892,18.892,0,0,1-3.078-2.28,16.516,16.516,0,0,1,2.961-8.892c3.426-4.424,9.852-6.323,15.115-7.606,11.916-2.892,24.837-5,35.485,2.887C3354.132,11749.366,3359.636,11753.077,3360.575,11760.512Z" fill="#aa8d71"/>
      <path id="Trazado_4315" data-name="Trazado 4315" d="M3357.611,11766.1a22.922,22.922,0,0,1-4.466,2.063,3.1,3.1,0,0,1-.3.106,12.449,12.449,0,0,0-.874-9.4c-2.9-6.344-6.53-8.687-13.208-9.87a52.879,52.879,0,0,0-16.146-.37c-7.777,1.078-22.664,5.659-19.978,15.057a27.688,27.688,0,0,1-3.617-1.833c-1.982-11.936,12.929-15.13,22.1-16.29,11.568-1.462,23.65-2.151,32.237,7.679C3356.148,11756.407,3357.678,11761.338,3357.611,11766.1Z" fill="#c3b3ac"/>
      <path id="Trazado_4316" data-name="Trazado 4316" d="M3352.844,11768.267c-1.408.519-2.915.993-4.492,1.419a10.523,10.523,0,0,0,.2-1.359c.791-5.35-.067-10.485-5.439-13.161a29.8,29.8,0,0,0-16.142-3.209c-6.163.595-23.836,4.251-21.273,12.866-.364-.13-.72-.262-1.069-.388-.626-.21-1.3-.459-1.99-.75-2.686-9.4,12.2-13.979,19.978-15.057a52.879,52.879,0,0,1,16.146.37c6.678,1.184,10.31,3.526,13.208,9.87A12.449,12.449,0,0,1,3352.844,11768.267Z" fill="#997562"/>
      <path id="Trazado_4317" data-name="Trazado 4317" d="M3348.551,11768.326a10.523,10.523,0,0,1-.2,1.359c-1.826.489-3.731.906-5.666,1.232a4.806,4.806,0,0,0,2-1.687c2.9-5.22-4.624-10.847-8.346-12.058-5.681-1.8-12.234-.72-17.9.3-4.735.851-9.7,5.689-7.3,9.275-1.867-.64-3.693-1.289-5.44-1.925-2.563-8.615,15.11-12.271,21.273-12.866a29.8,29.8,0,0,1,16.142,3.209C3348.484,11757.841,3349.342,11762.977,3348.551,11768.326Z" fill="#c5a89e"/>
      <path id="Trazado_4318" data-name="Trazado 4318" d="M3344.682,11769.23a4.806,4.806,0,0,1-2,1.688h-.007a58.247,58.247,0,0,1-6.229.724c1.946-.692,3.721-1.646,4.174-2.944,1.39-3.952-6.1-6.783-9.1-7.247a34.7,34.7,0,0,0-12.207,1.335c-1.425.388-3.64,1.089-4.023,3.027a3.3,3.3,0,0,0,.938,2.6c-1.715-.533-3.424-1.091-5.1-1.666-2.408-3.586,2.561-8.425,7.3-9.275,5.669-1.019,12.222-2.1,17.9-.3C3340.058,11758.384,3347.584,11764.011,3344.682,11769.23Z" fill="#916f5d"/>
      <path id="Trazado_4319" data-name="Trazado 4319" d="M3340.624,11768.7c-.453,1.3-2.228,2.252-4.174,2.944h-.012a43.015,43.015,0,0,1-6.785-.093,83.72,83.72,0,0,1-13.42-3.138,3.3,3.3,0,0,1-.938-2.6c.383-1.938,2.6-2.64,4.023-3.027a34.7,34.7,0,0,1,12.207-1.335C3334.523,11761.915,3342.014,11764.746,3340.624,11768.7Z" fill="#c5a89e"/>
      <path id="Trazado_4320" data-name="Trazado 4320" d="M3378.453,11753.729c-.855,1.261-3.521,1.957-5.063,1.4-3.521-1.26-.855-2.385-.292-4.354a5.811,5.811,0,0,0,0-2.248c-.832-1.543-.832-.563-2.1-1.125-1.688-.845-3.094-2.1-5.063-2.532-2.666-.7-2.1-1.553-3.791-3.374-2.542-2.812-6.749.844-8.3-3.657-.99-2.531-1.26-2.4-3.51-3.937a3.831,3.831,0,0,1-1.317-1.833,2.418,2.418,0,0,1,1.453-2.205,5.5,5.5,0,0,1,4.926-.045c.832.428,1.126,2.114,1.822,2.4,1.124.707.844-.146,2.115-.146a11.831,11.831,0,0,1,6.187,1.687,8.129,8.129,0,0,0,1.688,1.272c.7.414,1.26,0,2.1.708,1.406,1.123,1.125,3.228,2.1,4.354,1.552,1.541,4.082.978,5.062,3.656.708,1.687.292,3.238,1.125,5.061C3378.306,11750.208,3379.712,11752.042,3378.453,11753.729Z" fill="#506f26"/>
      <path id="Trazado_4321" data-name="Trazado 4321" d="M3342.713,11729.813a.6.6,0,0,1-.011.146,2.765,2.765,0,0,1-.124.585c-.743,1.766-4.466.483-5.985.821-2.441.563-3.757,3-6.568,2.441-2.993-.562-3.556-2.633-7.123-1.688-1.685.372-3.936,2.251-5.816,1.868-2.81-.562-2.429-2.621-5.995-1.868-1.688.372-1.688,2.059-3.375.372-.371-.372-.933-3-.562-3.566.934-1.5,4.128-1.125,5.625-1.5,1.124-.562.933-1.5,2.621-1.315,1.315.19,1.879,1.879,3.194,1.879,1.5,0,2.25-2.06,3.375-2.06,1.5-.19,2.251,1.306,3.555,1.5,1.126,0,2.07-1.125,3.2-1.125,1.306,0,2.43,1.125,3.555,1.316.562,0,.754-1.316,1.688-1.316.382.191.944.754,1.508.754s1.5.371,2.058.371c.371,0,.933-.934,1.687-.934C3341.476,11726.618,3342.814,11728.171,3342.713,11729.813Z" fill="#506f26"/>
      <path id="Trazado_4322" data-name="Trazado 4322" d="M3317.65,11777.116c-.371,3.183-9.562,1.688-11.992.743-2.249-.743-4.127-2.25-6.006-2.813-2.994-.742-3.184.382-5.244-2.429-1.878-2.812-2.068-2.251-4.691-3.375-2.44-1.126-3.183-3.2-4.5-5.445-3.172-1.766-.45-5.366,2.62-3.375,1.508,1.125,1.318,2.07,2.813,2.813.754.19,1.689-.372,2.441,0,.934.562.754,1.314,1.316,1.878.372.563.181,1.315.742,1.879.947.562,1.689-.191,2.442.18a7.049,7.049,0,0,1,2.06.944c.38.181,0,1.3.19,1.688,2.442,1.687,6.379-2.251,8.809.562,2.44-1.878,3,1.5,4.128,2.251C3313.9,11773.742,3318.033,11774.113,3317.65,11777.116Z" fill="#506f26"/>
      <path id="Trazado_4323" data-name="Trazado 4323" d="M3295.759,11747.317a10.547,10.547,0,0,0-2.331,3.217,6.689,6.689,0,0,0-.19,5.242,40.2,40.2,0,0,1-2.767-7.447c-.653-1.777-1.868-1.406-3.555-1.3-2.014.181-3.216.09-4.14-1.8a18.617,18.617,0,0,1,6.414-7.019,4.26,4.26,0,0,0-.3,1.6c0,2.441,1.868,2.059,3.746,2.34,1.686.192,3,.945,3.374,2.723A10.883,10.883,0,0,1,3295.759,11747.317Z" fill="#d5c3bc"/>
    </g>
    <path id="Trazado_4324" data-name="Trazado 4324" d="M3392.558,11759.33a62.747,62.747,0,0,1-58.35,54.922l-45.914-45.914a5.961,5.961,0,0,0,1.417.9c2.629,1.121,2.823.565,4.7,3.376,2.049,2.809,2.243,1.688,5.232,2.436,1.881.554,3.764,2.062,6.005,2.809,1.947.748,8.183,1.855,10.812.657a78.062,78.062,0,0,0,28.5,1.843c10.051-1.275,21.829-4.458,29.226-11.057,4.909-4.342,5.477-9.818,4.021-15.3a1.6,1.6,0,0,0,.231-.284c1.264-1.687-.142-3.518-.851-4.922-.836-1.816-.411-3.376-1.121-5.064a3.661,3.661,0,0,0-.7-1.2Z" fill="#bbb6c0" opacity="0.57"/>
  </g>
</svg>
