<svg xmlns="http://www.w3.org/2000/svg" xmlns:xlink="http://www.w3.org/1999/xlink" width="343.102" height="784.829" viewBox="0 0 343.102 784.829">
  <defs>
    <clipPath id="clip-path">
      <rect id="Rectángulo_135" data-name="Rectángulo 135" width="343.102" height="784.829" rx="12" transform="translate(3988.595 12655.96)" fill="none"/>
    </clipPath>
    <clipPath id="clip-path-2">
      <rect id="Rectángulo_109" data-name="Rectángulo 109" width="129.54" height="103.368" transform="translate(4035.055 12707.712)" fill="none"/>
    </clipPath>
    <clipPath id="clip-path-3">
      <rect id="Rectángulo_110" data-name="Rectángulo 110" width="128.076" height="92.355" transform="translate(4038.215 12777.942)" fill="none"/>
    </clipPath>
    <clipPath id="clip-path-4">
      <rect id="Rectángulo_133" data-name="Rectángulo 133" width="152.647" height="121.809" transform="translate(4030.961 12710.252)" fill="none"/>
    </clipPath>
    <clipPath id="clip-path-5">
      <rect id="Rectángulo_134" data-name="Rectángulo 134" width="150.923" height="108.836" transform="translate(4034.684 12793.009)" fill="none"/>
    </clipPath>
  </defs>
  <g id="Grupo_438" data-name="Grupo 438" transform="translate(-3988.595 -12655.96)">
    <g id="Grupo_437" data-name="Grupo 437" clip-path="url(#clip-path)">
      <g id="Grupo_436" data-name="Grupo 436">
        <g id="Grupo_426" data-name="Grupo 426" opacity="0.5">
          <g id="Grupo_425" data-name="Grupo 425">
            <g id="Grupo_424" data-name="Grupo 424" clip-path="url(#clip-path-2)">
              <path id="Trazado_4337" data-name="Trazado 4337" d="M4133.757,12728.326c4.066-2.945,9.8-2.117,14.343.029,14.562,6.882,20.976,27,13.09,41.038,2.338,4.8.345,10.9-3.606,14.5s-9.41,5.068-14.733,5.521c-9.668.826-15.574-2.688-22.161-8.877-5.076,4.7-11.473,7.88-18.483,5.175-5.726-2.21-10.011-7.589-11.721-13.381a15.628,15.628,0,0,0-1.468-4.072,3.631,3.631,0,0,0-3.624-1.859c-3.005,7.319-1.76,16.09-5.832,22.874a1.517,1.517,0,0,1-.762.747,1.372,1.372,0,0,1-1.092-.262c-1.823-1.144-2.666-3.321-3.357-5.36q-2.745-8.093-4.735-16.421c-.3-1.27-1.151-2.891-2.4-2.5a2.471,2.471,0,0,0-1.239,1.328c-1.171,2.137-2.579,4.293-4.737,5.423-6.412,3.359-11.413-5.685-12.642-10.551a8.356,8.356,0,0,0-1.371-3.532,9.744,9.744,0,0,0-2.889-1.858c-4.15-2.278-6.574-6.858-7.65-11.471-1.227-5.256-.869-11.176,2.344-15.514s9.767-6.359,14.3-3.427c-1.193-4.693,2.158-9.778,6.716-11.412s9.81-.265,13.7,2.616,6.6,7.091,8.7,11.455c-4.361-9.081,16.545-16.394,17.261-6.648,1.84-8.77,11.382-15.138,20.187-13.471s15.359,11.084,13.864,19.92" fill="#c7c8c9"/>
              <path id="Trazado_4338" data-name="Trazado 4338" d="M4157.584,12783.888c3.95-3.594,5.945-9.692,3.607-14.494,7.886-14.042,1.47-34.155-13.09-41.038-4.54-2.146-10.277-2.976-14.343-.029,1.516-1.1-.51-7.561-1.038-8.881a18.814,18.814,0,0,0-5.536-7.564c-5.326-4.353-13.9-5.676-19.944-2.111a15.144,15.144,0,0,0-7.231,10.9c.173-1.321-2.984-3.559-3.975-4a12.853,12.853,0,0,0-5.8-.865c-4.335.326-8.37,3.858-8.772,8.186a23.934,23.934,0,0,0-5.056-7.739,16.946,16.946,0,0,0-3.064-2.534,13.39,13.39,0,0,0-11.939-1.072c-4.865,1.963-9.439,7.85-8.074,13.225-10.728-6.938-19.8,8.1-18.065,17.259a18,18,0,0,0,9.842,12.72c-3.674-2.707-3.979-7.987-3.938-12.553.031-3.432.165-7.157,2.342-9.811a9.146,9.146,0,0,1,9.571-2.54,13.828,13.828,0,0,1,7.745,6.7c-2.593-4.657-.6-15.134,5.2-16.69a8.447,8.447,0,0,1,7.287,1.859,17.836,17.836,0,0,1,4.566,6.25c.4.821.762,1.656,1.106,2.5a12.342,12.342,0,0,1,3.565.189,11.7,11.7,0,0,1,15.22-5.088c2.018.879,4.132,3.981,6.065,4.207-.085-5.071,4.293-8.857,9.255-9.145a13.269,13.269,0,0,1,11.229,5.764,17.206,17.206,0,0,1,2.854,7.263,12.991,12.991,0,0,1,5.856,3.569,18.474,18.474,0,0,1,19.731,11.344,13.256,13.256,0,0,1,.723,8.677,8.466,8.466,0,0,1-6,5.957,13.054,13.054,0,0,1-5.883,23.606c2.614,4.475,13.589-1.839,15.985-4.021" fill="#f9f9f9"/>
              <path id="Trazado_4339" data-name="Trazado 4339" d="M4117.131,12738a2.386,2.386,0,0,1-.474-2.67,4.944,4.944,0,0,1,1.93-2.106,11.313,11.313,0,0,1,10.081-1.175,17.474,17.474,0,0,1,6.662,5.016c3.816,4.264,6.8,10.1,5.166,15.581a4.982,4.982,0,0,1-.945,1.88,3.271,3.271,0,0,1-2.792,1.071,24.388,24.388,0,0,0-3.248-10.812,13.321,13.321,0,0,0-9.045-6.331,32.679,32.679,0,0,0-5.573.01,3.494,3.494,0,0,1-1.063-.083,1.867,1.867,0,0,1-.7-.381" fill="#f9f9f9"/>
              <path id="Trazado_4340" data-name="Trazado 4340" d="M4144.2,12789.469c-8.214.114-16.278-7.333-19.945-14a10.355,10.355,0,0,0-13.61,5.823c-4.392.286-8.665-1.849-11.9-4.838s-5.586-6.783-7.9-10.527l-4.1-6.631a7.931,7.931,0,0,1-4.981-.113c-3.917,8.267-2.606,18.846-5.43,27.892.5-1.588-1.087-5.532-1.452-7.188-.56-2.56-1.177-5.106-1.927-7.618-.976-3.271-2.965-11.728-6.246-13.249a61.275,61.275,0,0,1-2.079,6.308,7.758,7.758,0,0,1-2.532,3.388c-2.62,1.735-6.243.3-8.5-1.882-2.616-2.522-4.239-5.874-5.808-9.151a11.027,11.027,0,0,0-.8,4.728c.109,4.878,2.4,9.895,6.618,12.343,5.088,2.953,10.034.925,13.531-3.116,3.143,6.878,3.213,15.228,8.039,21.048,1.2,1.451,3.139,2.769,4.855,1.989,2.385-1.082,1.985-4.433,2.42-6.546.638-3.092,1.747-6.294,4.126-8.485a2.517,2.517,0,0,1,1.278-.73c1.311-.192,2.146,1.338,2.54,2.6a79.16,79.16,0,0,1,3.2,15.96c.406,4.259.487,8.65,2.153,12.589.205.485.548,1.036,1.076,1.021a1.291,1.291,0,0,0,.859-.54c2.493-2.856,2.875-6.914,3.5-10.655s1.917-7.852,5.284-9.6a12.6,12.6,0,0,0,3.69,7.5c1.824-2.575,2.33-5.826,3.461-8.772s3.374-5.92,6.523-6.14c2.745-.192,4.711,1.7,6.528,3.481,2,1.958,3.929,3.664,6.707,4.351a22.871,22.871,0,0,0,7.462.719,13.56,13.56,0,0,0,6.986-2.531,12.827,12.827,0,0,1-3.624.567" fill="#a3adb5"/>
              <path id="Trazado_4341" data-name="Trazado 4341" d="M4129.352,12769.723c-.21.341-.4.693-.619,1.03a8.8,8.8,0,0,1-8.341,3.9,17.231,17.231,0,0,1-3.332-.892l-7.572-2.572a6.26,6.26,0,0,0,.66,4.128,8.306,8.306,0,0,0,2.926,2.933,12.552,12.552,0,0,0,11.244.971c2.519-1.031,4.023-2.893,5.435-5.125.235-.37,3.63-5.631,2.278-6a2.161,2.161,0,0,0-2.037.756,5.284,5.284,0,0,0-.642.867" fill="#a3adb5"/>
              <path id="Trazado_4342" data-name="Trazado 4342" d="M4079.641,12733.69c-.422.053-.837.152-1.258.208a5.917,5.917,0,0,1-3.139-.45q.084-1.245.17-2.493c-.1.209.32.182.485.015a5.68,5.68,0,0,1,3.225-1.425,11.65,11.65,0,0,1,13.243,13.52,6.7,6.7,0,0,1-2.813-1.508,16.306,16.306,0,0,1-2.019-2.433,36.93,36.93,0,0,0-2.466-2.968,9.451,9.451,0,0,0-1.918-1.693,5.468,5.468,0,0,0-3.51-.772" fill="#f9f9f9"/>
              <path id="Trazado_4343" data-name="Trazado 4343" d="M4101.172,12749.6c1.159,3.1.324,7.675-.555,10.814a9.874,9.874,0,0,1-1.367,3.122c-2.7,3.744-9.794,6.943-14.3,5.838a9.434,9.434,0,0,1-5.893-4.853,14.7,14.7,0,0,1-1.469-7.633c2.439,1.48,4.979,2.994,7.816,3.325,3.94.46,7.8-1.46,10.891-3.954,2.356-1.9,2.905-4.774,4.879-6.66" fill="#a3adb5"/>
            </g>
          </g>
        </g>
        <g id="Grupo_429" data-name="Grupo 429" opacity="0.5">
          <g id="Grupo_428" data-name="Grupo 428">
            <g id="Grupo_427" data-name="Grupo 427" clip-path="url(#clip-path-3)">
              <path id="Trazado_4344" data-name="Trazado 4344" d="M4152.042,12809.773c-3.019-1.155-6.387-1.778-7.884-.283,3.067-3.06,4.027-7.587,4.847-11.84a6.069,6.069,0,0,0-2.208-6.729c-2.742-2.981-5.526-6-8.947-8.169-6.984-4.429-14.339-2.756-20.394,2.4-4.875,4.148-8.222,10.641-6.556,17.117-6.062-7-18.442-6.988-24.492.021.933-1.082-6.424-6.181-7.252-6.605a30.376,30.376,0,0,0-9.334-2.729c-5.974-.82-13.816,1.987-17.354,7.073-3.9,5.6-2.364,13.423.925,19.406a13.34,13.34,0,0,0-9.531,24.149,20.4,20.4,0,0,0,7.516,2.948c5.58,1.185,11.954,1.05,16.3-2.646a3.145,3.145,0,0,0-1.012,3.726,6.967,6.967,0,0,0,2.726,3.087,19.033,19.033,0,0,0,9.29,3.339,5.436,5.436,0,0,1,2.728.64,4.788,4.788,0,0,1,1.491,2.313q1.225,3.094,2.449,6.191a14.49,14.49,0,0,0,2.74,4.928,4.932,4.932,0,0,0,5.145,1.465,5.736,5.736,0,0,0,2.825-3.112c1.423-3.118,1.566-6.641,2.2-10.009.634-3.35,3.935-11.932,8.072-7.262,4.092,4.616-.225,11.937.894,17.087.489,2.249,2.544,4.382,4.809,3.98,3.36-.594,3.087-4.437,4.4-6.839,1.644-3.015,4.147-5.523,5.226-8.848.824-2.538.725-5.306,1.555-7.842s3.152-4.979,5.78-4.512a8.8,8.8,0,0,1,3.052,1.52,26.706,26.706,0,0,0,18.337,3.762c5.309-.816,11.729-2.741,14.461-7.74,2.189-4,1.555-8.94.316-13.329-1.437-5.093-3.742-10.329-7.861-13.831a20.616,20.616,0,0,0-5.258-2.826" fill="#c7c8c9"/>
              <path id="Trazado_4345" data-name="Trazado 4345" d="M4130.473,12778.046a16.254,16.254,0,0,0-3.587.007c-10.349,1.144-19.681,11.786-17.288,22.489-.475-2.122-5.2-3.5-6.954-3.691a30.749,30.749,0,0,0-9.094.535c-.473.105-5.642,2.129-5.353,2.494a22.425,22.425,0,0,0-21.985-7.782c-5.018,1.127-10.713,3.572-13.743,7.93-3.9,5.6-2.366,13.424.924,19.407a13.34,13.34,0,0,0-9.532,24.148,10.68,10.68,0,0,0,6.444,1.984,12.729,12.729,0,0,1,7.891-23.856c.857.134,1.99.787,2.762.234-.883-3.414-2.608-6.639-1.563-10.257a11.342,11.342,0,0,1,4.527-5.827c5.6-4,17.048-5.925,20.075,2.333a6.978,6.978,0,0,1,.361,1.4,6.331,6.331,0,0,1-.693,3.892,13.825,13.825,0,0,1,9.257-2.457,3.549,3.549,0,0,1-.8-3.173c.886-3.61,6.678-3.559,9.525-3.191,4.475.576,9.2,2.63,11.062,6.74a3.52,3.52,0,0,1,4.188-.356c-3.436-2.234-2.614-9.012-1.962-12.3,1.047-5.266,3.923-9.6,9.414-11.06,5.326-1.416,11.114.349,15.609,3.537a19.037,19.037,0,0,1,3.046,2.633,14.9,14.9,0,0,1,3.876,9.743c-.023-1.5,1.716-3.9,2.057-5.478a16.679,16.679,0,0,0,.059-7.037c-1.777-8.171-10.971-12.21-18.52-13.048" fill="#f9f9f9"/>
              <path id="Trazado_4346" data-name="Trazado 4346" d="M4079.709,12817.307a13.716,13.716,0,0,1,22.074-5.432c-4.737-.623-9.8-.334-13.914,2.09s-6.983,7.384-5.856,12.027a5.358,5.358,0,0,1-2.833-3.831,9,9,0,0,1,.529-4.854" fill="#f9f9f9"/>
              <path id="Trazado_4347" data-name="Trazado 4347" d="M4106.795,12815.29c-.435.617-.832,1.264-1.222,1.9a12.1,12.1,0,0,1,.485-5.041c1.349-3.85,6.205-6.221,10.1-6.094a11.637,11.637,0,0,1,5.947,1.674c2.49,1.605,3.192,4.23,4.142,6.784-2.552-2.36-6.271-2.874-9.742-3.069-2.379-.131-4.909-.133-6.953,1.1a9.349,9.349,0,0,0-2.755,2.745" fill="#f9f9f9"/>
              <path id="Trazado_4348" data-name="Trazado 4348" d="M4164.046,12837.968c-1.521,1-5.827,4.013-6.667,4.384a25.987,25.987,0,0,1-10.637,2.216,30.492,30.492,0,0,1-16.484-5.2,7.528,7.528,0,0,1-6.237,1.381,9.294,9.294,0,0,1-1.418-.392c-2.608,4.018-3.374,9.149-4.63,13.878-.9,3.4-2.707,12.138-6.628,13.354a3.908,3.908,0,0,1-3.885-1,3.951,3.951,0,0,0,6.363,2.791,7.973,7.973,0,0,0,1.676-2.052q2.949-4.582,5.9-9.158c1.7-2.633,3.423-5.336,4.111-8.394a9.089,9.089,0,0,1,.76-2.569,2.135,2.135,0,0,1,2.214-1.171,3.233,3.233,0,0,1,1.3.869c7.886,7.188,19.245,6.6,28.037,1.254,3.4-2.067,6.52-5.173,7.077-9.11a1.494,1.494,0,0,0-.322-1.395,3.02,3.02,0,0,0-.531.318" fill="#a3adb5"/>
              <path id="Trazado_4349" data-name="Trazado 4349" d="M4116.549,12842.123c-1.536-.8-5.03-2.783-4.476-4.794a4.676,4.676,0,0,1,2.009.587,23.528,23.528,0,0,0,7.954,2.166,17.322,17.322,0,0,0,12-3.029c3.361-2.555,5.426-6.981,4.526-11.107.3,1.4,2.034,2.226,2.106,4.244a21.793,21.793,0,0,1-.69,5.313c-1.022,3.864-4.827,6.813-8.491,8.078a19.256,19.256,0,0,1-14.942-1.457" fill="#a3adb5"/>
              <path id="Trazado_4350" data-name="Trazado 4350" d="M4091.018,12865.728a3.76,3.76,0,0,1-4.357-.128,5.594,5.594,0,0,0,7.007,3.806c2.279-.808,3.754-3.057,4.5-5.354s.927-4.743,1.557-7.076a18.919,18.919,0,0,1,2.877-6.055,5.178,5.178,0,0,1,.756-.883,3,3,0,0,1,3.522-.234,34.616,34.616,0,0,0-6.519-5.356,5.179,5.179,0,0,0-3.219-1.082c-1.633.179-2.784,1.785-3.1,3.4a19.364,19.364,0,0,0,.109,4.905,39.235,39.235,0,0,1-.781,8.9c-.318,1.919-.76,4.046-2.356,5.158" fill="#a3adb5"/>
              <path id="Trazado_4351" data-name="Trazado 4351" d="M4101.284,12838.537a13.111,13.111,0,0,1-13.866,5.829,4.264,4.264,0,0,0,2.166,2.735,7.437,7.437,0,0,0,2.622.644c3.317.344,7.042-.013,9.34-2.427a6.81,6.81,0,0,0,1.6-6.394,2.817,2.817,0,0,0-1.637-2.066c-.289,1.311.469.53-.223,1.679" fill="#a3adb5"/>
            </g>
          </g>
        </g>
        <rect id="Rectángulo_111" data-name="Rectángulo 111" width="733.361" height="287.175" transform="translate(3988.596 13153.403)" fill="#d8c6a5"/>
        <path id="Trazado_4352" data-name="Trazado 4352" d="M4000.23,13260.251h710.093a11.634,11.634,0,0,0,11.634-11.634V12670a11.633,11.633,0,0,0-11.634-11.634H4000.23a11.634,11.634,0,0,0-11.635,11.634v578.618a11.635,11.635,0,0,0,11.635,11.634" fill="#d8c6a5"/>
        <path id="Trazado_4353" data-name="Trazado 4353" d="M4156.1,13260.251h68.536l9.975-601.886h-88.485Z" fill="#d8bd8c"/>
        <path id="Trazado_4354" data-name="Trazado 4354" d="M4185.435,12734.691h41.35l-2.04,21.88h-37.272Zm-19.913,50.4h37.273l2.038-21.88h-41.349Zm-11.066,108.59h37.272l2.037-21.88h-41.349Zm13.526,28.521h37.274l2.038-21.88h-41.35Zm-4.461,103.628h41.349l-2.04-21.88h-37.272Zm-.888,85.389h37.273l2.038-21.88H4160.6Zm47.849-85.389h16.685l.463-21.88h-19.186Zm-33.435-28.521h41.35l-2.038-21.88h-37.272Zm22.341-132.417h30.829l.407-21.88H4197.35Z" fill="#d6b374"/>
        <line id="Línea_5" data-name="Línea 5" x1="732.355" transform="translate(3988.595 13260.251)" fill="none" stroke="#a2957c" stroke-miterlimit="10" stroke-width="14"/>
        <path id="Trazado_4355" data-name="Trazado 4355" d="M4662.534,12702.767h41.349l-2.038,21.88h-37.274Z" fill="#d4bd94"/>
        <path id="Trazado_4356" data-name="Trazado 4356" d="M4676.062,12731.288h41.35l-2.038,21.88H4678.1Z" fill="#d4bd94"/>
        <path id="Trazado_4357" data-name="Trazado 4357" d="M4707.468,12673.978h14.49l-.179,21.88h-13.424Z" fill="#d4bd94"/>
        <path id="Trazado_4358" data-name="Trazado 4358" d="M3993.422,13064.645h41.35l-2.038,21.88H3995.46Z" fill="#d4bd94"/>
        <path id="Trazado_4359" data-name="Trazado 4359" d="M4095.428,13118.684h41.35l-2.038,21.88h-37.274Z" fill="#d4bd94"/>
        <path id="Trazado_4360" data-name="Trazado 4360" d="M4006.95,13093.167h41.35l-2.038,21.88h-37.274Z" fill="#d4bd94"/>
        <path id="Trazado_4361" data-name="Trazado 4361" d="M4038.356,13035.856h33.273l-.407,21.881h-30.828Z" fill="#d4bd94"/>
        <path id="Trazado_4362" data-name="Trazado 4362" d="M4015.888,12729.481h41.35l-2.038,21.881h-37.274Z" fill="#d4bd94"/>
        <path id="Trazado_4363" data-name="Trazado 4363" d="M4060.822,12700.693H4094.1l-.407,21.881H4062.86Z" fill="#d4bd94"/>
        <path id="Trazado_4364" data-name="Trazado 4364" d="M4000.922,12763.212h41.35l-2.038,21.88H4002.96Z" fill="#d4bd94"/>
        <path id="Trazado_4365" data-name="Trazado 4365" d="M4657.676,13110.7h41.35l-2.038,21.88h-37.273Z" fill="#d4bd94"/>
        <path id="Trazado_4366" data-name="Trazado 4366" d="M4252.081,13121.632h41.35l-2.038,21.88h-37.274Z" fill="#d4bd94"/>
        <path id="Trazado_4367" data-name="Trazado 4367" d="M4276.975,13093.094h41.35l-2.038,21.88h-37.274Z" fill="#d4bd94"/>
        <path id="Trazado_4368" data-name="Trazado 4368" d="M4306.727,12705.117h41.35l-2.038,21.88h-37.273Z" fill="#d4bd94"/>
        <path id="Trazado_4369" data-name="Trazado 4369" d="M4327.371,12679.615h41.35l-2.038,21.881h-37.273Z" fill="#d4bd94"/>
        <path id="Trazado_4370" data-name="Trazado 4370" d="M4258.76,12658.365h41.349l-2.038,21.88H4260.8Z" fill="#d4bd94"/>
        <path id="Trazado_4371" data-name="Trazado 4371" d="M4306.727,13121.632h41.35l-2.038,21.88h-37.273Z" fill="#d4bd94"/>
        <path id="Trazado_4372" data-name="Trazado 4372" d="M4688.684,13081.914h33.273l-.407,21.88h-30.829Z" fill="#d4bd94"/>
        <rect id="Rectángulo_112" data-name="Rectángulo 112" width="60.325" height="11.553" transform="translate(3988.596 13007.604)" fill="#b29069"/>
        <path id="Trazado_4373" data-name="Trazado 4373" d="M3988.6,12974.211h28.752v7.895h4.25v8.5h-4.25v8.5h4.25v8.5h-33Z" fill="#c9ac77"/>
        <rect id="Rectángulo_113" data-name="Rectángulo 113" width="6.847" height="64.294" transform="translate(4289.492 13261.321)" fill="#342223"/>
        <rect id="Rectángulo_114" data-name="Rectángulo 114" width="106.076" height="32.471" transform="translate(4186.963 13230.52)" fill="#4e5d61"/>
        <path id="Trazado_4374" data-name="Trazado 4374" d="M4325.509,13230.52h-64.942a32.318,32.318,0,0,0,4.345,16.236h56.251a32.323,32.323,0,0,0,4.346-16.236" fill="#4e5d61"/>
        <path id="Trazado_4375" data-name="Trazado 4375" d="M4264.913,13246.756h-77.95v16.235h106.075a32.457,32.457,0,0,1-28.125-16.235" fill="#3a4649"/>
        <path id="Trazado_4376" data-name="Trazado 4376" d="M4321.164,13246.756h-56.251a32.479,32.479,0,0,0,56.251,0" fill="#3a4649"/>
        <rect id="Rectángulo_115" data-name="Rectángulo 115" width="59.095" height="32.267" transform="translate(4182.616 13238.625)" fill="#817e7d"/>
        <rect id="Rectángulo_116" data-name="Rectángulo 116" width="59.095" height="16.291" transform="translate(4182.616 13254.601)" fill="#555758"/>
        <path id="Trazado_4377" data-name="Trazado 4377" d="M4273.979,13270.892a32.267,32.267,0,1,1-32.268-32.266,32.267,32.267,0,0,1,32.268,32.266" fill="#817e7d"/>
        <path id="Trazado_4378" data-name="Trazado 4378" d="M4209.445,13270.9a32.267,32.267,0,0,0,64.534,0Z" fill="#5e5f60"/>
        <path id="Trazado_4379" data-name="Trazado 4379" d="M4260.778,13270.892a19.066,19.066,0,1,1-19.066-19.064,19.064,19.064,0,0,1,19.066,19.064" fill="#352f2d"/>
        <path id="Trazado_4380" data-name="Trazado 4380" d="M4248.067,13270.892a6.355,6.355,0,1,1-6.356-6.355,6.356,6.356,0,0,1,6.356,6.355" fill="#403c3a"/>
        <path id="Trazado_4381" data-name="Trazado 4381" d="M4166.409,13270.932c-1.352,0-2.446-.719-2.446-1.608s1.094-1.609,2.446-1.609h7.333c1.351,0,2.445.721,2.445,1.609s-1.094,1.608-2.445,1.608Z" fill="#35322f"/>
        <path id="Trazado_4382" data-name="Trazado 4382" d="M4166.409,13276.922c-1.352,0-2.446-.72-2.446-1.608s1.094-1.609,2.446-1.609h7.333c1.351,0,2.445.719,2.445,1.609s-1.094,1.608-2.445,1.608Z" fill="#35322f"/>
        <path id="Trazado_4383" data-name="Trazado 4383" d="M4166.409,13306.541c-1.352,0-2.446-.72-2.446-1.608s1.094-1.609,2.446-1.609h7.333c1.351,0,2.445.722,2.445,1.609s-1.094,1.608-2.445,1.608Z" fill="#35322f"/>
        <path id="Trazado_4384" data-name="Trazado 4384" d="M4166.409,13312.531c-1.352,0-2.446-.72-2.446-1.609s1.094-1.61,2.446-1.61h7.333c1.351,0,2.445.723,2.445,1.61s-1.094,1.609-2.445,1.609Z" fill="#35322f"/>
        <rect id="Rectángulo_117" data-name="Rectángulo 117" width="61.24" height="11.977" transform="translate(3962.161 13029.2)" fill="#de092c"/>
        <rect id="Rectángulo_118" data-name="Rectángulo 118" width="9.146" height="14.424" transform="translate(4014.255 13027.977)" fill="#923543"/>
        <rect id="Rectángulo_119" data-name="Rectángulo 119" width="61.24" height="6" transform="translate(3962.16 13035.177)" fill="#c01726"/>
        <rect id="Rectángulo_120" data-name="Rectángulo 120" width="9.146" height="7.223" transform="translate(4014.253 13035.178)" fill="#742532"/>
        <rect id="Rectángulo_121" data-name="Rectángulo 121" width="61.24" height="11.975" transform="translate(3962.161 13294.145)" fill="#24669c"/>
        <rect id="Rectángulo_122" data-name="Rectángulo 122" width="9.146" height="14.42" transform="translate(4014.255 13292.923)" fill="#4b7088"/>
        <rect id="Rectángulo_123" data-name="Rectángulo 123" width="61.24" height="5.982" transform="translate(3962.161 13300.138)" fill="#14507c"/>
        <rect id="Rectángulo_124" data-name="Rectángulo 124" width="9.146" height="7.205" transform="translate(4014.255 13300.138)" fill="#335468"/>
        <rect id="Rectángulo_125" data-name="Rectángulo 125" width="50.643" height="92.415" transform="translate(4083.641 12918.583)" fill="#625e5d"/>
        <rect id="Rectángulo_126" data-name="Rectángulo 126" width="25.341" height="92.415" transform="translate(4083.639 12918.584)" fill="#453b3a"/>
        <path id="Trazado_4385" data-name="Trazado 4385" d="M4325.039,13227.831a2.446,2.446,0,0,1-2.445,2.446h-58.929a2.446,2.446,0,0,1-2.445-2.446l-46.449-36.912v-177.478a2.445,2.445,0,0,1,2.445-2.443h154.27a2.445,2.445,0,0,1,2.445,2.443v177.478Z" fill="#4e5d61"/>
        <path id="Trazado_4386" data-name="Trazado 4386" d="M4373.931,13190.918l-48.892,37.142a2.453,2.453,0,0,1-2.445,2.462h-58.93a2.452,2.452,0,0,1-2.444-2.462l-46.449-37.142Z" fill="#363b3c"/>
        <path id="Rectángulo_127" data-name="Rectángulo 127" d="M7.334,0H126.5a7.333,7.333,0,0,1,7.333,7.333V44.366A7.334,7.334,0,0,1,126.5,51.7H7.334A7.334,7.334,0,0,1,0,44.366V7.334A7.334,7.334,0,0,1,7.334,0Z" transform="translate(4226.209 13024.715)" fill="#35322f"/>
        <path id="Trazado_4387" data-name="Trazado 4387" d="M4345.319,13021.048c0-1.351.721-2.444,1.609-2.444s1.61,1.094,1.61,2.444v7.334c0,1.352-.722,2.446-1.61,2.446s-1.609-1.095-1.609-2.446Z" fill="#35322f"/>
        <path id="Trazado_4388" data-name="Trazado 4388" d="M4339.33,13021.048c0-1.351.721-2.444,1.609-2.444s1.609,1.094,1.609,2.444v7.334c0,1.352-.721,2.446-1.609,2.446s-1.609-1.095-1.609-2.446Z" fill="#35322f"/>
        <path id="Trazado_4389" data-name="Trazado 4389" d="M4243.705,13021.048c0-1.351.722-2.444,1.61-2.444s1.609,1.094,1.609,2.444v7.334c0,1.352-.721,2.446-1.609,2.446s-1.61-1.095-1.61-2.446Z" fill="#35322f"/>
        <path id="Trazado_4390" data-name="Trazado 4390" d="M4237.717,13021.048c0-1.351.721-2.444,1.609-2.444s1.61,1.094,1.61,2.444v7.334c0,1.352-.722,2.446-1.61,2.446s-1.609-1.095-1.609-2.446Z" fill="#35322f"/>
        <rect id="Rectángulo_128" data-name="Rectángulo 128" width="26.421" height="7.659" transform="translate(4279.83 13061.184)" fill="#869ba3"/>
        <rect id="Rectángulo_129" data-name="Rectángulo 129" width="32.269" height="3.178" transform="translate(4276.782 13325.614)" fill="#342223"/>
        <path id="Trazado_4391" data-name="Trazado 4391" d="M4194.522,13322.881a6,6,0,0,1-6.077,5.912H4029.477a6,6,0,0,1-6.077-5.912v-305.972a6,6,0,0,1,6.077-5.912h158.968a6,6,0,0,1,6.077,5.912Z" fill="#6a493f"/>
        <path id="Trazado_4392" data-name="Trazado 4392" d="M4156.1,13246.654v-5.017h-94.269v28.493a9.779,9.779,0,0,0,9.778,9.778h74.712a9.78,9.78,0,0,0,9.779-9.778v-.864h21.435v-22.612Z" fill="#1d1b17"/>
        <path id="Trazado_4393" data-name="Trazado 4393" d="M4058.154,13040.332a7.945,7.945,0,1,1-7.944-7.945,7.944,7.944,0,0,1,7.944,7.945" fill="#1d1b17"/>
        <path id="Trazado_4394" data-name="Trazado 4394" d="M4056.2,13040.332a5.99,5.99,0,1,1-5.99-5.989,5.99,5.99,0,0,1,5.99,5.989" fill="#3d3937"/>
        <path id="Trazado_4395" data-name="Trazado 4395" d="M4074.655,13040.332a7.945,7.945,0,1,1-7.944-7.945,7.944,7.944,0,0,1,7.944,7.945" fill="#1d1b17"/>
        <path id="Trazado_4396" data-name="Trazado 4396" d="M4072.7,13040.332a5.989,5.989,0,1,1-5.99-5.989,5.99,5.99,0,0,1,5.99,5.989" fill="#3d3937"/>
        <path id="Trazado_4397" data-name="Trazado 4397" d="M4091.156,13040.332a7.945,7.945,0,1,1-7.946-7.945,7.946,7.946,0,0,1,7.946,7.945" fill="#1d1b17"/>
        <path id="Trazado_4398" data-name="Trazado 4398" d="M4089.2,13040.332a5.989,5.989,0,1,1-5.989-5.989,5.989,5.989,0,0,1,5.989,5.989" fill="#3d3937"/>
        <path id="Trazado_4399" data-name="Trazado 4399" d="M4107.657,13040.332a7.945,7.945,0,1,1-7.946-7.945,7.946,7.946,0,0,1,7.946,7.945" fill="#1d1b17"/>
        <path id="Trazado_4400" data-name="Trazado 4400" d="M4105.7,13040.332a5.99,5.99,0,1,1-5.989-5.989,5.989,5.989,0,0,1,5.989,5.989" fill="#3d3937"/>
        <path id="Trazado_4401" data-name="Trazado 4401" d="M4124.158,13040.332a7.945,7.945,0,1,1-7.945-7.945,7.945,7.945,0,0,1,7.945,7.945" fill="#1d1b17"/>
        <path id="Trazado_4402" data-name="Trazado 4402" d="M4122.2,13040.332a5.99,5.99,0,1,1-5.99-5.989,5.99,5.99,0,0,1,5.99,5.989" fill="#3d3937"/>
        <path id="Trazado_4403" data-name="Trazado 4403" d="M4140.659,13040.332a7.946,7.946,0,1,1-7.945-7.945,7.945,7.945,0,0,1,7.945,7.945" fill="#1d1b17"/>
        <path id="Trazado_4404" data-name="Trazado 4404" d="M4138.7,13040.332a5.99,5.99,0,1,1-5.989-5.989,5.99,5.99,0,0,1,5.989,5.989" fill="#3d3937"/>
        <path id="Trazado_4405" data-name="Trazado 4405" d="M4157.16,13040.332a7.945,7.945,0,1,1-7.944-7.945,7.944,7.944,0,0,1,7.944,7.945" fill="#1d1b17"/>
        <path id="Trazado_4406" data-name="Trazado 4406" d="M4155.2,13040.332a5.989,5.989,0,1,1-5.99-5.989,5.99,5.99,0,0,1,5.99,5.989" fill="#3d3937"/>
        <path id="Trazado_4407" data-name="Trazado 4407" d="M4173.661,13040.332a7.945,7.945,0,1,1-7.946-7.945,7.946,7.946,0,0,1,7.946,7.945" fill="#1d1b17"/>
        <path id="Trazado_4408" data-name="Trazado 4408" d="M4171.705,13040.332a5.989,5.989,0,1,1-5.99-5.989,5.99,5.99,0,0,1,5.99,5.989" fill="#3d3937"/>
        <path id="Trazado_4409" data-name="Trazado 4409" d="M4190.161,13040.332a7.944,7.944,0,1,1-7.944-7.945,7.944,7.944,0,0,1,7.944,7.945" fill="#1d1b17"/>
        <path id="Trazado_4410" data-name="Trazado 4410" d="M4188.206,13040.332a5.989,5.989,0,1,1-5.989-5.989,5.989,5.989,0,0,1,5.989,5.989" fill="#3d3937"/>
        <path id="Trazado_4411" data-name="Trazado 4411" d="M4049.863,13054.755a7.945,7.945,0,1,1-7.944-7.944,7.945,7.945,0,0,1,7.944,7.944" fill="#1d1b17"/>
        <path id="Trazado_4412" data-name="Trazado 4412" d="M4047.907,13054.755a5.99,5.99,0,1,1-5.989-5.988,5.989,5.989,0,0,1,5.989,5.988" fill="#3d3937"/>
        <path id="Trazado_4413" data-name="Trazado 4413" d="M4066.364,13054.755a7.945,7.945,0,1,1-7.944-7.944,7.945,7.945,0,0,1,7.944,7.944" fill="#1d1b17"/>
        <path id="Trazado_4414" data-name="Trazado 4414" d="M4064.409,13054.755a5.99,5.99,0,1,1-5.99-5.988,5.99,5.99,0,0,1,5.99,5.988" fill="#3d3937"/>
        <path id="Trazado_4415" data-name="Trazado 4415" d="M4082.865,13054.755a7.945,7.945,0,1,1-7.945-7.944,7.946,7.946,0,0,1,7.945,7.944" fill="#1d1b17"/>
        <path id="Trazado_4416" data-name="Trazado 4416" d="M4080.909,13054.755a5.99,5.99,0,1,1-5.989-5.988,5.99,5.99,0,0,1,5.989,5.988" fill="#3d3937"/>
        <path id="Trazado_4417" data-name="Trazado 4417" d="M4099.366,13054.755a7.945,7.945,0,1,1-7.944-7.944,7.946,7.946,0,0,1,7.944,7.944" fill="#1d1b17"/>
        <path id="Trazado_4418" data-name="Trazado 4418" d="M4097.41,13054.755a5.989,5.989,0,1,1-5.99-5.988,5.99,5.99,0,0,1,5.99,5.988" fill="#3d3937"/>
        <path id="Trazado_4419" data-name="Trazado 4419" d="M4115.867,13054.755a7.945,7.945,0,1,1-7.946-7.944,7.947,7.947,0,0,1,7.946,7.944" fill="#1d1b17"/>
        <path id="Trazado_4420" data-name="Trazado 4420" d="M4113.911,13054.755a5.99,5.99,0,1,1-5.99-5.988,5.99,5.99,0,0,1,5.99,5.988" fill="#3d3937"/>
        <path id="Trazado_4421" data-name="Trazado 4421" d="M4132.367,13054.755a7.945,7.945,0,1,1-7.944-7.944,7.945,7.945,0,0,1,7.944,7.944" fill="#1d1b17"/>
        <path id="Trazado_4422" data-name="Trazado 4422" d="M4130.412,13054.755a5.99,5.99,0,1,1-5.989-5.988,5.989,5.989,0,0,1,5.989,5.988" fill="#3d3937"/>
        <path id="Trazado_4423" data-name="Trazado 4423" d="M4148.868,13054.755a7.945,7.945,0,1,1-7.944-7.944,7.945,7.945,0,0,1,7.944,7.944" fill="#1d1b17"/>
        <path id="Trazado_4424" data-name="Trazado 4424" d="M4146.913,13054.755a5.99,5.99,0,1,1-5.989-5.988,5.989,5.989,0,0,1,5.989,5.988" fill="#3d3937"/>
        <path id="Trazado_4425" data-name="Trazado 4425" d="M4165.369,13054.755a7.945,7.945,0,1,1-7.944-7.944,7.945,7.945,0,0,1,7.944,7.944" fill="#1d1b17"/>
        <path id="Trazado_4426" data-name="Trazado 4426" d="M4163.413,13054.755a5.989,5.989,0,1,1-5.987-5.988,5.99,5.99,0,0,1,5.987,5.988" fill="#3d3937"/>
        <path id="Trazado_4427" data-name="Trazado 4427" d="M4181.871,13054.755a7.945,7.945,0,1,1-7.946-7.944,7.947,7.947,0,0,1,7.946,7.944" fill="#1d1b17"/>
        <path id="Trazado_4428" data-name="Trazado 4428" d="M4179.915,13054.755a5.989,5.989,0,1,1-5.99-5.988,5.99,5.99,0,0,1,5.99,5.988" fill="#3d3937"/>
        <path id="Trazado_4429" data-name="Trazado 4429" d="M4071.464,13184.217s.366,37.769,9.9,16.5,16.866-103.768,16.866-103.768,5.536,51.85,8.432,51.7c2.849-.146,5.449-20.008,5.449-20.008s1.8,18.823,5.92,24.04c4.365,5.529,5.865-2.932,5.865-2.932s4.5,33.923,10.267,30.433c3-1.815,3.766-8.456,3.766-8.456s9.656,55.126,24.812,60.26c7.025,2.379-50.63,7.963-50.63,7.963l-46.7-8.066Z" fill="#e79024"/>
        <path id="Trazado_4430" data-name="Trazado 4430" d="M4085.692,13239.95c-3.767-5.212,4.935-29.72,4.935-29.72s4.318,13.607,6.6,13.444c1.795-.127,2.617-24.267,4.562-32.267.714-2.935,1.629-12.3,1.629-12.3s5.111,28.7,7.009,29.172c2.281.569,5.621-10.757,5.621-10.757s3.669,19.066,5.379,19.313c2.032.288,5.459-11.083,5.459-11.083s17.358,34.2,14.587,37.238c-1.6,1.759-54.535-1.312-55.782-3.037" fill="#ebe21d"/>
        <path id="Trazado_4431" data-name="Trazado 4431" d="M4188.444,13011H4029.478a6,6,0,0,0-6.078,5.91v305.974a5.994,5.994,0,0,0,6.078,5.91h158.966a5.994,5.994,0,0,0,6.077-5.91v-305.974a6,6,0,0,0-6.077-5.91m-18.368,304.148c0,3.057-3.548,5.532-7.925,5.532H4055.769c-4.376,0-7.922-2.476-7.922-5.532V13265.1c0-3.058,3.546-5.534,7.922-5.534h106.382c4.377,0,7.925,2.477,7.925,5.534Zm0-92.664a7.861,7.861,0,0,1-7.925,7.795H4055.769a7.858,7.858,0,0,1-7.922-7.795v-70.461a7.857,7.857,0,0,1,7.922-7.794h106.382a7.859,7.859,0,0,1,7.925,7.794Zm0-114.173a7.861,7.861,0,0,1-7.925,7.8H4055.769a7.859,7.859,0,0,1-7.922-7.8v-70.461a7.858,7.858,0,0,1,7.922-7.793h106.382a7.86,7.86,0,0,1,7.925,7.793Z" fill="#009ee2"/>
        <path id="Trazado_4432" data-name="Trazado 4432" d="M4170.076,13315.307c0,3.058-3.548,5.534-7.925,5.534H4055.769c-4.376,0-7.922-2.477-7.922-5.534v-50.045c0-3.056,3.546-5.534,7.922-5.534h106.382c4.377,0,7.925,2.479,7.925,5.534Z" fill="#35322f"/>
        <rect id="Rectángulo_130" data-name="Rectángulo 130" width="7.659" height="26.421" transform="translate(4056.239 13276.911)" fill="#869ba3"/>
        <path id="Trazado_4433" data-name="Trazado 4433" d="M4165.78,13158.243c-1.352,0-2.445-.721-2.445-1.611s1.093-1.606,2.445-1.606h7.333c1.352,0,2.445.719,2.445,1.606s-1.093,1.611-2.445,1.611Z" fill="#35322f"/>
        <path id="Trazado_4434" data-name="Trazado 4434" d="M4165.78,13164.231c-1.352,0-2.445-.721-2.445-1.608s1.093-1.61,2.445-1.61h7.333c1.352,0,2.445.722,2.445,1.61s-1.093,1.608-2.445,1.608Z" fill="#35322f"/>
        <path id="Trazado_4435" data-name="Trazado 4435" d="M4165.78,13215.853c-1.352,0-2.445-.721-2.445-1.608s1.093-1.609,2.445-1.609h7.333c1.352,0,2.445.719,2.445,1.609s-1.093,1.608-2.445,1.608Z" fill="#35322f"/>
        <path id="Trazado_4436" data-name="Trazado 4436" d="M4165.78,13221.842c-1.352,0-2.445-.721-2.445-1.608s1.093-1.609,2.445-1.609h7.333c1.352,0,2.445.721,2.445,1.609s-1.093,1.608-2.445,1.608Z" fill="#35322f"/>
        <path id="Trazado_4437" data-name="Trazado 4437" d="M4166.552,13272.8c-1.35,0-2.446-.718-2.446-1.607s1.1-1.61,2.446-1.61h7.335c1.349,0,2.443.722,2.443,1.61s-1.094,1.607-2.443,1.607Z" fill="#35322f"/>
        <path id="Trazado_4438" data-name="Trazado 4438" d="M4166.552,13278.795c-1.35,0-2.446-.721-2.446-1.609s1.1-1.608,2.446-1.608h7.335c1.349,0,2.443.721,2.443,1.608s-1.094,1.609-2.443,1.609Z" fill="#35322f"/>
        <path id="Trazado_4439" data-name="Trazado 4439" d="M4166.552,13304.993c-1.35,0-2.446-.718-2.446-1.608s1.1-1.609,2.446-1.609h7.335c1.349,0,2.443.722,2.443,1.609s-1.094,1.608-2.443,1.608Z" fill="#35322f"/>
        <path id="Trazado_4440" data-name="Trazado 4440" d="M4166.552,13310.983c-1.35,0-2.446-.722-2.446-1.609s1.1-1.61,2.446-1.61h7.335c1.349,0,2.443.723,2.443,1.61s-1.094,1.609-2.443,1.609Z" fill="#35322f"/>
        <path id="Trazado_4441" data-name="Trazado 4441" d="M4170.219,13222.869a7.334,7.334,0,1,1-14.667,0V13151.6a7.334,7.334,0,1,1,14.667,0Z" fill="#35322f"/>
        <path id="Trazado_4442" data-name="Trazado 4442" d="M4165.78,13043.986c-1.352,0-2.445-.722-2.445-1.609s1.093-1.609,2.445-1.609h7.333c1.352,0,2.445.722,2.445,1.609s-1.093,1.609-2.445,1.609Z" fill="#35322f"/>
        <path id="Trazado_4443" data-name="Trazado 4443" d="M4165.78,13049.975c-1.352,0-2.445-.72-2.445-1.607s1.093-1.61,2.445-1.61h7.333c1.352,0,2.445.722,2.445,1.61s-1.093,1.607-2.445,1.607Z" fill="#35322f"/>
        <path id="Trazado_4444" data-name="Trazado 4444" d="M4165.78,13101.6c-1.352,0-2.445-.721-2.445-1.608s1.093-1.609,2.445-1.609h7.333c1.352,0,2.445.721,2.445,1.609s-1.093,1.608-2.445,1.608Z" fill="#35322f"/>
        <path id="Trazado_4445" data-name="Trazado 4445" d="M4165.78,13107.587c-1.352,0-2.445-.72-2.445-1.609s1.093-1.608,2.445-1.608h7.333c1.352,0,2.445.719,2.445,1.608s-1.093,1.609-2.445,1.609Z" fill="#35322f"/>
        <path id="Trazado_4446" data-name="Trazado 4446" d="M4170.219,13108.614a7.334,7.334,0,1,1-14.667,0v-71.271a7.334,7.334,0,1,1,14.667,0Z" fill="#35322f"/>
        <path id="Trazado_4447" data-name="Trazado 4447" d="M4183.4,13265.645a1.877,1.877,0,0,1-1.149-.271l-.307-.025-.192.242a2.234,2.234,0,0,1-3.6,1.3l-.322-.058-.209.25a2.56,2.56,0,0,1-2.3,2.044,2.534,2.534,0,0,1-2.587-1.6l-.267-.207-.31.128a2.211,2.211,0,0,1-1.585.874,2.243,2.243,0,0,1-2.431-2.04s-.225-2.225-.324-3.11l-.38-.312c-2.515.194-3.471-2.988-2.93-6.848.644-4.528,4.231-12.58,9.891-12.77,4.714-.157,9.329,3.981,9.988,10.345.118,1.13-.043-.929.779,10a1.922,1.922,0,0,1-1.774,2.058" fill="#999"/>
        <path id="Trazado_4448" data-name="Trazado 4448" d="M4189.709,13239.631l-.132-.075c-5.493-3.272-6.759-4.028-12.26-7.313l-.128-.077a1.046,1.046,0,0,0-1.431.364l-4.886,8.2a1.039,1.039,0,0,0,.364,1.424l1.664.992c3.783,2.256,5.417,3.23,9.193,5.485.513.3,1.06.625,1.663.986a1.036,1.036,0,0,0,1.424-.361l4.886-8.194a1.046,1.046,0,0,0-.357-1.428" fill="#f3a438"/>
        <path id="Trazado_4449" data-name="Trazado 4449" d="M4189.577,13239.555l13.7-22.969a74.672,74.672,0,0,0,10.533-37.2l.642-45.631a7.136,7.136,0,1,0-14.271-.2l-.644,45.633a60.549,60.549,0,0,1-8.522,30.084l-13.693,22.969c5.5,3.284,6.769,4.042,12.258,7.312" fill="#f8bb3c"/>
        <path id="Trazado_4450" data-name="Trazado 4450" d="M4169.18,13249.381a5.353,5.353,0,0,0,9.193,5.486l3.719-6.238c-3.779-2.257-5.41-3.229-9.192-5.485Z" fill="#999"/>
        <path id="Trazado_4451" data-name="Trazado 4451" d="M4307.744,13392.242a8.913,8.913,0,0,0,8.93,3.1,8.776,8.776,0,0,0,6.092-4.894,8.9,8.9,0,0,0-1.109-9.379l-8.456-10.529-13.911,11.179Z" fill="#532a38"/>
        <path id="Trazado_4452" data-name="Trazado 4452" d="M4272.615,13300.613l7.417-68.028a10.709,10.709,0,0,0-21.292-2.322l-7.413,68.032a56.388,56.388,0,0,0,12.165,41.7l22.667,28.213c6.064-4.871,10.58-8.493,16.695-13.405l-22.665-28.218a35.083,35.083,0,0,1-7.574-25.976" fill="#4771a7"/>
        <path id="Trazado_4453" data-name="Trazado 4453" d="M4293.8,13379.637l2.517,3.13a1.037,1.037,0,0,0,1.462.157q8.462-6.8,16.928-13.595a1.045,1.045,0,0,0,.161-1.462l-2.517-3.131q-9.276,7.444-18.551,14.9" fill="#1c5996"/>
        <path id="Trazado_4454" data-name="Trazado 4454" d="M4288.4,13372.9l5.406,6.734c9.149-7.346,14.4-11.563,18.553-14.9l-5.41-6.735q-9.272,7.45-18.549,14.9" fill="#dfd0d5"/>
        <path id="Trazado_4455" data-name="Trazado 4455" d="M4286.041,13368.308a1.045,1.045,0,0,0-.16,1.466l2.516,3.129q9.273-7.453,18.549-14.9l-2.513-3.131a1.042,1.042,0,0,0-1.464-.161q-8.465,6.8-16.928,13.6" fill="#1c5996"/>
        <path id="Trazado_4456" data-name="Trazado 4456" d="M4292.045,13394.662h33.706a7.2,7.2,0,0,1-1.265,3,5.943,5.943,0,0,1-4.793,2.516h-23.076a4.555,4.555,0,0,1-3.977-2.477,5.513,5.513,0,0,1-.6-3.034" fill="#72464c"/>
        <path id="Trazado_4457" data-name="Trazado 4457" d="M4307.3,13394.662h-15.254a5.6,5.6,0,0,1,.44-1.667,24.989,24.989,0,0,1,4.4-6.771h3.783s6.627-.673,6.627,8.438" fill="#72464c"/>
        <path id="Trazado_4458" data-name="Trazado 4458" d="M4313.055,13379.112c6.924,0,11.433,4.664,12.72,13.134a7.236,7.236,0,0,1-.025,2.417H4307.3c0-9.113-6.627-8.438-6.627-8.438h-3.783a21.6,21.6,0,0,1,16.167-7.112" fill="#532a38"/>
        <path id="Trazado_4459" data-name="Trazado 4459" d="M4169.106,13385.847a8.913,8.913,0,0,0,4.262,8.428,8.817,8.817,0,0,0,7.8.706,8.913,8.913,0,0,0,5.714-7.519l1.221-13.446-17.771-1.617Z" fill="#532a38"/>
        <path id="Trazado_4460" data-name="Trazado 4460" d="M4194.334,13325.214A82.219,82.219,0,0,1,4209,13285.36l36.124-51.194a10.707,10.707,0,1,0-17.5-12.344l-36.128,51.2a103.625,103.625,0,0,0-18.488,50.255l-2.761,30.293c7.748.7,13.511,1.231,21.327,1.94Z" fill="#4771a7"/>
        <path id="Trazado_4461" data-name="Trazado 4461" d="M4167.828,13367.1l-.365,4a1.036,1.036,0,0,0,.943,1.126c10.315.943,16.635,1.518,21.62,1.972a1.039,1.039,0,0,0,1.132-.939l.365-4-23.695-2.154" fill="#1c5996"/>
        <path id="Trazado_4462" data-name="Trazado 4462" d="M4168.609,13358.494l-.781,8.6c11.681,1.063,18.384,1.673,23.695,2.154l.781-8.6q-11.849-1.084-23.7-2.157" fill="#dfd0d5"/>
        <path id="Trazado_4463" data-name="Trazado 4463" d="M4170.1,13353.551a1.042,1.042,0,0,0-1.128.943l-.363,4c11.681,1.063,18.386,1.675,23.693,2.156l.368-4a1.039,1.039,0,0,0-.942-1.129q-10.813-.983-21.628-1.971" fill="#1c5996"/>
        <path id="Trazado_4464" data-name="Trazado 4464" d="M4150.269,13397.874a4.592,4.592,0,0,1-.82-3.211h42.933a6.541,6.541,0,0,1-1.7,3.173,7.868,7.868,0,0,1-5.676,2.337h-30.142a5.569,5.569,0,0,1-4.593-2.3" fill="#72464c"/>
        <path id="Trazado_4465" data-name="Trazado 4465" d="M4162.057,13394.662h-12.609a4.75,4.75,0,0,1,.607-1.845,25.568,25.568,0,0,1,5.557-6.6h.591s5.854-1.065,5.854,8.448" fill="#72464c"/>
        <path id="Trazado_4466" data-name="Trazado 4466" d="M4162.057,13394.662c0-9.514-5.854-8.448-5.854-8.448h-.591c5.338-4.543,12.619-7.1,20.732-7.1,8.7,0,14.4,4.63,16.06,13.048a6.12,6.12,0,0,1-.021,2.5Z" fill="#532a38"/>
        <path id="Trazado_4467" data-name="Trazado 4467" d="M4238.143,13135.639a9.356,9.356,0,0,1-9.393-6.124l-11.838-32.354a9.353,9.353,0,1,1,17.566-6.428l11.842,32.354a9.348,9.348,0,0,1-5.571,12,9.218,9.218,0,0,1-2.606.554" fill="#c17971"/>
        <path id="Trazado_4468" data-name="Trazado 4468" d="M4240.459,13107.077l-5.982-16.346a9.352,9.352,0,1,0-17.565,6.428l7.651,20.922a46.777,46.777,0,0,0,10.215-5.965,49.912,49.912,0,0,0,5.681-5.039" fill="#a6605e"/>
        <path id="Trazado_4469" data-name="Trazado 4469" d="M4270.585,13115.717l-.654-.182c-6.606-.1-9.549,4.865-11.3,10.478-1.315,4.221-2.382,8.524-3.409,12.847a1.389,1.389,0,0,1,1.121.85,2.65,2.65,0,0,1,.093,1.77l-1.243,4.735a2.881,2.881,0,0,1-2.017,2.216l-.32.022c-.11.385-.211.776-.31,1.157l.107,0,5,24.147v.015a5.7,5.7,0,0,0,5.4,4.41l1.334.035a40.324,40.324,0,0,1,.952-5.214c.805-3.173,1.417-6.23,2.016-9.192.483-2.409.95-4.693,1.443-6.707a66.036,66.036,0,0,0,2.251-20.021,14.877,14.877,0,0,1,3.089-10.16,7.473,7.473,0,0,0,1.181-2.285,7.051,7.051,0,0,0-.518-5.432,7.139,7.139,0,0,0-4.211-3.491" fill="#f8bb3c"/>
        <path id="Trazado_4470" data-name="Trazado 4470" d="M4251.359,13122.984c-.671,2.373-1.21,4.775-1.806,7.158-.665,2.648-1.338,5.286-2,7.935l7.673.781c1.03-4.322,2.1-8.626,3.409-12.847,1.749-5.611,4.694-10.571,11.3-10.476v-.011a52.006,52.006,0,0,0-12.821-1.613l-.014,0a7.393,7.393,0,0,0-2.11,1.617,19.113,19.113,0,0,0-3.629,7.452" fill="#1c5996"/>
        <path id="Trazado_4471" data-name="Trazado 4471" d="M4247.825,13208.328a2.335,2.335,0,0,1-1.89,2.709l-7.892,1.435a2.339,2.339,0,0,1-2.718-1.877l-11.637,2.115-.093.019-1.241,3.3a5.766,5.766,0,0,0-.364,1.911l-.008.5a33.514,33.514,0,0,0,.539,6.609l.066.378c1.359,7.553,2.662,14.69,7.465,19.583,5.375,5.492,13.913,6.953,26.871,4.6,10.356-1.881,17.354-6.359,20.784-13.3a24.091,24.091,0,0,0,2.118-13.337,30.021,30.021,0,0,0-7.287-16.67l-1.867-2.132-.373.069Z" fill="#4771a7"/>
        <path id="Trazado_4472" data-name="Trazado 4472" d="M4265.153,13191.975l-19.654,3.57,2.323,12.769,0,.015,22.473-4.087.373-.068-.776-4.261-1.545-8.519-1.431.26Z" fill="#72464c"/>
        <path id="Trazado_4473" data-name="Trazado 4473" d="M4250.114,13179.474a7.907,7.907,0,0,1-1.524,6.5,9.731,9.731,0,0,1-4.5,2.994l-11.6,2.109a9.648,9.648,0,0,1-5.253-1.223,7.86,7.86,0,0,1-3.719-5.555l-1.57-8.661-.679-3.713a1.626,1.626,0,0,1,1.067-1.992c12.4-2.251,11.36-2.062,23.82-4.327a1.618,1.618,0,0,1,1.708,1.49l.675,3.709Zm7.537-5.714-5-24.148-.107,0-7.758-.512-.2-.014c-16.191,2.943-7.419,1.35-23.641,4.3l-.056.01-7.044,3.434-.055.021,4.644,24.041c.227,1.714.353,3.323-.4,4.618l-.254.4-1.018,1.323-.413.532a1.988,1.988,0,0,0-.144,2.07l3.384,6.763,1.681,3.355.836-.149,10.9-1.98-.017-.078a2.351,2.351,0,0,1,1.89-2.728l7.888-1.434a2.334,2.334,0,0,1,2.722,1.888l.016.081,19.654-3.569,1.766-.319,1.431-.263.807-11.184.017-.307a1.678,1.678,0,0,0-1.634-1.6l-1.36-.029-1.8-.05-1.334-.035a5.7,5.7,0,0,1-5.4-4.411Z" fill="#4771a7"/>
        <path id="Trazado_4474" data-name="Trazado 4474" d="M4253.8,13146.067l1.221-4.728-.019-.422-.225-.189c-.477,1.96-.944,3.908-1.437,5.86Z" fill="#f8bb3c"/>
        <path id="Trazado_4475" data-name="Trazado 4475" d="M4245.62,13145.778l7.6.82.12-.009c.493-1.953.96-3.9,1.439-5.859l-.039-.009-7.651-.8q-.719,2.924-1.468,5.854" fill="#1c5996"/>
        <path id="Trazado_4476" data-name="Trazado 4476" d="M4245.174,13147.638l-.021-.008c-.123.491-.25.976-.365,1.469l7.76.51c.1-.378.2-.771.31-1.155l-.1-.008Z" fill="#1c5996"/>
        <path id="Trazado_4477" data-name="Trazado 4477" d="M4230.07,13131.846s5.943-7.851,12.266-15.187a125.825,125.825,0,0,0-18.129,3.784c1.041,4.24,3,10.347,5.863,11.4" fill="#c17971"/>
        <path id="Trazado_4478" data-name="Trazado 4478" d="M4245.516,13114.444l-.517.063a2.272,2.272,0,0,0-1.46.765c-6.752,7.693-13.469,16.573-13.469,16.573s8.947,3.658,13.505,3.8c0,0-1.787-13.772,1.941-21.2" fill="#fdd042"/>
        <path id="Trazado_4479" data-name="Trazado 4479" d="M4255,13140.919l.017.42-1.219,4.729-.462.521-.12.01-7.6-.82-.264-.194-.025-.42,1.138-4.714.475-.522.107-.007.037,0,7.651.8.039,0Zm-7.5-2.846a2.678,2.678,0,0,0-2.463,2.223l-1.125,4.726a2.652,2.652,0,0,0,.13,1.769,1.439,1.439,0,0,0,1.11.841l.021.008,7.583.807.1.008.32-.023a2.883,2.883,0,0,0,2.017-2.216l1.243-4.735a2.657,2.657,0,0,0-.093-1.77,1.39,1.39,0,0,0-1.121-.85l-7.673-.783-.05,0" fill="#cbc2cc"/>
        <path id="Trazado_4480" data-name="Trazado 4480" d="M4247.051,13139.922l-.106.008-.475.521-1.139,4.715.026.421.263.194q.746-2.93,1.466-5.854Z" fill="#f8bb3c"/>
        <path id="Trazado_4481" data-name="Trazado 4481" d="M4223.518,13184.3a7.856,7.856,0,0,0,3.719,5.555,9.655,9.655,0,0,0,5.253,1.225l11.6-2.109a9.725,9.725,0,0,0,4.5-3,7.9,7.9,0,0,0,1.524-6.5l-1.574-8.665c-8.29,1.51-18.308,3.329-26.592,4.832Z" fill="#1c5996"/>
        <path id="Trazado_4482" data-name="Trazado 4482" d="M4246.155,13165.608c-12.483,2.269-11.4,2.068-23.818,4.327a1.625,1.625,0,0,0-1.067,1.992l.677,3.713c8.283-1.5,18.3-3.322,26.591-4.833l-.672-3.709a1.622,1.622,0,0,0-1.711-1.49" fill="#5984be"/>
        <path id="Trazado_4483" data-name="Trazado 4483" d="M4245.474,13208.7l-2.313-12.733-7.854,1.429,2.356,12.762Z" fill="#72464c"/>
        <path id="Trazado_4484" data-name="Trazado 4484" d="M4220.548,13139.465c6.416-6.873,9.523-7.619,9.523-7.619-3-1.109-5.015-7.784-6.015-12.021l-.527-.709-.879-.1-.713.213c-1.075,5.2-2.812,15.261-1.389,20.239" fill="#fdd042"/>
        <path id="Trazado_4485" data-name="Trazado 4485" d="M4243.144,13195.887l.017.081,2.314,12.735-7.813,1.456-2.356-12.763-.008-.051Zm-7.82,14.707a2.339,2.339,0,0,0,2.718,1.878l7.892-1.436a2.333,2.333,0,0,0,1.89-2.708v-.014l-2.325-12.771-.014-.081a2.34,2.34,0,0,0-2.722-1.889l-7.888,1.435a2.355,2.355,0,0,0-1.893,2.727l.02.08,2.319,12.768,0,.011" fill="#cbc2cc"/>
        <path id="Trazado_4486" data-name="Trazado 4486" d="M4215.462,13122.941l-.263.785a20.893,20.893,0,0,0-.814,7.173,41.433,41.433,0,0,0,2.245,10.906c.192.582.386,1.163.6,1.742a1.929,1.929,0,0,1,2.412,1.364l1.6,4.237a2.891,2.891,0,0,1,.08,1.771,1.955,1.955,0,0,1-.854,1.16c.179.475.345.918.489,1.3l23.641-4.3.2.015c.115-.492.242-.979.365-1.468a1.434,1.434,0,0,1-1.109-.841,2.636,2.636,0,0,1-.13-1.767l1.124-4.727a2.676,2.676,0,0,1,2.463-2.224l.05,0c.663-2.648,1.338-5.286,2-7.935.6-2.383,1.137-4.785,1.807-7.157a19.072,19.072,0,0,1,3.63-7.453,7.344,7.344,0,0,1,2.108-1.617,100.586,100.586,0,0,0-11.58.53c-3.73,7.426-1.943,21.2-1.943,21.2-4.556-.138-13.5-3.8-13.5-3.8s-3.106.746-9.522,7.62c-1.426-4.979.314-15.039,1.388-20.239-1.125.345-2.212.717-3.287,1.081l-.044.019a5.124,5.124,0,0,0-3.144,2.615" fill="#f8bb3c"/>
        <path id="Trazado_4487" data-name="Trazado 4487" d="M4235.324,13210.594l0-.011-2.319-12.769-10.9,1.979-.834.149,2.327,12.786.093-.02Z" fill="#72464c"/>
        <path id="Trazado_4488" data-name="Trazado 4488" d="M4208.232,13140.165c.578,2.312,1.295,4.59,1.916,6.884l.011,0,6.977-3.454.089-.042c-.209-.58-.4-1.161-.6-1.741a41.482,41.482,0,0,1-2.245-10.906,20.9,20.9,0,0,1,.814-7.175l.263-.785a5.131,5.131,0,0,1,3.144-2.616,71.914,71.914,0,0,0-9.763,4.153l-.369.848c-1.842,4.638-1.431,10.013-.242,14.839" fill="#1c5996"/>
        <path id="Trazado_4489" data-name="Trazado 4489" d="M4220.348,13152.145l-6.951,3.456c.178.45.328.871.448,1.224l7.046-3.434.057-.01c-.142-.382-.311-.826-.489-1.3Z" fill="#1c5996"/>
        <path id="Trazado_4490" data-name="Trazado 4490" d="M4219.734,13150.482l-6.967,3.467h-.01l-.593-.314-1.588-4.22.182-.678.033-.024,6.963-3.469.064-.026.035-.007.489.35,1.59,4.22.027.421-.142.217Zm.725,1.6a1.958,1.958,0,0,0,.853-1.159,2.9,2.9,0,0,0-.079-1.773l-1.594-4.237a1.932,1.932,0,0,0-2.414-1.363l-.089.042-6.977,3.456-.012,0a2.3,2.3,0,0,0-.994,2.49l.139.507,1.588,4.218a2,2,0,0,0,2.106,1.469l.4-.133h.013l6.954-3.456.11-.063" fill="#cbc2cc"/>
        <path id="Trazado_4491" data-name="Trazado 4491" d="M4219.931,13149.779l-1.588-4.219-.489-.35-.037.007c.194.516.382,1.021.572,1.521.072.214.745,1.905,1.427,3.679l.144-.217Z" fill="#f8bb3c"/>
        <path id="Trazado_4492" data-name="Trazado 4492" d="M4217.818,13145.218l-.064.025-6.963,3.469-.033.026c.508,1.323,1.3,3.368,2.011,5.21l6.965-3.465.083-.064c-.682-1.775-1.357-3.466-1.429-3.681q-.282-.747-.57-1.521" fill="#1c5996"/>
        <path id="Trazado_4493" data-name="Trazado 4493" d="M4213.792,13156.845l.055-.021c-.123-.354-.272-.773-.45-1.224h-.016l-.4.133a2,2,0,0,1-2.106-1.469l-1.588-4.218-.14-.507a2.3,2.3,0,0,1,1-2.49c-.621-2.3-1.338-4.572-1.918-6.885-1.189-4.825-1.6-10.2.243-14.84l.368-.845a38.05,38.05,0,0,0-5.563,3.469,7.142,7.142,0,0,0-1.286,10.015l.811.88a14.977,14.977,0,0,1,4.692,9.17,129.627,129.627,0,0,0,8.848,33.337c.6,1.367,1.167,2.751,1.689,4.153.756-1.295.63-2.9.4-4.618Z" fill="#f8bb3c"/>
        <path id="Trazado_4494" data-name="Trazado 4494" d="M4210.576,13149.415l1.589,4.22.593.314h.009c-.709-1.842-1.5-3.889-2.008-5.212Z" fill="#f8bb3c"/>
        <path id="Trazado_4495" data-name="Trazado 4495" d="M4247.194,13065.785c-3.481-14.19-19.287-22.514-35.315-18.588a32.875,32.875,0,0,0-6.88,2.53,30.686,30.686,0,0,0-14.57,15.258,26.255,26.255,0,0,0-1.933,9.992c-.058,4.3,1.2,8.3,2.222,12.471.937,3.83,1.553,7.909,2.913,11.62a24.487,24.487,0,0,0,14.858,14.506c7.983,2.75,16.445-1.473,22.753-6.218a45.282,45.282,0,0,0,14.121-17.909,37.784,37.784,0,0,0,2-22.956Z" fill="#c17971"/>
        <path id="Trazado_4496" data-name="Trazado 4496" d="M4240.923,13071.58c-2.573.144-4.572,4.051-4.465,8.729s2.278,8.342,4.851,8.2,4.569-4.051,4.462-8.725-2.275-8.344-4.848-8.2" fill="#a6605e"/>
        <path id="Trazado_4497" data-name="Trazado 4497" d="M4219.363,13095.5c-.05.129-1.238,3.147-6.092,4.34-4.836,1.186-7.288-.925-7.4-1.027a.936.936,0,0,0-1.268,1.378c.13.122,3.234,2.907,9.119,1.467s7.345-5.351,7.4-5.52a.929.929,0,0,0-.558-1.187.944.944,0,0,0-1.2.55" fill="#ebc5c9"/>
        <path id="Trazado_4498" data-name="Trazado 4498" d="M4196.7,13089.625l.3,1.214a1.829,1.829,0,0,0,3.554-.867l-.3-1.214a1.829,1.829,0,0,0-3.554.867" fill="#522342"/>
        <path id="Trazado_4499" data-name="Trazado 4499" d="M4222.193,13086.545a1.832,1.832,0,0,0,1.338-2.212l-.3-1.21a1.828,1.828,0,0,0-3.551.87l.3,1.21a1.829,1.829,0,0,0,2.212,1.342" fill="#522342"/>
        <path id="Trazado_4500" data-name="Trazado 4500" d="M4221.608,13089.7a1.873,1.873,0,0,0,.489,3.714,2.875,2.875,0,0,1,2.024.41,1.874,1.874,0,0,0,1.823.55l.822-.44a1.872,1.872,0,0,0,.11-2.645c-1.828-1.983-4.919-1.631-5.268-1.589" fill="#a6605e"/>
        <path id="Trazado_4501" data-name="Trazado 4501" d="M4203.581,13095.832a1.868,1.868,0,0,0-2.394-1.124c-.324.116-3.235,1.235-3.936,3.843a1.87,1.87,0,0,0,1.316,2.292l.935.01a1.868,1.868,0,0,0,1.361-1.326c.138-.509,1.02-1.078,1.609-1.3a1.866,1.866,0,0,0,1.109-2.391" fill="#a6605e"/>
        <path id="Trazado_4502" data-name="Trazado 4502" d="M4225.166,13075.821c-3.061-1.347-7.451.242-7.944.432a1.188,1.188,0,1,0,.842,2.222c1.086-.406,4.295-1.286,6.15-.477l.76.068a1.19,1.19,0,0,0,.192-2.245" fill="#441d33"/>
        <path id="Trazado_4503" data-name="Trazado 4503" d="M4199.138,13083.115a1.19,1.19,0,1,0-.283-2.362c-.519.062-5.146.681-7.244,3.29a1.192,1.192,0,0,0,1.214,1.9l.638-.415c1.268-1.569,4.529-2.276,5.675-2.416" fill="#441d33"/>
        <path id="Trazado_4504" data-name="Trazado 4504" d="M4246.109,13085.642a25.512,25.512,0,0,1-.743,3.794,37.8,37.8,0,0,0,2-22.943l-.167-.707c-3.481-14.19-19.288-22.514-35.315-18.588a32.711,32.711,0,0,0-6.882,2.531,30.674,30.674,0,0,0-14.568,15.258,26.248,26.248,0,0,0-1.935,9.99,34.428,34.428,0,0,0,1.311,8.856c-.671-3.894-.7-10.614,5.735-14.3,9.761-5.575,19.707-6.39,22.352-11.35l.746-.437.727.468c1.34,2.788,4.266,7.662,8.941,9.216,1.881.624,3.758,1.641,4.508,3.587.475,1.245.442,2.677,1.148,3.831l.737.825c.51.232.624-.606.727-.918a9.254,9.254,0,0,1,1.766-3.186,4.826,4.826,0,0,1,2.432-1.548l.766-.119a4.661,4.661,0,0,1,3.438,1.429c1.817,1.768,2.984,4.973,3.1,8.568a15.586,15.586,0,0,1-.824,5.741" fill="#5f3141"/>
        <path id="Trazado_4505" data-name="Trazado 4505" d="M4248.468,13071.944s1.514-3.973-.025-10.256l-17.913,4.389Z" fill="#dfd0d5"/>
        <path id="Trazado_4506" data-name="Trazado 4506" d="M4193.774,13069.621a26.215,26.215,0,0,0-4.347,1.5,36.667,36.667,0,0,0-4.685,2.518,48.978,48.978,0,0,0-8.719,7.025l14.057-3.447,37.741-9.251,10.632-2.605-.014-.011c-20.66,4.708-21.217-1.474-44.665,4.271" fill="#fdd042"/>
        <path id="Trazado_4507" data-name="Trazado 4507" d="M4233.093,13034.874a7.213,7.213,0,0,0-1.549-1.25,8.941,8.941,0,0,0-2.455-.962,8.941,8.941,0,0,1,2.455.962,7.213,7.213,0,0,1,1.549,1.25" fill="#f8bb3c"/>
        <path id="Trazado_4508" data-name="Trazado 4508" d="M4235.873,13040.281c-.7-.542-1.427-1.061-2.181-1.545a31.291,31.291,0,0,0-4.171-2.26,16.06,16.06,0,0,0-10.635,2.82,26.516,26.516,0,0,0-4.487,3.825,39.351,39.351,0,0,0-5.928,8.344,1.792,1.792,0,0,1-1.638.954l-.722-.015-.723-.388-.1-.815a40.041,40.041,0,0,1,3.165-6.438,30.581,30.581,0,0,1,6.338-7.6,21.589,21.589,0,0,1,4.83-3.129,32.871,32.871,0,0,0-8.173.5,16.353,16.353,0,0,0-4.8,1.994c-7.133,4.321-9.357,12.917-9.927,15.9l-.343.7a2.279,2.279,0,0,1-1.092.683l-.3.081-.727-.146-.283-.689c.475-4.756,1.252-9.432,4.355-13.261a27.508,27.508,0,0,0-4.338,3.775l-.068.054a7.066,7.066,0,0,0-.917,1.042l-.035.062c-2.322,3.219-2.9,8.832-3.038,10.8a1.521,1.521,0,0,1-.595,1.108l-.353.283-.357.039-.174-.314a55.692,55.692,0,0,1,.748-6.241,39.742,39.742,0,0,0-3.729,11.377l-.04.156a52.017,52.017,0,0,0-.7,11.7,36.553,36.553,0,0,1,4.687-2.52,26.267,26.267,0,0,1,4.346-1.5c23.448-5.745,24,.437,44.665-4.272.6-.131,1.221-.284,1.853-.437l7.041-1.729,1.142-.277,2.559-.629c-1.57-4.905-6.36-15.269-15.161-22" fill="#f8bb3c"/>
        <path id="Trazado_4509" data-name="Trazado 4509" d="M4188.635,13056.959l.357-.041.352-.28a1.534,1.534,0,0,0,.6-1.109c.135-1.971.713-7.584,3.036-10.8l.037-.06a6.889,6.889,0,0,1,.915-1.042l.068-.054a27.652,27.652,0,0,1,4.338-3.776c-3.1,3.83-3.88,8.506-4.355,13.262l.283.689.727.146.3-.082a2.285,2.285,0,0,0,1.092-.682l.343-.7c.57-2.983,2.794-11.577,9.928-15.9a16.331,16.331,0,0,1,4.8-1.994,32.822,32.822,0,0,1,8.173-.5,21.58,21.58,0,0,0-4.83,3.13,30.59,30.59,0,0,0-6.337,7.6,40.19,40.19,0,0,0-3.166,6.439l.1.815.723.388.721.015a1.794,1.794,0,0,0,1.639-.954,39.3,39.3,0,0,1,5.927-8.344,26.647,26.647,0,0,1,4.487-3.825,16.069,16.069,0,0,1,10.636-2.82,31.537,31.537,0,0,1,4.172,2.26c.753.484,1.484,1,2.18,1.546a12.716,12.716,0,0,0-2.781-5.408,7.116,7.116,0,0,0-1.547-1.249,8.9,8.9,0,0,0-2.457-.964,12.208,12.208,0,0,0-4.4-.157c-3.512-1.117-7.838-1.252-13.4.111-5.324,1.3-8.956,3.233-11.463,5.59-7.18,2.668-9.592,7.165-10.61,12.2a55.692,55.692,0,0,0-.749,6.241Z" fill="#fdd042"/>
        <rect id="Rectángulo_131" data-name="Rectángulo 131" width="5.931" height="22.61" transform="matrix(0.898, -0.441, 0.441, 0.898, 4309.103, 13179.59)" fill="#3a101a"/>
        <path id="Trazado_4510" data-name="Trazado 4510" d="M4146.514,13302.108a2.526,2.526,0,0,1-3.383-1.151l-6.73-13.7a2.524,2.524,0,0,1,4.531-2.226l-2.22-4.509-.4.19-22.009,8.091a1.728,1.728,0,0,1-1.517-3.084l19.862-12.47.391-.208-2.216-4.51a2.524,2.524,0,1,1-4.531,2.224l-6.729-13.7a2.523,2.523,0,0,1,1.158-3.377l-30.9,15.179a31.271,31.271,0,0,0-16.779,21.448c-.663,3.057-1.31,6.062-1.991,9.23a12.437,12.437,0,0,0,6.792,13.851c2.94,1.4,5.711,2.72,8.536,4.073a31.271,31.271,0,0,0,27.235-.169Z" fill="#7b657a"/>
        <path id="Trazado_4511" data-name="Trazado 4511" d="M4137.556,13283.878a2.522,2.522,0,0,0-1.155,3.376l6.73,13.7a2.523,2.523,0,1,0,4.529-2.224l-6.728-13.705a2.525,2.525,0,0,0-3.376-1.15" fill="#8f7e8f"/>
        <rect id="Rectángulo_132" data-name="Rectángulo 132" width="121.372" height="8.618" transform="translate(4162.022 13259.667) rotate(-26.191)" fill="#d5a074"/>
        <path id="Trazado_4512" data-name="Trazado 4512" d="M4287.541,13207.579c.832-.343,1.652-.654,2.449-.95a18.8,18.8,0,0,1,11.515-.545,23.142,23.142,0,0,0,16.329-1.625l8.772-4.308a1.782,1.782,0,0,0-1.571-3.2c-1.783.875-6.994,3.434-8.772,4.309a19.59,19.59,0,0,1-13.782,1.4,22.093,22.093,0,0,0-11.917.047.879.879,0,0,1-1.032-.461l-.353-.724a.876.876,0,0,1,.264-1.1,22.177,22.177,0,0,0,7.32-9.41,19.578,19.578,0,0,1,9.53-10.048c3.271-1.6,5.512-2.708,8.776-4.307a1.782,1.782,0,0,0-1.571-3.2l-8.774,4.31a23.139,23.139,0,0,0-11.266,11.934,18.773,18.773,0,0,1-7.47,8.776c-.753.472-1.542.942-2.358,1.413l-12.685,6.229,3.8,7.736Z" fill="#c72e38"/>
        <path id="Trazado_4513" data-name="Trazado 4513" d="M4114.786,13285.717a1.727,1.727,0,0,0,1.517,3.083l22.01-8.091.4-.187,26.842-12.236.329-.343-.025-.474-.05-.1-3.8-7.733-.046-.1-.361-.306-.479.034-26.085,13.773-.392.208Z" fill="#8f7e8f"/>
        <path id="Trazado_4514" data-name="Trazado 4514" d="M4121.564,13257.051l6.728,13.7a2.524,2.524,0,1,0,4.531-2.224l-6.73-13.7a2.523,2.523,0,0,0-4.529,2.226" fill="#8f7e8f"/>
        <path id="Trazado_4515" data-name="Trazado 4515" d="M4323.023,13196.628a1.865,1.865,0,0,1-1-.62l-.284-.118-.262.168a2.232,2.232,0,0,1-3.818.1l-.289-.149-.279.166a2.556,2.556,0,0,1-4.776-1.1l-.188-.277-.332.022a2.236,2.236,0,0,1-3.447-2.362s.477-2.186.659-3.056l-.26-.413c-2.449-.6-2.363-3.932-.64-7.417,2.028-4.105,7.96-10.629,13.391-9.038,4.53,1.325,7.613,6.7,6.25,12.95-.239,1.115.25-.9-2.391,9.742a1.921,1.921,0,0,1-2.331,1.4" fill="#999"/>
        <path id="Trazado_4516" data-name="Trazado 4516" d="M4330.568,13163.42l6.41-33.223a15.587,15.587,0,0,0-16.41-18.506l-52.592,3.749a7.137,7.137,0,0,0,1.02,14.238l52.6-3.745.332.026.732.407a1.326,1.326,0,0,1,.3,1.125l-6.406,33.221Z" fill="#f8bb3c"/>
        <path id="Trazado_4517" data-name="Trazado 4517" d="M4330.714,13163.444l-.147-.024-14.013-2.705-.148-.03a1.04,1.04,0,0,0-1.219.823l-1.808,9.369a1.038,1.038,0,0,0,.822,1.22c.693.132,1.313.256,1.9.366,4.318.832,6.183,1.2,10.513,2.028.586.115,1.206.234,1.894.367a1.044,1.044,0,0,0,1.222-.824l1.809-9.371a1.045,1.045,0,0,0-.828-1.219" fill="#f3a438"/>
        <path id="Trazado_4518" data-name="Trazado 4518" d="M4168.149,13266.28s-.254-2.024-.271-3.148.064-3.084.064-3.084a2.238,2.238,0,0,1,3.926-1.434l.318.111.252-.226a2.558,2.558,0,0,1,4.9.114l.227.236.318-.075a2.228,2.228,0,0,1,3.669,1.053l.211.224.306-.042a1.888,1.888,0,0,1,1.129-.351,1.93,1.93,0,0,1,1.77,1.214c.039.533.082,1.1.128,1.721,0,.621-.008,1.191-.011,1.725a1.919,1.919,0,0,1-1.687,1.326,1.879,1.879,0,0,1-1.15-.271l-.307-.024-.192.243a2.234,2.234,0,0,1-3.6,1.3l-.323-.059-.208.25a2.566,2.566,0,0,1-2.3,2.046,2.534,2.534,0,0,1-2.586-1.6l-.268-.205-.31.124a2.21,2.21,0,0,1-1.586.878,2.244,2.244,0,0,1-2.43-2.042" fill="#999"/>
        <path id="Trazado_4519" data-name="Trazado 4519" d="M4167.321,13251.9a2.141,2.141,0,0,0-1.714.535c-.5.5-1.212,3.711-1.237,5.57a7.023,7.023,0,0,0,.857,3.738,2.516,2.516,0,0,0,1.48,1.011,2.213,2.213,0,0,0,2.635-1.646s-.293-4.236-.154-5.05a15.322,15.322,0,0,0,.159-1.824,2.181,2.181,0,0,0-2.026-2.334" fill="#999"/>
        <path id="Trazado_4520" data-name="Trazado 4520" d="M3988.6,13317.108l.756-.436a2.884,2.884,0,0,1,3.94,1.054l.892,1.547c.822-.239,1.643-.464,2.455-.678l4.541-2.622a2.886,2.886,0,0,1,3.622.613v-.578a2.459,2.459,0,0,1,2.457-2.457h6.653a2.457,2.457,0,0,1,2.457,2.457v.379a50.3,50.3,0,0,1,5.206.593,2.429,2.429,0,0,1,1.21-.331h6.653a2.455,2.455,0,0,1,2.456,2.457v.847c.425.178.844.367,1.258.557h3.722a2.457,2.457,0,0,1,2.456,2.457v.967a52.091,52.091,0,0,1,4.336,3.181l1-.578a2.883,2.883,0,0,1,3.94,1.055l2.9,5.022a2.871,2.871,0,0,1,.214,2.39c1.735,2.006,3.348,4.071,4.865,6.142h3.554a2.456,2.456,0,0,1,2.457,2.456v6.372c.9,1.391,1.77,2.744,2.613,4.043h4.138a2.458,2.458,0,0,1,2.457,2.457v3.725l4.12-2.379a2.885,2.885,0,0,1,3.94,1.057l2.9,5.02a2.886,2.886,0,0,1-1.055,3.942l-.236.136q1.11.349,2.261.8h6.49a2.457,2.457,0,0,1,2.454,2.457v1.582l1.86-1.072a2.884,2.884,0,0,1,3.94,1.056l2.9,5.02a2.874,2.874,0,0,1,.37,1.693q1.972,1.512,3.874,3.11a2.877,2.877,0,0,1,3.153,1.354l1,1.731,2.716-1.568a2.883,2.883,0,0,1,3.94,1.058l2.9,5.019a2.885,2.885,0,0,1-1.057,3.941l-.578.333a53.543,53.543,0,0,1,4.265,5.694s-13.263,7.9-23.177,8.677-56.36-.781-67.841-4.175c-10.125-2.992-27.759,6.186-42.342,8.395Z" fill="#4d4d4d"/>
        <g id="Grupo_432" data-name="Grupo 432" opacity="0.5">
          <g id="Grupo_431" data-name="Grupo 431">
            <g id="Grupo_430" data-name="Grupo 430" clip-path="url(#clip-path-4)">
              <path id="Trazado_4521" data-name="Trazado 4521" d="M4147.27,12734.541c4.791-3.47,11.552-2.493,16.9.035,17.158,8.11,24.717,31.812,15.425,48.358,2.755,5.656.4,12.845-4.25,17.081s-11.089,5.971-17.36,6.506c-11.392.972-18.353-3.169-26.115-10.462-5.982,5.538-13.521,9.285-21.781,6.1-6.746-2.6-11.8-8.943-13.811-15.771a18.625,18.625,0,0,0-1.728-4.8c-.911-1.441-2.606-2.566-4.272-2.19-3.542,8.624-2.074,18.959-6.873,26.954a1.79,1.79,0,0,1-.9.88,1.618,1.618,0,0,1-1.29-.309c-2.146-1.348-3.139-3.912-3.953-6.314q-3.235-9.541-5.581-19.351c-.359-1.5-1.357-3.41-2.827-2.953a2.906,2.906,0,0,0-1.46,1.565c-1.381,2.517-3.039,5.059-5.582,6.391-7.557,3.958-13.449-6.7-14.9-12.435a9.79,9.79,0,0,0-1.615-4.159,11.455,11.455,0,0,0-3.405-2.2c-4.89-2.682-7.746-8.077-9.014-13.511-1.447-6.2-1.024-13.172,2.763-18.285s11.508-7.493,16.852-4.037c-1.406-5.529,2.542-11.523,7.913-13.446s11.56-.312,16.146,3.081,7.775,8.354,10.246,13.5c-5.139-10.7,19.5-19.318,20.34-7.834,2.166-10.334,13.412-17.839,23.788-15.874s18.1,13.062,16.336,23.473" fill="#c7c8c9"/>
              <path id="Trazado_4522" data-name="Trazado 4522" d="M4175.347,12800.015c4.656-4.235,7.006-11.422,4.249-17.08,9.293-16.548,1.733-40.249-15.425-48.358-5.348-2.529-12.109-3.5-16.9-.035,1.786-1.293-.6-8.908-1.221-10.465a22.185,22.185,0,0,0-6.523-8.913c-6.278-5.129-16.377-6.687-23.5-2.487a17.847,17.847,0,0,0-8.52,12.842c.2-1.554-3.515-4.192-4.682-4.715a15.18,15.18,0,0,0-6.83-1.018c-5.109.386-9.863,4.545-10.336,9.646a28.252,28.252,0,0,0-5.959-9.121,20.175,20.175,0,0,0-3.611-2.985,15.772,15.772,0,0,0-14.067-1.263c-5.736,2.312-11.126,9.249-9.515,15.582-12.644-8.176-23.33,9.55-21.288,20.339a21.214,21.214,0,0,0,11.6,14.987c-4.33-3.187-4.688-9.413-4.64-14.79.035-4.045.194-8.437,2.759-11.562,2.618-3.187,7.332-4.191,11.278-2.992a16.291,16.291,0,0,1,9.126,7.893c-3.053-5.487-.709-17.832,6.124-19.666a9.948,9.948,0,0,1,8.586,2.192,20.959,20.959,0,0,1,5.382,7.364c.472.966.9,1.951,1.3,2.948a14.59,14.59,0,0,1,4.2.225,13.787,13.787,0,0,1,17.932-6c2.381,1.036,4.871,4.691,7.148,4.959-.1-5.977,5.058-10.437,10.906-10.776,5.168-.3,10.24,2.568,13.23,6.792a20.237,20.237,0,0,1,3.365,8.56,15.3,15.3,0,0,1,6.9,4.2,21.78,21.78,0,0,1,23.253,13.37,15.636,15.636,0,0,1,.851,10.224,9.975,9.975,0,0,1-7.073,7.019,15.381,15.381,0,0,1-6.93,27.816c3.079,5.275,16.012-2.166,18.835-4.736" fill="#f9f9f9"/>
              <path id="Trazado_4523" data-name="Trazado 4523" d="M4127.677,12745.94a2.816,2.816,0,0,1-.558-3.147,5.841,5.841,0,0,1,2.274-2.479,13.33,13.33,0,0,1,11.879-1.387,20.642,20.642,0,0,1,7.853,5.91c4.494,5.024,8.014,11.9,6.084,18.362a5.824,5.824,0,0,1-1.112,2.213,3.851,3.851,0,0,1-3.289,1.264,28.758,28.758,0,0,0-3.828-12.742c-2.377-3.792-6.228-6.822-10.658-7.459a38.22,38.22,0,0,0-6.568.013,4.073,4.073,0,0,1-1.251-.1,2.157,2.157,0,0,1-.826-.447" fill="#f9f9f9"/>
              <path id="Trazado_4524" data-name="Trazado 4524" d="M4159.576,12806.591c-9.68.137-19.181-8.641-23.5-16.5a12.205,12.205,0,0,0-16.038,6.86c-5.175.339-10.211-2.177-14.019-5.7s-6.583-7.993-9.311-12.4l-4.834-7.814a9.339,9.339,0,0,1-5.869-.133c-4.615,9.74-3.072,22.207-6.4,32.865.584-1.872-1.284-6.519-1.71-8.472-.662-3.013-1.389-6.016-2.273-8.975-1.15-3.854-3.494-13.819-7.358-15.612a72.657,72.657,0,0,1-2.451,7.433,9.142,9.142,0,0,1-2.984,3.992c-3.087,2.042-7.357.352-10.021-2.218-3.081-2.972-4.993-6.922-6.843-10.783a13.034,13.034,0,0,0-.939,5.569c.128,5.749,2.828,11.66,7.8,14.546,6,3.48,11.826,1.088,15.945-3.672,3.7,8.1,3.785,17.942,9.472,24.8,1.417,1.708,3.7,3.261,5.722,2.346,2.809-1.274,2.338-5.225,2.852-7.716.752-3.643,2.057-7.416,4.863-10a2.953,2.953,0,0,1,1.5-.859c1.547-.227,2.53,1.573,2.994,3.066a93.26,93.26,0,0,1,3.773,18.806c.477,5.016.574,10.192,2.536,14.836.243.57.646,1.221,1.266,1.2a1.51,1.51,0,0,0,1.014-.636c2.94-3.366,3.388-8.147,4.121-12.556s2.259-9.251,6.226-11.309a14.857,14.857,0,0,0,4.347,8.843c2.149-3.034,2.746-6.866,4.078-10.337s3.977-6.977,7.686-7.234c3.237-.228,5.554,2,7.694,4.1,2.35,2.31,4.631,4.318,7.9,5.127a27,27,0,0,0,8.791.85,15.989,15.989,0,0,0,8.233-2.986,15,15,0,0,1-4.269.67" fill="#a3adb5"/>
              <path id="Trazado_4525" data-name="Trazado 4525" d="M4142.079,12783.323c-.248.4-.475.816-.729,1.212a10.377,10.377,0,0,1-9.831,4.6,20.276,20.276,0,0,1-3.924-1.047q-4.463-1.515-8.922-3.033a7.359,7.359,0,0,0,.776,4.864,9.772,9.772,0,0,0,3.447,3.455,14.8,14.8,0,0,0,13.252,1.144c2.968-1.214,4.741-3.406,6.4-6.038.276-.437,4.278-6.637,2.684-7.063a2.544,2.544,0,0,0-2.4.888,6.5,6.5,0,0,0-.756,1.023" fill="#a3adb5"/>
              <path id="Trazado_4526" data-name="Trazado 4526" d="M4083.5,12740.863c-.5.061-.987.181-1.483.245a6.959,6.959,0,0,1-3.7-.53q.1-1.469.2-2.939c-.122.248.376.215.57.02a6.683,6.683,0,0,1,3.8-1.681,13.731,13.731,0,0,1,15.607,15.931,7.874,7.874,0,0,1-3.316-1.774,19.1,19.1,0,0,1-2.379-2.87,44.014,44.014,0,0,0-2.907-3.5,11.127,11.127,0,0,0-2.259-1.994,6.435,6.435,0,0,0-4.136-.91" fill="#f9f9f9"/>
              <path id="Trazado_4527" data-name="Trazado 4527" d="M4108.872,12759.612c1.367,3.653.384,9.046-.655,12.741a11.5,11.5,0,0,1-1.61,3.679c-3.178,4.413-11.541,8.183-16.852,6.881a11.112,11.112,0,0,1-6.945-5.719,17.318,17.318,0,0,1-1.732-8.994c2.876,1.745,5.87,3.528,9.21,3.919,4.644.541,9.2-1.719,12.835-4.659,2.776-2.246,3.424-5.625,5.749-7.848" fill="#a3adb5"/>
            </g>
          </g>
        </g>
        <g id="Grupo_435" data-name="Grupo 435" opacity="0.5">
          <g id="Grupo_434" data-name="Grupo 434">
            <g id="Grupo_433" data-name="Grupo 433" clip-path="url(#clip-path-5)">
              <path id="Trazado_4528" data-name="Trazado 4528" d="M4168.816,12830.517c-3.558-1.362-7.525-2.094-9.29-.334,3.617-3.6,4.745-8.937,5.713-13.951a9.512,9.512,0,0,0,.242-3.277c-.291-1.821-1.6-3.291-2.844-4.65-3.233-3.513-6.514-7.068-10.545-9.628-8.227-5.217-16.894-3.247-24.03,2.826-5.745,4.89-9.689,12.538-7.727,20.172-7.143-8.246-21.73-8.234-28.86.022,1.1-1.273-7.57-7.284-8.543-7.783a35.822,35.822,0,0,0-11-3.214c-7.039-.968-16.278,2.34-20.449,8.333-4.6,6.6-2.787,15.818,1.089,22.869a15.72,15.72,0,0,0-11.23,28.457,24.065,24.065,0,0,0,8.855,3.473c6.577,1.4,14.089,1.238,19.21-3.116a3.705,3.705,0,0,0-1.192,4.389,8.2,8.2,0,0,0,3.212,3.639,22.405,22.405,0,0,0,10.946,3.935,6.426,6.426,0,0,1,3.217.753,5.649,5.649,0,0,1,1.757,2.726l2.885,7.3a17.008,17.008,0,0,0,3.229,5.806c1.551,1.6,3.992,2.553,6.063,1.727a6.751,6.751,0,0,0,3.327-3.667c1.677-3.676,1.848-7.826,2.6-11.793.747-3.948,4.637-14.062,9.513-8.56,4.821,5.441-.267,14.066,1.053,20.135.576,2.65,3,5.164,5.666,4.692,3.959-.7,3.637-5.227,5.179-8.059,1.937-3.555,4.888-6.51,6.158-10.427.972-2.99.855-6.252,1.833-9.241s3.715-5.868,6.811-5.315a10.343,10.343,0,0,1,3.595,1.791,31.466,31.466,0,0,0,21.611,4.431c6.255-.96,13.819-3.23,17.04-9.12,2.579-4.715,1.832-10.533.372-15.708-1.693-6-4.411-12.171-9.263-16.295a24.275,24.275,0,0,0-6.2-3.333" fill="#c7c8c9"/>
              <path id="Trazado_4529" data-name="Trazado 4529" d="M4143.4,12793.131a19.176,19.176,0,0,0-4.227.007c-12.194,1.35-23.19,13.889-20.373,26.5-.558-2.5-6.129-4.12-8.192-4.349a36.3,36.3,0,0,0-10.717.628c-.557.124-6.649,2.511-6.31,2.941a26.415,26.415,0,0,0-25.9-9.17c-5.914,1.326-12.625,4.209-16.2,9.343-4.595,6.6-2.786,15.817,1.09,22.869a15.719,15.719,0,0,0-11.231,28.456,12.56,12.56,0,0,0,7.592,2.337,14.992,14.992,0,0,1-2.288-25.215,15.107,15.107,0,0,1,7.6-2.994,15.278,15.278,0,0,1,3.983.1c1.008.159,2.344.929,3.254.277-1.041-4.022-3.074-7.822-1.842-12.087a13.351,13.351,0,0,1,5.336-6.864c6.6-4.712,20.09-6.983,23.656,2.747a8.424,8.424,0,0,1,.425,1.649,7.469,7.469,0,0,1-.817,4.588,16.307,16.307,0,0,1,10.909-2.895,4.181,4.181,0,0,1-.948-3.737c1.045-4.255,7.87-4.193,11.223-3.761,5.276.679,10.841,3.1,13.036,7.94a4.162,4.162,0,0,1,4.937-.422c-4.049-2.631-3.081-10.615-2.312-14.485,1.233-6.205,4.621-11.315,11.091-13.034,6.277-1.667,13.1.411,18.394,4.169a22.464,22.464,0,0,1,3.589,3.1,17.568,17.568,0,0,1,4.568,11.483c-.027-1.765,2.023-4.594,2.424-6.453a19.631,19.631,0,0,0,.068-8.293c-2.092-9.629-12.927-14.387-21.822-15.375" fill="#f9f9f9"/>
              <path id="Trazado_4530" data-name="Trazado 4530" d="M4083.581,12839.4a16.162,16.162,0,0,1,26.012-6.4c-5.582-.732-11.545-.393-16.4,2.465s-8.227,8.7-6.9,14.172a6.316,6.316,0,0,1-3.337-4.516,10.6,10.6,0,0,1,.622-5.718" fill="#f9f9f9"/>
              <path id="Trazado_4531" data-name="Trazado 4531" d="M4115.5,12837.018c-.512.728-.981,1.491-1.438,2.244a14.217,14.217,0,0,1,.57-5.94c1.592-4.533,7.312-7.329,11.9-7.181a13.735,13.735,0,0,1,7.008,1.973c2.932,1.892,3.76,4.985,4.878,7.994-3-2.782-7.387-3.386-11.477-3.614-2.805-.159-5.788-.159-8.194,1.289a11.034,11.034,0,0,0-3.248,3.235" fill="#f9f9f9"/>
              <path id="Trazado_4532" data-name="Trazado 4532" d="M4182.962,12863.741c-1.792,1.178-6.867,4.728-7.855,5.168a30.59,30.59,0,0,1-12.536,2.607,35.924,35.924,0,0,1-19.423-6.129,8.875,8.875,0,0,1-7.351,1.624,10.58,10.58,0,0,1-1.67-.459c-3.075,4.733-3.976,10.781-5.456,16.353-1.064,4-3.191,14.3-7.81,15.734a4.6,4.6,0,0,1-4.58-1.179,4.654,4.654,0,0,0,7.5,3.289,9.3,9.3,0,0,0,1.974-2.418l6.951-10.791c2-3.1,4.033-6.29,4.846-9.891a10.643,10.643,0,0,1,.9-3.026,2.52,2.52,0,0,1,2.608-1.383,3.84,3.84,0,0,1,1.537,1.025c9.292,8.47,22.675,7.781,33.035,1.478,4-2.437,7.685-6.094,8.342-10.734a1.769,1.769,0,0,0-.38-1.645,3.466,3.466,0,0,0-.626.376" fill="#a3adb5"/>
              <path id="Trazado_4533" data-name="Trazado 4533" d="M4126.992,12868.638c-1.811-.939-5.926-3.278-5.274-5.649a5.475,5.475,0,0,1,2.367.692,27.7,27.7,0,0,0,9.374,2.552c4.956.441,10.183-.558,14.145-3.567s6.393-8.232,5.334-13.092c.359,1.648,2.4,2.625,2.48,5a25.572,25.572,0,0,1-.813,6.261c-1.2,4.555-5.689,8.028-10,9.521-5.73,1.979-12.227,1.074-17.608-1.719" fill="#a3adb5"/>
              <path id="Trazado_4534" data-name="Trazado 4534" d="M4096.907,12896.453a4.429,4.429,0,0,1-5.134-.151,6.591,6.591,0,0,0,8.258,4.483c2.683-.951,4.423-3.6,5.3-6.31s1.094-5.587,1.838-8.335a22.265,22.265,0,0,1,3.39-7.14,5.827,5.827,0,0,1,.892-1.036,3.53,3.53,0,0,1,4.147-.278,40.848,40.848,0,0,0-7.68-6.311,6.107,6.107,0,0,0-3.795-1.276c-1.922.211-3.281,2.105-3.647,4a22.737,22.737,0,0,0,.128,5.782,46.222,46.222,0,0,1-.921,10.488c-.375,2.261-.9,4.768-2.777,6.079" fill="#a3adb5"/>
              <path id="Trazado_4535" data-name="Trazado 4535" d="M4109,12864.411a15.444,15.444,0,0,1-16.338,6.869,5.009,5.009,0,0,0,2.551,3.222,8.714,8.714,0,0,0,3.089.761c3.909.405,8.3-.016,11.008-2.86a8.033,8.033,0,0,0,1.883-7.532,3.336,3.336,0,0,0-1.932-2.438c-.339,1.544.555.627-.261,1.979" fill="#a3adb5"/>
            </g>
          </g>
        </g>
      </g>
    </g>
  </g>
</svg>
