<svg xmlns="http://www.w3.org/2000/svg" width="121" height="121" viewBox="0 0 121 121">
  <g id="Grupo_1499" data-name="Grupo 1499" transform="translate(-1843.769 -6094.76)">
    <path id="Trazado_5423" data-name="Trazado 5423" d="M1904.269,6094.76q2.971,0,5.93.291t5.873.872q2.914.579,5.759,1.442t5.59,2q2.746,1.138,5.368,2.539t5.092,3.052q2.472,1.652,4.769,3.537t4.4,3.987q2.1,2.1,3.987,4.4t3.537,4.769q1.651,2.472,3.052,5.093t2.539,5.367q1.137,2.745,2,5.59t1.443,5.759q.579,2.916.871,5.873t.291,5.93q0,2.974-.291,5.93t-.871,5.873q-.581,2.916-1.443,5.759t-2,5.591q-1.138,2.745-2.539,5.367t-3.052,5.092q-1.651,2.472-3.537,4.769t-3.987,4.4q-2.1,2.1-4.4,3.987t-4.769,3.537q-2.47,1.652-5.092,3.052t-5.368,2.539q-2.745,1.137-5.59,2t-5.759,1.443q-2.914.579-5.873.871t-5.93.291q-2.972,0-5.93-.291t-5.873-.871q-2.914-.581-5.759-1.443t-5.59-2q-2.746-1.137-5.367-2.539t-5.093-3.052q-2.47-1.652-4.769-3.537t-4.4-3.987q-2.1-2.1-3.987-4.4t-3.537-4.769q-1.651-2.47-3.052-5.092t-2.539-5.367q-1.137-2.747-2-5.591t-1.442-5.759q-.58-2.914-.872-5.873t-.291-5.93q0-2.971.291-5.93t.872-5.873q.579-2.914,1.442-5.759t2-5.59q1.139-2.747,2.539-5.367t3.052-5.093q1.652-2.47,3.537-4.769t3.987-4.4q2.1-2.1,4.4-3.987t4.769-3.537q2.472-1.652,5.093-3.052t5.367-2.539q2.745-1.137,5.59-2t5.759-1.442q2.915-.58,5.873-.872T1904.269,6094.76Z" fill="#ceb88d"/>
    <circle id="Elipse_62" data-name="Elipse 62" cx="53.993" cy="53.993" r="53.993" transform="translate(1848.378 6207.243) rotate(-87.403)" fill="#fff"/>
    <g id="Grupo_973" data-name="Grupo 973">
      <g id="Grupo_972" data-name="Grupo 972">
        <g id="Grupo_966" data-name="Grupo 966">
          <g id="Grupo_960" data-name="Grupo 960">
            <path id="Trazado_6562" data-name="Trazado 6562" d="M1879.195,6133.034a12.449,12.449,0,1,0,24.574,2.821h-16.683A12.4,12.4,0,0,1,1879.195,6133.034Z" fill="#fff"/>
            <path id="Trazado_6563" data-name="Trazado 6563" d="M1928.347,6133.034a12.728,12.728,0,0,1,.323,2.821,12.451,12.451,0,0,1-24.9,0h16.684A12.42,12.42,0,0,0,1928.347,6133.034Z" fill="#fff"/>
            <rect id="Rectángulo_178" data-name="Rectángulo 178" width="33.367" height="16.277" transform="translate(1887.086 6135.854)" fill="#fff"/>
          </g>
          <path id="Trazado_6564" data-name="Trazado 6564" d="M1889.087,6152.132a20.537,20.537,0,1,0,29.368,0Z" fill="#495057"/>
          <path id="Trazado_6565" data-name="Trazado 6565" d="M1916.361,6174.432a12.592,12.592,0,1,1-12.592-12.6A12.591,12.591,0,0,1,1916.361,6174.432Z" fill="#fff"/>
          <path id="Trazado_6566" data-name="Trazado 6566" d="M1903.769,6168.276l-5.627-5.626,5.627-10.518,5.627,10.518Z" fill="#fece66"/>
          <g id="Grupo_961" data-name="Grupo 961">
            <rect id="Rectángulo_179" data-name="Rectángulo 179" width="1.971" height="11.599" transform="translate(1934.999 6129.702)" fill="#343b43"/>
            <path id="Trazado_6567" data-name="Trazado 6567" d="M1917.836,6129.7H1889.7v6.153l14.067,4.039,14.067-4.039Z" fill="#343b43"/>
            <rect id="Rectángulo_180" data-name="Rectángulo 180" width="35.168" height="2.347" transform="translate(1868.601 6127.354)" fill="#495057"/>
            <rect id="Rectángulo_181" data-name="Rectángulo 181" width="35.168" height="2.347" transform="translate(1903.769 6127.354)" fill="#1e262e"/>
          </g>
          <g id="Grupo_965" data-name="Grupo 965">
            <g id="Grupo_962" data-name="Grupo 962">
              <path id="Trazado_6568" data-name="Trazado 6568" d="M1912.419,6149.951h-3.233a5.417,5.417,0,0,0-10.834,0h-3.233a8.65,8.65,0,1,1,17.3,0Z" fill="#343b43"/>
              <path id="Trazado_6569" data-name="Trazado 6569" d="M1903.769,6152.132a14.067,14.067,0,1,1-14.067-14.067A14.066,14.066,0,0,1,1903.769,6152.132Z" fill="#343b43"/>
              <path id="Trazado_6570" data-name="Trazado 6570" d="M1900.533,6152.132A10.832,10.832,0,1,1,1889.7,6141.3,10.834,10.834,0,0,1,1900.533,6152.132Z" fill="#fff"/>
              <path id="Trazado_6571" data-name="Trazado 6571" d="M1931.9,6152.132a14.067,14.067,0,1,1-14.067-14.067A14.064,14.064,0,0,1,1931.9,6152.132Z" fill="#343b43"/>
              <path id="Trazado_6572" data-name="Trazado 6572" d="M1928.67,6152.132a10.833,10.833,0,1,1-10.834-10.831A10.834,10.834,0,0,1,1928.67,6152.132Z" fill="#fff"/>
            </g>
            <g id="Grupo_963" data-name="Grupo 963">
              <path id="Trazado_6573" data-name="Trazado 6573" d="M1896.741,6152.132a7.035,7.035,0,1,1-7.042-7.029A7.041,7.041,0,0,1,1896.741,6152.132Z" fill="#fece66"/>
              <path id="Trazado_6574" data-name="Trazado 6574" d="M1892.955,6152.132a3.254,3.254,0,1,1-3.256-3.253A3.256,3.256,0,0,1,1892.955,6152.132Z" fill="#343b43"/>
              <path id="Trazado_6575" data-name="Trazado 6575" d="M1889.047,6150.064a1.409,1.409,0,1,1-1.412-1.4A1.413,1.413,0,0,1,1889.047,6150.064Z" fill="#fff"/>
            </g>
            <g id="Grupo_964" data-name="Grupo 964">
              <path id="Trazado_6576" data-name="Trazado 6576" d="M1924.874,6152.132a7.033,7.033,0,1,1-7.038-7.029A7.038,7.038,0,0,1,1924.874,6152.132Z" fill="#fece66"/>
              <circle id="Elipse_67" data-name="Elipse 67" cx="3.253" cy="3.253" r="3.253" transform="translate(1914.583 6148.879)" fill="#343b43"/>
              <path id="Trazado_6577" data-name="Trazado 6577" d="M1917.183,6150.064a1.41,1.41,0,1,1-1.415-1.4A1.413,1.413,0,0,1,1917.183,6150.064Z" fill="#fff"/>
            </g>
          </g>
        </g>
        <g id="Grupo_967" data-name="Grupo 967">
          <rect id="Rectángulo_182" data-name="Rectángulo 182" width="59.626" height="2.061" transform="translate(1873.954 6182.902)" fill="#fece66"/>
          <rect id="Rectángulo_183" data-name="Rectángulo 183" width="59.626" height="2.061" transform="translate(1873.954 6184.963)" fill="#f5b540"/>
          <rect id="Rectángulo_184" data-name="Rectángulo 184" width="59.626" height="2.061" transform="translate(1873.954 6187.024)" fill="#eca334"/>
          <path id="Trazado_6578" data-name="Trazado 6578" d="M1873.958,6189.088l-3.576-2.064v-2.061l3.572-2.061Z" fill="#fff"/>
          <path id="Trazado_6579" data-name="Trazado 6579" d="M1873.958,6189.088l0-2.064-3.572-.689v.689Z" fill="#e6e5e5"/>
          <path id="Trazado_6580" data-name="Trazado 6580" d="M1870.382,6187.024l-1.781-1.032,1.781-1.029Z" fill="#495057"/>
          <rect id="Rectángulo_185" data-name="Rectángulo 185" width="1.784" height="2.061" transform="translate(1933.581 6187.024)" fill="#e6e5e5"/>
          <rect id="Rectángulo_186" data-name="Rectángulo 186" width="1.784" height="4.122" transform="translate(1933.581 6182.902)" fill="#fff"/>
          <path id="Trazado_6581" data-name="Trazado 6581" d="M1935.845,6189.085h-.48v-2.061l.48,0a3.061,3.061,0,0,0,2.913-2.061,3.042,3.042,0,0,1,.179,1.032,3.091,3.091,0,0,1-3.092,3.093Z" fill="#1e262e"/>
          <path id="Trazado_6582" data-name="Trazado 6582" d="M1935.845,6187.021l-.48,0V6182.9h.48a2.106,2.106,0,1,1,0,4.122Z" fill="#495057"/>
        </g>
        <g id="Grupo_971" data-name="Grupo 971">
          <g id="Grupo_970" data-name="Grupo 970">
            <g id="Grupo_968" data-name="Grupo 968">
              <path id="Trazado_6583" data-name="Trazado 6583" d="M1910.981,6187.823a1.269,1.269,0,0,1-1.265,1.265h0a1.269,1.269,0,0,1-1.269-1.265V6182.9a1.273,1.273,0,0,1,1.269-1.268h0a1.272,1.272,0,0,1,1.265,1.268Z" fill="#343b43"/>
              <path id="Trazado_6584" data-name="Trazado 6584" d="M1913.511,6187.823a1.269,1.269,0,0,1-1.265,1.265h0a1.268,1.268,0,0,1-1.265-1.265V6182.9a1.272,1.272,0,0,1,1.265-1.268h0a1.272,1.272,0,0,1,1.265,1.268Z" fill="#343b43"/>
              <path id="Trazado_6585" data-name="Trazado 6585" d="M1916.045,6187.823a1.269,1.269,0,0,1-1.266,1.265h0a1.271,1.271,0,0,1-1.268-1.265V6182.9a1.275,1.275,0,0,1,1.268-1.268h0a1.273,1.273,0,0,1,1.266,1.268Z" fill="#343b43"/>
            </g>
            <g id="Grupo_969" data-name="Grupo 969">
              <path id="Trazado_6586" data-name="Trazado 6586" d="M1894.027,6187.823a1.271,1.271,0,0,1-1.268,1.265h0a1.269,1.269,0,0,1-1.266-1.265V6182.9a1.273,1.273,0,0,1,1.266-1.268h0a1.274,1.274,0,0,1,1.268,1.268Z" fill="#343b43"/>
              <path id="Trazado_6587" data-name="Trazado 6587" d="M1896.558,6187.823a1.269,1.269,0,0,1-1.266,1.265h0a1.269,1.269,0,0,1-1.265-1.265V6182.9a1.272,1.272,0,0,1,1.265-1.268h0a1.273,1.273,0,0,1,1.266,1.268Z" fill="#343b43"/>
              <path id="Trazado_6588" data-name="Trazado 6588" d="M1899.091,6187.823a1.269,1.269,0,0,1-1.268,1.265h0a1.268,1.268,0,0,1-1.265-1.265V6182.9a1.272,1.272,0,0,1,1.265-1.268h0a1.272,1.272,0,0,1,1.268,1.268Z" fill="#343b43"/>
            </g>
          </g>
        </g>
      </g>
    </g>
  </g>
</svg>
