<svg xmlns="http://www.w3.org/2000/svg" width="121" height="121" viewBox="0 0 121 121">
  <g id="Grupo_1500" data-name="Grupo 1500" transform="translate(-1843.769 -6329.946)">
    <path id="Trazado_5424" data-name="Trazado 5424" d="M1904.269,6329.946q2.971,0,5.93.292t5.873.871q2.914.579,5.759,1.443t5.59,2q2.746,1.137,5.368,2.538t5.092,3.052q2.472,1.652,4.769,3.537t4.4,3.987q2.1,2.1,3.987,4.4t3.537,4.768q1.651,2.472,3.052,5.093t2.539,5.367q1.137,2.747,2,5.59t1.443,5.759q.579,2.916.871,5.873t.291,5.93q0,2.974-.291,5.93t-.871,5.873q-.581,2.916-1.443,5.76t-2,5.59q-1.138,2.745-2.539,5.367t-3.052,5.092q-1.651,2.472-3.537,4.769t-3.987,4.4q-2.1,2.1-4.4,3.988t-4.769,3.536q-2.47,1.652-5.092,3.053t-5.368,2.538q-2.745,1.137-5.59,2t-5.759,1.443q-2.914.579-5.873.871t-5.93.291q-2.972,0-5.93-.291t-5.873-.871q-2.914-.581-5.759-1.443t-5.59-2q-2.746-1.137-5.367-2.538t-5.093-3.053q-2.47-1.652-4.769-3.536t-4.4-3.988q-2.1-2.1-3.987-4.4t-3.537-4.769q-1.651-2.47-3.052-5.092t-2.539-5.367q-1.137-2.747-2-5.59t-1.442-5.76q-.58-2.914-.872-5.873t-.291-5.93q0-2.971.291-5.93t.872-5.873q.579-2.914,1.442-5.759t2-5.59q1.139-2.747,2.539-5.367t3.052-5.093q1.652-2.47,3.537-4.768t3.987-4.4q2.1-2.1,4.4-3.987t4.769-3.537q2.472-1.65,5.093-3.052t5.367-2.538q2.745-1.138,5.59-2t5.759-1.443q2.915-.58,5.873-.871T1904.269,6329.946Z" fill="#ceb88d"/>
    <circle id="Elipse_63" data-name="Elipse 63" cx="53.993" cy="53.993" r="53.993" transform="matrix(0.045, -0.999, 0.999, 0.045, 1848.378, 6442.43)" fill="#fff"/>
    <g id="Grupo_974" data-name="Grupo 974">
      <path id="Trazado_6589" data-name="Trazado 6589" d="M1946.521,6365.625a48.347,48.347,0,1,0,5.4,36.578A46.547,46.547,0,0,0,1946.521,6365.625Zm.14,35.288a42.888,42.888,0,1,1-4.807-32.5A41.352,41.352,0,0,1,1946.661,6400.913Z" fill="#cb6120"/>
      <path id="Trazado_6590" data-name="Trazado 6590" d="M1897.748,6394.472l2.97-1.711a4.143,4.143,0,0,1-.092-.881,4.418,4.418,0,0,1,3.018-4.178v-3.471a15.413,15.413,0,0,1-6.381-2.012,15.572,15.572,0,0,1-.8-26.486,82.935,82.935,0,0,1-27.051,45.132c0,.54.037,1.074.078,1.6a15.565,15.565,0,0,1,28.263-8Zm.063-15.253a14.475,14.475,0,0,1,14.468-.014,12.565,12.565,0,0,0,3.08-2.985,18.7,18.7,0,0,0-20.617.007A12.568,12.568,0,0,0,1897.811,6379.219Zm-7.357,12.691a12.625,12.625,0,0,0-4.1-1.155c-.02.373-.055.743-.055,1.127a18.746,18.746,0,0,0,10.372,16.762,12.724,12.724,0,0,0,1.063-4.145A14.6,14.6,0,0,1,1890.454,6391.91Zm33.366-10.864a20.1,20.1,0,0,0-8.716-24.558c-.469-.267-.943-.5-1.426-.732a15.568,15.568,0,0,1-7.214,28.48v3.466a4.413,4.413,0,0,1,3.023,4.178,4.351,4.351,0,0,1-.092.881l2.967,1.711a15.564,15.564,0,0,1,28.261,7.989c.046-.527.083-1.058.083-1.6A20.079,20.079,0,0,0,1923.82,6381.046Zm-.01,10.836c0-.384-.039-.754-.057-1.127a12.635,12.635,0,0,0-4.1,1.155,14.591,14.591,0,0,1-7.274,12.584,12.665,12.665,0,0,0,1.058,4.146A18.743,18.743,0,0,0,1923.81,6391.882Zm-14.31,11.566a15.515,15.515,0,0,1,1.45-6.531l-2.981-1.72a4.372,4.372,0,0,1-5.825,0l-2.986,1.72a15.564,15.564,0,0,1-21.084,20.471,20.077,20.077,0,0,0,26.982-3.8,20.072,20.072,0,0,0,26.978,3.8,15.566,15.566,0,0,1-22.534-13.94Z" fill="#444242"/>
    </g>
  </g>
</svg>
