<svg xmlns="http://www.w3.org/2000/svg" width="125.529" height="125.529" viewBox="0 0 125.529 125.529">
  <g id="Grupo_413" data-name="Grupo 413" transform="translate(-3269.924 -11064.934)">
    <path id="Trazado_4290" data-name="Trazado 4290" d="M3395.453,11127.7a62.764,62.764,0,1,1-62.765-62.767A62.764,62.764,0,0,1,3395.453,11127.7Z" fill="#5fc6ff"/>
    <g id="Grupo_412" data-name="Grupo 412">
      <path id="Trazado_4291" data-name="Trazado 4291" d="M3382.04,11149.258h-98.7l12.3-21.248,6.02,5.032,3.181-13.421h8.484l2.447-11.18,18.373-8.392,3.173,9.509,10.366,1.116,9.021,11.745,10.4-1.117,10.512,21.248Z" fill="#8e8e8a"/>
      <rect id="Rectángulo_98" data-name="Rectángulo 98" width="22.063" height="22.81" transform="translate(3321.893 11126.447)" fill="#45362d"/>
      <g id="Grupo_408" data-name="Grupo 408">
        <path id="Trazado_4292" data-name="Trazado 4292" d="M3323.962,11148.841c-.063,1.269-3.389.861-3.436.142-.059-.909-.12-1.7-.12-3.809,0-6,0-12.225,0-18.222.11-1.779,3.083-.962,3.11-.335.046.993-.11,3.111-.11,4.108,0,3.223.332,6.56.224,9.78C3323.63,11143.392,3324.1,11145.953,3323.962,11148.841Z" fill="#d5caa2"/>
        <path id="Trazado_4293" data-name="Trazado 4293" d="M3341.513,11126.7c.063-1.271,3.39-.861,3.436-.142.061.906.121,1.7.121,3.8,0,6,0,12.226,0,18.226-.11,1.776-3.083.958-3.11.332-.047-.993.11-3.109.11-4.11,0-3.223-.333-6.559-.223-9.778C3341.847,11132.141,3341.374,11129.581,3341.513,11126.7Z" fill="#d9ce9f"/>
        <path id="Trazado_4294" data-name="Trazado 4294" d="M3323.786,11132.043a.666.666,0,0,1-.943.015l-.748-.726a.665.665,0,0,1-.015-.941l4.377-4.52a.666.666,0,0,1,.943-.016l.748.727a.665.665,0,0,1,.015.941Z" fill="#d5caa2"/>
        <path id="Trazado_4295" data-name="Trazado 4295" d="M3338.012,11127.643a.666.666,0,0,1,.1-.938l.809-.652a.666.666,0,0,1,.938.1l3.948,4.9a.665.665,0,0,1-.1.936l-.81.653a.667.667,0,0,1-.938-.1Z" fill="#d5caa2"/>
        <path id="Trazado_4296" data-name="Trazado 4296" d="M3345.948,11127.155c-.667.094-.916.012-1.582.055-1.5.117-2.69-.033-4.376-.043-2.812-.018-5.791-.116-8.585-.116-2.083,0-4.248-.023-6.333.116-.833.067-1.626.043-2.46.067-.5.022-1,.14-1.456.116a3.465,3.465,0,0,1-1.916-.674c-.168-.234.082-.648,0-.905a5.9,5.9,0,0,1-.219-1.354h0l.075-.382s0,0,.005,0a4.939,4.939,0,0,1,1.888-.261c1.085-.069,2.167-.069,3.25-.049,2.374.049,4.54,0,6.874.165,2.5.2,5.189.22,7.773.22,1.249,0,2.52.117,3.77.023.876-.1,1.789-.127,2.666-.149,1.623-.024,1.416.765,1.416,1.417,0,.37.336.628.335,1.021C3347.112,11126.947,3346.654,11127.062,3345.948,11127.155Z" fill="#f4e1b1"/>
      </g>
      <g id="Grupo_409" data-name="Grupo 409" opacity="0.55">
        <path id="Trazado_4297" data-name="Trazado 4297" d="M3345.072,11129.183c-.861.039-1.692.163-2.543.266-.324.059-.65.1-.974.135a14.43,14.43,0,0,1-1.863.135l-1.673-2.073a.635.635,0,0,1-.133-.51c.706.021,1.414.032,2.111.032.248,0,.479.007.708.016l.8.994c-.009-.324-.009-.647.01-.974a23.213,23.213,0,0,0,2.857.009c.258-.017.458-.017.629-.017C3345.033,11127.712,3345.061,11128.292,3345.072,11129.183Z" fill="#916f5d"/>
      </g>
      <path id="Trazado_4298" data-name="Trazado 4298" d="M3328.359,11127.06a.706.706,0,0,1-.19.47l-1.243,1.279a4.4,4.4,0,0,0-2.408.105c-.362.123-.717.218-1.051.308-.1.026-.2.046-.3.074a10.908,10.908,0,0,1-2.743.242v-2.316a3.328,3.328,0,0,0,.746.137c.459.016.954-.1,1.462-.124.3-.013.611-.013.907-.013,0,.507-.028,1.139-.057,1.739l1.749-1.806C3326.257,11127.088,3327.308,11127.071,3328.359,11127.06Z" fill="#916f5d" opacity="0.55"/>
      <path id="Trazado_4299" data-name="Trazado 4299" d="M3325.66,11149.66l-2.867-5.416-2.11,1.192-2.388-1.91-6.568,2.786-3.224-1.752-7.763,5.1Z" fill="#c4c1b8"/>
      <path id="Trazado_4300" data-name="Trazado 4300" d="M3341.488,11149.66l1.451-5.294,1.354.4,2.586-1.073,4.221,2.308,1,1.513,2.787-1.513,5.376,3.662Z" fill="#c4c1b8"/>
      <path id="Trazado_4301" data-name="Trazado 4301" d="M3371.4,11145.676l-6.689-21.02,1.749,13.193-8.753-12.315-3.668,2.7-6.967-15.6-10.864-2.548-4.06,1.985,1.986-12.021,3.173,9.509,10.366,1.116,9.021,11.745,10.4-1.117,10.512,21.248,4.424,6.707Z" fill="#916f5d" opacity="0.55"/>
      <path id="Trazado_4302" data-name="Trazado 4302" d="M3304.835,11119.621l4.3,2.327,1.513,7.4,2.668-9.726Z" fill="#916f5d" opacity="0.55"/>
      <path id="Trazado_4303" data-name="Trazado 4303" d="M3295.633,11128.01l.367,11.136,5.653-6.1Z" fill="#916f5d" opacity="0.55"/>
      <g id="Grupo_410" data-name="Grupo 410" opacity="0.55">
        <path id="Trazado_4304" data-name="Trazado 4304" d="M3347.608,11128.731c-.392.478-.631.075-.956.955a4.4,4.4,0,0,0-.076,1.436c0,.954.162,1.91.239,2.864.077,2.063.077,4.213.077,6.29,0,.973-.05,2.206.029,3.429l-.029-.021-1.807.756v-14.083c0-1.617-.038-2.456-.077-3.165a4.694,4.694,0,0,0,.956-.039c.707-.094,1.166-.209,1.117-.734.011-.391-.323-.647-.323-1.024,0-.093.008-.209.008-.3C3348.468,11125.395,3348.688,11127.653,3347.608,11128.731Z" fill="#916f5d"/>
      </g>
      <rect id="Rectángulo_99" data-name="Rectángulo 99" width="1.543" height="4.379" transform="translate(3327.383 11148.304)" fill="#6f867f"/>
      <rect id="Rectángulo_100" data-name="Rectángulo 100" width="1.543" height="4.379" transform="translate(3337.405 11148.304)" fill="#6f867f"/>
      <g id="Grupo_411" data-name="Grupo 411">
        <path id="Trazado_4305" data-name="Trazado 4305" d="M3337.052,11147.347h-7.763l-.956-8.119h9.795Z" fill="#61756f"/>
        <rect id="Rectángulo_101" data-name="Rectángulo 101" width="10.946" height="1.274" transform="translate(3327.757 11138.59)" fill="#839f97"/>
        <rect id="Rectángulo_102" data-name="Rectángulo 102" width="10.022" height="1.193" transform="translate(3328.154 11146.752)" fill="#6f867f"/>
        <rect id="Rectángulo_103" data-name="Rectángulo 103" width="1.055" height="3.821" transform="translate(3327.626 11145.437)" fill="#839f97"/>
        <rect id="Rectángulo_104" data-name="Rectángulo 104" width="1.054" height="3.821" transform="translate(3337.649 11145.437)" fill="#839f97"/>
        <path id="Trazado_4306" data-name="Trazado 4306" d="M3328.851,11138.59l2.429-2.428,1,.795,1.632-.6,1.354-1.192,1.95,1.949.438,1.474Z" fill="#fcd114"/>
      </g>
      <rect id="Rectángulo_105" data-name="Rectángulo 105" width="8.479" height="1.471" transform="translate(3328.926 11148.662)" fill="#aa783d"/>
      <rect id="Rectángulo_106" data-name="Rectángulo 106" width="8.479" height="1.471" transform="translate(3328.926 11150.694)" fill="#aa783d"/>
      <path id="Trazado_4307" data-name="Trazado 4307" d="M3328.359,11139.863l.147.841,7.188,1.031.356,4.938,1.081.078.911-6.889Z" fill="#916f5d" opacity="0.55"/>
      <path id="Trazado_4308" data-name="Trazado 4308" d="M3332.153,11134.095l.293.538.539.295-.539.294-.293.538-.3-.538-.537-.294.537-.295Z" fill="#fff"/>
      <path id="Trazado_4309" data-name="Trazado 4309" d="M3329.123,11135.756l.173.314.314.17-.314.171-.173.316-.171-.316-.315-.171.315-.17Z" fill="#fff"/>
      <path id="Trazado_4310" data-name="Trazado 4310" d="M3336.49,11136.216l.18.33.33.182-.33.182-.18.328-.182-.328-.33-.182.33-.182Z" fill="#fff"/>
    </g>
    <path id="Trazado_4311" data-name="Trazado 4311" d="M3392.516,11146.71a62.842,62.842,0,0,1-68.581,43.144l-40.592-40.592h18l-.606.4h24.922l-.206-.4h1.933v3.416h1.534v-.516h8.479v.516h1.546v-3.416h2.655l-.116.4h18.775l-.593-.4h22.371l-4.42-6.713-10.515-21.25Z" fill="#bbb6c0" opacity="0.57"/>
  </g>
</svg>
